<svg width="145" height="47" viewBox="0 0 145 47" xmlns="http://www.w3.org/2000/svg">
<path stroke="white" fill="transparent" fill-rule="evenodd" clip-rule="evenodd" d="M139.756 1L5.35739 1C2.98215 1 1.05664 2.79086 1.05664 5L1.05664 42C1.05664 44.2091 2.98215 46 5.35739 46L139.756 46C142.131 46 144.057 44.2091 144.057 42L144.057 5C144.057 2.79086 142.131 1 139.756 1Z"/>
<path fill-rule="evenodd" clip-rule="evenodd" d="M34.9514 23.097C34.9834 26.879 38.2593 28.129 38.2994 28.142C38.2793 28.23 37.7874 29.947 36.5594 31.689C35.5314 33.224 34.4564 34.724 32.7494 34.752C31.0904 34.789 30.5334 33.774 28.6294 33.774C26.7094 33.774 26.1154 34.724 24.5254 34.789C22.8984 34.85 21.6554 33.151 20.5924 31.63C18.4684 28.527 16.8134 22.882 19.0324 19.042C20.1064 17.158 22.0684 15.945 24.1624 15.912C25.7904 15.878 27.3004 17.012 28.3014 17.012C29.2824 17.012 31.1504 15.656 33.0764 15.859C33.8814 15.882 36.1754 16.176 37.6554 18.333C37.5354 18.405 34.9224 19.941 34.9514 23.097ZM31.8144 13.795C30.9214 14.848 29.4924 15.655 28.1014 15.55C27.9194 14.13 28.6244 12.617 29.4134 11.695C30.3054 10.648 31.8534 9.84602 33.0934 9.79102C33.2544 11.27 32.6694 12.725 31.8134 13.795L31.8144 13.795Z"/>
<path d="M54.7559 16.1855L54.0098 16.1855L54.0098 14.791L49.9277 14.791L49.9277 16.1895L49.1777 16.1895L49.1738 14.1777L49.6387 14.1777C49.8835 13.9017 50.0775 13.5319 50.2207 13.0684C50.3665 12.6022 50.4577 12.0918 50.4941 11.5371L50.6191 9.10352L54.0215 9.10352L54.0215 14.1777L54.7637 14.1777L54.7559 16.1855ZM50.4941 14.1777L53.2676 14.1777L53.2676 9.7207L51.3418 9.7207L51.2598 11.3926C51.2259 12.0462 51.1387 12.6035 50.998 13.0645C50.86 13.5254 50.6921 13.8965 50.4941 14.1777ZM55.3496 12.6387C55.3496 12.2246 55.4303 11.8522 55.5918 11.5215C55.7559 11.1908 55.9824 10.9355 56.2715 10.7559C56.5632 10.5762 56.8952 10.4863 57.2676 10.4863C57.8431 10.4863 58.3079 10.6855 58.6621 11.084C59.0189 11.4824 59.1973 12.0124 59.1973 12.6738L59.1973 12.7246C59.1973 13.1361 59.1178 13.5059 58.959 13.834C58.8027 14.1595 58.5775 14.4134 58.2832 14.5957C57.9915 14.778 57.6556 14.8691 57.2754 14.8691C56.7025 14.8691 56.2376 14.6699 55.8809 14.2715C55.5267 13.873 55.3496 13.3457 55.3496 12.6895L55.3496 12.6387ZM56.0762 12.7246C56.0762 13.1934 56.1842 13.5697 56.4004 13.8535C56.6191 14.1374 56.9108 14.2793 57.2754 14.2793C57.6426 14.2793 57.9342 14.1361 58.1504 13.8496C58.3665 13.5605 58.4746 13.1569 58.4746 12.6387C58.4746 12.1751 58.3639 11.8001 58.1426 11.5137C57.9238 11.2246 57.6322 11.0801 57.2676 11.0801C56.9108 11.0801 56.623 11.222 56.4043 11.5059C56.1855 11.7897 56.0762 12.196 56.0762 12.7246ZM61.7988 14.2793C62.0566 14.2793 62.2819 14.2012 62.4746 14.0449C62.6673 13.8887 62.7741 13.6934 62.7949 13.459L63.4785 13.459C63.4655 13.7012 63.3822 13.9316 63.2285 14.1504C63.0749 14.3691 62.8691 14.5436 62.6113 14.6738C62.3561 14.804 62.0853 14.8691 61.7988 14.8691C61.2233 14.8691 60.765 14.6777 60.4238 14.2949C60.0853 13.9095 59.916 13.3835 59.916 12.7168L59.916 12.5957C59.916 12.1842 59.9915 11.8184 60.1426 11.498C60.2936 11.1777 60.5098 10.929 60.791 10.752C61.0749 10.5749 61.4095 10.4863 61.7949 10.4863C62.2689 10.4863 62.6621 10.6283 62.9746 10.9121C63.2897 11.196 63.4577 11.5645 63.4785 12.0176L62.7949 12.0176C62.7741 11.7441 62.6699 11.5202 62.4824 11.3457C62.2975 11.1686 62.0684 11.0801 61.7949 11.0801C61.4277 11.0801 61.1426 11.2129 60.9395 11.4785C60.7389 11.7415 60.6387 12.123 60.6387 12.623L60.6387 12.7598C60.6387 13.2467 60.7389 13.6217 60.9395 13.8848C61.14 14.1478 61.4264 14.2793 61.7988 14.2793ZM67.4316 11.1504L66.0137 11.1504L66.0137 14.791L65.291 14.791L65.291 11.1504L63.9004 11.1504L63.9004 10.5645L67.4316 10.5645L67.4316 11.1504ZM69.5645 13.7324L70.5488 10.5645L71.3223 10.5645L69.623 15.4434C69.36 16.1465 68.9421 16.498 68.3691 16.498L68.2324 16.4863L67.9629 16.4355L67.9629 15.8496L68.1582 15.8652C68.403 15.8652 68.5931 15.8158 68.7285 15.7168C68.8665 15.6178 68.9798 15.4368 69.0684 15.1738L69.2285 14.7441L67.7207 10.5645L68.5098 10.5645L69.5645 13.7324ZM75.4277 14.791L74.7051 14.791L74.7051 11.1621L72.7598 11.1621L72.7598 14.791L72.0332 14.791L72.0332 10.5645L75.4277 10.5645L75.4277 14.791ZM80.041 14.791L79.3184 14.791L79.3184 12.9863L77.377 12.9863L77.377 14.791L76.6504 14.791L76.6504 10.5645L77.377 10.5645L77.377 12.3965L79.3184 12.3965L79.3184 10.5645L80.041 10.5645L80.041 14.791ZM81.0137 12.6387C81.0137 12.2246 81.0944 11.8522 81.2559 11.5215C81.4199 11.1908 81.6465 10.9355 81.9355 10.7559C82.2272 10.5762 82.5592 10.4863 82.9316 10.4863C83.5072 10.4863 83.972 10.6855 84.3262 11.084C84.6829 11.4824 84.8613 12.0124 84.8613 12.6738L84.8613 12.7246C84.8613 13.1361 84.7819 13.5059 84.623 13.834C84.4668 14.1595 84.2415 14.4134 83.9473 14.5957C83.6556 14.778 83.3197 14.8691 82.9395 14.8691C82.3665 14.8691 81.9017 14.6699 81.5449 14.2715C81.1908 13.873 81.0137 13.3457 81.0137 12.6895L81.0137 12.6387ZM81.7402 12.7246C81.7402 13.1934 81.8483 13.5697 82.0645 13.8535C82.2832 14.1374 82.5749 14.2793 82.9395 14.2793C83.3066 14.2793 83.5983 14.1361 83.8145 13.8496C84.0306 13.5605 84.1387 13.1569 84.1387 12.6387C84.1387 12.1751 84.028 11.8001 83.8066 11.5137C83.5879 11.2246 83.2962 11.0801 82.9316 11.0801C82.5749 11.0801 82.2871 11.222 82.0684 11.5059C81.8496 11.7897 81.7402 12.196 81.7402 12.7246ZM87.8184 14.791L87.8184 10.5645L89.4668 10.5645C90.0293 10.5645 90.4603 10.6634 90.7598 10.8613C91.0618 11.0566 91.2129 11.3444 91.2129 11.7246C91.2129 11.9199 91.1543 12.097 91.0371 12.2559C90.9199 12.4121 90.7467 12.5319 90.5176 12.6152C90.7728 12.6751 90.9772 12.7923 91.1309 12.9668C91.2871 13.1413 91.3652 13.3496 91.3652 13.5918C91.3652 13.9798 91.222 14.2767 90.9355 14.4824C90.6517 14.6882 90.2493 14.791 89.7285 14.791L87.8184 14.791ZM88.541 12.9355L88.541 14.209L89.7363 14.209C90.0384 14.209 90.2637 14.153 90.4121 14.041C90.5632 13.929 90.6387 13.7715 90.6387 13.5684C90.6387 13.1465 90.3288 12.9355 89.709 12.9355L88.541 12.9355ZM88.541 12.3574L89.4746 12.3574C90.1517 12.3574 90.4902 12.1595 90.4902 11.7637C90.4902 11.3678 90.1699 11.1634 89.5293 11.1504L88.541 11.1504L88.541 12.3574Z"/>
<path d="M58.6237 35.296L56.3527 35.296L55.1087 31.387L50.7847 31.387L49.5997 35.296L47.3887 35.296L51.6727 21.988L54.3187 21.988L58.6237 35.296ZM54.7337 29.747L53.6087 26.272C53.4897 25.917 53.2667 25.081 52.9377 23.765L52.8977 23.765C52.6982 24.6034 52.4875 25.4392 52.2657 26.272L51.1607 29.747L54.7337 29.747ZM69.6407 30.38C69.6407 32.012 69.1997 33.302 68.3177 34.249C67.5277 35.092 66.5467 35.513 65.3757 35.513C64.1117 35.513 63.2037 35.059 62.6507 34.151L62.6107 34.151L62.6107 39.206L60.4787 39.206L60.4787 28.859C60.4787 27.833 60.4517 26.78 60.3997 25.7L62.2747 25.7L62.3937 27.221L62.4337 27.221C63.1447 26.075 64.2237 25.503 65.6717 25.503C66.8037 25.503 67.7487 25.95 68.5047 26.845C69.2627 27.741 69.6407 28.919 69.6407 30.38ZM67.4687 30.458C67.4687 29.524 67.2587 28.754 66.8367 28.148C66.3757 27.516 65.7567 27.2 64.9807 27.2C64.4547 27.2 63.9767 27.376 63.5497 27.723C63.1217 28.073 62.8417 28.53 62.7107 29.096C62.6447 29.36 62.6117 29.576 62.6117 29.746L62.6117 31.346C62.6117 32.044 62.8257 32.633 63.2537 33.114C63.6817 33.595 64.2377 33.835 64.9217 33.835C65.7247 33.835 66.3497 33.525 66.7967 32.907C67.2447 32.288 67.4687 31.472 67.4687 30.458ZM80.6777 30.38C80.6777 32.012 80.2367 33.302 79.3537 34.249C78.5647 35.092 77.5837 35.513 76.4127 35.513C75.1487 35.513 74.2407 35.059 73.6887 34.151L73.6487 34.151L73.6487 39.206L71.5167 39.206L71.5167 28.859C71.5167 27.833 71.4897 26.78 71.4377 25.7L73.3127 25.7L73.4317 27.221L73.4717 27.221C74.1817 26.075 75.2607 25.503 76.7097 25.503C77.8407 25.503 78.7857 25.95 79.5437 26.845C80.2987 27.741 80.6777 28.919 80.6777 30.38ZM78.5057 30.458C78.5057 29.524 78.2947 28.754 77.8727 28.148C77.4117 27.516 76.7947 27.2 76.0177 27.2C75.4936 27.1998 74.9863 27.3851 74.5857 27.723C74.1577 28.073 73.8787 28.53 73.7477 29.096C73.6827 29.36 73.6487 29.576 73.6487 29.746L73.6487 31.346C73.6487 32.044 73.8627 32.633 74.2887 33.114C74.7167 33.594 75.2727 33.835 75.9587 33.835C76.7617 33.835 77.3867 33.525 77.8337 32.907C78.2817 32.288 78.5057 31.472 78.5057 30.458ZM93.0177 31.564C93.0177 32.696 92.6247 33.617 91.8357 34.328C90.9687 35.105 89.7617 35.493 88.2107 35.493C86.7787 35.493 85.6307 35.217 84.7617 34.664L85.2557 32.887C86.1917 33.453 87.2187 33.737 88.3377 33.737C89.1407 33.737 89.7657 33.555 90.2147 33.193C90.6617 32.831 90.8847 32.345 90.8847 31.739C90.8847 31.199 90.7007 30.744 90.3317 30.375C89.9647 30.006 89.3517 29.663 88.4957 29.346C86.1657 28.477 85.0017 27.204 85.0017 25.53C85.0017 24.436 85.4097 23.539 86.2267 22.841C87.0407 22.142 88.1267 21.793 89.4847 21.793C90.6957 21.793 91.7017 22.004 92.5047 22.425L91.9717 24.163C91.2217 23.755 90.3737 23.551 89.4247 23.551C88.6747 23.551 88.0887 23.736 87.6687 24.104C87.4984 24.2546 87.3626 24.4403 87.2706 24.6483C87.1786 24.8562 87.1326 25.0816 87.1357 25.309C87.1357 25.835 87.3387 26.27 87.7467 26.612C88.1017 26.928 88.7467 27.27 89.6827 27.639C90.8277 28.1 91.6687 28.639 92.2097 29.257C92.7487 29.873 93.0177 30.644 93.0177 31.564ZM100.067 27.3L97.7167 27.3L97.7167 31.959C97.7167 33.144 98.1307 33.736 98.9607 33.736C99.3417 33.736 99.6577 33.703 99.9077 33.637L99.9667 35.256C99.5467 35.413 98.9937 35.492 98.3087 35.492C97.4667 35.492 96.8087 35.235 96.3337 34.722C95.8607 34.208 95.6227 33.346 95.6227 32.135L95.6227 27.298L94.2227 27.298L94.2227 25.698L95.6227 25.698L95.6227 23.941L97.7167 23.309L97.7167 25.698L100.067 25.698L100.067 27.3ZM110.67 30.419C110.67 31.894 110.248 33.105 109.406 34.052C108.523 35.027 107.351 35.513 105.89 35.513C104.482 35.513 103.361 35.046 102.525 34.112C101.689 33.178 101.271 31.999 101.271 30.578C101.271 29.091 101.701 27.873 102.564 26.926C103.425 25.978 104.587 25.504 106.048 25.504C107.456 25.504 108.589 25.971 109.444 26.906C110.262 27.813 110.67 28.984 110.67 30.419ZM108.458 30.488C108.458 29.603 108.269 28.844 107.886 28.211C107.439 27.445 106.8 27.063 105.972 27.063C105.115 27.063 104.464 27.446 104.017 28.211C103.634 28.845 103.445 29.616 103.445 30.528C103.445 31.413 103.634 32.172 104.017 32.804C104.478 33.57 105.122 33.952 105.953 33.952C106.767 33.952 107.406 33.562 107.867 32.784C108.26 32.139 108.458 31.372 108.458 30.488ZM117.6 27.575C117.378 27.5349 117.153 27.5151 116.928 27.516C116.178 27.516 115.598 27.799 115.19 28.366C114.835 28.866 114.657 29.498 114.657 30.261L114.657 35.296L112.526 35.296L112.546 28.722C112.546 27.616 112.519 26.609 112.466 25.701L114.323 25.701L114.401 27.537L114.46 27.537C114.685 26.906 115.04 26.398 115.526 26.017C115.971 25.684 116.511 25.5038 117.067 25.503C117.264 25.503 117.442 25.517 117.6 25.542L117.6 27.575ZM127.135 30.044C127.14 30.3681 127.114 30.6919 127.057 31.011L120.661 31.011C120.686 31.959 120.995 32.684 121.589 33.184C122.128 33.631 122.825 33.855 123.681 33.855C124.628 33.855 125.492 33.704 126.269 33.401L126.603 34.881C125.695 35.277 124.623 35.474 123.386 35.474C121.898 35.474 120.73 35.036 119.88 34.161C119.032 33.286 118.607 32.111 118.607 30.637C118.607 29.19 119.002 27.985 119.793 27.024C120.621 25.998 121.74 25.485 123.148 25.485C124.531 25.485 125.578 25.998 126.289 27.024C126.852 27.839 127.135 28.847 127.135 30.044ZM125.102 29.491C125.116 28.859 124.977 28.313 124.688 27.852C124.319 27.259 123.752 26.963 122.989 26.963C122.292 26.963 121.725 27.252 121.292 27.832C120.937 28.293 120.726 28.846 120.661 29.49L125.102 29.49L125.102 29.491Z"/>
</svg>
