<svg width="42" height="41" viewBox="0 0 42 41" fill="none" xmlns="http://www.w3.org/2000/svg">
<ellipse cx="20.9666" cy="20.5454" rx="20.2401" ry="20.0014" fill="white" fill-opacity="0.54"/>
<path fill-rule="evenodd" clip-rule="evenodd" d="M27.7747 21.3428C27.8067 25.08 31.0826 26.3153 31.1226 26.3281C31.1026 26.4151 30.6106 28.1117 29.3826 29.8331C28.3547 31.3499 27.2798 32.8322 25.5728 32.8598C23.9139 32.8964 23.3569 31.8934 21.453 31.8934C19.5331 31.8934 18.9392 32.8322 17.3492 32.8964C15.7223 32.9567 14.4794 31.2778 13.4164 29.7748C11.2925 26.7085 9.63763 21.1304 11.8565 17.3358C12.9305 15.4741 14.8924 14.2755 16.9863 14.2429C18.6142 14.2093 20.1241 15.3299 21.1251 15.3299C22.106 15.3299 23.9739 13.9899 25.8998 14.1905C26.7048 14.2132 28.9987 14.5038 30.4786 16.6352C30.3586 16.7064 27.7457 18.2242 27.7747 21.3428ZM24.6379 12.1509C23.7449 13.1915 22.316 13.9889 20.9251 13.8852C20.7431 12.482 21.448 10.9869 22.237 10.0758C23.129 9.04119 24.6769 8.24868 25.9168 8.19434C26.0778 9.65583 25.4928 11.0936 24.6369 12.1509H24.6379Z" fill="white"/>
</svg>
