<svg width="86" height="68" viewBox="0 0 86 68" fill="none" xmlns="http://www.w3.org/2000/svg">
<path d="M83.1388 10.5456C81.4221 8.74715 79.0513 7.68441 76.3536 7.68441H62.7833V7.52091C62.7833 5.47719 61.9658 3.51521 60.576 2.20722C59.1863 0.81749 57.3061 0 55.2624 0H30.7376C28.6122 0 26.7319 0.81749 25.3422 2.20722C23.9525 3.59696 23.135 5.47719 23.135 7.52091V7.68441H9.64639C6.94867 7.68441 4.57795 8.74715 2.86122 10.5456C1.14449 12.2624 0 14.7148 0 17.3308V58.0418C0 60.7395 1.06274 63.1103 2.86122 64.827C4.57795 66.5437 7.03042 67.6882 9.64639 67.6882H76.3536C79.0513 67.6882 81.4221 66.6255 83.1388 64.827C84.8555 63.1103 86 60.6578 86 58.0418V17.3308C86 14.6331 84.9373 12.2624 83.1388 10.5456ZM81.7491 58.0418H81.6673C81.6673 59.5133 81.0951 60.8213 80.1141 61.8023C79.1331 62.7833 77.8251 63.3555 76.3536 63.3555H9.64639C8.17491 63.3555 6.86692 62.7833 5.88593 61.8023C4.90494 60.8213 4.3327 59.5133 4.3327 58.0418V17.3308C4.3327 15.8593 4.90494 14.5513 5.88593 13.5703C6.86692 12.5894 8.17491 12.0171 9.64639 12.0171H25.424C26.6502 12.0171 27.6312 11.0361 27.6312 9.80989V7.43916C27.6312 6.53992 27.9582 5.72243 28.5304 5.15019C29.1027 4.57795 29.9202 4.25095 30.8194 4.25095H55.2624C56.1616 4.25095 56.9791 4.57795 57.5513 5.15019C58.1236 5.72243 58.4506 6.53992 58.4506 7.43916V9.80989C58.4506 11.0361 59.4316 12.0171 60.6578 12.0171H76.4354C77.9068 12.0171 79.2148 12.5894 80.1958 13.5703C81.1768 14.5513 81.7491 15.8593 81.7491 17.3308V58.0418Z" fill="#343330" fill-opacity="0.8"/>
<path d="M43.0009 17.5762C37.442 17.5762 32.3735 19.8651 28.7766 23.4621C25.0979 27.1408 22.8906 32.1275 22.8906 37.6864C22.8906 43.2454 25.1796 48.3138 28.7766 51.9108C32.4553 55.5895 37.442 57.7967 43.0009 57.7967C48.5598 57.7967 53.6283 55.5077 57.2252 51.9108C60.9039 48.2321 63.1112 43.2454 63.1112 37.6864C63.1112 32.1275 60.8222 27.0591 57.2252 23.4621C53.6283 19.8651 48.5598 17.5762 43.0009 17.5762ZM54.1188 48.8861C51.2575 51.6655 47.3336 53.464 43.0009 53.464C38.6682 53.464 34.7442 51.6655 31.883 48.8861C29.0218 46.0248 27.3051 42.1009 27.3051 37.7682C27.3051 33.4355 29.1036 29.5115 31.883 26.6503C34.7442 23.7891 38.6682 22.0724 43.0009 22.0724C47.3336 22.0724 51.2575 23.8708 54.1188 26.6503C56.98 29.5115 58.6967 33.4355 58.6967 37.7682C58.7785 42.1009 56.98 46.0248 54.1188 48.8861Z" fill="#343330" fill-opacity="0.8"/>
<path d="M72.1034 25.5056C74.3156 25.5056 76.1091 23.7121 76.1091 21.4998C76.1091 19.2876 74.3156 17.4941 72.1034 17.4941C69.8911 17.4941 68.0977 19.2876 68.0977 21.4998C68.0977 23.7121 69.8911 25.5056 72.1034 25.5056Z" fill="#343330" fill-opacity="0.8"/>
</svg>
