<svg width="24" height="24" viewBox="0 0 24 24" fill="none" xmlns="http://www.w3.org/2000/svg">
<path d="M23.7066 7.05854C23.5586 6.84819 23.3599 6.74302 23.1106 6.74302H7.24138L6.02607 2.60625C5.917 2.23231 5.76898 1.9129 5.58201 1.64802C5.39504 1.38314 5.19638 1.19617 4.98603 1.0871C4.77569 0.978032 4.59262 0.904022 4.43681 0.86507C4.281 0.826117 4.12519 0.806641 3.96938 0.806641H0.767484C0.564932 0.806641 0.393541 0.876755 0.253312 1.01698C0.113083 1.15721 0.0429688 1.3364 0.0429688 1.55453C0.0429688 1.67918 0.0741307 1.79993 0.136455 1.91679C0.198779 2.03365 0.288369 2.12324 0.405227 2.18556C0.522084 2.24789 0.642837 2.27905 0.767484 2.27905H3.96938C4.0317 2.27905 4.09013 2.28684 4.14466 2.30242C4.1992 2.318 4.2732 2.38422 4.36669 2.50108C4.46018 2.61794 4.53808 2.79323 4.60041 3.02694L8.73716 18.2185C8.76832 18.312 8.81896 18.4015 8.88907 18.4872C8.95918 18.5729 9.04099 18.6392 9.13447 18.6859C9.22796 18.7326 9.32923 18.756 9.4383 18.756H19.5348C19.6906 18.756 19.8347 18.7093 19.9671 18.6158C20.0996 18.5223 20.1892 18.4054 20.2359 18.2652L23.8118 7.748C23.8897 7.4987 23.8546 7.26888 23.7066 7.05854ZM19.0206 17.2602H10.0226L7.6387 8.2388H22.0355L19.0206 17.2602ZM17.5482 20.2518C17.034 20.2518 16.5939 20.4349 16.2277 20.801C15.8616 21.1672 15.6785 21.6073 15.6785 22.1215C15.6785 22.6357 15.8616 23.0759 16.2277 23.442C16.5939 23.8082 17.034 23.9913 17.5482 23.9913C18.0624 23.9913 18.5025 23.8082 18.8687 23.442C19.2348 23.0759 19.4179 22.6357 19.4179 22.1215C19.4179 21.6073 19.2348 21.1672 18.8687 20.801C18.5025 20.4349 18.0624 20.2518 17.5482 20.2518ZM10.8172 20.2518C10.4744 20.2518 10.1589 20.3375 9.87067 20.5089C9.58242 20.6803 9.3565 20.9062 9.1929 21.1867C9.0293 21.4671 8.9475 21.7787 8.9475 22.1215C8.9475 22.6357 9.13058 23.0759 9.49673 23.442C9.86288 23.8082 10.303 23.9913 10.8172 23.9913C11.3314 23.9913 11.7716 23.8082 12.1377 23.442C12.5039 23.0759 12.6869 22.6357 12.6869 22.1215C12.6869 21.9969 12.6752 21.8722 12.6519 21.7476C12.6285 21.6229 12.5934 21.5061 12.5467 21.397C12.5 21.2879 12.4415 21.1828 12.3714 21.0815C12.3013 20.9802 12.2234 20.8867 12.1377 20.801C12.052 20.7153 11.9585 20.6374 11.8572 20.5673C11.756 20.4972 11.6508 20.4388 11.5417 20.392C11.4327 20.3453 11.3158 20.3102 11.1912 20.2869C11.0665 20.2635 10.9419 20.2518 10.8172 20.2518Z" fill="white"/>
</svg>
