<svg width="351" height="31" viewBox="0 0 351 31" fill="none" xmlns="http://www.w3.org/2000/svg">
<mask id="path-1-inside-1" fill="white">
<path fill-rule="evenodd" clip-rule="evenodd" d="M110.863 30.1211H335.042C343.327 30.1211 350.042 23.4054 350.042 15.1211C350.042 6.83682 343.327 0.121094 335.043 0.121094H110.032L125.062 15.5475L110.863 30.1211ZM107.614 0.121094H15.0195C6.73526 0.121094 0.0195312 6.83682 0.0195312 15.1211C0.0195312 23.4054 6.73523 30.1211 15.0195 30.1211H108.093L116.293 15.5473L107.614 0.121094Z"/>
</mask>
<path d="M110.863 30.1211L109.788 29.0743L107.307 31.6211H110.863V30.1211ZM110.032 0.121094V-1.37891H106.476L108.957 1.16787L110.032 0.121094ZM125.062 15.5475L126.137 16.5942L127.156 15.5475L126.137 14.5007L125.062 15.5475ZM107.614 0.121094L108.921 -0.614419L108.491 -1.37891H107.614V0.121094ZM108.093 30.1211V31.6211H108.971L109.401 30.8566L108.093 30.1211ZM116.293 15.5473L117.6 16.2828L118.014 15.5473L117.6 14.8118L116.293 15.5473ZM335.042 28.6211H110.863V31.6211H335.042V28.6211ZM348.542 15.1211C348.542 22.5769 342.498 28.6211 335.042 28.6211V31.6211C344.155 31.6211 351.542 24.2338 351.542 15.1211H348.542ZM335.043 1.62109C342.498 1.62109 348.542 7.66525 348.542 15.1211H351.542C351.542 6.0084 344.155 -1.37891 335.043 -1.37891V1.62109ZM110.032 1.62109H335.043V-1.37891H110.032V1.62109ZM108.957 1.16787L123.988 16.5942L126.137 14.5007L111.106 -0.925685L108.957 1.16787ZM123.988 14.5007L109.788 29.0743L111.937 31.1679L126.137 16.5942L123.988 14.5007ZM15.0195 1.62109H107.614V-1.37891H15.0195V1.62109ZM1.51953 15.1211C1.51953 7.66525 7.56369 1.62109 15.0195 1.62109V-1.37891C5.90683 -1.37891 -1.48047 6.0084 -1.48047 15.1211H1.51953ZM15.0195 28.6211C7.56366 28.6211 1.51953 22.5769 1.51953 15.1211H-1.48047C-1.48047 24.2338 5.9068 31.6211 15.0195 31.6211V28.6211ZM108.093 28.6211H15.0195V31.6211H108.093V28.6211ZM109.401 30.8566L117.6 16.2828L114.986 14.8118L106.786 29.3856L109.401 30.8566ZM117.6 14.8118L108.921 -0.614419L106.307 0.856607L114.986 16.2828L117.6 14.8118Z" fill="#5CAF51" mask="url(#path-1-inside-1)"/>
<path fill-rule="evenodd" clip-rule="evenodd" d="M109.353 30.1211L119.613 15.4266L109.078 0.447045V0.425781L122.624 15.4258L109.353 30.1211Z" fill="#5CAF51"/>
</svg>
