<svg width="445" height="12" viewBox="0 0 445 12" fill="none" xmlns="http://www.w3.org/2000/svg">
<path d="M0.741825 9.73322C0.674387 9.52797 0.606948 9.32271 0.606948 9.10538C0.606948 7.75308 2.14118 6.64227 4.04632 6.64227C5.95146 6.64227 7.48569 7.741 7.48569 9.10538C7.48569 9.32271 7.43511 9.52797 7.35082 9.73322C8.34554 10.2645 8.9862 11.0372 9.13794 11.9066H13.454C13.5889 11.0372 14.2464 10.2766 15.2411 9.73322C15.1737 9.52797 15.1063 9.32271 15.1063 9.10538C15.1063 7.75308 16.6405 6.64227 18.5456 6.64227C20.4508 6.64227 21.985 7.741 21.985 9.10538C21.985 9.32271 21.9344 9.52797 21.8501 9.73322C22.8449 10.2645 23.4855 11.0372 23.6373 11.9066H27.8522C27.9871 11.0372 28.6446 10.2766 29.6393 9.73322C29.5719 9.52797 29.5044 9.32271 29.5044 9.10538C29.5044 7.75308 31.0387 6.64227 32.9438 6.64227C34.8489 6.64227 36.3832 7.741 36.3832 9.10538C36.3832 9.32271 36.3326 9.52797 36.2483 9.73322C37.243 10.2645 37.8837 11.0372 38.0354 11.9066H42.3515C42.4864 11.0372 43.1439 10.2766 44.1386 9.73322C44.0712 9.52797 44.0037 9.32271 44.0037 9.10538C44.0037 7.75308 45.538 6.64227 47.4431 6.64227C49.3483 6.64227 50.8825 7.741 50.8825 9.10538C50.8825 9.32271 50.8319 9.52797 50.7476 9.73322C51.7423 10.2645 52.383 11.0372 52.5347 11.9066H57.4915C57.6263 11.0372 58.2839 10.2766 59.2786 9.73322C59.2112 9.52797 59.1437 9.32271 59.1437 9.10538C59.1437 7.75308 60.6779 6.64227 62.5831 6.64227C64.4882 6.64227 66.0225 7.741 66.0225 9.10538C66.0225 9.32271 65.9719 9.52797 65.8876 9.73322C66.8823 10.2645 67.523 11.0372 67.6747 11.9066H71.9908C72.1257 11.0372 72.7832 10.2766 73.7779 9.73322C73.7105 9.52797 73.643 9.32271 73.643 9.10538C73.643 7.75308 75.1773 6.64227 77.0824 6.64227C78.9875 6.64227 80.5218 7.741 80.5218 9.10538C80.5218 9.32271 80.4712 9.52797 80.3869 9.73322C81.3816 10.2645 82.0223 11.0372 82.174 11.9066H86.3889C86.5238 11.0372 87.1813 10.2766 88.1761 9.73322C88.1086 9.52797 88.0412 9.32271 88.0412 9.10538C88.0412 7.75308 89.5754 6.64227 91.4806 6.64227C93.3857 6.64227 94.9199 7.741 94.9199 9.10538C94.9199 9.32271 94.8694 9.52797 94.7851 9.73322C95.7798 10.2645 96.4204 11.0372 96.5722 11.9066H100.888C101.023 11.0372 101.681 10.2766 102.675 9.73322C102.608 9.52797 102.541 9.32271 102.541 9.10538C102.541 7.75308 104.075 6.64227 105.98 6.64227C107.885 6.64227 109.419 7.741 109.419 9.10538C109.419 9.32271 109.369 9.52797 109.284 9.73322C110.279 10.2645 110.92 11.0372 111.071 11.9066H115.286C115.421 11.0372 116.079 10.2766 117.074 9.73322C117.006 9.52797 116.939 9.32271 116.939 9.10538C116.939 7.75308 118.473 6.64227 120.378 6.64227C122.283 6.64227 123.817 7.741 123.817 9.10538C123.817 9.32271 123.767 9.52797 123.683 9.73322C124.677 10.2645 125.318 11.0372 125.47 11.9066H129.786C129.921 11.0372 130.578 10.2766 131.573 9.73322C131.505 9.52797 131.438 9.32271 131.438 9.10538C131.438 7.75308 132.972 6.64227 134.877 6.64227C136.782 6.64227 138.317 7.741 138.317 9.10538C138.317 9.32271 138.266 9.52797 138.182 9.73322C139.177 10.2645 139.817 11.0372 139.969 11.9066H144.926C145.061 11.0372 145.718 10.2766 146.713 9.73322C146.645 9.52797 146.578 9.32271 146.578 9.10538C146.578 7.75308 148.112 6.64227 150.017 6.64227C151.922 6.64227 153.457 7.741 153.457 9.10538C153.457 9.32271 153.406 9.52797 153.322 9.73322C154.317 10.2645 154.957 11.0372 155.109 11.9066H159.425C159.56 11.0372 160.217 10.2766 161.212 9.73322C161.145 9.52797 161.077 9.32271 161.077 9.10538C161.077 7.75308 162.612 6.64227 164.517 6.64227C166.422 6.64227 167.956 7.741 167.956 9.10538C167.956 9.32271 167.905 9.52797 167.821 9.73322C168.816 10.2645 169.457 11.0372 169.608 11.9066H172.592C172.727 11.0372 173.385 10.2766 174.38 9.73322C174.312 9.52797 174.245 9.32271 174.245 9.10538C174.245 7.75308 175.779 6.64227 177.684 6.64227C179.589 6.64227 181.123 7.741 181.123 9.10538C181.123 9.32271 181.073 9.52797 180.989 9.73322C181.983 10.2645 182.624 11.0372 182.776 11.9066H187.092C187.227 11.0372 187.884 10.2766 188.879 9.73322C188.811 9.52797 188.744 9.32271 188.744 9.10538C188.744 7.75308 190.278 6.64227 192.183 6.64227C194.089 6.64227 195.623 7.741 195.623 9.10538C195.623 9.32271 195.572 9.52797 195.488 9.73322C196.483 10.2645 197.123 11.0372 197.275 11.9066H201.49C201.625 11.0372 202.282 10.2766 203.277 9.73322C203.21 9.52797 203.142 9.32271 203.142 9.10538C203.142 7.75308 204.676 6.64227 206.582 6.64227C208.487 6.64227 210.021 7.741 210.021 9.10538C210.021 9.32271 209.97 9.52797 209.886 9.73322C210.881 10.2645 211.521 11.0372 211.673 11.9066H215.989C216.124 11.0372 216.782 10.2766 217.776 9.73322C217.709 9.52797 217.641 9.32271 217.641 9.10538C217.641 7.75308 219.176 6.64227 221.081 6.64227C222.986 6.64227 224.52 7.741 224.52 9.10538C224.52 9.32271 224.47 9.52797 224.385 9.73322C225.38 10.2645 226.021 11.0372 226.172 11.9066H231.129C231.264 11.0372 231.922 10.2766 232.916 9.73322C232.849 9.52797 232.781 9.32271 232.781 9.10538C232.781 7.75308 234.316 6.64227 236.221 6.64227C238.126 6.64227 239.66 7.741 239.66 9.10538C239.66 9.32271 239.61 9.52797 239.525 9.73322C240.52 10.2645 241.161 11.0372 241.312 11.9066H245.629C245.763 11.0372 246.421 10.2766 247.416 9.73322C247.348 9.52797 247.281 9.32271 247.281 9.10538C247.281 7.75308 248.815 6.64227 250.72 6.64227C252.625 6.64227 254.16 7.741 254.16 9.10538C254.16 9.32271 254.109 9.52797 254.025 9.73322C255.019 10.2645 255.66 11.0372 255.812 11.9066H260.027C260.162 11.0372 260.819 10.2766 261.814 9.73322C261.746 9.52797 261.679 9.32271 261.679 9.10538C261.679 7.75308 263.213 6.64227 265.118 6.64227C267.023 6.64227 268.558 7.741 268.558 9.10538C268.558 9.32271 268.507 9.52797 268.423 9.73322C269.418 10.2645 270.058 11.0372 270.21 11.9066H274.526C274.661 11.0372 275.318 10.2766 276.313 9.73322C276.246 9.52797 276.178 9.32271 276.178 9.10538C276.178 7.75308 277.712 6.64227 279.618 6.64227C281.523 6.64227 283.057 7.741 283.057 9.10538C283.057 9.32271 283.006 9.52797 282.922 9.73322C283.917 10.2645 284.557 11.0372 284.709 11.9066H288.924C289.059 11.0372 289.717 10.2766 290.711 9.73322C290.644 9.52797 290.576 9.32271 290.576 9.10538C290.576 7.75308 292.111 6.64227 294.016 6.64227C295.921 6.64227 297.455 7.741 297.455 9.10538C297.455 9.32271 297.405 9.52797 297.32 9.73322C298.315 10.2645 298.956 11.0372 299.107 11.9066H303.423C303.558 11.0372 304.216 10.2766 305.211 9.73322C305.143 9.52797 305.076 9.32271 305.076 9.10538C305.076 7.75308 306.61 6.64227 308.515 6.64227C310.42 6.64227 311.954 7.741 311.954 9.10538C311.954 9.32271 311.904 9.52797 311.82 9.73322C312.814 10.2645 313.455 11.0372 313.607 11.9066H318.563C318.698 11.0372 319.356 10.2766 320.351 9.73322C320.283 9.52797 320.216 9.32271 320.216 9.10538C320.216 7.75308 321.75 6.64227 323.655 6.64227C325.56 6.64227 327.094 7.741 327.094 9.10538C327.094 9.32271 327.044 9.52797 326.96 9.73322C327.954 10.2645 328.595 11.0372 328.747 11.9066H333.063C333.198 11.0372 333.855 10.2766 334.85 9.73322C334.782 9.52797 334.715 9.32271 334.715 9.10538C334.715 7.75308 336.249 6.64227 338.154 6.64227C340.06 6.64227 341.594 7.741 341.594 9.10538C341.594 9.32271 341.543 9.52797 341.459 9.73322C342.454 10.2645 343.094 11.0372 343.246 11.9066H347.141C347.275 11.0372 347.933 10.2766 348.928 9.73322C348.86 9.52797 348.793 9.32271 348.793 9.10538C348.793 7.75308 350.327 6.64227 352.232 6.64227C354.137 6.64227 355.672 7.741 355.672 9.10538C355.672 9.32271 355.621 9.52797 355.537 9.73322C356.531 10.2645 357.172 11.0372 357.324 11.9066H361.539C361.674 11.0372 362.331 10.2766 363.326 9.73322C363.258 9.52797 363.191 9.32271 363.191 9.10538C363.191 7.75308 364.725 6.64227 366.63 6.64227C368.536 6.64227 370.07 7.741 370.07 9.10538C370.07 9.32271 370.019 9.52797 369.935 9.73322C370.93 10.2645 371.57 11.0372 371.722 11.9066H376.038C376.173 11.0372 376.83 10.2766 377.825 9.73322C377.758 9.52797 377.69 9.32271 377.69 9.10538C377.69 7.75308 379.225 6.64227 381.13 6.64227C383.035 6.64227 384.569 7.741 384.569 9.10538C384.569 9.32271 384.518 9.52797 384.434 9.73322C385.429 10.2645 386.07 11.0372 386.221 11.9066H391.178C391.313 11.0372 391.97 10.2766 392.965 9.73322C392.898 9.52797 392.83 9.32271 392.83 9.10538C392.83 7.75308 394.364 6.64227 396.27 6.64227C398.175 6.64227 399.709 7.741 399.709 9.10538C399.709 9.32271 399.658 9.52797 399.574 9.73322C400.569 10.2645 401.21 11.0372 401.361 11.9066H405.677C405.812 11.0372 406.47 10.2766 407.464 9.73322C407.397 9.52797 407.33 9.32271 407.33 9.10538C407.33 7.75308 408.864 6.64227 410.769 6.64227C412.674 6.64227 414.208 7.741 414.208 9.10538C414.208 9.32271 414.158 9.52797 414.073 9.73322C415.068 10.2645 415.709 11.0372 415.861 11.9066H420.446C420.581 11.0372 421.239 10.2766 422.234 9.73322C422.166 9.52797 422.099 9.32271 422.099 9.10538C422.099 7.75308 423.633 6.64227 425.538 6.64227C427.443 6.64227 428.977 7.741 428.977 9.10538C428.977 9.32271 428.927 9.52797 428.843 9.73322C429.837 10.2645 430.478 11.0372 430.63 11.9066H434.946C435.081 11.0372 435.738 10.2766 436.733 9.73322C436.665 9.52797 436.598 9.32271 436.598 9.10538C436.598 7.75308 438.132 6.64227 440.037 6.64227C441.942 6.64227 443.477 7.741 443.477 9.10538C443.477 9.32271 443.426 9.52797 443.342 9.73322C443.612 9.87811 443.864 10.0472 444.084 10.2283V-0.000732422L0 5.2409e-06L3.85626e-10 10.2162C0.219176 10.0472 0.472071 9.87811 0.741825 9.73322Z" fill="#EEEDEE"/>
</svg>
