<svg width="40" height="27" viewBox="0 0 40 27" fill="none" xmlns="http://www.w3.org/2000/svg">
<rect x="0.761719" y="0.363281" width="39.1797" height="25.4879" rx="5" fill="url(#paint0_linear)"/>
<path d="M15.5414 0.285156V6.19598C15.5414 8.9574 13.3028 11.196 10.5414 11.196H5.49605C3.27615 11.196 1.47656 12.9956 1.47656 15.2155V15.2155C1.47656 17.4354 3.27615 19.2349 5.49605 19.2349H12.4824C15.8574 19.2349 17.7015 23.171 15.5414 25.7643V25.7643" stroke="#7A6A2C" stroke-width="0.8"/>
<path d="M20.3456 25.8945V20.058C20.3456 17.2966 22.5842 15.058 25.3456 15.058L34.6677 15.058C36.905 15.058 38.7188 13.2443 38.7188 11.0069V11.0069C38.7188 8.76954 36.905 6.9558 34.6677 6.9558H25.3456C22.5842 6.9558 20.3456 4.71722 20.3456 1.9558V0.349167" stroke="#7A6A2C" stroke-width="0.8"/>
<path d="M0.851563 5.84408H19.1868C21.8166 5.84408 23.9969 7.88126 24.1753 10.505L24.8957 21.1047C25.074 23.7285 27.2714 25.7656 29.9012 25.7656V25.7656V25.7656C32.4907 25.7656 34.5899 23.6664 34.5899 21.0769V10.8441C34.5899 8.08265 36.8285 5.84408 39.5899 5.84408H39.6743" stroke="#7A6A2C" stroke-width="0.8"/>
<defs>
<linearGradient id="paint0_linear" x1="20.3516" y1="0.363281" x2="20.3516" y2="25.8512" gradientUnits="userSpaceOnUse">
<stop stop-color="#C9B45E"/>
<stop offset="0.25" stop-color="#E2C655"/>
<stop offset="0.619792" stop-color="#DBC055"/>
<stop offset="0.78125" stop-color="#EBCA44"/>
<stop offset="0.942708" stop-color="#D3BB58"/>
</linearGradient>
</defs>
</svg>
