<svg width="185" height="4" viewBox="0 0 185 4" fill="none" xmlns="http://www.w3.org/2000/svg">
<path d="M15.779 4C16.505 4 16.1193 3.55284 16.2725 3.29556C17.1374 3.16693 16.6723 3.62634 16.9673 3.85911C17.5061 3.7366 17.9202 3.32619 18.3229 3.33844C18.3541 3.41807 18.4306 3.44258 18.3399 3.53446C18.9071 3.17918 20.0415 3.53445 20.6966 3.06891C20.7302 3.0865 20.7607 3.12481 20.7845 3.17918C20.7425 3.10812 20.7107 3.01297 20.6926 2.90462C20.6746 2.79627 20.671 2.67913 20.6824 2.56662C21.0057 2.56662 21.2836 2.27872 21.4055 2.56662C21.2954 2.55078 21.1865 2.6227 21.0993 2.76876L21.4367 2.64012C21.743 3.06891 20.9745 2.78714 20.9745 3.10567C21.6381 2.96478 22.4095 2.61562 22.9171 2.73201C23.0249 3.14855 21.7288 2.8729 22.4066 3.24656L21.6211 3.08729C22.2223 3.74272 21.1446 3.03829 21.6948 3.74273C22.7299 3.86524 22.8519 3.52834 23.8842 3.65085C24.1167 3.41808 23.8076 3.30781 24.0401 3.07504C25.5063 2.66463 25.1944 4.12251 26.2749 3.57121C26.5585 3.28944 26.6606 2.76876 27.4291 3.04441L27.1682 3.51608C28.1693 3.55896 27.7354 2.83614 28.7875 3.15467C28.6032 3.33843 28.002 3.31394 28.1523 3.36907C28.8329 3.7366 28.6344 3.09954 29.1562 3.09954L29.264 3.51608C30.3303 3.4487 31.5044 3.14855 32.6869 3.07504C32.6217 3.19755 32.4033 3.32619 32.6869 3.45482C34.2273 3.32357 35.77 3.42387 37.3039 3.75498L37.854 3.39356C37.9817 3.39356 38.0894 3.55896 37.9505 3.62634C38.5177 3.7611 37.9817 3.3997 38.2482 3.25881C38.5687 3.25881 38.6708 3.46095 38.4694 3.57121C39.4563 3.26493 41.2827 2.91577 42.3235 3.30168L42.1221 3.40582C42.9332 3.55283 43.0353 2.67075 43.7897 3.00766L43.645 3.06891C45.4033 3.22205 47.3488 2.8974 48.6902 3.43645C48.9454 2.9219 50.4343 3.66922 50.5449 2.9464C51.5517 3.30781 51.2624 3.43645 52.6775 3.67535C53.0576 3.70597 53.2447 3.22205 53.7098 3.14855V3.52833L54.3422 3.13017L54.6797 3.58347L55.1193 3.48545C54.9435 3.48545 54.7478 3.31393 54.7733 3.20367C55.4596 3.03216 56.4437 3.46707 56.4607 3.66309L58.08 3.34457C58.0432 3.49771 57.7737 3.54671 57.5582 3.64472C58.4232 3.2588 57.7142 4.04288 58.5082 3.6876C58.4005 3.60184 58.565 3.46095 58.582 3.38744C59.2302 3.60524 59.8883 3.6505 60.5416 3.52221L60.414 3.77948C61.6164 3.84686 62.9465 3.65697 64.2964 3.66309C63.8115 3.54058 63.9221 3.08729 64.3191 3.05053L64.4751 3.4487C64.7303 3.20368 64.0639 3.30168 64.5885 3.00153C65.0905 3.04441 64.926 3.45483 64.6367 3.58347L65.2493 3.44257C65.2862 3.56508 65.1415 3.62634 65.1047 3.77948C65.3542 3.52833 66.1596 4.17764 66.5226 3.74885L66.5567 3.86524C67.9066 3.86524 68.5163 3.73047 69.6138 3.7121C69.6365 3.36906 70.0647 3.44257 70.3937 3.16692C71.1991 3.27718 72.0953 3.54671 73.068 3.51608C73.7515 3.34457 73.2665 3.22818 73.5728 3.01991C73.6238 3.33232 74.5937 3.30781 74.0918 3.52833C75.2573 3.47932 75.5807 3.46708 77.0582 3.21593C76.8965 3.08729 76.7179 3.02604 76.8115 2.9219C77.078 2.8729 77.4183 3.05053 77.3786 3.20367H77.3077C78.9639 2.73813 81.1306 4.12251 82.4493 3.46708H82.3756L83.7425 3.13017C84.3721 3.17917 83.3653 3.36294 83.8304 3.55896C85.308 3.03216 86.1616 3.63247 87.3782 3.28331C88.3169 4.20827 90.7161 3.22205 91.9838 3.81011L91.91 3.58959C92.239 3.38132 92.3071 3.71822 92.551 3.76723C92.5141 3.59571 92.1936 3.57121 92.3978 3.45482C95.1771 3.19142 98.1349 3.77335 100.982 3.96937C102.026 4.0245 101.575 2.84226 102.888 3.35681L102.516 3.7611C104.618 3.27106 106.816 3.76111 108.875 3.36294C108.753 3.45483 108.75 3.57733 108.549 3.57733C108.982 3.87136 110.157 3.57734 110.162 3.35069C110.485 3.35069 110.239 3.57121 110.446 3.69372C110.883 3.86524 111.54 3.31394 111.773 3.60796C111.813 3.65697 111.651 3.70597 111.572 3.72435C111.855 3.58346 112.896 3.7611 112.624 3.42419C113.395 3.58346 114.101 3.27106 114.717 3.4732C115.119 3.09341 116.041 3.65697 116.169 3.11792C116.112 3.67534 117.521 3.56508 118.012 3.30781C117.848 3.4732 118.437 3.47933 118.245 3.7121C118.812 3.7121 119.314 3.60184 119.217 3.31394C120.244 3.98163 121.282 2.78102 121.86 3.63247C123.517 3.33232 125.048 3.13017 126.537 3.01991C126.486 3.57122 124.892 3.07504 124.954 3.63247C126.372 3.40582 127.184 2.92803 128.585 3.06279C128.948 3.13629 128.38 3.30169 128.258 3.3997C129.676 3.16692 130.987 3.4487 132.229 3.14855C132.229 3.19755 132.09 3.25268 131.962 3.29556C132.209 3.29556 132.529 3.3752 132.509 3.12405L132.268 3.19755C131.874 2.83002 133.252 2.43186 133.298 2.24196C132.875 2.95866 134.537 2.4196 133.865 3.33231C134.027 3.28331 134.231 3.16692 134.194 2.99541C134.435 3.04441 134.514 3.14242 134.268 3.33231C135.155 3.19755 134.835 2.92802 135.643 2.93415C135.643 3.05666 135.479 3.10567 135.396 3.24656C135.88 2.92224 136.387 2.79754 136.891 2.87902C136.848 2.95253 136.928 3.04441 136.727 3.04441C137.892 3.00766 138.712 2.43185 139.994 2.64012C139.616 3.16692 140.427 2.81776 140.495 3.25268L141.185 3.11792L140.901 2.89739C141.505 2.89739 142.035 2.57274 142.554 2.71976L142.109 2.90965L143.244 2.82389L142.603 2.64625C143.212 2.41348 142.537 2.07044 143.34 2.19908C143.649 2.24227 143.956 2.3344 144.259 2.47473C144.6 2.26904 144.956 2.20667 145.308 2.29097C145.424 2.43186 145.215 2.79327 145.291 2.90353C145.575 2.52374 146.709 2.79938 147.075 2.38897C146.95 2.48698 146.944 2.72588 146.984 2.77488L147.231 2.46248C147.514 2.56662 147.551 2.6095 147.514 2.80551C148.365 2.86064 147.248 2.19295 148.246 2.47473C148.167 2.47473 148.204 2.54211 148.042 2.59112C149.043 2.71975 149.976 2.3951 150.895 2.54824C151.178 3.00766 150.092 2.6585 150.401 3.05053C151.729 2.96478 153.149 2.49923 154.431 2.60337L154.193 2.55436C154.372 1.90505 155.149 2.87289 155.798 2.55436C155.639 2.60337 155.588 2.91577 155.631 2.84227C156.51 2.9464 157.429 2.683 158.75 2.48086L158.586 2.64625C159.102 2.79939 159.95 2.732 160.509 2.81164C160.673 2.64012 160.994 2.67075 160.792 2.42573C162.517 3.3752 164.082 1.9173 165.613 2.7075C165.429 2.7075 165.177 2.85452 165.33 2.85452L166.634 2.70138C166.532 2.4196 166.464 2.52987 166.189 2.30934C166.463 2.10456 166.751 2.00503 167.04 2.01531C166.453 2.19908 167.04 2.4686 167.298 2.62787C167.255 2.53598 167.343 2.4441 167.321 2.35222C168.001 2.86064 167.437 1.78254 168.364 2.12558L168.316 2.27259C168.661 2.13681 169.01 2.06101 169.36 2.04594C169.516 2.3706 168.991 2.19296 168.966 2.46248C169.493 2.46248 170.006 1.84992 170.483 2.16845C170.259 2.26033 169.938 2.26646 169.714 2.35222C170.022 2.60385 170.35 2.72248 170.678 2.70138H170.642L171.535 2.8729L171.305 2.76876C171.966 1.91731 172.649 2.61562 173.537 2.05207C172.686 2.585 173.395 2.35835 173.33 2.73201C173.557 2.83615 173.897 2.95253 173.804 3.05667C174.223 2.75651 174.504 3.28944 175.097 2.85452C175.122 2.97091 175.545 2.85452 175.451 3.16692C175.999 3.06891 175.321 2.95865 175.369 2.80551C176.22 2.40123 177.354 3.30168 178.557 2.74426C179.6 2.51148 179.793 2.1317 180.763 1.90505C181.089 2.10107 180.497 2.33997 180.497 2.33997C180.966 2.49546 181.445 2.49546 181.914 2.33997C181.812 2.44411 181.915 2.52987 182.068 2.66463C182.468 2.66463 182.334 2.22971 182.862 2.40736C182.741 2.61095 182.606 2.77219 182.462 2.88515C182.933 2.77489 183.398 2.55437 183.88 2.44411C184.007 2.65238 183.596 2.76263 183.412 2.89739C183.959 2.79939 184.83 2.70751 185 2.37673L184.648 2.26034C184.847 2.26034 184.75 2.54211 184.603 2.60337C184.135 2.86064 183.928 2.48698 183.902 2.37059L184.248 2.29097C183.891 1.59265 182.856 2.40735 182.158 2.36447L182.442 1.85605L181.727 2.27871C181.574 2.14395 181.472 1.86218 181.815 1.78254C181.316 1.5314 181.373 1.96631 180.945 1.68453C180.896 1.64165 180.916 1.61715 180.962 1.59878L180.474 1.74579C180.567 1.64166 180.392 1.39051 180.692 1.46401C179.816 1.16998 179.274 1.8438 178.948 1.46401H179.019C177.802 1.63553 178.903 1.83767 177.99 2.27871L177.374 1.35376L177.255 1.72742C177.13 1.72742 176.881 1.68453 176.929 1.53752C176.461 1.79479 177.008 1.69678 176.736 1.94181C176.132 1.59877 175.069 2.10108 174.932 1.5069C174.717 1.78867 175.5 1.72129 174.867 1.92343C174.683 1.28024 174.121 2.03369 173.568 1.73966C173.738 1.40888 174.26 1.5804 173.707 1.28637C173.375 1.8438 172.632 1.16386 172.167 1.28637C172.145 1.73354 171.155 1.47626 170.375 1.62327C170.423 1.47626 168.903 1.37826 168.177 1.21899L168.197 1.14548C168.058 1.59265 167.307 1.50689 166.762 1.59878C166.782 1.32925 166.881 1.22512 167.176 1.10261H166.663C166.47 1.28579 166.261 1.37769 166.05 1.37213L166.178 1.03522C165.494 1.03522 164.802 1.43339 163.909 1.20674C163.861 1.51914 164.61 2.0827 163.679 2.29097C163.645 2.11945 163.611 1.83155 163.852 1.76417C163.708 1.83905 163.558 1.86181 163.41 1.83155L163.781 1.54365C163.379 1.42114 163.572 1.78254 163.251 1.75804C163.251 1.51301 163.013 1.58653 163.061 1.39051C163.141 1.39051 163.345 1.49464 163.461 1.39051C163.14 1.3805 162.822 1.25632 162.519 1.02297C162.551 1.15773 162.519 1.34763 162.256 1.37825C161.572 1.37825 162.023 1.08423 161.623 0.96172C161.459 1.13324 161.022 0.961712 161.011 1.31699C160.953 1.31892 160.895 1.29611 160.841 1.24987C160.787 1.20362 160.738 1.13485 160.696 1.04748C160.344 1.20674 159.045 1.09648 159.445 1.48239H159.536H159.476C158.319 1.8438 157.069 1.28024 155.92 1.43338V1.31087C155.234 1.45176 154.392 1.39663 153.901 1.6539C153.697 1.6539 153.422 1.43339 153.51 1.2925C153.065 1.44409 152.613 1.44409 152.168 1.2925C152.696 1.08423 151.987 1.10873 152.707 1.13936C152.026 1.03522 151.873 0.839204 151.139 1.13936C151.388 0.833079 150.625 0.747323 150.302 0.845332L150.781 1.06585C150.446 1.1029 150.11 1.1029 149.775 1.06585L149.948 0.661563C148.552 0.165392 147.432 1.50689 146.372 0.661563C146.003 0.949465 147.129 0.863704 146.8 1.19449C146.156 1.13936 145.487 0.581928 145.288 0.581928C144.409 0.355282 144.466 1.19449 143.547 1.02297C143.666 1.16386 143.777 1.55589 143.088 1.69066C142.447 1.63553 142.299 1.07811 142.705 0.96172C142.858 0.96172 142.932 0.998473 142.926 1.04748C143.133 0.992347 143.405 0.931084 143.153 0.771819L143.068 0.918836C142.75 0.771823 141.865 0.790195 142.075 0.551298C141.587 0.686061 141.865 0.790201 142.225 0.863708C141.403 0.649313 140.938 0.863705 140.09 0.716691C140.226 0.796324 140.351 0.967845 140.215 0.96172C138.973 0.784078 139.667 1.23737 138.825 1.30475C138.346 1.08423 138.998 0.771827 138.15 0.96172C137.631 0.80858 138.04 0.575807 138.247 0.453296C137.472 0.735072 136.8 0.269526 136.361 0.220521L136.766 0.104134C136.553 0.158049 136.338 0.180561 136.122 0.171515L136.355 0.459418C136.114 0.410414 135.913 0.410414 135.915 0.287903C135.672 0.477796 136.105 0.771824 135.618 1.03522C135.297 0.882084 134.645 1.18836 134.537 0.802449C135.538 0.937212 134.427 0.41654 135.275 0.355284C135.074 0.404351 134.871 0.404351 134.67 0.355284C134.634 0.312405 134.704 0.275653 134.77 0.251151C133.811 -0.0918814 134.33 0.686065 133.335 0.679939C133.462 0.459419 133.105 0.269522 132.943 0.312401C133.343 0.312401 133.133 0.673816 132.768 0.845332C132.129 0.673816 132.076 0.967843 131.741 0.949466L132.121 1.0291C131.993 1.2435 131.673 1.21899 131.23 1.28637C131.191 1.11486 131.633 1.16998 131.474 1.09647C130.981 1.47626 130.36 0.698314 129.674 0.955588C129.353 0.808574 129.642 0.551299 129.362 0.447164C128.59 0.728941 128.528 0.153142 127.717 0.385914C127.949 0.673816 128 0.60643 127.433 0.888207L128.763 0.686061L127.912 1.10873C128.315 1.10873 128.763 0.92496 129.001 0.973964C128.593 1.21286 128.636 1.13935 128.828 1.38438C128.278 0.943335 127.737 1.63553 127.101 1.3415L127.121 0.61868C126.165 0.294024 125.42 0.992348 124.183 0.80858L124.58 0.93109C124.416 1.21899 123.814 0.973966 123.412 1.09035C123.451 0.851454 123.199 0.759571 123.026 0.612558C123.049 0.790199 122.119 0.612554 122.005 1.0781L121.438 0.759575C120.437 0.624812 120.304 1.44564 119.331 1.37213C119.614 1.10873 119.183 0.937216 119.83 0.759575C119.507 0.759575 119.217 0.716694 119.212 0.882084C119.025 0.728945 118.321 1.20674 118.026 0.980096C117.868 1.21903 117.677 1.33754 117.485 1.31699C117.445 1.26799 117.485 1.20062 117.485 1.20062C117.485 1.317 116.917 1.35988 117.235 1.62941C116.245 0.87596 114.467 1.68454 113.605 1.01685C112.902 1.09648 112.057 1.17611 111.419 1.19449C111.461 1.12098 111.419 1.07197 111.54 1.09647C110.661 0.875953 111.002 1.7948 110.001 1.54365C109.49 1.15161 110.531 1.32925 110.213 1.18224C110.074 0.385916 109.005 1.2925 108.333 0.826956L108.497 0.777951C107.981 0.508425 107.241 1.0781 106.399 1.02297C106.399 1.02297 106.441 0.95559 106.399 0.90046C105.832 1.31087 104.737 1.44563 103.926 1.55589C104.178 1.24349 104.295 1.39051 104.141 1.07198C103.778 1.12098 104.246 1.5804 103.523 1.68453C103.288 1.51302 102.766 1.36601 102.698 1.0291H103.379C103.03 0.58806 102.497 1.0291 102.136 0.967842L102.182 0.777951C101.135 0.839206 101.121 1.317 99.9982 1.28637L100.114 1.42726C99.499 1.90506 99.5983 1.15773 98.98 1.51302L98.7957 1.0291C98.3902 1.14549 97.3777 1.50076 96.6489 1.58652C97.2355 1.24464 97.8325 0.992861 98.4356 0.833079C98.0357 0.833079 97.0715 0.86983 96.8616 1.10873C97.0331 1.01768 97.2102 0.986657 97.3862 1.01685C96.7591 1.44028 96.1031 1.62882 95.4465 1.57428C95.5883 0.637064 93.3592 1.3415 92.7778 0.612558C91.3599 0.961715 89.9674 0.465547 88.3169 0.520678C88.9011 1.24962 87.8348 0.520674 87.9369 1.2925C87.749 1.35815 87.5575 1.35815 87.3697 1.2925L86.2069 0.845332C85.9234 0.630937 86.5699 0.679937 86.5359 0.514546C85.6851 0.459416 86.1843 0.196018 85.6256 0C85.739 0.2634 85.342 0.37979 84.8542 0.281781L85.5292 0.624811C84.3522 1.02297 84.5139 0.0122508 83.3256 0.392036L83.7028 0.153139C83.0931 0.294028 81.4567 0.153139 80.8669 0.765697C80.7591 0.679939 80.6173 0.471674 80.8839 0.416544C79.4319 0.330786 77.6481 1.02909 76.5194 0.686061L76.6299 0.508424C76.3464 0.557428 76.1563 0.851453 75.816 0.667685C75.833 0.588053 75.9266 0.483923 75.816 0.471672C75.462 0.647872 75.0985 0.719983 74.7355 0.686061L75.0418 0.477794C73.6238 0.238897 72.8667 0.980091 71.6756 1.09035C71.6756 0.551301 70.5639 0.373661 70.0052 0.287903L70.025 0.208267C68.3745 0.147012 67.2203 0.655435 65.6917 0.869831C64.7417 0.257273 62.4757 0.624806 60.95 0.294025C61.1825 0.392034 60.9131 0.716689 60.6409 0.771819C60.2836 0.661559 59.6511 1.14548 59.7079 0.64931H59.8355C59.5519 0.165389 58.8287 0.294026 58.2558 0.275649L58.219 0.986218C56.7188 0.0428794 54.2827 1.32925 53.4631 0.490048C53.1001 0.649313 52.652 0.649315 52.2919 0.80858L52.3117 0.46554C51.3049 0.373657 50.8058 0.330786 49.5637 0.416544L49.8161 0.165393C49.1156 0.165393 48.9313 1.16386 48.2847 1.18836L48.0918 0.667685C46.8695 0.667685 45.6302 0.220518 44.4249 0.667685C44.4448 0.594179 44.4788 0.441043 44.6773 0.422666C44.1101 0.422666 42.4511 0.0735062 42.661 0.784073C42.6468 0.318529 41.399 0.735065 40.741 0.943334L40.8431 0.600304C40.4186 1.0243 39.958 1.25372 39.4904 1.27412C39.306 1.23124 39.3287 1.00459 39.5726 1.09035C38.9601 0.91271 39.0933 1.415 38.3503 1.23124L38.6339 1.01072C38.3147 0.928262 37.9913 1.04965 37.7037 1.35988C37.3067 1.49464 36.5041 1.27412 36.4105 0.96172C36.1708 1.28079 35.8862 1.4046 35.608 1.31087C35.5569 1.19449 35.693 1.12711 35.7611 1.09035C34.7033 0.85758 34.19 1.48852 33.4612 1.15161C33.447 1.03523 33.3988 0.980094 33.3392 0.949466C34.19 0.949466 34.8564 0.949467 34.7912 0.998472C34.7912 0.686067 34.1134 0.630939 34.6523 0.196023C34.1077 0.428795 33.1776 0.949469 32.5168 0.80858C32.4847 0.786192 32.4549 0.750847 32.4289 0.704437L32.4969 0.667685C32.3576 0.642837 32.2173 0.659326 32.08 0.716691C31.8985 0.665474 31.7158 0.634808 31.5327 0.624811C31.4533 0.361412 30.7557 0.483923 30.4153 0.471672C30.4437 0.814704 30.0013 0.759569 30.4153 1.04135C30.3615 1.04135 30.4806 1.00459 30.6989 0.986218C30.7474 0.983929 30.7958 0.973688 30.8436 0.955588H30.8209H31.6717C31.3773 1.1862 31.0585 1.23083 30.7528 1.08423C30.5798 1.30475 30.387 1.5314 30.2792 1.64166C29.817 1.15774 28.9265 0.900463 28.8017 0.606435C27.7694 0.796328 26.3684 0.728943 25.719 1.37825C25.4354 1.46401 25.3815 1.19449 25.2709 1.09035C25.4276 1.06865 25.5831 1.01948 25.736 0.943334C25.149 1.10873 23.9948 1.01072 23.8558 1.45789C23.1156 1.25575 24.2727 1.04135 23.2546 1.12098L23.3907 0.980096C21.4055 0.257278 20.1407 2.1317 17.923 1.20674C18.0761 1.26187 18.1527 1.28637 18.1839 1.366C15.6571 0.955587 12.9743 1.74579 10.4815 1.10261C9.77249 0.967843 9.69591 1.25575 9.26201 1.47627L9.10887 1.10873L8.36869 1.53752C7.31939 1.84992 6.55085 0.624812 5.22363 1.21899L5.39379 1.46401C4.91735 1.42113 3.88506 1.61103 3.97581 1.32925C3.9269 1.40561 3.87057 1.45689 3.81111 1.47918C3.75165 1.50147 3.69062 1.49419 3.63266 1.45789L3.61848 1.26187L2.44439 1.59265C1.53689 1.45177 2.5862 0.826949 1.26181 0.790195C0.768353 0.863702 -0.141991 1.35375 0.0423451 1.48239C0.243697 1.48239 0.552817 1.60491 0.566997 1.7948L0.116083 1.89893C0.0338401 2.46861 -0.312141 3.05054 0.793878 3.4487L1.56526 3.09954L1.81198 3.37519H1.16539C1.44727 3.54738 1.74814 3.5019 2.01617 3.24656C2.10611 3.42034 2.21936 3.52763 2.33946 3.55284L3.09667 3.00766C3.18742 3.23431 2.75635 3.4487 3.26399 3.57733C3.61848 3.32006 2.92367 3.07504 3.51071 2.90965C3.87939 3.16692 3.77162 3.38131 4.20552 3.15467C4.26508 3.30168 4.17432 3.39969 4.00416 3.46095C4.38702 3.2833 5.02227 3.38744 5.22079 3.08729C5.60648 3.40582 6.52249 3.00153 6.48562 3.54058C6.81868 3.29068 7.16599 3.14023 7.51791 3.09342C6.87131 3.74273 8.8423 3.13017 8.67214 3.82848C9.14858 3.24655 10.3992 3.56509 11.2472 3.24656C11.1811 3.32377 11.1067 3.36181 11.0316 3.35681C11.3429 3.40629 11.6514 3.51701 11.9533 3.6876C12.0157 3.2098 12.7587 3.07504 13.1586 2.80551C13.7428 3.26493 12.8041 3.36907 12.9885 3.81011C12.9573 3.4242 14.0037 3.4242 13.8052 3.09954C14.2505 3.38744 14.1909 3.24043 14.4206 3.63859C14.5 3.02604 14.8375 3.53446 15.2062 3.16692C15.8556 3.46095 15.3735 3.73047 16.0853 3.5467C16.4114 3.7856 15.779 4 15.779 4ZM32.6898 2.95865H32.341H32.6898ZM34.1078 2.95865C33.9348 2.95865 33.7192 2.95865 33.4895 2.95865C33.4413 2.84227 33.4895 2.71975 33.637 2.72588C33.5633 2.78713 33.8979 2.85452 34.1134 2.95253L34.1078 2.95865ZM31.1016 0.575806C31.3257 0.526801 31.4023 0.575805 31.4334 0.661563C31.3257 0.661563 31.2009 0.661558 31.0393 0.704437L31.0109 0.747321C31.0338 0.670404 31.0662 0.608873 31.1045 0.569683L31.1016 0.575806Z" fill="#EE3823"/>
</svg>
