<svg width="17" height="25" viewBox="0 0 17 25" fill="none" xmlns="http://www.w3.org/2000/svg">
<path d="M8.49991 -0.000976562C3.81299 -0.000976562 0 4.01564 0 8.95286C0 11.2209 1.35664 14.4254 4.0324 18.4774C5.98818 21.4394 7.91175 23.7315 7.99279 23.8277L8.49991 24.4301L9.00721 23.8277C9.08808 23.7315 11.0116 21.4394 12.9676 18.4774C15.6432 14.4254 17 11.2209 17 8.95286C17 4.01564 13.1868 -0.000976562 8.49991 -0.000976562ZM11.8619 17.6502C10.5399 19.6536 9.2038 21.3777 8.49991 22.2573C7.79779 21.3802 6.46664 19.6625 5.14556 17.6618C2.66639 13.9074 1.35593 10.8958 1.35593 8.95286C1.35593 4.80335 4.56076 1.42737 8.49991 1.42737C12.4392 1.42737 15.6439 4.80335 15.6439 8.95286C15.6439 10.8938 14.3361 13.9013 11.8619 17.6502Z" fill="white"/>
<path d="M8.50095 3.30664C5.73477 3.30664 3.48438 5.67721 3.48438 8.59112C3.48438 11.505 5.73477 13.8758 8.50095 13.8758C11.2673 13.8758 13.5177 11.505 13.5177 8.59112C13.5177 5.67721 11.2673 3.30664 8.50095 3.30664ZM8.50095 12.4474C6.48254 12.4474 4.84031 10.7175 4.84031 8.59112C4.84031 6.46491 6.48254 4.73498 8.50095 4.73498C10.5195 4.73498 12.1618 6.46491 12.1618 8.59112C12.1618 10.7175 10.5195 12.4474 8.50095 12.4474Z" fill="white"/>
</svg>
