<svg width="25" height="19" viewBox="0 0 25 19" fill="none" xmlns="http://www.w3.org/2000/svg">
<path d="M11.8066 4.51367C11.8066 2.85682 10.4635 1.51367 8.80664 1.51367C7.14979 1.51367 5.80664 2.85682 5.80664 4.51367C5.80664 6.17053 7.14979 7.51367 8.80664 7.51367C10.4635 7.51367 11.8066 6.17053 11.8066 4.51367Z" stroke="#EE3823" stroke-width="2" stroke-linecap="round" stroke-linejoin="round"/>
<path d="M11.8066 4.51367L23.8066 4.51367" stroke="#EE3823" stroke-width="2" stroke-linecap="round" stroke-linejoin="round"/>
<path d="M1.92969 4.51367L5.19754 4.51367" stroke="#EE3823" stroke-width="2" stroke-linecap="round" stroke-linejoin="round"/>
<path d="M13.9297 14.5137C13.9297 16.1705 15.2728 17.5137 16.9297 17.5137C18.5865 17.5137 19.9297 16.1705 19.9297 14.5137C19.9297 12.8568 18.5865 11.5137 16.9297 11.5137C15.2728 11.5137 13.9297 12.8568 13.9297 14.5137Z" stroke="#EE3823" stroke-width="2" stroke-linecap="round" stroke-linejoin="round"/>
<path d="M13.9297 14.5137H1.92969" stroke="#EE3823" stroke-width="2" stroke-linecap="round" stroke-linejoin="round"/>
<path d="M23.8066 14.5137L20.5388 14.5137" stroke="#EE3823" stroke-width="2" stroke-linecap="round" stroke-linejoin="round"/>
</svg>
