<svg width="145" height="47" viewBox="0 0 145 47" xmlns="http://www.w3.org/2000/svg">
<path stroke="white" fill="transparent" fill-rule="evenodd" clip-rule="evenodd" d="M139.444 1L5.66954 1C3.12191 1 1.05664 3.06638 1.05664 5.61538L1.05664 41.3846C1.05664 43.9336 3.12191 46 5.66954 46L139.444 46C141.991 46 144.057 43.9336 144.057 41.3846L144.057 5.61539C144.057 3.06638 141.991 1 139.444 1Z"/>
<path d="M13.0838 11.9609L23.9484 22.747L26.9265 19.7678L13.7576 12.164C13.5532 12.0417 13.3217 11.9719 13.0838 11.9609ZM12.1745 12.4629C12.0701 12.6497 12.016 12.8604 12.0176 13.0744L12.0176 34.0338C12.0176 34.2023 12.0522 34.3534 12.1122 34.4884L23.2272 23.452L12.1734 12.4629L12.1745 12.4629ZM27.8357 20.2859L24.6534 23.452L27.8357 26.6031L31.7242 24.3762C32.2769 24.0577 32.3553 23.6516 32.3507 23.437C32.3449 23.0793 32.1199 22.747 31.7392 22.5428C31.408 22.3651 28.9492 20.932 27.8357 20.2859ZM23.9472 24.1581L12.9892 35.0215C13.1874 35.0157 13.3813 34.9623 13.5545 34.8657C13.9826 34.6165 22.663 29.5973 22.663 29.5973L26.9426 27.1362L23.9484 24.1581L23.9472 24.1581Z"/>
<path fill-rule="evenodd" clip-rule="evenodd" d="M113.384 35.9197L115.34 35.9197L115.34 22.8188L113.384 22.8188L113.384 35.9197ZM130.999 27.5381L128.757 33.2185L128.689 33.2185L126.362 27.5381L124.257 27.5381L127.745 35.4766L125.755 39.8935L127.795 39.8935L133.172 27.5381L130.999 27.5381ZM119.908 34.4323C119.266 34.4323 118.373 34.1116 118.373 33.32C118.373 32.3081 119.485 31.9204 120.447 31.9204C121.306 31.9204 121.711 32.105 122.233 32.3589C122.161 32.9271 121.886 33.4501 121.459 33.8313C121.031 34.2124 120.48 34.426 119.908 34.4323ZM120.143 27.2519C118.727 27.2519 117.261 27.875 116.654 29.2573L118.39 29.9819C118.761 29.2573 119.452 29.0219 120.177 29.0219C121.189 29.0219 122.217 29.6288 122.233 30.7065L122.233 30.8415C121.88 30.6396 121.12 30.3362 120.194 30.3362C118.322 30.3362 116.419 31.3642 116.419 33.2866C116.419 35.0393 117.952 36.1677 119.672 36.1677C120.987 36.1677 121.711 35.5793 122.166 34.887L122.233 34.887L122.233 35.8989L124.122 35.8989L124.122 30.875C124.122 28.55 122.385 27.2519 120.143 27.2519ZM108.058 29.1327L105.277 29.1327L105.277 24.6419L108.058 24.6419C109.52 24.6419 110.35 25.8534 110.35 26.8873C110.35 27.9027 109.52 29.1338 108.058 29.1338L108.058 29.1327ZM108.007 22.8188L103.322 22.8188L103.322 35.9197L105.277 35.9197L105.277 30.9569L108.007 30.9569C110.176 30.9569 112.306 29.3877 112.306 26.8873C112.306 24.388 110.175 22.8188 108.007 22.8188ZM82.4562 34.4346C81.1062 34.4346 79.9743 33.3039 79.9743 31.7496C79.9743 30.1804 81.105 29.0311 82.455 29.0311C83.79 29.0311 84.8366 30.1804 84.8366 31.7496C84.8366 33.3027 83.79 34.4346 82.4562 34.4346ZM84.7016 28.2719L84.6335 28.2719C84.195 27.7481 83.3504 27.2761 82.2866 27.2761C80.0585 27.2761 78.015 29.2342 78.015 31.7496C78.015 34.2489 80.0573 36.1908 82.2866 36.1908C83.3504 36.1908 84.195 35.7177 84.6335 35.1777L84.7016 35.1777L84.7016 35.8193C84.7016 37.5247 83.79 38.4362 82.3212 38.4362C81.1212 38.4362 80.3793 37.5754 80.0758 36.8485L78.3693 37.5581C78.8596 38.7397 80.16 40.1924 82.3212 40.1924C84.6173 40.1924 86.5593 38.8424 86.5593 35.5493L86.5593 27.5461L84.7016 27.5461L84.7016 28.2719ZM87.9093 35.9197L89.8685 35.9197L89.8685 22.8188L87.9093 22.8188L87.9093 35.9197ZM92.7554 31.5985C92.7047 29.8758 94.0893 28.9977 95.085 28.9977C95.8616 28.9977 96.5204 29.3865 96.7397 29.9438L92.7554 31.5985ZM98.8327 30.1123C98.4623 29.1165 97.3304 27.2761 95.017 27.2761C92.7208 27.2761 90.8135 29.0819 90.8135 31.7335C90.8135 34.2316 92.7047 36.1908 95.2373 36.1908C97.2797 36.1908 98.4624 34.9412 98.9516 34.2154L97.432 33.2023C96.9254 33.9454 96.2331 34.4346 95.2373 34.4346C94.2416 34.4346 93.532 33.9789 93.0762 33.0846L99.0358 30.6188L98.8327 30.1111L98.8327 30.1123ZM51.3496 28.6434L51.3496 30.5346L55.875 30.5346C55.7389 31.5985 55.3858 32.375 54.8446 32.915C54.1869 33.5727 53.1566 34.2996 51.3496 34.2996C48.5643 34.2996 46.3858 32.0542 46.3858 29.2688C46.3858 26.4823 48.5643 24.2369 51.3496 24.2369C52.8531 24.2369 53.9504 24.8276 54.7604 25.5869L56.0943 24.253C54.9635 23.173 53.46 22.3457 51.3496 22.3457C47.5339 22.3457 44.3262 25.453 44.3262 29.2688C44.3262 33.0835 47.5339 36.1908 51.3496 36.1908C53.4093 36.1908 54.9635 35.5147 56.1785 34.2489C57.4281 32.9992 57.8169 31.2431 57.8169 29.825C57.8169 29.3865 57.7823 28.9815 57.7154 28.6434L51.3496 28.6434ZM62.9608 34.4346C61.6096 34.4346 60.4454 33.32 60.4454 31.7335C60.4454 30.1296 61.6096 29.0311 62.9608 29.0311C64.3108 29.0311 65.4762 30.1285 65.4762 31.7335C65.4762 33.32 64.3108 34.4335 62.9608 34.4335L62.9608 34.4346ZM62.9608 27.2761C60.495 27.2761 58.4862 29.15 58.4862 31.7335C58.4862 34.2996 60.495 36.1908 62.9608 36.1908C65.4254 36.1908 67.4343 34.2985 67.4343 31.7335C67.4343 29.1488 65.4254 27.2761 62.9608 27.2761ZM72.7212 34.4346C71.3712 34.4346 70.2058 33.32 70.2058 31.7335C70.2058 30.1296 71.3712 29.0311 72.7212 29.0311C74.0712 29.0311 75.2366 30.1285 75.2366 31.7335C75.2366 33.32 74.0712 34.4335 72.7212 34.4335L72.7212 34.4346ZM72.7212 27.2761C70.2554 27.2761 68.2466 29.15 68.2466 31.7335C68.2466 34.2996 70.2554 36.1908 72.7212 36.1908C75.1858 36.1908 77.1958 34.2985 77.1958 31.7335C77.1958 29.1488 75.1858 27.2761 72.7212 27.2761Z"/>
<path d="M47.9043 10.1855C47.9043 9.88346 47.7936 9.64388 47.5723 9.4668C47.3535 9.28711 47.0449 9.19727 46.6465 9.19727C46.3132 9.19727 46.0332 9.28971 45.8066 9.47461C45.5827 9.6569 45.4707 9.88346 45.4707 10.1543L44.7207 10.1543C44.7207 9.85221 44.8027 9.58138 44.9668 9.3418C45.1335 9.10221 45.3652 8.91602 45.6621 8.7832C45.959 8.64779 46.2871 8.58008 46.6465 8.58008C47.2819 8.58008 47.7754 8.72331 48.127 9.00977C48.4785 9.29362 48.6543 9.68945 48.6543 10.1973C48.6543 10.4603 48.5736 10.6999 48.4121 10.916C48.2507 11.1322 48.0254 11.3027 47.7363 11.4277C48.4056 11.6517 48.7402 12.0957 48.7402 12.7598C48.7402 13.2702 48.5501 13.6751 48.1699 13.9746C47.7897 14.2741 47.2819 14.4238 46.6465 14.4238C46.2689 14.4238 45.9251 14.3574 45.6152 14.2246C45.3079 14.0892 45.0684 13.8978 44.8965 13.6504C44.7246 13.403 44.6387 13.1087 44.6387 12.7676L45.3887 12.7676C45.3887 13.0671 45.5072 13.3171 45.7441 13.5176C45.9811 13.7155 46.2819 13.8145 46.6465 13.8145C47.0553 13.8145 47.3809 13.7194 47.623 13.5293C47.8678 13.3392 47.9902 13.0879 47.9902 12.7754C47.9902 12.1087 47.5775 11.7689 46.752 11.7559L46.0488 11.7559L46.0488 11.1387L46.748 11.1387C47.1283 11.1309 47.416 11.0449 47.6113 10.8809C47.8066 10.7168 47.9043 10.485 47.9043 10.1855ZM52.2324 14.3457C52.1908 14.2624 52.1569 14.1139 52.1309 13.9004C51.7949 14.2493 51.3939 14.4238 50.9277 14.4238C50.5111 14.4238 50.1686 14.3066 49.9004 14.0723C49.6348 13.8353 49.502 13.5358 49.502 13.1738C49.502 12.7337 49.6686 12.3926 50.002 12.1504C50.3379 11.9056 50.8092 11.7832 51.416 11.7832L52.1191 11.7832L52.1191 11.4512C52.1191 11.1986 52.0436 10.998 51.8926 10.8496C51.7415 10.6986 51.5189 10.623 51.2246 10.623C50.9668 10.623 50.7507 10.6882 50.5762 10.8184C50.4017 10.9486 50.3145 11.1061 50.3145 11.291L49.5879 11.291C49.5879 11.0801 49.6621 10.877 49.8105 10.6816C49.9616 10.4837 50.1647 10.3275 50.4199 10.2129C50.6777 10.0983 50.9603 10.041 51.2676 10.041C51.7546 10.041 52.1361 10.1634 52.4121 10.4082C52.6882 10.6504 52.8314 10.985 52.8418 11.4121L52.8418 13.3574C52.8418 13.7454 52.8913 14.054 52.9902 14.2832L52.9902 14.3457L52.2324 14.3457ZM51.0332 13.7949C51.2598 13.7949 51.4746 13.7363 51.6777 13.6191C51.8809 13.502 52.028 13.3496 52.1191 13.1621L52.1191 12.2949L51.5527 12.2949C50.6673 12.2949 50.2246 12.554 50.2246 13.0723C50.2246 13.2988 50.3001 13.4759 50.4512 13.6035C50.6022 13.7311 50.7962 13.7949 51.0332 13.7949ZM56.7051 10.7168L54.7559 10.7168L54.7559 14.3457L54.0293 14.3457L54.0293 10.1191L56.7051 10.1191L56.7051 10.7168ZM60.9043 12.2793C60.9043 12.9225 60.7572 13.4408 60.4629 13.834C60.1686 14.2272 59.7702 14.4238 59.2676 14.4238C58.7546 14.4238 58.3509 14.2611 58.0566 13.9355L58.0566 15.9707L57.334 15.9707L57.334 10.1191L57.9941 10.1191L58.0293 10.5879C58.3236 10.2233 58.7324 10.041 59.2559 10.041C59.7637 10.041 60.1647 10.2324 60.459 10.6152C60.7559 10.998 60.9043 11.5306 60.9043 12.2129L60.9043 12.2793ZM60.1816 12.1973C60.1816 11.7207 60.0801 11.3444 59.877 11.0684C59.6738 10.7923 59.3952 10.6543 59.041 10.6543C58.6035 10.6543 58.2754 10.8483 58.0566 11.2363L58.0566 13.2559C58.2728 13.6413 58.6035 13.834 59.0488 13.834C59.3952 13.834 59.6699 13.6973 59.873 13.4238C60.0788 13.1478 60.1816 12.7389 60.1816 12.1973ZM63.1621 13.2871L64.1465 10.1191L64.9199 10.1191L63.2207 14.998C62.9577 15.7012 62.5397 16.0527 61.9668 16.0527L61.8301 16.041L61.5605 15.9902L61.5605 15.4043L61.7559 15.4199C62.0007 15.4199 62.1908 15.3704 62.3262 15.2715C62.4642 15.1725 62.5775 14.9915 62.666 14.7285L62.8262 14.2988L61.3184 10.1191L62.1074 10.1191L63.1621 13.2871ZM67.8926 11.2754C67.8926 11.0775 67.8171 10.9212 67.666 10.8066C67.515 10.6895 67.3079 10.6309 67.0449 10.6309C66.7897 10.6309 66.5762 10.6973 66.4043 10.8301C66.235 10.9629 66.1504 11.1191 66.1504 11.2988L65.4316 11.2988C65.4316 10.9316 65.5853 10.6309 65.8926 10.3965C66.1999 10.1621 66.584 10.0449 67.0449 10.0449C67.5397 10.0449 67.9251 10.1517 68.2012 10.3652C68.4772 10.5762 68.6152 10.8783 68.6152 11.2715C68.6152 11.4616 68.5579 11.6361 68.4434 11.7949C68.3288 11.9538 68.166 12.0801 67.9551 12.1738C68.4473 12.3405 68.6934 12.6686 68.6934 13.1582C68.6934 13.5462 68.5436 13.8535 68.2441 14.0801C67.9447 14.3066 67.5449 14.4199 67.0449 14.4199C66.5579 14.4199 66.1556 14.3014 65.8379 14.0645C65.5228 13.8249 65.3652 13.502 65.3652 13.0957L66.084 13.0957C66.084 13.3014 66.1751 13.4785 66.3574 13.627C66.5423 13.7728 66.7715 13.8457 67.0449 13.8457C67.321 13.8457 67.5436 13.7819 67.7129 13.6543C67.8822 13.5267 67.9668 13.3613 67.9668 13.1582C67.9668 12.9212 67.8952 12.752 67.752 12.6504C67.6113 12.5462 67.3913 12.4941 67.0918 12.4941L66.3691 12.4941L66.3691 11.8848L67.1543 11.8848C67.6465 11.8717 67.8926 11.6686 67.8926 11.2754ZM72.3652 10.1191L73.0879 10.1191L73.0879 14.3457L72.3652 14.3457L72.3652 11.2637L70.416 14.3457L69.6934 14.3457L69.6934 10.1191L70.416 10.1191L70.416 13.2051L72.3652 10.1191ZM77.3887 10.7051L75.9707 10.7051L75.9707 14.3457L75.248 14.3457L75.248 10.7051L73.8574 10.7051L73.8574 10.1191L77.3887 10.1191L77.3887 10.7051ZM79.5332 14.4238C78.9603 14.4238 78.4941 14.2363 78.1348 13.8613C77.7754 13.4837 77.5957 12.9798 77.5957 12.3496L77.5957 12.2168C77.5957 11.7975 77.6751 11.4238 77.834 11.0957C77.9954 10.765 78.2194 10.5072 78.5059 10.3223C78.7949 10.1348 79.1074 10.041 79.4434 10.041C79.9928 10.041 80.4199 10.222 80.7246 10.584C81.0293 10.946 81.1816 11.4642 81.1816 12.1387L81.1816 12.4395L78.3184 12.4395C78.3288 12.8561 78.4499 13.1934 78.6816 13.4512C78.916 13.7064 79.2129 13.834 79.5723 13.834C79.8275 13.834 80.0436 13.7819 80.2207 13.6777C80.3978 13.5736 80.5527 13.4355 80.6855 13.2637L81.127 13.6074C80.7728 14.1517 80.2415 14.4238 79.5332 14.4238ZM79.4434 10.6348C79.1517 10.6348 78.9069 10.7415 78.709 10.9551C78.5111 11.166 78.3887 11.4629 78.3418 11.8457L80.459 11.8457L80.459 11.791C80.4382 11.4238 80.3392 11.14 80.1621 10.9395C79.985 10.7363 79.7454 10.6348 79.4434 10.6348ZM87.459 14.3457L86.7363 14.3457L86.7363 12.541L84.7949 12.541L84.7949 14.3457L84.0684 14.3457L84.0684 10.1191L84.7949 10.1191L84.7949 11.9512L86.7363 11.9512L86.7363 10.1191L87.459 10.1191L87.459 14.3457ZM91.2324 14.3457C91.1908 14.2624 91.1569 14.1139 91.1309 13.9004C90.7949 14.2493 90.3939 14.4238 89.9277 14.4238C89.5111 14.4238 89.1686 14.3066 88.9004 14.0723C88.6348 13.8353 88.502 13.5358 88.502 13.1738C88.502 12.7337 88.6686 12.3926 89.002 12.1504C89.3379 11.9056 89.8092 11.7832 90.416 11.7832L91.1191 11.7832L91.1191 11.4512C91.1191 11.1986 91.0436 10.998 90.8926 10.8496C90.7415 10.6986 90.5189 10.623 90.2246 10.623C89.9668 10.623 89.7507 10.6882 89.5762 10.8184C89.4017 10.9486 89.3145 11.1061 89.3145 11.291L88.5879 11.291C88.5879 11.0801 88.6621 10.877 88.8105 10.6816C88.9616 10.4837 89.1647 10.3275 89.4199 10.2129C89.6777 10.0983 89.9603 10.041 90.2676 10.041C90.7546 10.041 91.1361 10.1634 91.4121 10.4082C91.6882 10.6504 91.8314 10.985 91.8418 11.4121L91.8418 13.3574C91.8418 13.7454 91.8913 14.054 91.9902 14.2832L91.9902 14.3457L91.2324 14.3457ZM90.0332 13.7949C90.2598 13.7949 90.4746 13.7363 90.6777 13.6191C90.8809 13.502 91.028 13.3496 91.1191 13.1621L91.1191 12.2949L90.5527 12.2949C89.6673 12.2949 89.2246 12.554 89.2246 13.0723C89.2246 13.2988 89.3001 13.4759 89.4512 13.6035C89.6022 13.7311 89.7962 13.7949 90.0332 13.7949Z"/>
</svg>
