<svg width="41" height="41" viewBox="0 0 41 41" fill="none" xmlns="http://www.w3.org/2000/svg">
<ellipse cx="20.4451" cy="20.5454" rx="20.2401" ry="20.0014" fill="white" fill-opacity="0.54"/>
<path d="M28.3755 17.8896L25.1934 21.0183L28.3755 24.1322L32.2638 21.9316C32.8164 21.6169 32.8949 21.2156 32.8903 21.0035C32.8845 20.65 32.6595 20.3217 32.2788 20.1199C31.9476 19.9443 29.4889 18.5282 28.3755 17.8896Z" fill="#FDBB09"/>
<path d="M13.6465 9.63281L24.5106 20.2913L27.4885 17.3473L14.3203 9.83349C14.1159 9.71264 13.8844 9.64369 13.6465 9.63281Z" fill="#5CAF51"/>
<path d="M24.4946 21.6865L13.5371 32.4214C13.7353 32.4157 13.9293 32.3629 14.1025 32.2675C14.5305 32.0212 23.2105 27.0614 23.2105 27.0614L27.4899 24.6293L24.4958 21.6865H24.4946Z" fill="#DC2832"/>
<path d="M12.7175 10.1299C12.6131 10.3145 12.559 10.5227 12.5606 10.7342V31.4457C12.5606 31.6121 12.5952 31.7615 12.6552 31.8949L23.7696 20.989L12.7163 10.1299H12.7175Z" fill="#3FB4E7"/>
</svg>
