<svg width="29" height="30" viewBox="0 0 29 30" fill="none" xmlns="http://www.w3.org/2000/svg">
<path d="M28.6445 12.2581C28.454 11.5715 28.2142 10.8271 27.9104 10.0439C27.48 8.93439 27.0099 7.97626 26.5589 7.16994L26.3033 6.77413H20.8409L22.2026 2.58058H25.8726V0.645097H21.0131L19.0229 6.77413H13.5938C13.1728 2.96032 10.2972 0 6.82353 0C3.06104 0 0 3.47303 0 7.74194C0 10.6827 1.44619 13.3277 3.72713 14.6425C3.70688 14.9753 3.69608 15.3095 3.69608 15.6452C3.69608 19.4795 5.01211 23.0843 7.40177 25.7955C9.79137 28.5068 12.9686 30 16.348 30C19.7275 30 22.9047 28.5068 25.2943 25.7955C27.684 23.0843 29 19.4795 29 15.6452C29 14.4968 28.8802 13.3625 28.6445 12.2581ZM26.2402 10.3226H6.45591C6.68996 9.76413 6.96119 9.22516 7.26786 8.70968H25.4283C25.7349 9.22516 26.0062 9.76413 26.2402 10.3226ZM11.8697 6.77419H8.39243L9.78864 3.01194C10.8703 3.88735 11.6401 5.22806 11.8697 6.77419ZM8.25169 2.16587L6.75888 6.18852L4.14359 2.79736C4.92357 2.25116 5.84162 1.93548 6.82353 1.93548C7.31903 1.93548 7.79821 2.01606 8.25169 2.16587ZM2.86037 4.07258L5.31343 7.25342L1.72766 8.27052C1.71379 8.09594 1.70588 7.91974 1.70588 7.74194C1.70588 6.35129 2.13918 5.07348 2.86037 4.07258ZM2.16124 10.1426L4.9789 9.34336C4.84044 9.66419 4.71267 9.99077 4.59576 10.3226H4.57933L4.38139 10.9757L3.99273 12.2581H4.05158C4.02895 12.3641 4.00735 12.4705 3.98687 12.5771C3.18153 11.9706 2.55285 11.1246 2.16124 10.1426ZM16.348 28.0645C10.3123 28.0645 5.40196 22.4932 5.40196 15.6452C5.40196 14.4921 5.54048 13.3558 5.81427 12.2581H26.8818C27.1556 13.3558 27.2941 14.4921 27.2941 15.6452C27.2941 22.4932 22.3837 28.0645 16.348 28.0645Z" fill="white"/>
<path d="M15.6372 25.1613C15.6372 24.6269 16.0191 24.1936 16.4901 24.1936C16.9612 24.1936 17.3431 24.6269 17.3431 25.1613C17.3431 25.6958 16.9612 26.1291 16.4901 26.1291C16.0191 26.1291 15.6372 25.6958 15.6372 25.1613Z" fill="white"/>
<path d="M12.2257 23.8705C12.2257 23.336 12.6076 22.9028 13.0786 22.9028C13.5497 22.9028 13.9316 23.336 13.9316 23.8705C13.9316 24.405 13.5497 24.8383 13.0786 24.8383C12.6076 24.8383 12.2257 24.405 12.2257 23.8705Z" fill="white"/>
<path d="M19.0494 23.8705C19.0494 23.336 19.4313 22.9028 19.9024 22.9028C20.3734 22.9028 20.7553 23.336 20.7553 23.8705C20.7553 24.405 20.3734 24.8383 19.9024 24.8383C19.4313 24.8383 19.0494 24.405 19.0494 23.8705Z" fill="white"/>
</svg>
