<svg width="25" height="30" viewBox="0 0 25 30" fill="none" xmlns="http://www.w3.org/2000/svg">
<path d="M21.8633 9.28612C21.8633 9.68066 21.6097 10.0004 21.2969 10.0004C20.984 10.0004 20.7305 9.68066 20.7305 9.28612C20.7305 8.89159 20.984 8.57184 21.2969 8.57184C21.6097 8.57184 21.8633 8.89159 21.8633 9.28612Z" fill="white"/>
<path d="M15.0664 10.7145C15.0664 11.109 14.8129 11.4288 14.5 11.4288C14.1871 11.4288 13.9336 11.109 13.9336 10.7145C13.9336 10.3199 14.1871 10.0002 14.5 10.0002C14.8129 10.0002 15.0664 10.3199 15.0664 10.7145Z" fill="white"/>
<path d="M9.40234 9.28612C9.40234 9.68066 9.14879 10.0004 8.83594 10.0004C8.52309 10.0004 8.26953 9.68066 8.26953 9.28612C8.26953 8.89159 8.52309 8.57184 8.83594 8.57184C9.14879 8.57184 9.40234 8.89159 9.40234 9.28612Z" fill="white"/>
<path d="M24.3717 12.8571H23.56C23.3451 10.6557 22.152 8.91267 20.6516 8.61607C20.4652 6.57645 19.4394 4.92327 18.1043 4.43415C18.5215 3.29799 18.74 2.03153 18.74 0.714286C18.74 0.319754 18.5226 0 18.2545 0H17.2835C15.1333 0 13.2761 1.87946 12.4303 4.58036C11.5957 1.90597 9.75249 0 7.57366 0H6.60268C6.33452 0 6.11719 0.319754 6.11719 0.714286C6.11719 2.03181 6.33566 3.29827 6.75288 4.43415C5.41778 4.92355 4.39199 6.57645 4.20557 8.61607C2.7051 8.91267 1.51204 10.6557 1.29717 12.8571H0.485491C0.217333 12.8571 0 13.1769 0 13.5714C0 19.8917 2.68822 24.8502 6.79688 26.9445V29.2857C6.79688 29.6802 7.01421 30 7.28237 30H17.5748C17.8429 30 18.0603 29.6802 18.0603 29.2857V26.9445C22.1678 24.8507 24.8571 19.8937 24.8571 13.5714C24.8571 13.1769 24.6398 12.8571 24.3717 12.8571ZM17.2835 1.42773H17.7426C17.6577 2.56808 17.369 3.64369 16.8955 4.57087C16.8953 4.57087 16.8953 4.57115 16.8953 4.57115C16.0614 6.20564 14.7874 7.14286 13.3996 7.14286H12.9408C13.1832 3.93304 15.0383 1.42773 17.2835 1.42773ZM7.57366 1.42857C9.85831 1.42857 11.6806 3.97991 11.9165 7.14286H11.4576C10.2899 7.14286 9.19285 6.47433 8.36789 5.26004C7.67834 4.24554 7.22471 2.90848 7.11453 1.42857H7.57366ZM17.0893 28.5714H7.76786V27.1429H17.0893V28.5714ZM17.4983 25.7143H7.35879C3.58448 23.9308 1.18187 19.5985 0.984257 14.2857H14.3705C14.6387 14.2857 14.856 13.966 14.856 13.5714C14.856 13.1769 14.6387 12.8571 14.3705 12.8571H2.28219C2.50768 11.2288 3.48833 10 4.66071 10C4.92887 10 5.14621 9.68025 5.14621 9.28571C5.14621 7.42829 6.11491 5.89816 7.34817 5.73019C7.45343 5.91713 7.56456 6.09821 7.68138 6.26981C8.68953 7.75419 10.0305 8.57143 11.4576 8.57143H13.3996C15.0083 8.57143 16.4915 7.54046 17.5095 5.73019C18.7424 5.89872 19.7109 7.42857 19.7109 9.28571C19.7109 9.68025 19.9283 10 20.1964 10C21.3686 10 22.3495 11.2288 22.575 12.8571H18.2545C17.9863 12.8571 17.769 13.1769 17.769 13.5714C17.769 13.966 17.9863 14.2849 18.2545 14.2849H23.8729C23.6753 19.5977 21.2727 23.9308 17.4983 25.7143Z" fill="white"/>
<path d="M19.5977 13.5709C19.5977 13.9654 19.3441 14.2851 19.0312 14.2851C18.7184 14.2851 18.4648 13.9654 18.4648 13.5709C18.4648 13.1763 18.7184 12.8566 19.0312 12.8566C19.3441 12.8566 19.5977 13.1763 19.5977 13.5709Z" fill="white"/>
</svg>
