<svg width="23" height="23" viewBox="0 0 23 23" fill="none" xmlns="http://www.w3.org/2000/svg">
<path fill-rule="evenodd" clip-rule="evenodd" d="M1.18834 19.9471C0.642865 20.5 0.648911 21.3904 1.20184 21.9359C1.75477 22.4814 2.6452 22.4753 3.19068 21.9224L11.4767 13.5231L19.8753 21.8085C20.4283 22.354 21.3187 22.3479 21.8642 21.795C22.4096 21.2421 22.4036 20.3516 21.8507 19.8062L13.452 11.5208L21.7368 3.12264C22.2823 2.56971 22.2763 1.67928 21.7233 1.13381C21.1704 0.588334 20.28 0.594382 19.7345 1.14731L11.4496 9.54545L3.05092 1.26002C2.49799 0.714544 1.60756 0.72059 1.06209 1.27352C0.516615 1.82645 0.522662 2.71688 1.07559 3.26235L9.47432 11.5478L1.18834 19.9471Z"/>
</svg>
