<svg width="26" height="25" viewBox="0 0 26 25" fill="transparent" xmlns="http://www.w3.org/2000/svg">
<path d="M14.0053 5.80273H13.1719V6.63616H14.0053V5.80273Z" fill="#343330" fill-opacity="0.75"/>
<path d="M14.0053 7.46875H13.1719V8.30218H14.0053V7.46875Z" fill="#343330" fill-opacity="0.75"/>
<path d="M13.1694 6.63574H12.3359V7.46917H13.1694V6.63574Z" fill="#343330" fill-opacity="0.75"/>
<path d="M14.8373 6.63574H14.0039V7.46917H14.8373V6.63574Z" fill="#343330" fill-opacity="0.75"/>
<path d="M21.5053 9.96973H20.6719V10.8032H21.5053V9.96973Z" fill="#343330" fill-opacity="0.75"/>
<path d="M21.5053 11.6367H20.6719V12.4701H21.5053V11.6367Z" fill="#343330" fill-opacity="0.75"/>
<path d="M20.6694 10.8027H19.8359V11.6362H20.6694V10.8027Z" fill="#343330" fill-opacity="0.75"/>
<path d="M22.3373 10.8027H21.5039V11.6362H22.3373V10.8027Z" fill="#343330" fill-opacity="0.75"/>
<path d="M14.3854 17.7158C14.3648 17.6698 14.336 17.6279 14.3005 17.5922L7.21631 10.5081C7.05317 10.3457 6.78934 10.3464 6.62697 10.5095C6.59145 10.5452 6.56264 10.5871 6.54207 10.633L0.708055 23.5512C0.614398 23.7614 0.708836 24.0078 0.919069 24.1015C0.971627 24.1249 1.02846 24.1372 1.08602 24.1376C1.14508 24.1376 1.20353 24.125 1.25729 24.1005L14.1755 18.2665C14.3855 18.1724 14.4795 17.9259 14.3854 17.7158ZM1.91945 22.8874L7.0513 11.5236L13.2833 17.7552L1.91945 22.8874Z" fill="#343330" fill-opacity="0.75"/>
<path d="M10.2141 5.20554C10.1082 5.00119 9.85674 4.92139 9.65239 5.02729C9.45607 5.12902 9.37335 5.36639 9.46404 5.56808C9.89982 6.33124 10.0076 7.23848 9.76282 8.08254C9.50836 8.73204 9.02909 9.26857 8.41225 9.59439C8.20373 9.69184 8.11372 9.93989 8.21118 10.1484C8.30864 10.3569 8.55669 10.4469 8.7652 10.3495C9.58181 9.93245 10.2155 9.2284 10.5446 8.37258C10.8735 7.31625 10.754 6.17122 10.2141 5.20554Z" fill="#343330" fill-opacity="0.75"/>
<path d="M19.9197 13.3125C15.4321 12.3911 13.644 16.004 13.6273 16.0407C13.537 16.2524 13.6354 16.4972 13.8471 16.5875C14.0452 16.6721 14.2751 16.5916 14.3774 16.402C14.4382 16.277 15.913 13.3395 19.753 14.1284C19.9801 14.1655 20.1943 14.0115 20.2315 13.7843C20.2665 13.5698 20.1308 13.3643 19.9197 13.3125Z" fill="#343330" fill-opacity="0.75"/>
<path d="M17.3309 5.31234C17.2948 5.08503 17.0813 4.93006 16.854 4.96616C16.6267 5.00226 16.4717 5.21582 16.5078 5.44309C16.5087 5.44871 16.5097 5.45429 16.5108 5.45981C16.8534 7.3617 16.585 8.94271 15.7141 10.1591C14.3389 12.081 11.8832 12.471 11.859 12.4748C11.6314 12.5088 11.4745 12.7209 11.5085 12.9485C11.539 13.1523 11.7138 13.3032 11.9199 13.3036C11.9404 13.3037 11.9609 13.3022 11.9811 13.2991C12.0953 13.2824 14.7994 12.8607 16.3867 10.6517C17.398 9.24447 17.7156 7.44759 17.3309 5.31234Z" fill="#343330" fill-opacity="0.75"/>
<path d="M16.5032 0.801758C15.5826 0.801549 14.8361 1.54768 14.8359 2.46825C14.8358 2.91039 15.0114 3.3344 15.324 3.64709C15.6358 3.96067 16.0601 4.13652 16.5024 4.13548C17.423 4.13569 18.1695 3.38956 18.1697 2.46898C18.1699 1.54841 17.4237 0.801966 16.5032 0.801758ZM17.1122 3.03733C17.1055 3.04426 17.0987 3.05113 17.0917 3.05785C16.7621 3.37284 16.2429 3.37284 15.9133 3.05785C15.5879 2.7324 15.5879 2.20484 15.9133 1.87938C16.233 1.5483 16.7606 1.53914 17.0917 1.85891C17.4228 2.17864 17.432 2.70625 17.1122 3.03733Z" fill="#343330" fill-opacity="0.75"/>
<path d="M25.1855 5.45715C24.8737 5.14357 24.4494 4.96771 24.0071 4.96875C23.0865 4.96855 22.3401 5.71468 22.3398 6.63525C22.3396 7.55583 23.0858 8.30227 24.0063 8.30248C24.9269 8.30269 25.6733 7.55656 25.6736 6.63598C25.6737 6.19385 25.4981 5.76979 25.1855 5.45715ZM24.5965 7.22464C24.5964 7.2247 24.5963 7.22475 24.5963 7.2248C24.2666 7.53979 23.7475 7.53979 23.4178 7.2248C23.0923 6.8994 23.0922 6.37168 23.4177 6.04617C23.7431 5.72067 24.2708 5.72056 24.5963 6.04602C24.9218 6.37147 24.9219 6.89914 24.5965 7.22464Z" fill="#343330" fill-opacity="0.75"/>
<path d="M19.8467 15.9375H19.8425C19.6112 15.9386 19.4246 16.1271 19.4258 16.3584C19.4269 16.5897 19.6154 16.7762 19.8467 16.7751C20.0779 16.774 20.2645 16.5855 20.2634 16.3542C20.2622 16.1246 20.0763 15.9386 19.8467 15.9375Z" fill="#343330" fill-opacity="0.75"/>
<path d="M8.58733 6.21875H7.75391V7.05218H8.58733V6.21875Z" fill="#343330" fill-opacity="0.75"/>
</svg>
