<svg width="30" height="30" viewBox="0 0 30 30" fill="none" xmlns="http://www.w3.org/2000/svg">
<path d="M6.81465 8.36834C7.0179 8.24712 7.08439 7.98417 6.96317 7.78092C6.75398 7.43006 6.66493 7.09354 6.69857 6.78061C6.72239 6.55903 6.79791 6.4153 6.90251 6.21645C7.00516 6.02126 7.12147 5.80001 7.1931 5.4852C7.32186 4.9191 7.24206 4.30118 6.95586 3.64864C6.86086 3.43197 6.60826 3.33337 6.39141 3.42843C6.17474 3.52348 6.07608 3.77615 6.1712 3.99288C6.38204 4.47369 6.44477 4.91184 6.3576 5.29515C6.31092 5.50057 6.23363 5.64749 6.14418 5.81767C6.02404 6.04611 5.88797 6.30494 5.84667 6.6891C5.79275 7.19088 5.92082 7.70586 6.22729 8.21981C6.3496 8.42506 6.61426 8.48784 6.81465 8.36834V8.36834ZM24.4543 11.0974C24.6576 10.9762 24.7241 10.7132 24.6029 10.51C24.3937 10.1592 24.3047 9.82267 24.3383 9.50969C24.3621 9.2881 24.4376 9.14432 24.5422 8.94547C24.6449 8.75027 24.7611 8.52908 24.8328 8.21427C24.9616 7.64817 24.8818 7.03025 24.5956 6.37777C24.5006 6.1611 24.2481 6.06256 24.0311 6.1575C23.8145 6.25255 23.7158 6.50527 23.8109 6.72195C24.0218 7.20282 24.0845 7.64097 23.9974 8.02422C23.9506 8.22969 23.8733 8.37662 23.7839 8.54679C23.6638 8.77523 23.5277 9.03412 23.4864 9.41823C23.4325 9.92007 23.5605 10.4351 23.867 10.949C23.9893 11.1541 24.2539 11.2169 24.4543 11.0974V11.0974ZM26.4439 15.8661C26.6472 15.7448 26.7137 15.4819 26.5924 15.2786C26.3833 14.9278 26.2943 14.5913 26.3278 14.2783C26.3517 14.0568 26.4272 13.9131 26.5318 13.7142C26.6344 13.519 26.7507 13.2977 26.8223 12.983C26.9512 12.417 26.8714 11.7991 26.5852 11.1464C26.4902 10.9297 26.2374 10.8311 26.0208 10.9261C25.8041 11.0211 25.7054 11.2738 25.8005 11.4905C26.0114 11.9715 26.0741 12.4096 25.9869 12.7929C25.9402 12.9983 25.8629 13.1453 25.7735 13.3154C25.6533 13.5438 25.5172 13.8027 25.4759 14.1868C25.4221 14.6887 25.5501 15.2036 25.8566 15.7175C25.9789 15.9228 26.2435 15.9856 26.4439 15.8661ZM4.24404 4.97605C4.44729 4.85483 4.51378 4.59189 4.39257 4.38864C4.18338 4.03778 4.09432 3.70126 4.12796 3.38833C4.15179 3.1668 4.2273 3.02307 4.3319 2.82416C4.43455 2.62897 4.55086 2.40773 4.62249 2.09291C4.75125 1.52681 4.67139 0.908891 4.38525 0.256414C4.29026 0.0397407 4.03759 -0.0587993 3.82081 0.0361418C3.60413 0.131197 3.50548 0.383916 3.60059 0.60059C3.81144 1.08141 3.87416 1.51961 3.78699 1.90292C3.74032 2.10834 3.66297 2.25532 3.57357 2.42549C3.45344 2.65388 3.31737 2.91277 3.27607 3.29687C3.22214 3.79865 3.35021 4.31363 3.65669 4.82758C3.77899 5.03277 4.04365 5.09555 4.24404 4.97605V4.97605ZM23.6348 21.1988C23.0463 20.6589 22.1803 20.4938 21.5478 20.3732C21.1786 20.3028 20.9047 20.2677 20.5969 20.2191C19.8367 20.099 19.0581 19.9264 18.5129 19.481C18.0315 19.0877 17.8987 18.6893 17.7669 18.2313C17.6823 17.9372 17.43 17.7355 17.1242 17.7173C16.818 17.699 16.5426 17.87 16.4235 18.1528C16.062 19.0106 15.7516 20.3016 16.3253 21.5805C16.8012 22.6414 17.7531 23.375 19.0782 23.702C19.6056 23.8322 20.1381 23.8834 20.629 23.8834C21.2054 23.8834 21.7245 23.8128 22.11 23.7163C23.3007 23.4184 23.978 22.9774 24.1232 22.4057C24.1945 22.1249 24.1676 21.6876 23.6348 21.1988V21.1988ZM23.2928 22.1948C23.2607 22.3212 22.9287 22.6282 21.9021 22.8851C21.2879 23.0387 20.2775 23.1155 19.2835 22.8701C18.5444 22.6877 17.567 22.255 17.1071 21.2298C16.7315 20.3925 16.8528 19.522 17.076 18.8493C17.2665 19.289 17.37 19.6537 17.9707 20.1445C18.6736 20.7188 19.5839 20.9266 20.4631 21.0655C20.7726 21.1144 21.3874 21.2149 21.3874 21.2149C21.9188 21.3163 22.6466 21.455 23.0555 21.8302C23.2529 22.0113 23.3067 22.1398 23.2928 22.1948V22.1948ZM29.1548 25.014C29.0441 24.8393 28.8541 24.7349 28.6469 24.7349H25.9818C26.5403 24.0229 26.8418 23.2799 26.8787 22.517C26.9223 21.6162 26.5842 20.6934 25.8735 19.7741C25.7289 19.5868 25.4598 19.5525 25.2725 19.6971C25.0853 19.8418 25.0509 20.1109 25.1956 20.2981C25.7779 21.0515 26.0562 21.7842 26.0227 22.4755C25.9859 23.2372 25.5845 23.9966 24.8307 24.7349H11.0099C10.7732 24.7349 10.5814 24.9268 10.5814 25.1634C10.5814 25.4 10.7732 25.5918 11.0099 25.5918H28.2424L27.2709 27.6501C27.0585 28.1001 26.5972 28.3909 26.0958 28.3909H3.15268C2.65124 28.3909 2.18996 28.1001 1.97762 27.6501L1.00605 25.5918H6.2113H6.21181H6.21216H9.01052C9.24719 25.5918 9.43895 25.4 9.43895 25.1634C9.43895 24.9268 9.24719 24.7349 9.01052 24.7349H6.42649C6.03061 24.1829 5.79029 23.6067 5.71254 23.0194C5.62029 22.3212 5.75527 21.5866 6.11196 20.8281C6.27751 21.0848 6.47013 21.3257 6.68949 21.545C7.50774 22.3633 8.59317 22.8127 9.7492 22.8127C9.75954 22.8127 9.76993 22.8127 9.78027 22.8126C10.9477 22.8045 12.0391 22.3387 12.8537 21.5012C13.6489 20.6835 14.0846 19.6067 14.0805 18.4692C14.0762 17.2584 13.5675 16.1124 12.6732 15.2934C15.6674 14.3239 19.0587 15.7312 21.1741 17.0621C22.0249 17.5974 23.1922 18.385 23.8571 18.9427C24.0375 19.094 24.308 19.0718 24.4607 18.8897C24.6127 18.7083 24.589 18.4381 24.4077 18.2861C23.933 17.888 23.4016 17.4939 22.7542 17.0605C23.1579 15.5865 22.7467 13.976 21.6614 12.8755C20.9256 12.1292 19.9454 11.6755 18.9015 11.5979C17.8152 11.5174 16.8021 11.112 15.9717 10.4256L14.7158 9.38784C14.3045 9.04772 13.7935 8.90839 13.3013 8.96335L12.8781 8.53977C13.2303 7.90317 13.1056 7.08663 12.5612 6.58548C11.9447 6.01754 10.9849 6.02434 10.376 6.60113C10.1769 6.78987 10.0305 7.02448 9.94913 7.28365C9.68916 7.36511 9.45438 7.51181 9.26644 7.71072C8.68954 8.31967 8.68274 9.2797 9.25096 9.89636C9.75165 10.4396 10.5676 10.5643 11.2052 10.2128L11.6305 10.6381C11.5751 11.1435 11.7271 11.6564 12.0525 12.0502L13.1454 13.3728C13.3568 13.6284 13.5405 13.9015 13.6951 14.189C13.0555 14.287 12.4233 14.4511 11.8087 14.6784C11.2761 14.3902 10.6855 14.2141 10.0725 14.1685C8.98596 14.0879 7.97291 13.6826 7.14277 12.9965L5.88655 11.9581C5.47525 11.6181 4.96421 11.4789 4.47203 11.5338L4.04885 11.1103C4.40085 10.4739 4.27649 9.65747 3.73232 9.15591C3.11532 8.58821 2.15545 8.59506 1.54679 9.17174C1.34782 9.36042 1.2013 9.59503 1.1199 9.85432C0.86078 9.93561 0.626055 10.0821 0.437201 10.2813C-0.1397 10.8903 -0.146498 11.8503 0.42172 12.467C0.922703 13.0105 1.73867 13.1352 2.37607 12.7835L2.79942 13.2068C2.74452 13.699 2.88373 14.2098 3.22363 14.621L4.31642 15.9431C4.97735 16.7427 5.37254 17.7329 5.42915 18.7313C5.45143 19.1236 5.52689 19.5073 5.65074 19.8732C4.98952 20.9849 4.72412 22.0802 4.86304 23.1317C4.93582 23.6814 5.1193 24.2181 5.41035 24.7349H0.601548C0.394357 24.7349 0.204475 24.8393 0.0936536 25.014C-0.0168254 25.1883 -0.0301926 25.4037 0.0578364 25.5904L1.20273 28.0158C1.55593 28.7642 2.32128 29.2477 3.15268 29.2477H26.0958C26.9272 29.2477 27.6926 28.7642 28.0458 28.0158L29.1907 25.5902C29.2787 25.4037 29.2652 25.1883 29.1548 25.014ZM12.1731 9.50797C12.0948 9.586 12.0249 9.66998 11.9624 9.75846L11.7083 9.50432C11.478 9.27559 11.1158 9.24377 10.8486 9.42743C10.5459 9.63387 10.1298 9.58583 9.88098 9.31575C9.61701 9.02927 9.62027 8.58312 9.88875 8.29973C9.98478 8.19816 10.1066 8.12601 10.2409 8.09123C10.4936 8.02593 10.6912 7.82839 10.7564 7.5759C10.7911 7.44178 10.8634 7.31976 10.9653 7.22316C11.2481 6.9553 11.694 6.95199 11.9805 7.2159C12.251 7.46485 12.2991 7.88066 12.0921 8.18342C11.9077 8.45379 11.9411 8.81625 12.1704 9.04412L12.4235 9.29741C12.3357 9.35945 12.2517 9.42937 12.1731 9.50797V9.50797ZM12.7131 11.5046C12.5601 11.3193 12.4758 11.0853 12.4758 10.8457C12.4758 10.5689 12.5833 10.3093 12.7787 10.1142C12.9118 9.98113 13.072 9.89225 13.2413 9.84638C13.2567 9.84335 13.2718 9.83924 13.2869 9.8345C13.5883 9.76743 13.9142 9.8369 14.1698 10.0484L15.4258 11.0863C16.3939 11.8864 17.5738 12.3588 18.8381 12.4526C19.6751 12.5147 20.4611 12.8786 21.0513 13.4772C21.8561 14.2934 22.1986 15.4588 21.9901 16.564C20.3677 15.5289 17.81 13.9034 14.604 14.0939C14.3949 13.6418 14.1279 13.2164 13.8057 12.8269L12.7131 11.5046ZM3.34393 12.0786C3.26533 12.1572 3.19535 12.2413 3.13331 12.3291L2.87922 12.0749C2.64889 11.8462 2.28672 11.8143 2.01932 11.9982C1.71685 12.2046 1.30081 12.1566 1.05175 11.8864C0.787775 11.5999 0.791031 11.1537 1.059 10.8709C1.15571 10.7689 1.27779 10.6966 1.41169 10.6619C1.66441 10.5966 1.86195 10.3991 1.92713 10.1466C1.96191 10.0124 2.03423 9.89036 2.13614 9.79371C2.41897 9.52574 2.86517 9.5226 3.15171 9.78634C3.42196 10.0354 3.46989 10.4512 3.26287 10.754C3.07904 11.0235 3.11206 11.3856 3.34119 11.6147L3.59425 11.868C3.50651 11.9301 3.42253 12 3.34393 12.0786V12.0786ZM4.97684 15.3973L3.88399 14.0752C3.53855 13.6579 3.57431 13.06 3.94985 12.6845C4.32533 12.309 4.92737 12.2761 5.34049 12.6186L6.59672 13.657C7.56441 14.4569 8.74443 14.9293 10.0089 15.0232C10.8457 15.0853 11.6317 15.4492 12.2219 16.0477C12.8645 16.6993 13.2203 17.5604 13.2235 18.4724C13.2268 19.3843 12.8772 20.2479 12.2393 20.9038C11.5859 21.5757 10.7105 21.9493 9.77428 21.9558C9.76593 21.9559 9.75771 21.9559 9.74931 21.9559C8.82224 21.9559 7.95154 21.5954 7.29541 20.9392H7.29535C6.69183 20.3357 6.33275 19.5344 6.28453 18.6829C6.2177 17.5035 5.75327 16.3366 4.97684 15.3973V15.3973Z" fill="white"/>
</svg>
