<svg width="27" height="27" viewBox="0 0 27 27" fill="none" xmlns="http://www.w3.org/2000/svg">
<path fill-rule="evenodd" clip-rule="evenodd" d="M13.4937 26.3937C20.6354 26.3937 26.4249 20.6042 26.4249 13.4625C26.4249 6.32075 20.6354 0.53125 13.4937 0.53125C6.352 0.53125 0.5625 6.32075 0.5625 13.4625C0.5625 20.6042 6.352 26.3937 13.4937 26.3937ZM13.4937 25.382C20.0763 25.382 25.4125 20.0458 25.4125 13.4633C25.4125 6.8807 20.0763 1.54449 13.4937 1.54449C6.91115 1.54449 1.57493 6.8807 1.57493 13.4633C1.57493 20.0458 6.91115 25.382 13.4937 25.382Z" fill="#F39200"/>
<path d="M22.0116 14.5474C22.0116 13.3511 21.4316 12.2086 20.46 11.4914C20.2619 11.3447 20.0162 11.2642 19.7686 11.2642C19.4587 11.2642 19.1682 11.3881 18.955 11.5988C18.9152 11.5656 18.8789 11.529 18.8377 11.4974C18.6852 11.3809 18.5022 11.3117 18.3142 11.2831L18.4354 9.95073C18.4382 9.91886 18.4395 9.88671 18.4395 9.85456C18.4395 9.26819 17.9625 8.79118 17.3762 8.79118H17.3047C16.7184 8.79118 16.2413 9.26819 16.2413 9.85456C16.2413 9.88671 16.2427 9.91886 16.2457 9.95101L16.3675 11.2892C16.1933 11.3221 16.0248 11.3895 15.8825 11.4955C15.8333 11.5323 15.7896 11.5746 15.7424 11.6134C15.7179 11.5881 15.6921 11.5645 15.6654 11.5417C15.6811 11.4502 15.6918 11.3576 15.6918 11.2642C15.6918 10.9152 15.583 10.5813 15.3813 10.3024C15.583 10.0235 15.6918 9.68997 15.6918 9.34073C15.6918 8.3999 14.8958 7.6374 13.9473 7.69511C13.7708 7.18952 13.3595 6.80841 12.8539 6.6614C12.5192 6.24402 12.0148 6.01239 11.4743 6.04646C11.2468 5.39442 10.6307 4.94434 9.92153 4.94434C9.32664 4.94434 8.78506 5.26252 8.49325 5.76948C7.76565 5.79394 7.13669 6.30749 6.95644 7.00707C6.10573 7.32443 5.52514 8.14793 5.52514 9.06596C5.52514 9.80208 5.88729 10.475 6.48657 10.8817C6.39617 11.088 6.34946 11.3111 6.34946 11.5389C6.34946 12.0335 6.56928 12.4932 6.94654 12.8045C6.91495 12.932 6.89901 13.0604 6.89901 13.1876C6.89901 14.0295 7.53374 14.7263 8.34982 14.8244L8.95762 16.5266C8.6463 16.7561 8.38114 17.0432 8.17699 17.3729L6.73744 17.0531C6.68276 17.0405 6.62643 17.0344 6.56983 17.0344C6.1453 17.0344 5.79991 17.3798 5.79991 17.8043V17.9132C5.79991 17.9901 5.81475 18.0632 5.83591 18.1335H5.79991C5.34543 18.1335 4.97559 18.5034 4.97559 18.9578C4.97559 19.4123 5.34543 19.7822 5.79991 19.7822H5.83591C5.81475 19.8525 5.79991 19.9256 5.79991 20.0025V20.1113C5.79991 20.5359 6.1453 20.8813 6.56983 20.8813C6.62643 20.8813 6.68276 20.8752 6.73689 20.8629L8.17699 20.5427C8.71032 21.4039 9.66077 21.9804 10.7459 21.9804H10.8104C10.9632 21.9804 11.1179 21.9685 11.2698 21.9452L20.6921 20.4958C21.4566 20.3779 22.0116 19.7313 22.0116 18.9578C22.0116 18.3393 21.6536 17.8071 21.1205 17.5562C21.6899 16.8762 22.0116 16.0134 22.0116 15.125V14.5474ZM18.5036 11.9341C19.3238 12.5611 19.8134 13.5599 19.8134 14.6065V15.6158C19.8134 16.179 19.673 16.7305 19.4084 17.2226L17.205 16.8836C17.1143 16.4849 17.0657 16.0777 17.0657 15.6688V14.5532C17.0657 14.2762 17.0934 13.9995 17.1355 13.7253C17.2028 13.7311 17.2698 13.7371 17.3404 13.7371C18.1238 13.7371 18.7143 13.3827 18.7143 12.9128C18.7143 12.6534 18.5349 12.4232 18.2241 12.272L18.2645 11.8274C18.3502 11.8448 18.4327 11.8794 18.5036 11.9341ZM17.3047 9.34073H17.3764C17.6597 9.34073 17.8903 9.57127 17.8903 9.85456C17.8903 9.87022 17.8897 9.88588 17.8881 9.90127L17.6386 12.6454L17.8482 12.7128C18.0889 12.7897 18.1648 12.8911 18.1648 12.9128C18.1648 12.9812 17.8724 13.1876 17.3404 13.1876C16.8085 13.1876 16.5161 12.9812 16.5161 12.9128C16.5161 12.8911 16.592 12.7897 16.8327 12.7125L17.0423 12.6452L16.7928 9.90127C16.7914 9.88561 16.7909 9.86995 16.7909 9.85456C16.7909 9.57127 17.0214 9.34073 17.3047 9.34073ZM16.4172 11.8365L16.4568 12.272C16.146 12.4232 15.9666 12.6534 15.9666 12.9128C15.9666 13.2156 16.2136 13.4687 16.5975 13.6116C16.5483 13.9234 16.5161 14.2383 16.5161 14.5532V15.6688C16.5161 16.0463 16.5524 16.4233 16.6227 16.794L15.0029 16.5448C14.9147 16.2428 14.8675 15.9315 14.8675 15.6155V14.6062C14.8675 13.5613 15.3698 12.5627 16.2111 11.9357C16.2724 11.8901 16.343 11.8566 16.4172 11.8365ZM13.4477 16.3054C13.2985 15.9279 13.2188 15.5325 13.2188 15.125V14.5472C13.2188 13.5245 13.7156 12.5474 14.5474 11.933C14.6518 11.856 14.7815 11.8137 14.9123 11.8137C15.0782 11.8137 15.231 11.8805 15.3428 11.9923C14.6949 12.7023 14.3179 13.6349 14.3179 14.6065V15.6158C14.3179 15.8991 14.3517 16.1793 14.413 16.4541L13.4477 16.3054ZM13.4735 8.04956L13.5236 8.33231L13.8038 8.26993C13.889 8.25097 13.9673 8.24163 14.0431 8.24163C14.6493 8.24163 15.1422 8.73458 15.1422 9.34073C15.1422 9.62952 15.0301 9.90264 14.8268 10.1098L14.6378 10.3024L14.8268 10.4951C15.0301 10.7022 15.1422 10.9754 15.1422 11.2642C15.1422 11.2724 15.1406 11.2806 15.1406 11.2892C15.0661 11.2743 14.9903 11.2642 14.9123 11.2642C14.6647 11.2642 14.419 11.3447 14.2209 11.4911C13.7208 11.8601 13.3271 12.3429 13.06 12.8867C12.9559 12.5625 12.8465 12.252 12.7338 11.9571C12.988 10.6146 13.9308 9.83752 13.9404 9.82955L13.7684 9.61551L13.5966 9.40091C13.5584 9.43141 12.8152 10.0384 12.3978 11.1334C11.826 9.82049 11.2863 8.97116 11.2517 8.9173L10.7893 9.21461C10.7967 9.22587 11.2157 9.88506 11.7034 10.9344C10.8816 10.625 9.94763 10.7105 9.89405 10.716L9.94873 11.2628C10.362 11.2213 11.5325 11.2413 12.0793 11.7994C12.272 12.2729 12.4618 12.7919 12.6294 13.348C11.7941 12.9197 10.7975 12.9128 10.7459 12.9128V13.4624C10.7588 13.4624 11.9821 13.4706 12.7061 14.0462C12.6836 14.2117 12.6693 14.3787 12.6693 14.5474V15.1253C12.6693 15.4965 12.7264 15.8595 12.8325 16.2112L11.2698 15.9708C11.1874 15.9581 11.1042 15.9496 11.0206 15.9436C10.4145 15.9436 9.92153 15.4468 9.92153 14.8365C9.92153 14.7085 9.94708 14.5771 9.99709 14.4455L10.0773 14.2353L9.88691 14.1149C9.5646 13.9111 9.37198 13.5646 9.37198 13.1876C9.37198 12.9713 9.43545 12.7617 9.55553 12.5809L9.72672 12.3237L9.45139 12.1838C8.89387 11.9003 8.54766 11.3375 8.54766 10.7146C8.54766 9.98343 9.03895 9.33221 9.74265 9.1308L9.91329 9.08189L9.93884 8.90631C10.0172 8.37078 10.4823 7.96686 11.0206 7.96686C11.0308 7.96686 11.0407 7.96906 11.0506 7.97043C11.0698 7.97318 11.0893 7.97565 11.1088 7.97702L11.3058 7.99296L11.3833 7.81106C11.5567 7.40494 11.9535 7.14253 12.3945 7.14253C12.927 7.14253 13.3807 7.52392 13.4735 8.04956ZM8.74137 14.2867H8.54766C7.9415 14.2867 7.44856 13.7937 7.44856 13.1876C7.44856 13.0593 7.47411 12.9279 7.52412 12.7968L7.60463 12.5866L7.41421 12.4663C7.09163 12.2624 6.89901 11.9159 6.89901 11.5389C6.89901 11.3227 6.96248 11.113 7.08256 10.9322L7.25374 10.675L6.97842 10.5352C6.4209 10.2516 6.07468 9.68887 6.07468 9.06596C6.07468 8.33478 6.56598 7.68356 7.2694 7.48215L7.44004 7.43324L7.46559 7.25766C7.54418 6.72213 8.00937 6.31821 8.54766 6.31821C8.5581 6.31821 8.56826 6.32041 8.57843 6.32178C8.59712 6.32425 8.6158 6.32673 8.63504 6.32838L8.83287 6.34486L8.91063 6.16214C9.08374 5.7563 9.48052 5.49389 9.92153 5.49389C10.454 5.49389 10.9077 5.87527 11.0006 6.40092L11.0506 6.68366L11.3308 6.62129C11.416 6.60233 11.4943 6.59298 11.5702 6.59298C11.6966 6.59298 11.8167 6.62074 11.9315 6.66085C11.5276 6.77901 11.1797 7.04719 10.9662 7.41813C10.2386 7.44259 9.60966 7.95614 9.42941 8.65572C8.57871 8.97308 7.99811 9.79658 7.99811 10.7146C7.99811 11.4507 8.36026 12.1236 8.95954 12.5303C8.86914 12.7367 8.82243 12.9598 8.82243 13.1876C8.82243 13.6822 9.04225 14.1419 9.41952 14.4535C9.38792 14.581 9.37198 14.709 9.37198 14.8362C9.37198 15.319 9.57971 15.7529 9.90862 16.0557C9.7454 16.1029 9.5885 16.1642 9.43793 16.237L8.74137 14.2867ZM6.34946 17.9132V17.8043C6.34946 17.6664 6.483 17.5601 6.61791 17.5892L7.92557 17.8799C7.89369 17.9629 7.86512 18.0472 7.84066 18.1335H6.56983C6.44838 18.1335 6.34946 18.0346 6.34946 17.9132ZM5.52514 18.9578C5.52514 18.8064 5.64851 18.6831 5.79991 18.6831H6.56983H7.73707C7.7291 18.7737 7.72333 18.865 7.72333 18.9578C7.72333 19.0507 7.7291 19.1419 7.73735 19.2326H6.56983H5.79991C5.64851 19.2326 5.52514 19.1092 5.52514 18.9578ZM6.61736 20.3265C6.48712 20.3545 6.34946 20.249 6.34946 20.1113V20.0025C6.34946 19.8811 6.44838 19.7822 6.56983 19.7822H7.84039C7.86484 19.8684 7.89369 19.9528 7.92529 20.0358L6.61736 20.3265ZM21.4621 18.9578C21.4621 19.4582 21.1032 19.8764 20.6089 19.9525L11.1869 21.402C11.0621 21.4212 10.9354 21.4308 10.8104 21.4308H10.7459C9.38242 21.4308 8.27288 20.3213 8.27288 18.9578C8.27288 17.5944 9.38242 16.4849 10.7459 16.4849H10.8104C10.9354 16.4849 11.0621 16.4945 11.1866 16.5134L20.6086 17.9629C21.1032 18.0393 21.4621 18.4575 21.4621 18.9578ZM21.4621 15.125C21.4621 15.9702 21.12 16.7879 20.5248 17.3941L19.9788 17.31C20.2297 16.783 20.363 16.2052 20.363 15.6155V14.6062C20.363 13.6297 19.9909 12.6924 19.3518 11.9813C19.4628 11.8766 19.6101 11.8137 19.7686 11.8137C19.8997 11.8137 20.0291 11.856 20.1335 11.9335C20.9653 12.5474 21.4621 13.5247 21.4621 14.5474V15.125Z" fill="#F39200"/>
<path d="M10.4707 17.8588C10.4707 17.707 10.5937 17.584 10.7455 17.584C10.8972 17.584 11.0203 17.707 11.0203 17.8588V20.057C11.0203 20.2087 10.8972 20.3317 10.7455 20.3317C10.5937 20.3317 10.4707 20.2087 10.4707 20.057V17.8588Z" fill="#F39200"/>
<path d="M12.668 17.8588C12.668 17.707 12.791 17.584 12.9427 17.584C13.0945 17.584 13.2175 17.707 13.2175 17.8588V20.057C13.2175 20.2087 13.0945 20.3317 12.9427 20.3317C12.791 20.3317 12.668 20.2087 12.668 20.057V17.8588Z" fill="#F39200"/>
<path d="M14.8672 17.8588C14.8672 17.707 14.9902 17.584 15.142 17.584C15.2937 17.584 15.4167 17.707 15.4167 17.8588V20.057C15.4167 20.2087 15.2937 20.3317 15.142 20.3317C14.9902 20.3317 14.8672 20.2087 14.8672 20.057V17.8588Z" fill="#F39200"/>
<path d="M17.0654 18.4076C17.0654 18.2558 17.1885 18.1328 17.3402 18.1328C17.492 18.1328 17.615 18.2558 17.615 18.4076V19.5067C17.615 19.6584 17.492 19.7815 17.3402 19.7815C17.1885 19.7815 17.0654 19.6584 17.0654 19.5067V18.4076Z" fill="#F39200"/>
<path d="M19.2646 18.684C19.2646 18.5322 19.3877 18.4092 19.5394 18.4092C19.6912 18.4092 19.8142 18.5322 19.8142 18.684V19.2335C19.8142 19.3853 19.6912 19.5083 19.5394 19.5083C19.3877 19.5083 19.2646 19.3853 19.2646 19.2335V18.684Z" fill="#F39200"/>
</svg>
