<svg width="29" height="30" viewBox="0 0 29 30" fill="none" xmlns="http://www.w3.org/2000/svg">
<path d="M28.4336 21.5871H27.3933L26.1417 12.5034L25.4911 7.78113C25.2805 6.25277 24.2349 5.14344 23.0049 5.14344H22.3879C22.6926 4.59767 22.8717 3.93268 22.8717 3.21604V1.32049C22.8717 0.926021 22.6181 0.606132 22.3053 0.606132H20.9057C19.4384 0.606132 18.2447 2.11171 18.2447 3.96225V5.14337H16.6484C16.9366 4.61468 17.1056 3.97475 17.1056 3.28604C17.1056 1.47415 15.9367 0 14.5001 0C13.0635 0 11.8946 1.47415 11.8946 3.28604C11.8946 3.97475 12.0635 4.61468 12.3518 5.14337H10.7555V3.96225C10.7555 2.11171 9.56179 0.606132 8.09451 0.606132H6.69492C6.3821 0.606132 6.12852 0.925949 6.12852 1.32049V3.21596C6.12852 3.93268 6.30761 4.5976 6.61228 5.14337H5.9953C4.76529 5.14337 3.7197 6.25263 3.50911 7.78106L2.85843 12.5035L1.60672 21.5871H0.566406C0.25358 21.5871 0 21.907 0 22.3014V25.4092C0 25.8036 0.25358 26.1235 0.566406 26.1235H1.23505L2.77262 29.6312C2.87236 29.8588 3.06216 30 3.26828 30H25.7317C25.9378 30 26.1277 29.8588 26.2274 29.6312L27.765 26.1235H28.4336C28.7464 26.1235 29 25.8036 29 25.4092V22.3014C29 21.907 28.7464 21.5871 28.4336 21.5871ZM19.3774 3.96225C19.3774 2.89943 20.063 2.03485 20.9056 2.03485H21.7388V3.21596C21.7388 4.27878 21.0532 5.14337 20.2106 5.14337H19.3774V3.96225ZM13.0273 3.28604C13.0273 2.26187 13.688 1.42871 14.5 1.42871C15.312 1.42871 15.9727 2.26187 15.9727 3.28604C15.9727 4.31022 15.312 5.14337 14.5 5.14337C13.688 5.14337 13.0273 4.31022 13.0273 3.28604ZM7.26116 3.21596V2.03485H8.09434C8.93704 2.03485 9.62256 2.8995 9.62256 3.96225V5.14337H8.78938C7.94674 5.14337 7.26116 4.27878 7.26116 3.21596ZM4.62505 8.02566C4.74105 7.18343 5.31725 6.57209 5.99507 6.57209H23.0049C23.6827 6.57209 24.2589 7.18343 24.375 8.02566L24.9378 12.1107C24.825 12.1311 24.7047 12.1411 24.574 12.1411C23.9076 12.1411 23.6004 11.8798 23.2116 11.5489C22.7736 11.1762 22.2284 10.7124 21.2157 10.7124C20.203 10.7124 19.6579 11.1762 19.2199 11.5489C18.831 11.8798 18.5239 12.1411 17.8576 12.1411C17.1913 12.1411 16.8842 11.8798 16.4953 11.5489C16.0573 11.1762 15.5123 10.7124 14.4995 10.7124C13.4869 10.7124 12.9418 11.1762 12.5038 11.5489C12.115 11.8798 11.8079 12.1411 11.1417 12.1411C10.4753 12.1411 10.1682 11.8798 9.77946 11.5489C9.34151 11.1762 8.7964 10.7124 7.78367 10.7124C6.77093 10.7124 6.22588 11.1762 5.78788 11.5489C5.39904 11.8798 5.09194 12.1411 4.42562 12.1411C4.29512 12.1411 4.17487 12.1311 4.06221 12.1108L4.62505 8.02566ZM3.86821 13.5184C4.04493 13.5528 4.23009 13.5698 4.42562 13.5698C5.43835 13.5698 5.98346 13.106 6.42146 12.7333C6.81024 12.4024 7.11735 12.1411 7.78367 12.1411C8.44999 12.1411 8.75709 12.4024 9.14587 12.7333C9.58388 13.106 10.129 13.5698 11.1417 13.5698C12.1543 13.5698 12.6994 13.106 13.1374 12.7333C13.5262 12.4024 13.8333 12.1411 14.4995 12.1411C15.1659 12.1411 15.473 12.4024 15.8618 12.7333C16.2998 13.106 16.8448 13.5698 17.8575 13.5698C18.8703 13.5698 19.4154 13.106 19.8534 12.7333C20.2422 12.4024 20.5493 12.1411 21.2157 12.1411C21.882 12.1411 22.1892 12.4024 22.578 12.7333C23.016 13.106 23.5612 13.5698 24.5739 13.5698C24.7696 13.5698 24.9549 13.5528 25.1317 13.5184L26.2434 21.5871H2.75653L3.86821 13.5184ZM25.3977 28.5712H3.60234L2.5294 26.1235H11.9395C12.2523 26.1235 12.5059 25.8036 12.5059 25.4091C12.5059 25.0146 12.2523 24.6948 11.9395 24.6948H1.57738C1.572 24.6947 1.56662 24.6947 1.56124 24.6948H1.13281V23.0158H27.8672V24.6948H27.4376C27.4343 24.6948 27.431 24.6948 27.4277 24.6948H17.0605C16.7477 24.6948 16.4941 25.0147 16.4941 25.4092C16.4941 25.8036 16.7477 26.1235 17.0605 26.1235H26.4706L25.3977 28.5712Z" fill="white"/>
<path d="M15.0341 25.1353C14.9415 24.8502 14.7038 24.6693 14.4605 24.6971C14.2238 24.7242 14.0221 24.9405 13.9629 25.2305C13.9062 25.5079 13.9906 25.8115 14.1735 25.9821C14.3637 26.1594 14.6282 26.1681 14.8251 26.0025C15.0472 25.8157 15.1368 25.4463 15.0341 25.1353Z" fill="white"/>
</svg>
