<svg width="16" height="17" viewBox="0 0 16 17" fill="none" xmlns="http://www.w3.org/2000/svg">
<path d="M11.5744 2.12012C11.7608 1.93373 11.9821 1.78589 12.2256 1.68501C12.4691 1.58414 12.7301 1.53223 12.9937 1.53223C13.2573 1.53223 13.5183 1.58414 13.7619 1.68501C14.0054 1.78589 14.2266 1.93373 14.413 2.12012C14.5994 2.3065 14.7473 2.52778 14.8481 2.7713C14.949 3.01482 15.0009 3.27583 15.0009 3.53942C15.0009 3.80301 14.949 4.06402 14.8481 4.30754C14.7473 4.55106 14.5994 4.77233 14.413 4.95872L4.83276 14.539L0.929688 15.6035L1.99416 11.7004L11.5744 2.12012Z" stroke-width="1.5" stroke-linecap="round" stroke-linejoin="round"/>
</svg>
