<svg width="13" height="22" viewBox="0 0 13 22" fill="none" xmlns="http://www.w3.org/2000/svg">
<path d="M11.5914 0.232942L8.83285 0.228516C5.73367 0.228516 3.73084 2.28338 3.73084 5.46382L3.73084 7.87764L0.957199 7.87764C0.717524 7.87764 0.523437 8.07195 0.523437 8.31163L0.523437 11.809C0.523437 12.0487 0.717745 12.2428 0.957199 12.2428L3.73084 12.2428L3.73084 21.0677C3.73084 21.3074 3.92492 21.5015 4.1646 21.5015L7.78341 21.5015C8.02309 21.5015 8.21717 21.3072 8.21717 21.0677L8.21717 12.2428L11.4602 12.2428C11.6999 12.2428 11.894 12.0487 11.894 11.809L11.8953 8.31163C11.8953 8.19655 11.8495 8.08634 11.7683 8.00489C11.687 7.92345 11.5764 7.87764 11.4613 7.87764L8.21717 7.87764L8.21717 5.83141C8.21717 4.84791 8.45154 4.34864 9.73268 4.34864L11.591 4.34797C11.8304 4.34797 12.0245 4.15366 12.0245 3.91421L12.0245 0.666709C12.0245 0.427473 11.8307 0.233385 11.5914 0.232942Z" fill="#EE3823"/>
</svg>
