<svg width="26" height="26" viewBox="0 0 26 26" fill="none" xmlns="http://www.w3.org/2000/svg">
<path d="M18.5752 0.3125L7.32636 0.3125C3.5063 0.3125 0.398437 3.42051 0.398437 7.24057L0.398437 18.4894C0.398437 22.3096 3.5063 25.4175 7.32636 25.4175L18.5752 25.4175C22.3956 25.4175 25.5034 22.3095 25.5034 18.4894L25.5034 7.24057C25.5036 3.42052 22.3956 0.3125 18.5752 0.3125ZM23.2761 18.4894C23.2761 21.0814 21.1673 23.19 18.5754 23.19L7.32636 23.19C4.73451 23.1902 2.62587 21.0814 2.62587 18.4894L2.62587 7.24057C2.62587 4.64872 4.73451 2.53994 7.32636 2.53994L18.5752 2.53994C21.1672 2.53994 23.276 4.64872 23.276 7.24057L23.276 18.4894L23.2761 18.4894Z" fill="#EE3823"/>
<path d="M12.9514 6.39648C9.38433 6.39648 6.48242 9.29849 6.48242 12.8656C6.48242 16.4326 9.38433 19.3345 12.9514 19.3345C16.5184 19.3345 19.4203 16.4326 19.4203 12.8656C19.4203 9.29849 16.5184 6.39648 12.9514 6.39648ZM12.9514 17.1068C10.6127 17.1068 8.70986 15.2042 8.70986 12.8655C8.70986 10.5266 10.6125 8.62385 12.9514 8.62385C15.2902 8.62385 17.1929 10.5266 17.1928 12.8655C17.1928 15.2042 15.29 17.1068 12.9514 17.1068Z" fill="#EE3823"/>
<path d="M19.692 4.50781C19.2629 4.50781 18.8413 4.68156 18.5382 4.986C18.2337 5.28894 18.0586 5.7107 18.0586 6.14136C18.0586 6.57068 18.2338 6.99229 18.5382 7.29672C18.8412 7.59967 19.2629 7.7749 19.692 7.7749C20.1226 7.7749 20.5429 7.59967 20.8473 7.29672C21.1517 6.99229 21.3254 6.57053 21.3254 6.14136C21.3254 5.7107 21.1517 5.28894 20.8473 4.986C20.5444 4.68156 20.1226 4.50781 19.692 4.50781Z" fill="#EE3823"/>
</svg>
