<svg width="22" height="22" viewBox="0 0 22 22" fill="transparent" xmlns="http://www.w3.org/2000/svg">
<path d="M11.9609 3.91077C11.0581 3.00783 9.87018 2.44584 8.5995 2.32058C7.32881 2.19531 6.054 2.51451 4.99228 3.22379C3.93056 3.93308 3.14761 4.98855 2.77686 6.21038C2.4061 7.43221 2.47046 8.7448 2.95898 9.9245C3.4475 11.1042 4.32995 12.078 5.45597 12.68C6.58199 13.282 7.88191 13.475 9.13425 13.226C10.3866 12.977 11.5138 12.3015 12.324 11.3145C13.1341 10.3276 13.5769 9.09031 13.577 7.81346C13.5791 7.0884 13.4373 6.37014 13.1599 5.70024C12.8825 5.03034 12.475 4.42212 11.9609 3.91077ZM11.5308 11.286C10.7274 12.0893 9.67038 12.5892 8.53977 12.7005C7.40915 12.8117 6.27493 12.5276 5.33035 11.8964C4.38577 11.2651 3.68928 10.3259 3.35954 9.23876C3.0298 8.15159 3.08722 6.98372 3.52201 5.93413C3.9568 4.88455 4.74207 4.0182 5.74401 3.48268C6.74595 2.94716 7.90258 2.77561 9.01682 2.99726C10.1311 3.21892 11.134 3.82005 11.8547 4.69826C12.5754 5.57646 12.9693 6.67738 12.9693 7.81346C12.9711 8.45865 12.8449 9.09778 12.5979 9.69385C12.351 10.2899 11.9883 10.8311 11.5308 11.286Z" fill="#343330" fill-opacity="0.75"/>
<path d="M20.7468 17.7725L14.477 11.5031C15.3695 9.94892 15.667 8.12342 15.3143 6.36622C14.9616 4.60902 13.9826 3.03976 12.5595 1.95036C11.1363 0.860963 9.3659 0.325598 7.57756 0.443856C5.78921 0.562114 4.10471 1.32594 2.8374 2.59326C1.57008 3.86057 0.806255 5.54507 0.687997 7.33342C0.569738 9.12176 1.1051 10.8922 2.1945 12.3153C3.2839 13.7385 4.85316 14.7175 6.61036 15.0702C8.36756 15.4229 10.1931 15.1253 11.7473 14.2328L18.0171 20.5027C18.3792 20.8647 18.8702 21.0681 19.3823 21.0681C19.8943 21.0681 20.3853 20.8647 20.7474 20.5027C21.1094 20.1406 21.3128 19.6496 21.3128 19.1376C21.3128 18.6256 21.1094 18.1345 20.7474 17.7725H20.7468ZM3.25183 12.6193C2.30133 11.6688 1.65404 10.4578 1.3918 9.13942C1.12956 7.82104 1.26415 6.45451 1.77856 5.21263C2.29297 3.97074 3.16408 2.90929 4.28175 2.16249C5.39941 1.41569 6.71343 1.01709 8.05763 1.01709C9.40184 1.01709 10.7159 1.41569 11.8335 2.16249C12.9512 2.90929 13.8223 3.97074 14.3367 5.21263C14.8511 6.45451 14.9857 7.82104 14.7235 9.13942C14.4612 10.4578 13.8139 11.6688 12.8634 12.6193C11.5879 13.892 9.85954 14.6068 8.05763 14.6068C6.25572 14.6068 4.5274 13.892 3.25183 12.6193ZM20.3167 20.0726C20.0685 20.3202 19.7322 20.4593 19.3816 20.4593C19.0309 20.4593 18.6946 20.3202 18.4464 20.0726L12.2731 13.8992C13.0051 13.3947 13.6389 12.7609 14.1433 12.029L20.3169 18.2024C20.5645 18.4506 20.7036 18.7869 20.7036 19.1375C20.7036 19.4881 20.5645 19.8244 20.3169 20.0726H20.3167Z" fill="#343330" fill-opacity="0.75"/>
<path d="M9.35532 8.48542C9.79915 7.71368 10.2113 6.75964 10.206 5.88328C10.1949 5.32062 9.96368 4.78472 9.56194 4.39062C9.1602 3.99652 8.61996 3.77564 8.05719 3.77539C7.49442 3.77514 6.95398 3.99554 6.55189 4.38928C6.14979 4.78302 5.9181 5.31872 5.90654 5.88137C5.90115 6.75877 6.31353 7.71333 6.75805 8.48542C5.48947 8.69725 4.69531 9.20381 4.69531 9.82872C4.69531 10.7793 6.38599 11.2766 8.05581 11.2766C9.72564 11.2766 11.4163 10.7793 11.4163 9.82872C11.4163 9.20381 10.6215 8.69725 9.35532 8.48542ZM8.05581 4.34136C8.46491 4.34195 8.85704 4.50486 9.14613 4.79431C9.43523 5.08376 9.59765 5.4761 9.59774 5.88519C9.60539 7.15064 8.5377 8.70229 8.05564 9.33849C7.57324 8.70281 6.50624 7.15237 6.51389 5.88328C6.51435 5.47448 6.67695 5.08255 6.96602 4.79348C7.25508 4.50442 7.64701 4.34182 8.05581 4.34136ZM8.05581 10.6684C6.27495 10.6693 5.30353 10.1132 5.30353 9.82872C5.30353 9.5889 5.92913 9.19877 7.10386 9.04863C7.32545 9.38776 7.56594 9.71417 7.82417 10.0263C7.85269 10.0599 7.88818 10.0869 7.92818 10.1054C7.96818 10.124 8.01173 10.1336 8.05581 10.1336C8.0999 10.1336 8.14345 10.124 8.18345 10.1054C8.22345 10.0869 8.25894 10.0599 8.28746 10.0263C8.54562 9.71435 8.7861 9.38818 9.00777 9.04933C10.1828 9.19947 10.8081 9.5896 10.8081 9.82941C10.8081 10.1132 9.83668 10.6693 8.05581 10.6693V10.6684Z" fill="#343330" fill-opacity="0.75"/>
<path d="M9.01285 5.88338C9.01285 5.69475 8.95692 5.51037 8.85212 5.35353C8.74733 5.1967 8.59838 5.07447 8.42412 5.00228C8.24986 4.9301 8.0581 4.91121 7.8731 4.94801C7.68811 4.98481 7.51817 5.07564 7.3848 5.20902C7.25142 5.34239 7.16059 5.51232 7.12379 5.69732C7.087 5.88232 7.10588 6.07407 7.17806 6.24834C7.25025 6.4226 7.37248 6.57155 7.52932 6.67634C7.68615 6.78113 7.87054 6.83706 8.05916 6.83706C8.31201 6.83679 8.55442 6.73622 8.73321 6.55743C8.91201 6.37864 9.01257 6.13622 9.01285 5.88338ZM7.71369 5.88338C7.71369 5.81505 7.73395 5.74826 7.77191 5.69144C7.80987 5.63463 7.86383 5.59035 7.92695 5.5642C7.99008 5.53806 8.05954 5.53122 8.12656 5.54455C8.19357 5.55788 8.25513 5.59078 8.30344 5.63909C8.35176 5.68741 8.38466 5.74896 8.39799 5.81598C8.41132 5.88299 8.40448 5.95245 8.37833 6.01558C8.35218 6.07871 8.3079 6.13266 8.25109 6.17062C8.19428 6.20858 8.12749 6.22884 8.05916 6.22884C7.96756 6.22875 7.87974 6.19232 7.81498 6.12756C7.75021 6.06279 7.71378 5.97497 7.71369 5.88338Z" fill="#343330" fill-opacity="0.75"/>
<path d="M17.2692 15.9426C17.2409 15.9144 17.2074 15.8919 17.1705 15.8767C17.1336 15.8614 17.0941 15.8535 17.0541 15.8535C17.0142 15.8535 16.9746 15.8614 16.9377 15.8767C16.9008 15.8919 16.8673 15.9144 16.8391 15.9426C16.8108 15.9708 16.7884 16.0044 16.7732 16.0413C16.7579 16.0782 16.75 16.1177 16.75 16.1576C16.75 16.1976 16.7579 16.2371 16.7732 16.274C16.7884 16.3109 16.8108 16.3445 16.8391 16.3727L18.8945 18.4281C18.9515 18.4852 19.0289 18.5173 19.1096 18.5174C19.1903 18.5174 19.2678 18.4854 19.3249 18.4284C19.382 18.3714 19.4141 18.294 19.4141 18.2133C19.4142 18.1326 19.3822 18.0551 19.3251 17.998L17.2692 15.9426Z" fill="#343330" fill-opacity="0.75"/>
<path d="M15.6403 14.3166C15.5832 14.2596 15.5059 14.2275 15.4252 14.2275C15.3446 14.2275 15.2672 14.2596 15.2102 14.3166C15.1531 14.3737 15.1211 14.451 15.1211 14.5317C15.1211 14.6123 15.1531 14.6897 15.2102 14.7467L15.829 15.3655C15.8571 15.3946 15.8906 15.4177 15.9277 15.4337C15.9648 15.4496 16.0047 15.458 16.0451 15.4583C16.0855 15.4587 16.1255 15.451 16.1629 15.4357C16.2003 15.4204 16.2342 15.3978 16.2628 15.3692C16.2913 15.3407 16.3139 15.3067 16.3292 15.2693C16.3445 15.2319 16.3521 15.1919 16.3518 15.1515C16.3514 15.1111 16.343 15.0712 16.3271 15.0341C16.3111 14.997 16.288 14.9635 16.2589 14.9354L15.6403 14.3166Z" fill="#343330" fill-opacity="0.75"/>
</svg>
