<svg width="23" height="22" viewBox="0 0 23 22" fill="none" xmlns="http://www.w3.org/2000/svg">
<circle cx="11.5386" cy="10.9351" r="10.3667" stroke="#343330" stroke-opacity="0.75"/>
<path d="M11.5394 16.2462C11.3695 16.2462 11.2056 16.1846 11.0779 16.0728C10.5956 15.6511 10.1307 15.2548 9.72043 14.9052L9.71833 14.9034C8.5156 13.8784 7.47701 12.9933 6.75437 12.1214C5.94657 11.1466 5.57031 10.2224 5.57031 9.21279C5.57031 8.23184 5.90668 7.32685 6.51737 6.66442C7.13536 5.99415 7.98333 5.625 8.90534 5.625C9.59446 5.625 10.2256 5.84287 10.7811 6.2725C11.0614 6.48936 11.3155 6.75477 11.5394 7.06436C11.7634 6.75477 12.0174 6.48936 12.2978 6.2725C12.8533 5.84287 13.4844 5.625 14.1736 5.625C15.0955 5.625 15.9435 5.99415 16.5615 6.66442C17.1722 7.32685 17.5085 8.23184 17.5085 9.21279C17.5085 10.2224 17.1323 11.1466 16.3245 12.1213C15.6019 12.9933 14.5634 13.8783 13.3608 14.9032C12.9499 15.2533 12.4842 15.6502 12.0008 16.0729C11.8732 16.1846 11.7093 16.2462 11.5394 16.2462ZM8.90534 6.32432C8.18097 6.32432 7.51553 6.61341 7.03144 7.13841C6.54014 7.67132 6.26954 8.40799 6.26954 9.21279C6.26954 10.0619 6.58514 10.8214 7.29275 11.6752C7.97668 12.5005 8.99396 13.3674 10.1718 14.3712L10.174 14.373C10.5858 14.7239 11.0526 15.1218 11.5384 15.5466C12.0271 15.121 12.4947 14.7225 12.9073 14.371C14.085 13.3672 15.1022 12.5005 15.7862 11.6752C16.4937 10.8214 16.8093 10.0619 16.8093 9.21279C16.8093 8.40799 16.5387 7.67132 16.0474 7.13841C15.5634 6.61341 14.8978 6.32432 14.1736 6.32432C13.6429 6.32432 13.1557 6.49301 12.7256 6.82563C12.3422 7.1222 12.0751 7.49709 11.9186 7.7594C11.8381 7.89429 11.6963 7.97481 11.5394 7.97481C11.3825 7.97481 11.2408 7.89429 11.1602 7.7594C11.0038 7.49709 10.7367 7.1222 10.3533 6.82563C9.92308 6.49301 9.43589 6.32432 8.90534 6.32432Z" fill="#343330" fill-opacity="0.75"/>
</svg>
