<svg width="30" height="42" viewBox="0 0 30 42" fill="none" xmlns="http://www.w3.org/2000/svg">
<path d="M28.7891 15.4297C28.7891 26.2214 14.9141 35.4714 14.9141 35.4714C14.9141 35.4714 1.03906 26.2214 1.03906 15.4297C1.03906 11.7498 2.50089 8.22065 5.10296 5.61858C7.70502 3.01651 11.2342 1.55469 14.9141 1.55469C18.5939 1.55469 22.1231 3.01651 24.7252 5.61858C27.3272 8.22065 28.7891 11.7498 28.7891 15.4297Z" fill="white" fill-opacity="0.85" stroke="black" stroke-width="2" stroke-linecap="round" stroke-linejoin="round"/>
<path d="M14.9141 20.0547C17.4684 20.0547 19.5391 17.984 19.5391 15.4297C19.5391 12.8754 17.4684 10.8047 14.9141 10.8047C12.3597 10.8047 10.2891 12.8754 10.2891 15.4297C10.2891 17.984 12.3597 20.0547 14.9141 20.0547Z" stroke="#EE3823" stroke-width="2" stroke-linecap="round" stroke-linejoin="round"/>
<ellipse cx="14.9138" cy="39.4936" rx="12.1208" ry="1.89988" fill="#EE3823"/>
<path d="M24.9514 39.4931C24.9514 40.309 20.4572 40.9705 14.9132 40.9705C9.36926 40.9705 4.875 40.309 4.875 39.4931C4.875 38.6771 9.36926 38.0156 14.9132 38.0156C20.4572 38.0156 24.9514 38.6771 24.9514 39.4931Z" fill="#FFFAFA" fill-opacity="0.25"/>
<path d="M22.4198 39.495C22.4198 40.0532 19.0598 40.5056 14.915 40.5056C10.7702 40.5056 7.41016 40.0532 7.41016 39.495C7.41016 38.9368 10.7702 38.4844 14.915 38.4844C19.0598 38.4844 22.4198 38.9368 22.4198 39.495Z" fill="#FFFAFA" fill-opacity="0.25"/>
</svg>
