<svg width="27" height="27" viewBox="0 0 27 27" fill="none" xmlns="http://www.w3.org/2000/svg">
<path fill-rule="evenodd" clip-rule="evenodd" d="M13.9068 26.3937C21.0485 26.3937 26.838 20.6042 26.838 13.4625C26.838 6.32075 21.0485 0.53125 13.9068 0.53125C6.76508 0.53125 0.975586 6.32075 0.975586 13.4625C0.975586 20.6042 6.76508 26.3937 13.9068 26.3937ZM13.9071 25.3816C20.4896 25.3816 25.8259 20.0454 25.8259 13.4628C25.8259 6.88024 20.4896 1.54402 13.9071 1.54402C7.32453 1.54402 1.98831 6.88024 1.98831 13.4628C1.98831 20.0454 7.32453 25.3816 13.9071 25.3816Z" fill="#F8B0B5"/>
<path d="M21.896 13.7248C21.896 12.68 21.639 11.7405 21.1413 10.9345C21.5883 10.5113 22.1742 9.67037 21.6328 8.45482C21.8459 7.92784 21.9721 6.98688 21.1806 6.4592C21.1486 6.43764 21.1127 6.42261 21.0749 6.41498C21.0371 6.40734 20.9982 6.40725 20.9603 6.41471C20.9225 6.42216 20.8865 6.43702 20.8545 6.45843C20.8224 6.47984 20.7949 6.50737 20.7735 6.53945C20.7521 6.57153 20.7373 6.60752 20.7298 6.64535C20.7224 6.68318 20.7225 6.72211 20.7302 6.75989C20.7379 6.79768 20.7529 6.83358 20.7745 6.86553C20.7961 6.89748 20.8237 6.92485 20.8559 6.94606C21.1586 7.14784 21.2251 7.45304 21.2081 7.7254C21.0743 7.63714 20.9189 7.58722 20.7587 7.58104C20.5985 7.57486 20.4397 7.61266 20.2995 7.69035C20.1593 7.76804 20.043 7.88264 19.9633 8.02172C19.8836 8.16081 19.8435 8.31906 19.8474 8.47932C19.8512 8.63958 19.8989 8.79571 19.9852 8.93079C20.0715 9.06587 20.1932 9.17473 20.337 9.24556C20.4808 9.3164 20.6413 9.3465 20.801 9.3326C20.9607 9.3187 21.1135 9.26133 21.2429 9.16672C21.3334 9.72567 21.1005 10.1489 20.8009 10.4511C20.4313 9.99228 19.9911 9.59507 19.4968 9.27439C18.1034 8.35765 16.2011 7.87305 13.9962 7.87305C12.2034 7.87305 10.483 8.21596 9.10855 8.84312C8.66404 7.80755 7.66314 7.59546 7.61665 7.58613C7.5742 7.57764 7.5304 7.57868 7.4884 7.58916C7.4464 7.59965 7.40725 7.61932 7.37377 7.64677C7.34029 7.67422 7.31332 7.70875 7.2948 7.74788C7.27629 7.78701 7.26668 7.82976 7.26668 7.87305C7.26668 8.02483 7.11048 8.40856 7.005 8.61995C6.72935 9.17129 6.75042 9.76554 7.05986 10.3146C6.87191 10.5538 6.74786 10.7905 6.69018 11.0204C6.47271 11.8907 5.90031 12.195 5.74816 12.2618H5.21858C4.98586 12.2621 4.76275 12.3547 4.5982 12.5192C4.43364 12.6838 4.34108 12.9069 4.34082 13.1396V13.7248C4.34108 13.9575 4.43364 14.1806 4.5982 14.3452C4.76275 14.5097 4.98586 14.6023 5.21858 14.6025H5.70233C6.66527 15.3437 7.62243 15.3821 8.26371 15.2798C8.52344 15.2379 8.77779 15.1677 9.0222 15.0703V18.3702L8.73836 19.5056C8.72757 19.5487 8.72676 19.5937 8.73599 19.6372C8.74521 19.6807 8.76423 19.7215 8.79159 19.7566C8.81896 19.7916 8.85395 19.82 8.8939 19.8395C8.93386 19.859 8.97774 19.8691 9.0222 19.8691H10.7777C10.8553 19.8691 10.9297 19.8383 10.9846 19.7834C11.0395 19.7285 11.0703 19.6541 11.0703 19.5765V18.4537L11.8353 16.1588C13.2388 16.6855 14.7545 16.8411 16.2357 16.6104C16.8099 16.5232 17.373 16.3745 17.9154 16.1671L18.6656 18.4178L18.3937 19.5054C18.3829 19.5486 18.3821 19.5936 18.3913 19.6371C18.4005 19.6806 18.4195 19.7215 18.4469 19.7565C18.4742 19.7916 18.5092 19.8199 18.5492 19.8395C18.5892 19.859 18.6331 19.8691 18.6776 19.8691H20.4331C20.5107 19.8691 20.5851 19.8383 20.64 19.7834C20.6948 19.7285 20.7257 19.6541 20.7257 19.5765V18.4421L21.8873 13.7957C21.8931 13.7725 21.896 13.7487 21.896 13.7248ZM20.7257 8.75081C20.6678 8.75081 20.6112 8.73365 20.5631 8.7015C20.515 8.66935 20.4775 8.62365 20.4553 8.57019C20.4332 8.51673 20.4274 8.4579 20.4387 8.40114C20.45 8.34439 20.4778 8.29225 20.5188 8.25133C20.5597 8.21041 20.6118 8.18255 20.6686 8.17126C20.7253 8.15997 20.7842 8.16576 20.8376 8.18791C20.8911 8.21005 20.9368 8.24755 20.9689 8.29567C21.0011 8.34379 21.0182 8.40035 21.0182 8.45822C21.0182 8.53579 20.9873 8.61016 20.9325 8.66502C20.8776 8.71987 20.8032 8.75072 20.7257 8.75081ZM4.92599 13.7248V13.1396C4.92608 13.062 4.95693 12.9877 5.01179 12.9328C5.06664 12.878 5.14101 12.8471 5.21858 12.847H5.51117V14.0174H5.21858C5.14101 14.0173 5.06664 13.9864 5.01179 13.9316C4.95693 13.8767 4.92608 13.8023 4.92599 13.7248ZM9.39693 19.2839L9.54323 18.6987H10.4851V19.2839H9.39693ZM19.0523 19.2839L19.1986 18.6987H20.1405V19.2839H19.0523ZM20.2046 18.1136H19.1811L18.37 15.6804C18.3581 15.6453 18.3397 15.6128 18.3157 15.5847L18.3147 15.5834C18.3094 15.5772 18.3039 15.5713 18.2982 15.5656C18.2963 15.5637 18.2943 15.562 18.2924 15.56C18.2877 15.5556 18.283 15.5514 18.278 15.5473C18.2743 15.5443 18.2707 15.5416 18.267 15.5388C18.2634 15.536 18.2593 15.533 18.2553 15.5304C18.2499 15.5267 18.2443 15.5233 18.2385 15.5199C18.2358 15.5184 18.2333 15.5168 18.2306 15.5153C18.2285 15.5142 18.2266 15.5129 18.2244 15.5117C18.1832 15.4907 17.2146 14.9799 17.2146 13.7248C17.2146 13.6472 17.1838 13.5728 17.1289 13.5179C17.0741 13.463 16.9996 13.4322 16.922 13.4322C16.8444 13.4322 16.77 13.463 16.7151 13.5179C16.6603 13.5728 16.6294 13.6472 16.6294 13.7248C16.6294 14.7201 17.1086 15.3519 17.4926 15.6988C17.0472 15.8524 16.5887 15.9652 16.1228 16.0359C14.6498 16.261 13.1433 16.0766 11.7681 15.5028C11.7309 15.4873 11.691 15.4797 11.6508 15.4803C11.6106 15.481 11.5709 15.4899 11.5343 15.5066C11.4977 15.5232 11.4649 15.5473 11.438 15.5772C11.4111 15.6071 11.3906 15.6422 11.3779 15.6804L10.5668 18.1136H9.60737V14.6025C9.60725 14.5501 9.59304 14.4986 9.56623 14.4535C9.53943 14.4084 9.501 14.3714 9.45498 14.3462C9.40896 14.321 9.35702 14.3087 9.30459 14.3104C9.25216 14.3122 9.20117 14.328 9.15694 14.3562C9.09356 14.3965 7.62144 15.3084 6.09634 14.1673V12.7412C6.41303 12.5707 7.01612 12.1297 7.25791 11.1627C7.3049 10.9752 7.43646 10.7588 7.63827 10.5367C7.683 10.4875 7.70963 10.4245 7.71377 10.3581C7.7179 10.2917 7.6993 10.2259 7.66102 10.1715C7.3594 9.74286 7.31474 9.30892 7.52837 8.88167C7.62828 8.68154 7.71265 8.47402 7.78072 8.26095C7.99654 8.36198 8.18714 8.50982 8.33867 8.69373C8.4902 8.87765 8.59885 9.09301 8.65673 9.32417C8.66793 9.36627 8.68839 9.40534 8.71662 9.43852C8.74485 9.47171 8.78014 9.49817 8.8199 9.51597C8.85966 9.53377 8.9029 9.54247 8.94645 9.54144C8.99001 9.5404 9.03278 9.52964 9.07165 9.50996C10.4112 8.83175 12.1602 8.45822 13.9962 8.45822C16.0566 8.45822 17.8959 8.92168 19.1749 9.7633C20.5823 10.6892 21.3007 12.0099 21.3108 13.6892L20.2046 18.1136Z" fill="#343330"/>
<path d="M7.55863 12.8477C7.72046 12.8477 7.85164 12.7166 7.85164 12.5547C7.85164 12.3929 7.72046 12.2617 7.55863 12.2617C7.39681 12.2617 7.26562 12.3929 7.26562 12.5547C7.26562 12.7166 7.39681 12.8477 7.55863 12.8477Z" fill="#343330"/>
<rect x="7.85156" y="2.23438" width="1.07994" height="25.3621" transform="rotate(-30.5653 7.85156 2.23438)" fill="#F8B0B5"/>
</svg>
