<svg width="19" height="18" viewBox="0 0 19 18" fill="none" xmlns="http://www.w3.org/2000/svg">
<path d="M17.1094 9.63086V13.3496C17.1094 14.8166 15.8502 16.0059 14.2969 16.0059H4.17188C2.61857 16.0059 1.35938 14.8166 1.35938 13.3496V3.78711C1.35938 2.3201 2.61857 1.13086 4.17188 1.13086H7.54688V0.0683594H4.17188C1.99725 0.0683594 0.234375 1.7333 0.234375 3.78711V13.3496C0.234375 15.4034 1.99725 17.0684 4.17188 17.0684H14.2969C16.4715 17.0684 18.2344 15.4034 18.2344 13.3496V9.63086H17.1094Z" fill="#343330"/>
<path d="M6.42188 13.8811H7.54687V9.63109C7.54687 5.45547 11.3269 5.38109 11.4844 5.38109H15.1912L12.2156 8.19141L13.0087 8.94047L16.9462 5.22172C17.1644 5.0145 17.1644 4.67988 16.9462 4.47266L13.0087 0.753906L12.21 1.50828L15.1912 4.31859H11.4844C11.4337 4.31859 6.42188 4.37703 6.42188 9.63109V13.8811Z" fill="#343330"/>
</svg>
