<svg width="21" height="27" viewBox="0 0 21 27" fill="transparent" xmlns="http://www.w3.org/2000/svg">
<path d="M13.7331 0.427734H12.1004H11.6923H5.16167H4.75351H3.12085C1.77024 0.427734 0.671875 1.59383 0.671875 3.02773V23.8277C0.671875 25.2616 1.77024 26.4277 3.12085 26.4277H13.7331C15.0837 26.4277 16.1821 25.2616 16.1821 23.8277V13.6071L20.2143 9.32623C20.5094 9.01293 20.6719 8.5965 20.6719 8.15363C20.6719 7.23843 19.9707 6.4944 19.1094 6.4944C18.6919 6.4944 18.2996 6.66687 18.0045 6.9806L16.1821 8.915V3.02773C16.1821 1.59383 15.0837 0.427734 13.7331 0.427734ZM12.1004 1.2944H13.7331C14.6335 1.2944 15.3658 2.0718 15.3658 3.02773V9.78167L14.5494 10.6483V3.46107C14.5494 2.74433 14 2.16107 13.3249 2.16107H11.209C11.2547 2.025 11.2841 1.88027 11.2841 1.72773C11.2841 1.48897 11.467 1.2944 11.6923 1.2944H12.1004ZM8.01881 20.3611H9.65147C9.76004 20.3611 9.86371 20.3156 9.94004 20.2341L13.7331 16.2071V23.3944C13.7331 23.6332 13.5502 23.8277 13.3249 23.8277H3.52902C3.30371 23.8277 3.12085 23.6332 3.12085 23.3944V3.46107C3.12085 3.2223 3.30371 3.02773 3.52902 3.02773H6.79432H10.0596H13.3249C13.5502 3.02773 13.7331 3.2223 13.7331 3.46107V11.515L7.73024 17.888C7.65351 17.9691 7.61065 18.0796 7.61065 18.1944V19.9277C7.61065 20.1669 7.7931 20.3611 8.01881 20.3611ZM6.38616 1.72773C6.38616 1.5752 6.35677 1.43047 6.31106 1.2944H10.5433C10.4972 1.43047 10.4678 1.5752 10.4678 1.72773C10.4678 1.9665 10.2849 2.16107 10.0596 2.16107H6.79432C6.56902 2.16107 6.38616 1.9665 6.38616 1.72773ZM15.3658 23.8277C15.3658 24.7837 14.6335 25.5611 13.7331 25.5611H3.12085C2.22045 25.5611 1.4882 24.7837 1.4882 23.8277V3.02773C1.4882 2.0718 2.22045 1.2944 3.12085 1.2944H4.75351H5.16167C5.38698 1.2944 5.56983 1.48897 5.56983 1.72773C5.56983 1.88027 5.59922 2.025 5.64494 2.16107H3.52902C2.85392 2.16107 2.30453 2.74433 2.30453 3.46107V23.3944C2.30453 24.1111 2.85392 24.6944 3.52902 24.6944H13.3249C14 24.6944 14.5494 24.1111 14.5494 23.3944V15.3405L15.3658 14.4738V23.8277ZM18.5817 7.59333C18.7209 7.44557 18.9127 7.36107 19.1094 7.36107C19.5209 7.36107 19.8555 7.7164 19.8555 8.15363C19.8555 8.3651 19.778 8.56443 19.6372 8.71393L9.48249 19.4944H8.42698V18.3738L18.5817 7.59333Z" fill="#343330" fill-opacity="0.75"/>
<path d="M8.4273 16.4604V15.5938H4.34566C4.11995 15.5938 3.9375 15.7879 3.9375 16.0271V21.6604C3.9375 21.8996 4.11995 22.0938 4.34566 22.0938H12.5089C12.7346 22.0938 12.9171 21.8996 12.9171 21.6604V19.4938H12.1008V21.2271H4.75383V16.4604H8.4273Z" fill="#343330" fill-opacity="0.75"/>
<path d="M12.1008 11.2615H12.9171V10.3948H12.5089V9.52812C12.5089 7.28476 10.8951 5.43486 8.83546 5.21689V4.32812H8.01913V5.21689C5.95954 5.43486 4.34566 7.28519 4.34566 9.52812V10.3948H3.9375V11.2615H4.75383H12.1008ZM5.16199 9.52812C5.16199 7.61669 6.62689 6.06146 8.4273 6.06146C10.2277 6.06146 11.6926 7.61669 11.6926 9.52812V10.3948H5.16199V9.52812Z" fill="#343330" fill-opacity="0.75"/>
<path d="M3.9375 12.1279H11.6926V12.9946H3.9375V12.1279Z" fill="#343330" fill-opacity="0.75"/>
</svg>
