<svg width="30" height="30" viewBox="0 0 30 30" fill="none" xmlns="http://www.w3.org/2000/svg">
<path fill-rule="evenodd" clip-rule="evenodd" d="M15 30C23.284 30 30 23.284 30 15C30 6.715 23.284 0 15 0C6.716 0 0 6.715 0 15C0 23.284 6.716 30 15 30ZM15 28.825C22.636 28.825 28.826 22.635 28.826 14.999C28.826 7.363 22.636 1.174 15.001 1.174C7.365 1.174 1.175 7.364 1.175 14.999C1.175 22.635 7.365 28.825 15.001 28.825H15Z" fill="#085DA5"/>
<path d="M24.3251 13.68C24.3251 9.74598 21.1371 6.54498 17.2191 6.54498H6.31907C6.23433 6.54485 6.1504 6.56145 6.07209 6.59381C5.99377 6.62618 5.92262 6.67369 5.8627 6.73361C5.80278 6.79353 5.75527 6.86468 5.7229 6.943C5.69053 7.02131 5.67394 7.10524 5.67407 7.18998C5.67407 7.26098 5.68207 8.96298 6.36507 10.687C7.31707 13.087 9.08807 14.354 11.4881 14.354H11.6381L11.0571 15.517C11.0186 15.5927 10.9955 15.6753 10.9891 15.7599C10.9827 15.8446 10.9931 15.9297 11.0197 16.0103C11.0463 16.0909 11.0886 16.1655 11.1441 16.2298C11.1996 16.294 11.2673 16.3466 11.3433 16.3846C11.4192 16.4225 11.5019 16.4451 11.5866 16.451C11.6713 16.4569 11.7564 16.446 11.8368 16.4189C11.9173 16.3918 11.9916 16.349 12.0555 16.2931C12.1194 16.2372 12.1716 16.1692 12.2091 16.093L13.0791 14.354H17.2101C18.7701 14.354 20.0901 15.552 20.0901 16.97C20.0901 18.256 19.0161 19.323 17.6241 19.499C17.5592 19.1539 17.4471 18.8195 17.2911 18.505C16.7551 17.439 15.7451 16.852 14.4471 16.852H11.6331C11.4623 16.852 11.2985 16.9198 11.1777 17.0406C11.0569 17.1614 10.9891 17.3252 10.9891 17.496C10.9891 17.578 10.9991 18.319 11.3791 19.081C11.6001 19.525 11.9041 19.884 12.2761 20.154C11.8948 20.4333 11.5873 20.8012 11.3801 21.226C11.138 21.7203 11.0046 22.2608 10.9891 22.811C10.9891 23.167 11.2771 23.456 11.6331 23.456H14.4471C15.7451 23.456 16.7551 22.869 17.2911 21.803C17.4731 21.441 17.5721 21.085 17.6261 20.801C21.3561 20.588 24.3251 17.476 24.3251 13.679V13.68ZM14.4471 18.14C15.2531 18.14 15.8011 18.438 16.1241 19.051C16.1941 19.185 16.2461 19.321 16.2861 19.448H14.2181C13.4131 19.448 12.8681 19.151 12.5501 18.54C12.4841 18.4119 12.4302 18.278 12.3891 18.14H14.4471ZM16.1401 21.224C15.8201 21.858 15.2671 22.167 14.4471 22.167H12.3891C12.4251 22.049 12.4721 21.924 12.5331 21.801C12.8481 21.167 13.3991 20.86 14.2181 20.86H16.2851C16.2469 20.9851 16.1984 21.1069 16.1401 21.224V21.224ZM19.4381 8.27598L16.5651 13.066H13.3401V7.83398H17.2191C17.981 7.83303 18.7356 7.98327 19.4391 8.27598H19.4381ZM7.57507 10.242C7.21307 9.34098 7.06507 8.42398 7.00507 7.83398H12.0521V13.066H11.4881C9.64407 13.066 8.32807 12.116 7.57507 10.242ZM18.0231 13.141L20.5661 8.90098C21.2507 9.38592 21.8231 10.0124 22.2444 10.7379C22.6658 11.4634 22.9262 12.271 23.0081 13.106L20.0231 14.101C19.4532 13.6094 18.763 13.2781 18.0231 13.141V13.141ZM21.2601 17.88C21.3371 17.588 21.3781 17.283 21.3781 16.97C21.3781 16.333 21.2121 15.719 20.9011 15.167L22.9831 14.473C22.8064 15.7695 22.1996 16.9692 21.2601 17.88V17.88Z" fill="#085DA5"/>
<path d="M9.50804 8.78302C9.33724 8.78334 9.17343 8.85088 9.05204 8.97102C8.93153 9.09226 8.86363 9.25608 8.86304 9.42702C8.8646 9.59733 8.93295 9.76023 9.05339 9.88067C9.17383 10.0011 9.33672 10.0695 9.50704 10.071C9.63408 10.0701 9.75804 10.0318 9.86341 9.96081C9.96878 9.88983 10.0509 9.78936 10.0994 9.67196C10.148 9.55456 10.1609 9.42544 10.1364 9.30077C10.112 9.1761 10.0513 9.0614 9.96204 8.97102C9.84132 8.85109 9.67821 8.78354 9.50804 8.78302V8.78302Z" fill="#085DA5"/>
</svg>
