<svg width="30" height="31" viewBox="0 0 30 31" fill="none" xmlns="http://www.w3.org/2000/svg">
<path d="M28.7489 19.2425H0.846328C0.580776 19.2425 0.365234 19.4649 0.365234 19.7402C0.365234 25.5027 4.89703 30.1912 10.4679 30.1912H19.1274C24.6978 30.1912 29.23 25.5027 29.23 19.7402C29.23 19.4649 29.015 19.2425 28.7489 19.2425ZM19.1274 29.1959H10.4679C5.58927 29.1959 1.591 25.2215 1.33988 20.2378H28.2553C28.0043 25.2215 24.006 29.1959 19.1274 29.1959Z" fill="white"/>
<path d="M24.9026 7.30167C24.9026 7.26534 24.9021 7.229 24.8987 7.17377C24.8246 6.34865 24.2762 5.67081 23.5522 5.41651L24.0968 4.85316C25.0411 3.89617 25.1359 2.36533 24.3094 1.2844C23.4242 0.171626 21.8289 0.0133339 20.7537 0.928561C20.6926 0.98082 20.6334 1.03605 20.5742 1.09729L19.9825 1.71839C19.7343 0.973354 19.0776 0.409999 18.2685 0.332369C17.2029 0.272178 16.3008 1.11817 16.2436 2.21403C16.2417 2.25037 16.2412 2.2867 16.2412 2.32252V3.08546C15.9583 2.91573 15.6307 2.81822 15.281 2.81769C15.2464 2.81769 15.2107 2.81868 15.1573 2.82166C14.1288 2.92069 13.3374 3.83493 13.3547 4.89492V5.57177C13.0661 5.39907 12.737 5.30651 12.3945 5.30599C12.3599 5.30599 12.3248 5.30698 12.2714 5.30995C11.2423 5.40899 10.451 6.32322 10.4683 7.38327V14.7637C10.4683 15.0389 10.6838 15.2614 10.9494 15.2614H19.1277C20.189 15.2614 21.0521 14.3686 21.0516 13.2717C21.0516 12.9094 20.9577 12.5695 20.7932 12.2764H21.4432C22.4765 12.3057 23.3603 11.4751 23.457 10.3917C23.4777 9.98658 23.3795 9.60339 23.1938 9.27794C23.6258 9.22819 24.0256 9.03059 24.3373 8.7091C24.7009 8.33384 24.902 7.83418 24.9026 7.30167ZM23.658 8.00437C23.4761 8.19147 23.2351 8.29453 22.9777 8.29453C22.9772 8.29453 22.9768 8.29453 22.9763 8.29453H21.533C21.267 8.29453 21.052 8.51751 21.052 8.79221C21.052 9.06692 21.267 9.2899 21.533 9.2899L21.586 9.29141C22.1161 9.32075 22.5241 9.79055 22.4971 10.3191C22.4481 10.8675 21.9983 11.2921 21.4513 11.2806H19.1277C18.8616 11.2806 18.6466 11.5035 18.6466 11.7783C18.6466 12.053 18.8616 12.2759 19.1277 12.2759C19.6583 12.2759 20.0899 12.7223 20.0899 13.2713C20.0899 13.8202 19.6583 14.2667 19.1277 14.2667H11.4304V7.37481C11.4212 6.82388 11.8302 6.35262 12.3415 6.30281L12.394 6.30129C12.9237 6.30176 13.3542 6.74771 13.3547 7.29514V7.29864C13.3547 7.57335 13.5697 7.79632 13.8353 7.79632C13.8358 7.79632 13.8358 7.79632 13.8358 7.79632C14.1013 7.79632 14.3164 7.57387 14.3169 7.29917V7.2987V4.88646C14.3077 4.33553 14.7167 3.86426 15.228 3.81446L15.28 3.81294C15.8102 3.81393 16.2407 4.25982 16.2412 4.80778V4.81075C16.2412 5.08546 16.4563 5.30844 16.7218 5.30844C16.7223 5.30844 16.7223 5.30844 16.7223 5.30844C16.9879 5.30844 17.2029 5.08599 17.2034 4.81128V4.81075V2.32246L17.2049 2.26722C17.2328 1.71927 17.6763 1.29729 18.1979 1.32464C18.729 1.37591 19.1374 1.84717 19.1273 2.40755V2.82061C19.1273 3.02218 19.2452 3.20432 19.4261 3.28096C19.6055 3.3576 19.8143 3.3138 19.9509 3.1695L21.256 1.7994C21.2916 1.76307 21.3282 1.72871 21.3662 1.6964C22.032 1.13007 23.0187 1.22858 23.5614 1.9094C24.0752 2.58223 24.016 3.54173 23.4204 4.14545L22.1552 5.45431C22.0176 5.59662 21.9763 5.81061 22.0508 5.99678C22.1249 6.18243 22.3009 6.30386 22.4953 6.30386H22.8946C22.9047 6.30386 22.9119 6.30386 22.9201 6.30386C23.4454 6.30386 23.8918 6.72292 23.939 7.24644L23.9404 7.30121C23.9399 7.56693 23.8398 7.81674 23.658 8.00437Z" fill="white"/>
<path d="M21.1925 3.46208L7.72253 17.3965L8.40286 18.1003L21.8728 4.16587L21.1925 3.46208Z" fill="white"/>
<path d="M19.1261 4.31549H18.1639V6.80384H19.1261V4.31549Z" fill="white"/>
<path d="M16.2395 6.80377H15.2773V9.78981H16.2395V6.80377Z" fill="white"/>
<path d="M13.3533 9.28717H12.3911V12.7708H13.3533V9.28717Z" fill="white"/>
<path d="M21.0509 6.30609H18.6455V7.3014H21.0509V6.30609Z" fill="white"/>
<path d="M18.6452 9.28717H15.7587V10.2825H18.6452V9.28717Z" fill="white"/>
<path d="M16.2401 12.2733H12.8726V13.2686H16.2401V12.2733Z" fill="white"/>
<path d="M9.34407 2.6314C9.34362 2.63041 9.34261 2.62942 9.34216 2.62843C8.66334 1.57684 7.2836 1.29116 6.26757 1.99339C6.23583 2.01479 6.20453 2.03766 6.16896 2.06507L5.99576 2.20143L5.82932 2.07749C4.94895 1.228 3.56486 1.26235 2.72683 2.16212C2.31649 2.60206 2.09616 3.18134 2.10721 3.79299C2.11826 4.40464 2.35833 4.97494 2.78315 5.39895C2.90679 5.52237 3.04436 5.63085 3.19253 5.72143L3.59762 6.04892V6.30374C3.59762 7.67582 4.67668 8.7921 6.00303 8.7921C7.32938 8.7921 8.40844 7.6753 8.40793 6.30328V6.04846L8.83372 5.70457C9.75492 4.98141 9.97863 3.63126 9.34407 2.6314ZM8.24674 4.9162L7.63096 5.41389C7.51453 5.50796 7.4462 5.65278 7.4462 5.80606V6.30374C7.4462 7.12687 6.79867 7.79673 6.00298 7.79673C5.20728 7.79673 4.55975 7.12687 4.55975 6.30374V5.80606C4.55975 5.65278 4.49193 5.50796 4.37499 5.41389L3.75921 4.9162C3.74094 4.90127 3.72121 4.88786 3.70102 4.8759C3.61059 4.82265 3.52686 4.75797 3.45182 4.68279C3.2113 4.4429 3.0756 4.12042 3.06934 3.77503C3.06308 3.42963 3.18768 3.1022 3.41957 2.85333C3.66443 2.59057 3.99206 2.45818 4.32014 2.45818C4.63282 2.45818 4.94601 2.57809 5.1885 2.82049C5.20486 2.83641 5.22216 2.85187 5.24094 2.86575L5.72203 3.22409C5.89332 3.352 6.12566 3.34902 6.29407 3.21663L6.80115 2.822C7.08018 2.62889 7.41451 2.56124 7.7436 2.62843C8.07168 2.69608 8.35505 2.8917 8.54122 3.17936C8.89816 3.74371 8.77114 4.50414 8.24674 4.9162Z" fill="white"/>
<path d="M11.9102 1.34087V1.30775C11.9102 1.04205 11.6948 0.82666 11.4291 0.82666C11.1634 0.82666 10.948 1.04205 10.948 1.30775V1.34087C10.948 1.60657 11.1634 1.82197 11.4291 1.82197C11.6948 1.82197 11.9102 1.60657 11.9102 1.34087Z" fill="white"/>
<path d="M14.7964 17.2664V17.2333C14.7964 16.9676 14.581 16.7522 14.3153 16.7522C14.0496 16.7522 13.8342 16.9676 13.8342 17.2333V17.2664C13.8342 17.5321 14.0496 17.7475 14.3153 17.7475C14.581 17.7475 14.7964 17.5321 14.7964 17.2664Z" fill="white"/>
<path d="M26.3434 3.31775V4.31311C26.874 4.31311 27.3056 4.75953 27.3056 5.30842C27.3056 5.85731 26.874 6.30379 26.3434 6.30379V7.29909C27.4046 7.29909 28.2677 6.40626 28.2677 5.30842C28.2677 4.21058 27.4046 3.31775 26.3434 3.31775Z" fill="white"/>
<path d="M2.2883 8.31331V8.28008C2.2883 8.01439 2.07292 7.79901 1.80724 7.79901C1.54155 7.79901 1.32617 8.01439 1.32617 8.28008V8.31331C1.32617 8.579 1.54155 8.79438 1.80724 8.79438C2.07292 8.79438 2.2883 8.579 2.2883 8.31331Z" fill="white"/>
<path d="M1.32736 6.32308V6.28984C1.32736 6.02416 1.11198 5.80878 0.846299 5.80878C0.580615 5.80878 0.365234 6.02416 0.365234 6.28984V6.32308C0.365234 6.58876 0.580615 6.80414 0.846299 6.80414C1.11198 6.80414 1.32736 6.58876 1.32736 6.32308Z" fill="white"/>
<path d="M19.1273 16.2568C18.0661 16.2568 17.203 17.1496 17.203 18.2474H18.1652C18.1652 17.6985 18.5967 17.2521 19.1273 17.2521C19.658 17.2521 20.0895 17.6985 20.0895 18.2474H21.0516C21.0516 17.1496 20.1886 16.2568 19.1273 16.2568Z" fill="white"/>
<path d="M6.13818 11.7776H6.07758C5.86299 10.9201 5.10913 10.2846 4.21387 10.2846C3.3186 10.2846 2.56424 10.9201 2.35016 11.7776H2.28955C1.2283 11.7776 0.365234 12.6704 0.365234 13.7683C0.365234 14.8661 1.2283 15.7589 2.28955 15.7589H6.13818C7.19943 15.7589 8.0625 14.8661 8.0625 13.7683C8.0625 12.6704 7.19943 11.7776 6.13818 11.7776ZM6.13818 14.7641H2.28949C1.75884 14.7641 1.32731 14.3177 1.32731 13.7688C1.32731 13.2198 1.75884 12.7734 2.28949 12.7734H2.77059C3.03614 12.7734 3.25168 12.5505 3.25168 12.2757C3.25168 11.7268 3.68322 11.2804 4.21387 11.2804C4.74452 11.2804 5.17605 11.7269 5.17605 12.2757C5.17605 12.5505 5.3916 12.7734 5.65715 12.7734H6.13824C6.66889 12.7734 7.10043 13.2198 7.10043 13.7688C7.10031 14.3177 6.66878 14.7641 6.13818 14.7641Z" fill="white"/>
<path d="M5.17592 14.7638H3.2516C2.98605 14.7638 2.77051 14.9868 2.77051 15.2615V17.2521C2.77051 17.5274 2.98605 17.7498 3.2516 17.7498H5.17592C5.44147 17.7498 5.65701 17.5274 5.65701 17.2521V15.2615C5.65701 14.9868 5.44147 14.7638 5.17592 14.7638ZM4.69482 16.7545H3.73269V15.7592H4.69488V16.7545H4.69482Z" fill="white"/>
<path d="M25.8623 13.2705C25.0666 13.2705 24.4191 13.9404 24.4191 14.7635C24.4191 15.5866 25.0666 16.2565 25.8623 16.2565C26.658 16.2565 27.3055 15.5866 27.3055 14.7635C27.3055 13.9404 26.658 13.2705 25.8623 13.2705ZM25.8623 15.2617C25.5967 15.2617 25.3812 15.0382 25.3812 14.764C25.3812 14.4897 25.5967 14.2663 25.8623 14.2663C26.1278 14.2663 26.3434 14.4893 26.3434 14.764C26.3434 15.0387 26.1278 15.2617 25.8623 15.2617Z" fill="white"/>
<path d="M25.862 11.2798C24.0056 11.2798 22.4945 12.8425 22.4945 14.7634C22.4945 16.6844 24.0056 18.2471 25.862 18.2471C27.7185 18.2471 29.2296 16.6844 29.2296 14.7634C29.2296 12.8425 27.7185 11.2798 25.862 11.2798ZM25.862 17.2523C24.5357 17.2523 23.4566 16.1355 23.4566 14.7639C23.4566 13.3918 24.5357 12.2756 25.862 12.2756C27.1884 12.2756 28.2675 13.3918 28.2675 14.7639C28.2675 16.136 27.1884 17.2523 25.862 17.2523Z" fill="white"/>
</svg>
