<svg width="29" height="30" viewBox="0 0 29 30" fill="none" xmlns="http://www.w3.org/2000/svg">
<path d="M10.6625 23.8623C8.40236 23.0882 6.43454 21.6385 5.0253 19.7093C4.9213 19.5631 4.74692 19.4837 4.56839 19.5015C4.38985 19.5192 4.23452 19.6313 4.16128 19.7951C4.0881 19.9589 4.10831 20.1494 4.21425 20.2942C5.74484 22.3908 7.88257 23.9666 10.3382 24.8081C10.5992 24.897 10.8829 24.7578 10.9723 24.497C11.0618 24.2362 10.9232 23.9522 10.6625 23.8623Z" fill="white"/>
<path d="M3.54664 16.8439C3.45852 16.5822 3.17492 16.4415 2.91324 16.5296C2.6515 16.6177 2.51082 16.9013 2.59889 17.163C2.71707 17.5135 2.85424 17.8639 3.00658 18.2042C3.11949 18.4562 3.41533 18.569 3.66734 18.4561C3.91936 18.3432 4.03209 18.0473 3.91918 17.7953C3.77984 17.4843 3.65457 17.1642 3.54664 16.8439Z" fill="white"/>
<path d="M16.7385 6.24961C16.7389 7.0401 17.0556 7.7976 17.6179 8.35312C17.8135 8.54625 18.1283 8.54531 18.3227 8.3509C18.5171 8.15648 18.5181 7.84172 18.325 7.64607C17.9499 7.27822 17.7385 6.77496 17.7385 6.24961C17.7385 5.72426 17.9499 5.22099 18.325 4.85314C19.5288 3.64927 18.9659 1.78699 17.825 0.646108C17.6294 0.452983 17.3146 0.453921 17.1201 0.648335C16.9258 0.842691 16.9248 1.15751 17.1179 1.35316C17.916 2.15127 18.3626 3.40148 17.6179 4.14615C17.0555 4.70162 16.7389 5.45912 16.7385 6.24961Z" fill="white"/>
<path d="M11.2386 8.74967C11.239 9.54016 11.5557 10.2977 12.118 10.8532C12.3136 11.0463 12.6284 11.0454 12.8228 10.851C13.0172 10.6566 13.0182 10.3418 12.8251 10.1461C12.45 9.77828 12.2387 9.27502 12.2387 8.74967C12.2387 8.22432 12.45 7.72105 12.8251 7.3532C14.0289 6.14933 13.466 4.28705 12.3251 3.14617C12.1295 2.95304 11.8147 2.95398 11.6203 3.1484C11.4259 3.34281 11.4249 3.65758 11.618 3.85322C12.4161 4.65133 12.8627 5.90154 12.118 6.64621C11.5557 7.20168 11.239 7.95918 11.2386 8.74967Z" fill="white"/>
<path d="M5.99951 5.75059C5.99986 6.54107 6.31656 7.29858 6.87889 7.8541C7.00492 7.98172 7.18967 8.03205 7.36299 7.986C7.53631 7.93994 7.67172 7.80453 7.71777 7.63121C7.76383 7.45789 7.7135 7.27314 7.58588 7.14711C7.21082 6.77926 6.99947 6.276 6.99947 5.75064C6.99947 5.22529 7.21082 4.72203 7.58588 4.35418C8.78975 3.15031 8.22678 1.28803 7.0859 0.147146C6.89031 -0.045979 6.57549 -0.0450416 6.38107 0.149373C6.18672 0.343728 6.18572 0.658553 6.37885 0.854197C7.17695 1.6523 7.6235 2.90252 6.87883 3.64719C6.31656 4.2026 5.99986 4.9601 5.99951 5.75059Z" fill="white"/>
<path d="M23.57 12.3575C23.6677 10.2214 23.9021 7.34719 24.4644 5.94199C25.1545 4.21594 27.2453 2.9618 28.1123 2.50277C28.7384 2.1668 28.99 1.39805 28.6836 0.756972C28.3772 0.115839 27.621 -0.171329 26.9663 0.104882C25.0035 0.905566 23.3098 2.24947 22.084 3.97887C20.8057 5.89623 20.3117 9.55195 20.1206 12.1284C18.3291 12.0445 16.444 11.9999 14.5 11.9999C11.1774 11.9794 7.85584 12.1268 4.54811 12.4416C0.351094 12.8908 0 13.4577 0 13.9999C0 14.0115 0.00134767 14.0232 0.00169924 14.0348L0.0011719 14.0348L0.00275396 14.0566C0.00369146 14.0749 0.00451174 14.0932 0.00667971 14.1117C0.0151758 14.2294 0.0322266 14.4592 0.0465821 14.6208C0.370957 18.2976 2.15502 21.6911 4.99998 24.0427V27C4.99998 28.9695 9.77907 30 14.5 30C19.2209 30 24 28.9695 24 27V24.3079C27.0273 21.9336 28.8532 18.3449 28.99 14.5C28.99 14.4586 28.9948 14.2335 28.9977 14.104C28.9998 14.0683 29 14.0336 29 14C29 13.5627 28.9984 12.8395 23.57 12.3575ZM27.6282 13.9991C26.2778 14.3505 24.896 14.5671 23.5029 14.6456C23.5064 14.3569 23.5142 13.9092 23.5314 13.3579C24.915 13.4343 26.2875 13.6491 27.6282 13.9991ZM21.0892 12.6763L21.0894 12.6756L21.0892 12.675C21.2478 10.1943 21.6887 6.37436 22.916 4.53357C24.0328 2.96684 25.5724 1.75037 27.355 1.02627C27.5165 0.958476 27.7028 1.02855 27.7797 1.186C27.8565 1.34344 27.7971 1.5334 27.6443 1.61906C26.4463 2.25334 24.3198 3.61025 23.5357 5.57051C22.6159 7.87014 22.5129 13.4187 22.5015 14.7268C22.0219 14.7635 21.522 14.7965 21.0017 14.8258C21.0062 14.4925 21.0238 13.6998 21.0892 12.6763ZM14.5 12.9998C16.4227 12.9998 18.2865 13.0439 20.0576 13.1265C20.0132 13.9751 20.0029 14.6095 20.0006 14.8732C18.2091 14.9541 16.3655 14.9998 14.5 14.9998C7.47211 14.9998 2.75268 14.4679 1.33371 13.9998C2.75268 13.5319 7.47217 12.9998 14.5 12.9998ZM23 26.9999C23 27.6786 19.9998 28.9999 14.5 28.9999C9.00018 28.9999 5.99994 27.6786 5.99994 26.9999V24.8116C8.4886 26.5622 11.4573 27.5011 14.5 27.4999C17.5138 27.5289 20.4697 26.6712 23 25.0337V26.9999ZM23.2333 23.6327C23.1973 23.6538 23.1642 23.6793 23.1348 23.7086C20.6381 25.5562 17.6057 26.5364 14.5 26.4998C7.65112 26.4998 1.84535 21.463 1.08809 14.9549C2.21983 15.2646 3.37834 15.4666 4.54817 15.5582C7.8559 15.8729 11.1775 16.0203 14.5001 15.9998C16.5502 15.9998 18.5821 15.9507 20.5401 15.8541C21.4307 15.8091 22.2776 15.7532 23.056 15.6881C24.7121 15.6108 26.3558 15.3621 27.9606 14.9458C27.7006 18.3846 25.9796 21.5471 23.2333 23.6327Z" fill="white"/>
</svg>
