<svg width="26" height="26" viewBox="0 0 26 26" fill="none" xmlns="http://www.w3.org/2000/svg">
<path fill-rule="evenodd" clip-rule="evenodd" d="M13 26C20.1797 26 26 20.1797 26 13C26 5.82029 20.1797 0 13 0C5.8203 0 0 5.82029 0 13C0 20.1797 5.8203 26 13 26ZM13 24.9829C19.6176 24.9829 24.9822 19.6183 24.9822 13.0008C24.9822 6.38322 19.6176 1.01863 13 1.01863C6.38243 1.01863 1.01782 6.38322 1.01782 13.0008C1.01782 19.6183 6.38243 24.9829 13 24.9829Z" fill="#343330"/>
<path d="M20.7136 19.7243C18.3284 19.989 16.4367 18.9328 16.4178 18.9222C16.3536 18.8855 16.2775 18.8757 16.2062 18.8953C16.1761 18.9033 13.1758 19.7076 10.7593 19.1712C9.25279 18.8362 7.83186 17.7751 6.79428 17.0003C6.65492 16.8963 6.52287 16.7976 6.39889 16.707C6.22957 16.5832 5.96034 16.4802 5.72301 16.3892C5.61644 16.3485 5.47043 16.2925 5.43905 16.2729C5.4119 16.2517 5.39704 16.2204 5.39704 16.1847V15.5379C5.41049 15.0261 7.55636 7.15075 7.88911 6.1489C7.89731 6.13712 7.92933 6.11393 7.9529 6.10279L12.1996 4.16313L13.5725 5.9505C13.6402 6.0431 13.6338 6.17259 13.5575 6.25802L12.2008 7.77886C12.1121 7.87851 11.9626 7.88939 11.8699 7.8119L11.3213 7.30611C11.257 7.24694 11.1656 7.22734 11.0799 7.2431C10.9939 7.25847 10.9171 7.31969 10.8774 7.39756C10.8315 7.48786 10.4162 7.59852 9.99246 7.60172L9.85439 7.58776C9.74373 7.57457 9.6364 7.63234 9.58235 7.7298C9.52804 7.82727 9.53726 7.94767 9.6054 8.03605C9.72323 8.18834 9.81507 8.31065 9.86707 8.38084L10.1386 12.9965C9.9703 13.652 9.81609 13.8383 9.7778 13.8755C9.6647 13.9113 9.5826 14.0169 9.5826 14.1417C9.5826 14.2958 9.70761 14.4208 9.86169 14.4208C10.1782 14.4208 10.4471 14.0049 10.6631 13.193C12.8826 11.5323 14.8196 13.0996 14.9715 13.2286C15.6764 13.9361 15.7201 14.406 15.7215 14.4269C15.7249 14.578 15.8485 14.6997 16.0006 14.6997C16.1547 14.6997 16.2797 14.5748 16.2797 14.4208C16.2797 14.3566 16.2564 13.806 15.5341 13.0105C16.2153 12.1731 16.9908 11.6907 17.845 11.5857C19.3177 11.4043 20.5556 12.3946 20.568 12.4045C20.6876 12.5019 20.8631 12.4839 20.9604 12.3645C21.0578 12.2453 21.0402 12.0698 20.9211 11.9724C20.8635 11.9254 19.4931 10.823 17.7825 11.0311C16.7826 11.1524 15.885 11.6931 15.1112 12.6397C14.4832 12.2126 12.6827 11.2461 10.669 12.5102L10.4192 8.26544C10.4167 8.21959 10.4026 8.17514 10.3786 8.13608C10.6284 8.10649 10.9258 8.0413 11.1415 7.89938L11.501 8.23073C11.8357 8.51161 12.3258 8.47665 12.6171 8.15055L13.9737 6.62959C14.224 6.34922 14.2449 5.92527 14.0191 5.61608L12.5067 3.64709C12.4278 3.54424 12.2882 3.50928 12.1695 3.56333L7.7244 5.59367C7.67791 5.61403 7.44211 5.72815 7.36462 5.96126C7.20657 6.43567 4.83899 14.8792 4.83899 15.537V16.1848C4.83899 16.3927 4.93236 16.585 5.0949 16.7124C5.17623 16.776 5.29778 16.8242 5.52358 16.9105C5.70802 16.9812 5.96047 17.0777 6.06946 17.1575C6.19217 17.2471 6.32255 17.3446 6.46037 17.4476C7.53843 18.2527 9.01482 19.3552 10.6384 19.716C12.9496 20.2296 15.6627 19.6087 16.2442 19.4622C16.6326 19.6629 18.0573 20.3259 19.9226 20.3259C20.1978 20.3259 20.4828 20.3116 20.7752 20.2789C20.9284 20.262 21.0387 20.124 21.0218 19.9709C21.0046 19.8175 20.8662 19.7063 20.7136 19.7243Z" fill="#343330"/>
<path d="M17.8988 9.03821C17.9534 9.09277 18.0247 9.11992 18.0961 9.11992C18.1674 9.11992 18.2389 9.09264 18.2935 9.03821L20.2375 7.09419C20.7944 6.53717 20.7944 5.63074 20.2375 5.07371C19.6804 4.51656 18.7739 4.51682 18.217 5.07371L18.0961 5.19437L17.9754 5.07371C17.4181 4.51669 16.512 4.51669 15.9549 5.07371C15.6851 5.34358 15.5364 5.70234 15.5364 6.08389C15.5364 6.46544 15.6851 6.82433 15.9549 7.09406L17.8988 9.03821ZM16.3496 5.46833C16.5194 5.2985 16.7423 5.21383 16.9651 5.21383C17.188 5.21383 17.4111 5.29862 17.5808 5.46833L17.8988 5.78648C17.9512 5.83874 18.0222 5.8682 18.0961 5.8682C18.1701 5.8682 18.2411 5.83874 18.2935 5.78648L18.6116 5.46833C18.9513 5.12853 19.5034 5.12892 19.8428 5.46833C20.1823 5.80775 20.1823 6.36016 19.8428 6.69957L18.0961 8.44622L16.3496 6.69957C16.1851 6.53512 16.0944 6.31636 16.0944 6.08402C16.0946 5.85142 16.1851 5.63266 16.3496 5.46833V5.46833Z" fill="#343330"/>
<path d="M19.3469 16.3444C19.3315 16.2047 19.2133 16.0961 19.0695 16.0961C18.9154 16.0961 18.7904 16.2211 18.7904 16.3752C18.7904 16.5616 18.9281 17.1926 20.6979 17.4875C20.7134 17.49 20.7289 17.4913 20.744 17.4913C20.878 17.4913 20.9962 17.3946 21.019 17.2582C21.0442 17.1062 20.9415 16.9625 20.7896 16.937C19.552 16.7308 19.3634 16.3815 19.3469 16.3444Z" fill="#343330"/>
<path d="M13.9888 17.7765C10.334 18.5593 8.77001 16.0587 8.70533 15.952C8.62554 15.8202 8.45455 15.7778 8.32275 15.8569C8.19057 15.9362 8.14779 16.1076 8.22708 16.2398C8.24552 16.2704 8.68958 16.9993 9.63904 17.6202C10.2933 18.0479 11.2909 18.4836 12.6402 18.4836C13.0897 18.4836 13.5781 18.4353 14.1056 18.3224C14.2564 18.2901 14.3524 18.1416 14.3202 17.991C14.2878 17.8404 14.1396 17.7439 13.9888 17.7765V17.7765Z" fill="#343330"/>
</svg>
