<svg width="27" height="21" viewBox="0 0 27 21" fill="none" xmlns="http://www.w3.org/2000/svg">
<path fill-rule="evenodd" clip-rule="evenodd" d="M26.0552 3.19681C25.1318 3.60553 24.144 3.87423 23.1033 3.99155C24.1667 3.3709 24.9804 2.37181 25.3664 1.19107C24.3673 1.77008 23.2622 2.19016 22.0929 2.42479C21.1505 1.43705 19.807 0.816407 18.3273 0.816407C15.4852 0.816407 13.1767 3.09085 13.1767 5.89133C13.1767 6.2887 13.2183 6.67471 13.3053 7.04937C9.02513 6.83365 5.22932 4.81655 2.68616 1.75116C2.24717 2.50048 1.98983 3.3709 1.98983 4.30565C1.98983 6.06541 2.90188 7.60946 4.28699 8.52151C3.43927 8.4988 2.64453 8.26417 1.94819 7.88951C1.94819 7.91222 1.94819 7.93114 1.94819 7.95385C1.94819 8.5972 2.07686 9.22163 2.30393 9.7893C2.93593 11.3788 4.35132 12.5784 6.09217 12.9342C5.65318 13.0401 5.20282 13.1045 4.72977 13.1045C4.39674 13.1045 4.07506 13.0742 3.76474 13.0174C4.41945 15.0232 6.31924 16.4953 8.57099 16.5369C6.81122 17.8993 4.58975 18.7054 2.17905 18.7054C1.75897 18.7054 1.35403 18.6827 0.945312 18.6411C3.23112 20.0792 5.94458 20.9155 8.85104 20.9155C16.8968 20.9155 21.8544 15.3373 23.1525 9.54331C23.3871 8.5253 23.5045 7.49215 23.5045 6.48549C23.5045 6.26977 23.5045 6.04649 23.4931 5.83078C24.4998 5.10417 25.3664 4.21483 26.0552 3.19681Z" fill="#EE3823"/>
</svg>
