<svg width="35" height="23" viewBox="0 0 35 23" fill="none" xmlns="http://www.w3.org/2000/svg">
<path d="M12.5936 12.0004C12.4437 11.8599 12.2133 11.8736 12.0797 12.0301C11.3204 12.9177 10.2255 13.4264 9.07489 13.4264C7.92466 13.4264 6.8294 12.9177 6.07011 12.0301C5.9358 11.8736 5.70612 11.8599 5.55615 12.0004C5.40618 12.1406 5.39381 12.3812 5.52776 12.5381C6.42501 13.5867 7.71792 14.1879 9.07489 14.1879C10.4322 14.1879 11.7251 13.5863 12.622 12.5381C12.756 12.3812 12.7432 12.1406 12.5936 12.0004Z" fill="white"/>
<path d="M9.07341 1.24219C4.45723 1.24219 0.701538 5.17079 0.701538 9.99949C0.701538 14.8282 4.45723 18.7568 9.07341 18.7568C13.6896 18.7568 17.4453 14.8282 17.4453 9.99949C17.4453 5.17079 13.6896 1.24219 9.07341 1.24219ZM9.07341 17.9953C4.85836 17.9953 1.42953 14.4086 1.42953 9.99949C1.42953 5.59038 4.85836 2.00369 9.07341 2.00369C13.2885 2.00369 16.7173 5.59038 16.7173 9.99949C16.7173 14.4086 13.2885 17.9953 9.07341 17.9953Z" fill="white" stroke="white"/>
<path d="M11.9855 7.33398C10.982 7.33398 10.1655 8.18801 10.1655 9.23774C10.1655 9.44792 10.3286 9.61849 10.5295 9.61849C10.7304 9.61849 10.8935 9.44792 10.8935 9.23774C10.8935 8.60798 11.3835 8.09549 11.9855 8.09549C12.5875 8.09549 13.0775 8.60798 13.0775 9.23774C13.0775 9.44792 13.2406 9.61849 13.4415 9.61849C13.6424 9.61849 13.8055 9.44792 13.8055 9.23774C13.8055 8.18801 12.989 7.33398 11.9855 7.33398Z" fill="white"/>
<path d="M7.25388 9.23774C7.25388 9.44792 7.41695 9.61849 7.61787 9.61849C7.8188 9.61849 7.98187 9.44792 7.98187 9.23774C7.98187 8.18801 7.16543 7.33398 6.16189 7.33398C5.15836 7.33398 4.34192 8.18801 4.34192 9.23774C4.34192 9.44792 4.50499 9.61849 4.70591 9.61849C4.90684 9.61849 5.06991 9.44792 5.06991 9.23774C5.06991 8.60798 5.55985 8.09549 6.16189 8.09549C6.76394 8.09549 7.25388 8.60798 7.25388 9.23774Z" fill="white"/>
<path d="M29.0323 16.0535C28.8862 15.9128 28.6617 15.9265 28.5316 16.0832C27.7918 16.9717 26.725 17.481 25.604 17.481C24.4834 17.481 23.4162 16.9717 22.6765 16.0832C22.5456 15.9265 22.3218 15.9128 22.1757 16.0535C22.0296 16.1937 22.0175 16.4347 22.1481 16.5917C23.0222 17.6415 24.2819 18.2434 25.604 18.2434C26.9265 18.2434 28.1861 17.6411 29.06 16.5917C29.1905 16.4347 29.1781 16.1937 29.0323 16.0535Z" fill="white"/>
<path d="M22.175 16.5768C22.3211 16.7174 22.5456 16.7037 22.6757 16.5471C23.4155 15.6585 24.4822 15.1492 25.6033 15.1492C26.7239 15.1492 27.791 15.6585 28.5308 16.5471C28.6617 16.7037 28.8854 16.7174 29.0316 16.5768C29.1777 16.4365 29.1897 16.1956 29.0592 16.0385C28.185 14.9888 26.9254 14.3869 25.6033 14.3869C24.2808 14.3869 23.0211 14.9891 22.1473 16.0385C22.0168 16.1956 22.0292 16.4365 22.175 16.5768Z" fill="white"/>
<path d="M25.6034 4.54022C21.1058 4.54022 17.4467 8.47333 17.4467 13.3076C17.4467 18.1418 21.1058 22.0749 25.6034 22.0749C30.1009 22.0749 33.7601 18.1418 33.7601 13.3076C33.7601 8.47333 30.1009 4.54022 25.6034 4.54022ZM25.6034 21.3125C21.4966 21.3125 18.1559 17.7217 18.1559 13.3076C18.1559 8.8934 21.4966 5.3026 25.6034 5.3026C29.7101 5.3026 33.0508 8.8934 33.0508 13.3076C33.0508 17.7217 29.7101 21.3125 25.6034 21.3125Z" fill="white" stroke="white"/>
<path d="M28.4417 10.6389C27.4639 10.6389 26.6685 11.4939 26.6685 12.5448C26.6685 12.7552 26.8273 12.926 27.0231 12.926C27.2189 12.926 27.3777 12.7552 27.3777 12.5448C27.3777 11.9143 27.8551 11.4012 28.4417 11.4012C29.0282 11.4012 29.5056 11.9143 29.5056 12.5448C29.5056 12.7552 29.6645 12.926 29.8602 12.926C30.056 12.926 30.2149 12.7552 30.2149 12.5448C30.2149 11.4939 29.4194 10.6389 28.4417 10.6389Z" fill="white"/>
<path d="M23.831 12.5448C23.831 12.7552 23.9899 12.926 24.1856 12.926C24.3814 12.926 24.5403 12.7552 24.5403 12.5448C24.5403 11.4939 23.7448 10.6389 22.7671 10.6389C21.7894 10.6389 20.9939 11.4939 20.9939 12.5448C20.9939 12.7552 21.1528 12.926 21.3485 12.926C21.5443 12.926 21.7032 12.7552 21.7032 12.5448C21.7032 11.9143 22.1805 11.4012 22.7671 11.4012C23.3537 11.4012 23.831 11.9143 23.831 12.5448Z" fill="white"/>
</svg>
