<svg width="20" height="20" viewBox="0 0 20 20" fill="transparent" xmlns="http://www.w3.org/2000/svg">
<path d="M15.2649 15.5074L15.2648 15.5074V15.5165V15.7327V15.9339V15.9345H15.7148H15.7155L16.0149 16.2692C17.3287 15.0936 18.2544 13.5467 18.6696 11.8334C19.0848 10.12 18.9699 8.32097 18.3401 6.67435C17.7104 5.02774 16.5954 3.6112 15.1428 2.61223C13.6902 1.61326 11.9685 1.07896 10.2056 1.08007C8.44262 1.08117 6.72158 1.61761 5.27024 2.6184C3.8189 3.61918 2.70569 5.03712 2.07797 6.68452C1.45025 8.33192 1.33762 10.1311 1.75497 11.8439C2.17233 13.5568 3.09999 15.1025 4.41518 16.2764L5.16485 16.9456V15.9407V15.5954C5.1688 15.5727 5.17172 15.5459 5.17172 15.5159H5.17183L5.17161 15.506C5.15363 14.6872 5.45777 13.8941 6.0186 13.2973C6.57744 12.7027 7.34663 12.3503 8.1617 12.3152H12.2681C13.084 12.3501 13.8542 12.7024 14.4142 13.2972C14.9762 13.8942 15.2816 14.6877 15.2649 15.5074ZM5.11749 2.174C6.62631 1.16584 8.4002 0.627734 10.2148 0.627734C12.6482 0.627734 14.9819 1.59438 16.7026 3.31503C18.4232 5.03568 19.3898 7.36937 19.3898 9.80273C19.3898 11.6174 18.8517 13.3913 17.8436 14.9001C16.8354 16.4089 15.4025 17.5849 13.726 18.2793C12.0495 18.9738 10.2047 19.1555 8.4249 18.8014C6.64512 18.4474 5.01029 17.5736 3.72714 16.2904C2.444 15.0073 1.57016 13.3725 1.21614 11.5927C0.862124 9.81291 1.04382 7.96813 1.73825 6.29161C2.43269 4.6151 3.60867 3.18216 5.11749 2.174Z" stroke="#343330" stroke-opacity="0.75" stroke-width="0.9"/>
<path d="M8.55508 4.56872C9.04637 4.24045 9.62397 4.06523 10.2148 4.06523C11.0072 4.06523 11.7671 4.37999 12.3273 4.94025C12.8876 5.50052 13.2023 6.2604 13.2023 7.05273C13.2023 7.64361 13.0271 8.22121 12.6989 8.7125C12.3706 9.20379 11.904 9.58671 11.3581 9.81283C10.8122 10.0389 10.2115 10.0981 9.63201 9.98283C9.0525 9.86756 8.52017 9.58303 8.10236 9.16522C7.68455 8.74741 7.40002 8.21509 7.28475 7.63557C7.16948 7.05605 7.22864 6.45536 7.45476 5.90947C7.68087 5.36357 8.06379 4.89699 8.55508 4.56872Z" stroke="#343330" stroke-opacity="0.75" stroke-width="0.9"/>
</svg>
