<svg width="29" height="18" viewBox="0 0 29 18" fill="none" xmlns="http://www.w3.org/2000/svg">
<path d="M28.6446 15.5293C28.5677 15.3951 28.0922 14.3185 25.8038 12.1057C23.4081 9.78853 23.7299 10.1648 26.6154 6.15819C28.3728 3.7181 29.0755 2.22797 28.8556 1.59094C28.6464 0.983707 27.3538 1.1439 27.3538 1.1439L23.0559 1.16997C23.0559 1.16997 22.7377 1.12527 22.4999 1.27242C22.2693 1.41771 22.1209 1.75299 22.1209 1.75299C22.1209 1.75299 21.4398 3.64173 20.5316 5.24735C18.6168 8.63554 17.8499 8.81435 17.537 8.60387C16.8094 8.11399 16.9917 6.63317 16.9917 5.58263C16.9917 2.29875 17.4691 0.92969 16.0603 0.575783C15.5919 0.458435 15.2486 0.380203 14.0526 0.367165C12.5187 0.350401 11.2189 0.372753 10.4841 0.747148C9.99429 0.996745 9.61706 1.55368 9.84769 1.58535C10.1319 1.62446 10.7756 1.76603 11.117 2.25032C11.5586 2.87431 11.5425 4.27876 11.5425 4.27876C11.5425 4.27876 11.7964 8.14379 10.9508 8.62436C10.3697 8.95405 9.57415 8.28163 7.86681 5.20637C6.99258 3.63242 6.33109 1.89083 6.33109 1.89083C6.33109 1.89083 6.20416 1.56672 5.97711 1.39349C5.70179 1.18301 5.31562 1.11596 5.31562 1.11596L1.22872 1.14203C1.22872 1.14203 0.615502 1.16066 0.39024 1.4382C0.190006 1.68593 0.374149 2.1963 0.374149 2.1963C0.374149 2.1963 3.57431 9.99528 7.19639 13.9274C10.5199 17.5316 14.2922 17.2951 14.2922 17.2951L16.0013 17.2951C16.0013 17.2951 16.518 17.2355 16.7808 16.9393C17.0239 16.6673 17.015 16.157 17.015 16.157C17.015 16.157 16.981 13.7672 18.0465 13.4151C19.096 13.0687 20.444 15.7248 21.8724 16.7474C22.9522 17.5204 23.7728 17.3509 23.7728 17.3509L27.5934 17.2951C27.5934 17.2951 29.5921 17.1665 28.6446 15.5293Z" fill="#EE3823"/>
</svg>
