<svg width="27" height="27" viewBox="0 0 27 27" fill="none" xmlns="http://www.w3.org/2000/svg">
<path fill-rule="evenodd" clip-rule="evenodd" d="M13.7691 26.3937C20.9108 26.3937 26.7003 20.6042 26.7003 13.4625C26.7003 6.32075 20.9108 0.53125 13.7691 0.53125C6.62739 0.53125 0.837891 6.32075 0.837891 13.4625C0.837891 20.6042 6.62739 26.3937 13.7691 26.3937ZM13.7696 25.3816C20.3522 25.3816 25.6884 20.0454 25.6884 13.4628C25.6884 6.88026 20.3522 1.54404 13.7696 1.54404C7.18708 1.54404 1.85086 6.88026 1.85086 13.4628C1.85086 20.0454 7.18708 25.3816 13.7696 25.3816Z" fill="#5CAF51"/>
<path d="M13.2855 21.3819C13.5321 19.7219 13.7945 18.3255 14.0109 17.2713C14.914 12.8729 15.5366 11.838 16.4289 11.4681C16.9705 11.2432 17.0467 11.4995 17.8797 11.2263C18.1275 11.1453 20.0873 10.4743 20.5395 8.92916C20.82 7.97042 20.2832 7.47956 20.7813 6.51115C21.0594 5.96952 21.3858 5.54395 21.3858 5.54395C21.3858 5.54395 20.8055 5.74706 20.0559 6.02755C19.1612 6.36365 18.9025 6.27056 18.0006 6.51115C17.1071 6.74932 16.2221 6.98508 15.5826 7.59925C14.4304 8.70549 14.7967 10.924 14.7967 10.924C14.7967 10.924 14.891 9.82503 15.7035 9.05006C16.8049 7.99823 18.4842 7.96196 18.4842 7.96196C18.4842 7.96196 17.8483 8.38632 17.0334 9.17096C16.1569 10.0136 15.6962 10.9023 15.2199 11.9517C13.6047 15.5146 13.248 17.79 12.8019 17.7549C12.4621 17.7283 12.1357 16.1457 11.9556 15.0951C10.9787 9.40672 6.15234 5.78575 6.15234 5.78575C6.15234 5.78575 6.804 6.47972 7.84495 8.20376C9.70803 11.2903 10.4939 14.14 11.5929 18.2385C11.9266 19.4814 12.1696 20.5005 12.3183 21.1401L13.2855 21.3819Z" fill="#5CAF51"/>
</svg>
