<svg width="26" height="20" viewBox="0 0 26 20" fill="none" xmlns="http://www.w3.org/2000/svg">
<path fill-rule="evenodd" clip-rule="evenodd" d="M17.1133 9.60455L10.3316 13.2641L10.3316 7.61771L10.3316 5.91091L13.3894 7.57229L17.1133 9.60455ZM25.2348 4.63555C25.2348 4.63555 24.9888 2.82279 24.2357 2.02806C23.282 0.98733 22.2072 0.98733 21.7152 0.922994C18.1957 0.654297 12.9277 0.654297 12.9277 0.654297L12.9163 0.654297C12.9163 0.654297 7.64837 0.654297 4.12882 0.922994C3.63684 0.98733 2.57341 0.98733 1.60837 2.02806C0.859046 2.82279 0.620625 4.63555 0.620625 4.63555C0.620625 4.63555 0.363281 6.75106 0.363281 8.87415L0.363281 9.12014L0.363281 10.8572C0.363281 12.9727 0.620624 15.0958 0.620624 15.0958C0.620624 15.0958 0.855261 16.8972 1.60837 17.6919C2.57341 18.7327 3.82985 18.7024 4.38616 18.8084C6.39193 19.0127 12.9239 19.0771 12.9239 19.0771C12.9239 19.0771 18.1919 19.0657 21.7114 18.8084C22.2034 18.744 23.2782 18.7327 24.2319 17.6919C24.9812 16.8972 25.231 15.0958 25.231 15.0958C25.231 15.0958 25.477 12.9727 25.477 10.8572L25.477 9.23745L25.477 8.87415C25.4807 6.75106 25.2348 4.63555 25.2348 4.63555Z" fill="#EE3823"/>
</svg>
