<svg width="16" height="15" viewBox="0 0 16 15" fill="none" xmlns="http://www.w3.org/2000/svg">
<path d="M8.00709 14.2481C7.78372 14.2481 7.56837 14.1672 7.40054 14.0202C6.76671 13.466 6.15561 12.9451 5.61646 12.4857L5.61371 12.4833C4.03301 11.1363 2.66801 9.97297 1.71827 8.82703C0.65661 7.54595 0.162109 6.3313 0.162109 5.00437C0.162109 3.71514 0.60418 2.52575 1.4068 1.65514C2.219 0.774227 3.33345 0.289062 4.54522 0.289062C5.45091 0.289062 6.28035 0.575397 7.01043 1.14005C7.37888 1.42506 7.71285 1.77388 8.00709 2.18076C8.30144 1.77388 8.6353 1.42506 9.00387 1.14005C9.73395 0.575397 10.5634 0.289062 11.4691 0.289062C12.6807 0.289062 13.7953 0.774227 14.6075 1.65514C15.4101 2.52575 15.8521 3.71514 15.8521 5.00437C15.8521 6.3313 15.3577 7.54594 14.296 8.82691C13.3463 9.97297 11.9814 11.1361 10.4009 12.4831C9.86084 12.9432 9.24879 13.4649 8.61351 14.0204C8.44581 14.1672 8.23034 14.2481 8.00709 14.2481ZM4.54522 1.20816C3.59321 1.20816 2.71865 1.5881 2.08242 2.27808C1.43673 2.97848 1.08108 3.94665 1.08108 5.00437C1.08108 6.12038 1.49586 7.11848 2.42585 8.24059C3.32471 9.32524 4.6617 10.4646 6.20972 11.7839L6.21259 11.7863C6.75378 12.2475 7.36727 12.7704 8.00577 13.3287C8.64811 12.7693 9.26255 12.2456 9.80482 11.7836C11.3527 10.4644 12.6896 9.32524 13.5884 8.24059C14.5183 7.11848 14.9331 6.12038 14.9331 5.00437C14.9331 3.94665 14.5774 2.97848 13.9318 2.27808C13.2957 1.5881 12.421 1.20816 11.4691 1.20816C10.7717 1.20816 10.1314 1.42985 9.56601 1.86702C9.06217 2.25677 8.71119 2.74948 8.50542 3.09423C8.3996 3.27152 8.21334 3.37733 8.00709 3.37733C7.80084 3.37733 7.61458 3.27152 7.50876 3.09423C7.3031 2.74948 6.95213 2.25677 6.44817 1.86702C5.88281 1.42985 5.2425 1.20816 4.54522 1.20816Z"/>
</svg>
