<svg width="172" height="131" viewBox="0 0 172 131" fill="none" xmlns="http://www.w3.org/2000/svg">
<path d="M110.911 120.109C108.416 120.288 106.984 119.495 103.903 118.157C100.821 116.819 99.0505 114.544 94.661 113.17C90.2715 111.797 88.3479 115.628 88.3479 115.628C88.3479 115.628 86.4243 111.8 82.0348 113.17C77.6453 114.541 75.8748 116.819 72.7933 118.157C69.7117 119.495 68.2825 120.288 65.7847 120.109C65.6699 120.109 72.0978 126.574 77.7219 128.49C83.3427 130.405 86.3477 130.079 88.3479 130.079C90.3512 130.079 93.3531 130.405 98.9739 128.49C104.598 126.574 111.026 120.109 110.911 120.109Z" fill="#EE3823"/>
<path d="M66.9057 48.1076C56.7677 45.6353 51.6254 44.4619 51.4786 44.5847C51.4467 44.6236 47.893 49.8736 47.0285 51.2295C46.0428 52.8009 38.8556 64.639 38.8556 64.639L34.6192 63.8428L37.6753 53.4355L26.8674 49.9993L25.3777 58.2964H25.3745L24.5164 61.8733L21.3232 61.2657L17.1378 41.6992L9.03193 43.2018L13.9063 64.3487L0.109375 80.3951L7.80375 83.3404L18.1969 71.8167L21.9165 72.5709L19.5782 82.8466L28.4657 84.3282L31.4324 74.5165L36.6577 75.5881C36.8937 79.0003 37.1968 82.7149 37.57 86.7287C37.7008 88.1415 37.8189 89.3986 37.9305 90.4971C38.0262 91.4639 38.0836 91.9578 38.0996 91.9847C38.1762 92.1554 43.4493 92.7839 53.919 93.8764L51.9412 72.3854L66.9057 48.1076Z" fill="white"/>
<path d="M116.96 56.1773L114.127 56.7161L111.645 74.3849L100.091 74.7531L102.528 89.8058L90.0677 92.0237L85.6367 48.6525L93.9436 46.3447C92.7346 48.0778 115.799 46.9134 115.799 46.9134L116.96 56.1773ZM97.5547 58.1499L98.8116 65.9172L104.388 63.9237L105.846 56.5994L97.5547 58.1499Z" fill="white"/>
<path d="M157.974 52.6153L159.439 92.1194L146.05 92.6552L145.731 53.9682L128.639 53.7018L128.757 47.0121L171.628 40.3672L170.897 48.8589L157.974 52.6153Z" fill="white"/>
<path d="M86.2988 95.5976L75.1241 96.8218L75.089 93.8286L58.7017 95.1097L54.1719 78.704L66.6928 73.9988L75.0028 74.9715L74.9678 67.5065L71.3056 67.2401L70.0966 70.5955L58.7687 70.9786L60.9252 62.1727L81.5041 50.9033L86.2988 95.5976ZM70.4156 79.2548L65.1424 80.4042L66.0356 87.9201L70.1731 87.0041L70.4156 79.2548Z" fill="white"/>
<path d="M126.691 57.2607L123.083 74.5494L134.759 58.491L142.635 61.1788L137.346 93.3017L126.021 91.6614L131.214 71.1671L120.253 87.3393L118.866 93.7327L109.908 91.5806L116.795 58.2036L126.691 57.2607Z" fill="white"/>
<path d="M51.3585 25.964C47.1349 22.1686 40.2253 25.0241 37.0799 28.6518C35.3541 30.6423 33.7495 33.2075 33.8165 35.8504C33.8835 38.5503 36.1388 40.2025 38.761 40.7623C44.7232 42.0374 50.9215 39.0741 55.5247 35.7756C60.1471 32.4652 64.0421 28.3166 67.028 23.6412C70.5339 18.1457 72.7126 11.9977 73.3379 5.61927C73.4623 4.35913 70.2212 5.43668 69.8225 6.11912C67.0918 10.7675 64.964 15.7033 63.5317 20.8396C62.8395 23.321 62.3099 25.8412 61.9463 28.3824C61.7644 29.6545 61.6241 30.9296 61.5252 32.2077C61.4614 33.0189 61.2445 34.0994 61.8857 34.7669C63.4233 36.3653 66.3549 34.5185 67.5512 33.4469C69.4556 31.7438 71.2708 29.9479 72.9966 28.0861C76.3972 24.4165 79.4373 20.4655 82.1073 16.299C85.1283 11.5817 87.6357 6.59504 89.6103 1.41383C89.7028 1.16839 89.4859 1.02472 89.2817 0.937918C86.4075 -0.295275 83.5014 2.0424 82.2923 4.30226C80.3783 7.87313 78.6908 11.6146 77.2074 15.3591C74.3651 22.5397 72.6297 30.2412 74.3715 37.8529C74.5852 38.7838 78.1389 37.9696 77.9092 36.9639C76.4833 30.7261 77.4211 24.4255 79.4309 18.3972C80.4262 15.413 81.6543 12.5006 82.9846 9.63312C83.629 8.24428 84.2957 6.86144 84.9752 5.48756C85.3069 4.81709 85.6068 4.1107 85.9928 3.46417C86.1938 3.12594 86.4298 2.79668 86.7074 2.50634C86.7999 2.38961 86.9083 2.28784 87.0327 2.20104C87.4475 1.88376 87.2465 1.94962 86.4266 2.39261C86.3182 2.23397 86.2097 2.07533 86.098 1.91669C82.975 10.106 78.5121 17.7985 72.8243 24.6709C71.4175 26.371 69.9405 28.0173 68.3933 29.6067C67.65 30.3729 66.8908 31.1242 66.1156 31.8635C65.6978 32.2616 65.2767 32.6537 64.8524 33.0428C64.6706 33.2105 64.4887 33.3781 64.3037 33.5427C63.1266 34.5723 65.2639 33.7283 65.2958 33.6774C65.2926 33.6834 65.0023 32.4921 65.0087 32.3005C65.0246 31.7647 65.0821 31.229 65.1331 30.6932C65.2448 29.5019 65.3947 28.3106 65.5829 27.1283C65.9402 24.8445 66.4315 22.5787 67.0535 20.3457C68.4827 15.2094 70.6136 10.2707 73.3443 5.62525C72.1735 5.79287 71.0028 5.9575 69.8288 6.12511C68.9707 14.8652 65.1873 23.2372 59.0625 29.876C55.9841 33.2134 52.2166 36.4221 47.9133 38.2959C45.7185 39.2537 43.1633 39.8104 40.7899 39.11C38.2793 38.3707 37.0129 36.2845 37.4723 33.8749C38.2315 29.891 43.4695 23.0665 48.0536 27.1822C48.8256 27.8766 52.1209 26.6494 51.3585 25.964Z" fill="white"/>
<path d="M90.3643 21.9498C87.707 20.1718 83.9427 21.3092 81.8692 23.3955C80.2104 25.0657 78.4399 28.02 79.6968 30.3127C81.1259 32.9228 85.1103 32.3271 87.439 31.3154C89.9623 30.2169 92.1252 28.3342 93.4777 26.0534C94.9452 23.5811 95.5353 20.7585 95.0122 17.9598C94.8048 16.8524 91.937 17.7144 91.5988 18.3759C88.6672 24.1049 87.8218 30.5642 89.3371 36.772C89.6114 37.8975 93.1619 37.0534 92.8748 35.8831C91.4521 30.0583 92.122 23.8325 94.8878 18.4298C93.7489 18.5675 92.6101 18.7082 91.4744 18.8458C92.2496 22.9854 90.208 28.0529 86.0226 29.9895C85.2251 30.3576 84.3702 30.4714 83.6556 29.8697C82.7784 29.1334 82.7592 27.9541 83.0112 26.9544C83.3494 25.6254 85.1422 21.9378 87.0785 23.2338C87.7484 23.6828 88.6959 23.5421 89.4168 23.2578C89.7199 23.1441 91.0246 22.3928 90.3643 21.9498Z" fill="white"/>
<path d="M95.7222 29.3848C94.376 30.3756 95.1001 32.1595 96.6218 32.5337C98.8389 33.0754 100.983 31.7884 102.523 30.4235C105.193 28.0558 106.938 24.8202 107.321 21.39C106.141 21.5217 104.957 21.6564 103.777 21.7881C103.678 23.0752 103.576 24.3622 103.477 25.6463C103.426 26.3168 103.372 26.9843 103.321 27.6548C103.286 28.1217 103.171 28.6904 103.289 29.1573C103.573 30.2618 104.9 30.4235 105.914 30.2948C107.238 30.1241 108.294 29.4297 109.283 28.6365C112.425 26.1222 115.953 22.8926 115.922 18.7261C115.915 17.9838 115.016 17.903 114.381 17.9718C113.574 18.0586 112.719 18.3998 112.377 19.1242C110.993 22.0515 110.141 25.1824 109.896 28.3791C109.778 29.9356 109.79 31.507 109.943 33.0575C110.001 33.6471 110.084 34.2428 110.581 34.6618C111.322 35.2844 112.569 35.0779 113.382 34.7306C113.886 34.5151 114.805 33.9584 114.314 33.3538C113.851 32.7851 112.511 33.0634 111.966 33.2969C111.915 33.3179 111.864 33.3418 111.81 33.3628C112.272 33.279 112.735 33.1922 113.197 33.1083C113.146 33.1054 113.095 33.1024 113.044 33.0994C113.287 33.1503 113.526 33.2011 113.768 33.249C113.437 33.0904 113.478 32.1505 113.456 31.8811C113.398 31.2017 113.363 30.5192 113.363 29.8398C113.366 28.6006 113.462 27.3584 113.647 26.1282C114.03 23.5691 114.802 21.0847 115.922 18.7231C114.741 18.8548 113.558 18.9895 112.377 19.1212C112.4 22.2401 110.333 24.6825 108.017 26.7179C107.436 27.2267 106.839 27.7176 106.233 28.1965C106.16 28.2534 105.882 28.409 105.882 28.4629C105.882 28.433 106.824 28.5018 106.871 28.427C106.878 28.415 106.811 28.0349 106.808 27.981C106.801 27.7416 106.843 27.4961 106.862 27.2567C107.015 25.3021 107.165 23.3446 107.318 21.39C107.426 20.0012 103.901 20.6327 103.774 21.7881C103.525 24.027 102.718 26.1522 101.34 28.002C100.695 28.867 99.9394 29.6482 99.0749 30.3277C98.9377 30.4354 98.5422 30.627 98.4497 30.7467C98.2583 30.8335 98.3955 30.8186 98.858 30.7078C98.8484 30.6749 98.8293 30.645 98.8006 30.621C98.8165 30.4684 98.3572 30.1391 98.5709 29.9835C99.177 29.5375 98.8963 28.9089 98.22 28.7592C97.3587 28.5617 96.3985 28.885 95.7222 29.3848Z" fill="white"/>
<path d="M126.393 21.6659C126.23 20.5075 124.938 19.8969 123.815 19.8041C122.284 19.6784 120.916 20.4417 119.786 21.3247C117.946 22.7584 115.923 24.5513 115.563 26.898C115.075 30.0618 119.03 30.1486 121.343 29.7385C123.838 29.2955 126.259 27.9905 127.828 26.1048C129.618 23.9527 130.31 21.2019 129.768 18.523C129.51 17.2509 127.092 17.7059 126.514 18.4692C122.718 23.4887 122.779 30.6305 127.025 35.4196C128.061 36.5899 131.424 35.2609 130.262 33.9499C126.734 29.969 126.243 23.7491 129.481 19.4659C128.396 19.4479 127.312 19.43 126.227 19.412C126.935 22.8991 124.75 26.8441 120.798 27.4188C120.274 27.4936 119.203 27.7331 119.11 27.0387C119.011 26.2904 119.592 25.3864 120.051 24.8207C120.625 24.1143 121.314 23.5127 122.035 22.944C122.297 22.7374 122.881 22.48 123.053 22.2346C123.008 22.2974 122.836 22.2106 122.795 22.2885C122.804 22.2705 122.874 22.7135 122.852 22.5608C122.967 23.378 124.329 23.4229 124.951 23.2672C125.742 23.0607 126.511 22.495 126.393 21.6659Z" fill="white"/>
</svg>
