<svg width="156" height="126" viewBox="0 0 156 126" fill="none" xmlns="http://www.w3.org/2000/svg">
<path d="M100.761 116.077C98.4941 116.251 97.1923 115.483 94.3915 114.187C91.5908 112.891 89.9817 110.687 85.9922 109.356C82.0027 108.026 80.2544 111.737 80.2544 111.737C80.2544 111.737 78.5061 108.029 74.5166 109.356C70.5272 110.684 68.9181 112.891 66.1173 114.187C63.3166 115.483 62.0176 116.251 59.7475 116.077C59.6431 116.077 65.4852 122.339 70.5967 124.195C75.7054 126.051 78.4365 125.734 80.2544 125.734C82.0752 125.734 84.8035 126.051 89.9121 124.195C95.0236 122.339 100.866 116.077 100.761 116.077Z" fill="white"/>
<path d="M60.7656 46.3344C51.5516 43.9396 46.8779 42.803 46.7445 42.9219C46.7155 42.9596 43.4857 48.045 42.6999 49.3584C41.804 50.8806 35.2719 62.3474 35.2719 62.3474L31.4215 61.5762L34.1991 51.4952L24.3762 48.1668L23.0222 56.2037L23.0193 56.2037L22.2394 59.6684L19.3372 59.0798L15.5332 40.127L8.16607 41.5824L12.5962 62.0662L0.0566398 77.6095L7.04981 80.4624L16.4958 69.3L19.8764 70.0306L17.7512 79.984L25.8288 81.4192L28.5251 71.9152L33.2742 72.9531C33.4888 76.2584 33.7642 79.8564 34.1034 83.7444C34.2223 85.1129 34.3296 86.3306 34.431 87.3947C34.518 88.3312 34.5702 88.8095 34.5847 88.8356C34.6543 89.0009 39.4469 89.6098 48.9625 90.668L47.1649 69.8509L60.7656 46.3344Z" fill="white"/>
<path d="M106.26 54.1494L103.685 54.6713L101.429 71.7862L90.9279 72.1428L93.143 86.7237L81.8182 88.8721L77.791 46.8604L85.3409 44.625C84.242 46.3037 105.204 45.1759 105.204 45.1759L106.26 54.1494ZM88.6229 56.0601L89.7652 63.5839L94.8333 61.6529L96.1582 54.5582L88.6229 56.0601Z" fill="white"/>
<path d="M143.535 50.7L144.866 88.9654L132.698 89.4844L132.408 52.0105L116.873 51.7525L116.98 45.2725L155.944 38.8359L155.28 47.0613L143.535 50.7Z" fill="white"/>
<path d="M78.3905 92.3338L68.2342 93.5196L68.2023 90.6203L53.3085 91.8612L49.1914 75.97L60.5713 71.4122L68.124 72.3545L68.0921 65.1236L64.7637 64.8655L63.6648 68.1157L53.3693 68.4868L55.3293 59.957L74.0328 49.041L78.3905 92.3338ZM63.9548 76.5034L59.1622 77.6168L59.974 84.897L63.7344 84.0098L63.9548 76.5034Z" fill="white"/>
<path d="M115.103 55.1992L111.824 71.9456L122.435 56.3908L129.594 58.9944L124.787 90.1098L114.494 88.521L119.214 68.6694L109.252 84.3344L107.991 90.5273L99.8496 88.4427L106.109 56.1125L115.103 55.1992Z" fill="white"/>
<path d="M46.6347 24.8843C42.796 21.208 36.516 23.9739 33.6573 27.4879C32.0888 29.4159 30.6304 31.9007 30.6913 34.4608C30.7522 37.076 32.802 38.6764 35.1852 39.2186C40.6041 40.4537 46.2375 37.5834 50.4212 34.3883C54.6223 31.1816 58.1624 27.1632 60.8762 22.6344C64.0625 17.3113 66.0428 11.3561 66.611 5.17759C66.7241 3.95697 63.7784 5.00072 63.416 5.66177C60.9342 10.1644 59.0003 14.9454 57.6985 19.9207C57.0694 22.3242 56.5881 24.7654 56.2576 27.227C56.0923 28.4592 55.9647 29.6943 55.8748 30.9323C55.8169 31.718 55.6197 32.7647 56.2025 33.4112C57.5999 34.9595 60.2644 33.1706 61.3517 32.1326C63.0826 30.4829 64.7323 28.7433 66.3008 26.9399C69.3915 23.3854 72.1546 19.5582 74.5813 15.5224C77.327 10.953 79.6058 6.12276 81.4005 1.10403C81.4846 0.866285 81.2874 0.727119 81.1019 0.643038C78.4896 -0.551484 75.8483 1.71289 74.7494 3.90188C73.0098 7.36077 71.4761 10.9849 70.1279 14.612C67.5446 21.5675 65.9674 29.0274 67.5504 36.4004C67.7447 37.3021 70.9745 36.5135 70.7658 35.5393C69.4698 29.4971 70.3222 23.3941 72.1488 17.5548C73.0533 14.6642 74.1696 11.8431 75.3786 9.06558C75.9643 7.72029 76.5702 6.38081 77.1878 5.05002C77.4893 4.40057 77.7619 3.71632 78.1127 3.09007C78.2953 2.76245 78.5099 2.44352 78.7621 2.16228C78.8462 2.04921 78.9448 1.95063 79.0579 1.86655C79.4348 1.55923 79.2521 1.62302 78.507 2.05212C78.4084 1.89845 78.3098 1.74478 78.2083 1.59111C75.3699 9.52367 71.3137 16.9749 66.1442 23.6318C64.8656 25.2786 63.5233 26.8732 62.1171 28.4128C61.4415 29.155 60.7515 29.8827 60.047 30.5989C59.6672 30.9845 59.2844 31.3643 58.8988 31.7412C58.7336 31.9036 58.5683 32.0659 58.4002 32.2254C57.3303 33.2228 59.2729 32.4052 59.3018 32.3559C59.2989 32.3617 59.0351 31.2077 59.0409 31.0222C59.0554 30.5032 59.1076 29.9842 59.154 29.4652C59.2555 28.3113 59.3917 27.1574 59.5628 26.0121C59.8875 23.8 60.334 21.6052 60.8994 19.4423C62.1983 14.467 64.135 9.68314 66.6168 5.18338C65.5528 5.34575 64.4887 5.50521 63.4218 5.66758C62.6419 14.1336 59.2033 22.243 53.6366 28.6737C50.8387 31.9065 47.4146 35.0145 43.5034 36.8295C41.5087 37.7573 39.1863 38.2966 37.0292 37.6181C34.7474 36.902 33.5964 34.8812 34.0139 32.5472C34.704 28.6882 39.4647 22.0778 43.631 26.0643C44.3326 26.737 47.3276 25.5483 46.6347 24.8843Z" fill="white"/>
<path d="M82.0858 20.9955C79.6707 19.2733 76.2494 20.375 74.3649 22.3958C72.8572 24.0137 71.2481 26.8753 72.3904 29.0962C73.6893 31.6244 77.3106 31.0474 79.4271 30.0675C81.7205 29.0034 83.6862 27.1797 84.9155 24.9704C86.2492 22.5756 86.7856 19.8415 86.3101 17.1307C86.1216 16.0579 83.5152 16.8929 83.2078 17.5337C80.5433 23.083 79.775 29.3397 81.1522 35.3529C81.4015 36.4431 84.6285 35.6255 84.3676 34.4918C83.0745 28.8497 83.6833 22.8191 86.197 17.5859C85.162 17.7192 84.1269 17.8555 83.0948 17.9889C83.7993 21.9986 81.9437 26.9072 78.1398 28.7831C77.415 29.1397 76.6379 29.2498 75.9885 28.6671C75.1912 27.9538 75.1738 26.8115 75.4028 25.8431C75.7102 24.5558 77.3396 20.9839 79.0995 22.2393C79.7083 22.6742 80.5694 22.5379 81.2247 22.2625C81.5001 22.1523 82.686 21.4246 82.0858 20.9955Z" fill="white"/>
<path d="M86.9545 28.1993C85.731 29.159 86.3891 30.887 87.7721 31.2494C89.7872 31.7742 91.7355 30.5275 93.1359 29.2054C95.5626 26.912 97.1485 23.7778 97.4964 20.4551C96.4237 20.5827 95.348 20.7132 94.2753 20.8407C94.1854 22.0874 94.0927 23.3342 94.0028 24.578C93.9564 25.2275 93.9071 25.874 93.8607 26.5235C93.8288 26.9758 93.7244 27.5267 93.8317 27.979C94.0898 29.0488 95.2959 29.2054 96.2179 29.0807C97.4211 28.9155 98.3808 28.2428 99.2795 27.4745C102.135 25.039 105.342 21.9106 105.313 17.8747C105.307 17.1556 104.49 17.0774 103.913 17.144C103.179 17.2281 102.402 17.5586 102.092 18.2603C100.834 21.0959 100.059 24.1286 99.8362 27.2251C99.729 28.7328 99.7406 30.255 99.8797 31.7568C99.9319 32.328 100.007 32.905 100.46 33.3109C101.132 33.914 102.266 33.7139 103.005 33.3776C103.463 33.1688 104.298 32.6295 103.852 32.0439C103.431 31.493 102.214 31.7626 101.718 31.9888C101.671 32.0091 101.625 32.0323 101.576 32.0526C101.996 31.9714 102.417 31.8873 102.837 31.8061C102.791 31.8032 102.744 31.8003 102.698 31.7974C102.918 31.8467 103.136 31.896 103.356 31.9424C103.054 31.7887 103.092 30.8783 103.072 30.6174C103.02 29.9592 102.988 29.2982 102.988 28.64C102.991 27.4397 103.078 26.2364 103.246 25.0448C103.594 22.5658 104.295 20.1594 105.313 17.8718C104.24 17.9994 103.165 18.1298 102.092 18.2574C102.112 21.2785 100.233 23.6444 98.1285 25.616C97.6008 26.1089 97.0587 26.5844 96.5078 27.0483C96.4411 27.1033 96.1889 27.2541 96.1889 27.3063C96.1889 27.2773 97.0442 27.344 97.0877 27.2715C97.0935 27.2599 97.0326 26.8917 97.0297 26.8395C97.0239 26.6076 97.0616 26.3698 97.079 26.1379C97.2181 24.2446 97.3544 22.3484 97.4936 20.4551C97.5922 19.1098 94.3884 19.7216 94.2724 20.8407C94.0462 23.0094 93.3127 25.068 92.0602 26.8598C91.4745 27.6977 90.7874 28.4544 90.0017 29.1126C89.877 29.217 89.5175 29.4025 89.4334 29.5185C89.2595 29.6026 89.3841 29.5881 89.8046 29.4808C89.7959 29.4489 89.7784 29.4199 89.7523 29.3967C89.7668 29.2489 89.3493 28.9299 89.5436 28.7792C90.0945 28.3472 89.8393 27.7383 89.2247 27.5933C88.4418 27.402 87.5692 27.7151 86.9545 28.1993Z" fill="white"/>
<path d="M114.83 20.7211C114.682 19.599 113.508 19.0076 112.487 18.9177C111.096 18.7959 109.852 19.5352 108.825 20.3906C107.153 21.7794 105.314 23.5161 104.987 25.7892C104.543 28.8538 108.138 28.9379 110.24 28.5407C112.508 28.1116 114.708 26.8474 116.135 25.0208C117.761 22.9362 118.39 20.2717 117.897 17.6767C117.663 16.4445 115.465 16.8852 114.94 17.6246C111.49 22.4868 111.545 29.4047 115.404 34.0437C116.346 35.1773 119.402 33.89 118.347 32.6201C115.14 28.7639 114.694 22.739 117.637 18.59C116.651 18.5727 115.665 18.5553 114.679 18.5379C115.323 21.9156 113.337 25.737 109.745 26.2937C109.269 26.3661 108.295 26.5981 108.211 25.9254C108.121 25.2006 108.649 24.325 109.066 23.777C109.588 23.0928 110.214 22.51 110.869 21.9591C111.107 21.7591 111.638 21.5097 111.794 21.272C111.754 21.3328 111.597 21.2488 111.559 21.3242C111.568 21.3068 111.632 21.7359 111.612 21.588C111.716 22.3795 112.954 22.423 113.519 22.2722C114.238 22.0722 114.937 21.5242 114.83 20.7211Z" fill="white"/>
</svg>
