<svg width="272" height="159" viewBox="0 0 272 159" fill="none" xmlns="http://www.w3.org/2000/svg">
<path d="M198.021 142.685C194.036 142.972 191.747 141.705 186.824 139.567C181.901 137.43 179.072 133.795 172.059 131.6C165.046 129.405 161.973 135.526 161.973 135.526C161.973 135.526 158.9 129.41 151.887 131.6C144.874 133.79 142.045 137.43 137.122 139.567C132.198 141.705 129.915 142.972 125.924 142.685C125.741 142.685 136.011 153.015 144.996 156.075C153.976 159.136 158.777 158.614 161.973 158.614C165.174 158.614 169.97 159.136 178.95 156.075C187.935 153.015 198.205 142.685 198.021 142.685Z" fill="#EE3823"/>
<path d="M49.3832 71.8342C37.5049 61.1603 18.0725 69.1909 9.22655 79.3935C4.37294 84.9914 -0.139735 92.2056 0.0486672 99.6386C0.23707 107.232 6.57996 111.878 13.9546 113.452C30.7224 117.038 48.1541 108.705 61.1001 99.4282C74.0999 90.1179 85.0541 78.4507 93.4515 65.3019C103.311 49.8465 109.439 32.5561 111.197 14.6175C111.547 11.0736 102.432 14.104 101.311 16.0233C93.631 29.0963 87.6469 42.9775 83.6187 57.4227C81.6719 64.4011 80.1826 71.489 79.1598 78.6359C78.6485 82.2135 78.2537 85.7995 77.9756 89.394C77.7962 91.6752 77.1861 94.7141 78.9894 96.5913C83.3137 101.086 91.5585 95.8926 94.9229 92.879C100.279 88.0892 105.384 83.0384 110.237 77.8025C119.801 67.4821 128.351 56.3704 135.86 44.6527C144.356 31.386 151.408 17.3618 156.961 2.79032C157.221 2.10005 156.611 1.69599 156.037 1.45187C147.954 -2.01631 139.781 4.55808 136.38 10.9136C130.997 20.9562 126.252 31.4786 122.08 42.0094C114.086 62.2041 109.206 83.8634 114.104 105.27C114.705 107.888 124.699 105.598 124.053 102.77C120.043 85.2271 122.681 67.5074 128.333 50.5537C131.132 42.161 134.586 33.9703 138.327 25.9059C140.14 22 142.015 18.111 143.926 14.2471C144.859 12.3615 145.702 10.3749 146.787 8.55661C147.353 7.60538 148.017 6.6794 148.797 5.86286C149.057 5.53456 149.362 5.24836 149.712 5.00424C150.878 4.11194 150.313 4.29715 148.008 5.543C147.703 5.09685 147.397 4.65068 147.083 4.20453C138.3 27.236 125.749 48.8701 109.753 68.1976C105.796 72.979 101.643 77.6089 97.2913 82.0788C95.201 84.2338 93.0658 86.3467 90.8857 88.4259C89.7104 89.5455 88.5261 90.6483 87.3329 91.7426C86.8215 92.214 86.3102 92.6854 85.7898 93.1484C82.4793 96.0441 88.4903 93.6703 88.58 93.5272C88.571 93.544 87.7546 90.1937 87.7725 89.6549C87.8174 88.1481 87.9789 86.6413 88.1224 85.1345C88.4364 81.7842 88.8581 78.4338 89.3874 75.1087C90.3922 68.6859 91.7739 62.3135 93.5233 56.0337C97.5426 41.5886 103.536 27.699 111.215 14.6344C107.923 15.1058 104.63 15.5688 101.329 16.0402C98.9152 40.6205 88.2749 64.1654 71.0495 82.8364C62.392 92.2224 51.7966 101.246 39.694 106.516C33.5215 109.21 26.3353 110.776 19.6605 108.806C12.5999 106.726 9.03813 100.859 10.33 94.0828C12.4653 82.8785 27.1966 63.6856 40.0887 75.2603C42.2598 77.2132 51.5274 73.7619 49.3832 71.8342Z" fill="#343330"/>
<path d="M159.084 60.5457C151.61 55.5455 141.024 58.7443 135.192 64.6116C130.527 69.3088 125.548 77.6173 129.083 84.0654C133.102 91.4059 144.308 89.7307 150.857 86.8854C157.953 83.796 164.036 78.5012 167.84 72.0867C171.967 65.1335 173.627 57.1954 172.155 49.3246C171.572 46.21 163.507 48.6344 162.556 50.4947C154.311 66.6066 151.933 84.7725 156.195 102.231C156.966 105.396 166.952 103.023 166.144 99.7312C162.143 83.3499 164.027 65.8406 171.805 50.6462C168.603 51.0335 165.4 51.4291 162.206 51.8163C164.386 63.4583 158.644 77.7099 146.873 83.1563C144.63 84.1917 142.226 84.5116 140.216 82.8196C137.749 80.7488 137.695 77.4321 138.404 74.6205C139.355 70.883 144.397 60.512 149.843 64.157C151.727 65.4197 154.392 65.0241 156.419 64.2244C157.271 63.9045 160.941 61.7916 159.084 60.5457Z" fill="#343330"/>
<path d="M174.153 81.4556C170.367 84.2419 172.403 89.259 176.683 90.3112C182.918 91.8349 188.947 88.2152 193.28 84.3766C200.789 77.718 205.697 68.6182 206.773 58.9713C203.454 59.3417 200.125 59.7205 196.806 60.0909C196.528 63.7106 196.241 67.3303 195.963 70.9416C195.819 72.8272 195.667 74.7044 195.523 76.59C195.424 77.9032 195.101 79.5026 195.433 80.8158C196.232 83.922 199.964 84.3766 202.817 84.0146C206.54 83.5348 209.51 81.5818 212.291 79.3511C221.128 72.28 231.05 63.1971 230.961 51.4793C230.943 49.3917 228.413 49.1644 226.627 49.358C224.358 49.6021 221.953 50.5618 220.993 52.5989C217.1 60.8316 214.704 69.6368 214.013 78.6271C213.681 83.0045 213.717 87.4239 214.148 91.7844C214.309 93.4427 214.543 95.1179 215.942 96.2964C218.024 98.0473 221.532 97.4665 223.819 96.49C225.237 95.8839 227.821 94.3181 226.439 92.6177C225.138 91.0183 221.37 91.8012 219.836 92.4578C219.692 92.5167 219.549 92.5841 219.396 92.643C220.697 92.4073 221.998 92.1632 223.299 91.9275C223.155 91.9191 223.012 91.9106 222.868 91.9022C223.55 92.0453 224.223 92.1884 224.905 92.3231C223.972 91.877 224.089 89.2337 224.026 88.4761C223.864 86.5652 223.765 84.646 223.765 82.7351C223.774 79.2501 224.044 75.7566 224.564 72.2969C225.641 65.0995 227.812 58.1127 230.961 51.4709C227.641 51.8413 224.313 52.2201 220.993 52.5905C221.056 61.362 215.243 68.231 208.729 73.9552C207.096 75.3862 205.419 76.7668 203.714 78.1136C203.508 78.2736 202.727 78.7113 202.727 78.8628C202.727 78.7787 205.374 78.9723 205.508 78.7618C205.526 78.7281 205.338 77.6591 205.329 77.5076C205.311 76.8341 205.428 76.1438 205.481 75.4704C205.912 69.9735 206.334 64.4682 206.764 58.9713C207.069 55.0654 197.156 56.8415 196.797 60.0909C196.097 66.3875 193.827 72.3642 189.952 77.5665C188.139 79.9993 186.013 82.1963 183.582 84.1072C183.196 84.4103 182.084 84.949 181.823 85.2857C181.285 85.5298 181.671 85.4877 182.972 85.1763C182.945 85.0837 182.891 84.9995 182.81 84.9322C182.855 84.5029 181.563 83.5769 182.164 83.1392C183.869 81.8849 183.079 80.1171 181.177 79.6962C178.755 79.1406 176.055 80.0498 174.153 81.4556Z" fill="#343330"/>
<path d="M260.403 59.7476C259.945 56.4898 256.312 54.7726 253.154 54.5116C248.847 54.1581 244.998 56.3046 241.823 58.7879C236.646 62.8201 230.958 67.8624 229.944 74.4621C228.572 83.3599 239.696 83.604 246.201 82.4507C253.216 81.2049 260.026 77.5347 264.44 72.2314C269.473 66.1789 271.42 58.4428 269.895 50.9087C269.168 47.3311 262.367 48.6106 260.744 50.7572C250.067 64.8741 250.238 84.9593 262.179 98.428C265.095 101.719 274.551 97.9818 271.285 94.2947C261.363 83.0989 259.981 65.6064 269.087 53.5604C266.037 53.5099 262.986 53.4594 259.936 53.4089C261.928 63.2157 255.782 74.3106 244.667 75.9268C243.195 76.1373 240.181 76.8107 239.921 74.8578C239.642 72.7533 241.275 70.2111 242.567 68.6201C244.182 66.6334 246.12 64.9414 248.148 63.342C248.883 62.7612 250.525 62.0372 251.009 61.347C250.884 61.5237 250.399 61.2796 250.283 61.4985C250.31 61.448 250.507 62.6938 250.444 62.2645C250.767 64.5626 254.598 64.6889 256.347 64.2512C258.572 63.6703 260.735 62.0793 260.403 59.7476Z" fill="#343330"/>
</svg>
