<svg width="211" height="51" viewBox="0 0 211 51" fill="none" xmlns="http://www.w3.org/2000/svg">
<g clip-path="url(#clip0)">
<path d="M93.5271 50.2081H61.3059C60.2961 49.733 59.1583 49.4836 58.0011 49.4836C56.844 49.4836 55.7061 49.733 54.6964 50.2081H53.8702C53.3332 49.0622 52.2178 49.6317 51.3008 49.5831C46.418 49.4025 41.5765 48.7706 36.669 48.8886C35.0288 48.9284 33.393 48.7262 31.8358 48.2914C29.9934 47.7636 29.2746 50.0761 27.4157 49.5761C26.383 48.5206 24.9372 48.7845 23.6235 48.8192C21.502 48.9721 19.3721 48.6208 17.4767 47.8053C15.4201 46.7084 13.1777 45.8796 10.8259 45.347C10.0268 45.1962 9.29057 44.8676 8.69434 44.3956C4.70386 40.9581 0.746432 37.4511 0.845575 32.1664C1.15953 30.7775 1.49001 29.465 1.78744 28.1039C2.16767 26.7652 2.85829 25.5027 3.81982 24.3886C4.94344 22.9234 6.93454 22.6595 8.40515 21.7428C12.6517 19.09 17.6006 18.2289 22.6073 17.8122C25.4494 17.5761 28.5146 17.9511 30.8031 19.8053C31.4062 20.2914 31.8523 20.4997 32.5133 20.097C32.6329 19.9963 32.7768 19.9183 32.9352 19.8681C33.0936 19.8179 33.2629 19.7967 33.4318 19.8059C33.6007 19.8151 33.7653 19.8545 33.9146 19.9215C34.064 19.9884 34.1946 20.0814 34.2978 20.1942C34.7594 20.6298 35.3998 20.9026 36.0906 20.9581C40.866 21.2775 45.5918 22.0761 50.4167 21.9372C52.4739 21.8747 54.622 21.5831 56.5718 21.972C61.7355 22.9997 66.8661 22.09 71.9884 22.0761C77.1108 22.0622 82.0844 21.5483 87.1324 21.2358C91.3625 20.965 95.6587 20.965 99.8144 20.3192C105.829 19.3956 111.885 18.6456 117.908 17.7011C129.342 15.9095 140.611 13.6317 151.831 11.097C152.75 10.8747 153.694 10.7374 154.648 10.6872C162.303 10.5425 169.93 9.8455 177.443 8.6039C179.442 8.24279 181.491 8.09696 183.515 7.84696C184.903 7.68029 185.473 8.03446 185.308 9.34696C185.209 10.1386 186.25 9.90946 186.886 9.93029V10.6247C185.845 10.5345 185.143 11.1803 184.267 11.4511C183.664 11.6456 183.59 12.1109 183.73 12.59C183.945 13.3331 184.556 13.4025 185.283 13.1942C185.78 13.0197 186.302 12.9029 186.837 12.847C187.03 12.8549 187.218 12.8982 187.39 12.9738C187.561 13.0493 187.711 13.1553 187.828 13.2845C187.904 13.3798 187.954 13.4883 187.973 13.602C187.992 13.7156 187.981 13.8315 187.94 13.9409C187.898 14.0503 187.828 14.1505 187.735 14.2341C187.641 14.3176 187.526 14.3823 187.398 14.4234C186.812 14.6734 186.101 14.7289 185.482 14.9442C183.664 15.5831 181.599 15.8817 180.128 17.472C183.548 18.4234 186.903 18.2706 190.183 18.5484L190.125 19.5136C187.646 19.9997 187.646 19.9997 188.324 21.597L187.547 21.7081C186.919 21.7984 186.052 21.8331 186.283 22.59C186.514 23.347 187.233 23.0483 187.82 22.7845C188.051 22.6803 188.299 22.6039 188.539 22.5206C189.776 21.8182 191.285 21.5354 192.76 21.7289L192.653 22.4789L192.736 22.4164C191.959 22.5206 191.645 22.8747 191.843 23.5275C191.893 24.3331 192.496 24.6733 193.347 24.8053C192.331 27.0206 192.339 27.0345 190.042 28.3747C186.233 30.5761 182.458 32.8331 178.575 34.9372C174.865 37.0434 170.821 38.7008 166.562 39.8609C158.209 41.9442 149.724 43.6317 141.19 45.1386C130.08 47.093 118.86 48.5764 107.572 49.5831H98.4512L94.7664 49.5136C94.4953 49.4867 94.2218 49.5418 93.9947 49.6691C93.7676 49.7963 93.6018 49.9874 93.5271 50.2081ZM191.719 25.6108C191.463 25.4233 191.306 25.1942 191.108 25.1733C191.015 25.1549 190.919 25.1548 190.826 25.1731C190.734 25.1914 190.648 25.2276 190.575 25.2789C190.502 25.3301 190.444 25.395 190.406 25.4683C190.368 25.5416 190.351 25.6213 190.356 25.7011C190.356 25.7914 190.538 25.9789 190.587 25.965C190.959 25.9025 191.314 25.7428 191.719 25.6108Z" fill="#EE3823"/>
<path d="M27.4316 50.2086V49.5558C29.2906 50.0558 30.0093 47.7433 31.8517 48.2711C33.4089 48.706 35.0447 48.9081 36.6849 48.8683C41.5925 48.7711 46.4339 49.4031 51.3167 49.5628C51.4035 49.7625 51.4346 49.9763 51.4076 50.1878L27.4316 50.2086ZM54.6958 50.2086C55.7055 49.7336 56.8434 49.4841 58.0005 49.4841C59.1577 49.4841 60.2955 49.7336 61.3053 50.2086H54.6958ZM107.572 49.5836V50.2086H101.788C101.765 49.9949 101.796 49.7795 101.879 49.5767L107.572 49.5836ZM93.5265 50.2086C93.6012 49.988 93.767 49.7969 93.9941 49.6696C94.2212 49.5424 94.4948 49.4873 94.7658 49.5142L98.4588 49.5489C98.4753 49.7663 98.4753 49.9843 98.4588 50.2017L93.5265 50.2086ZM210.845 14.7919L208.366 15.785C208.16 14.1114 209.44 14.0211 210.845 14.0975V14.7919Z" fill="#EE3823"/>
<path d="M98.4843 50.208C98.5008 49.9906 98.5008 49.7726 98.4843 49.5552H101.905C101.821 49.758 101.79 49.9735 101.814 50.1872L98.4843 50.208ZM51.3916 50.208C51.4187 49.9966 51.3876 49.7827 51.3008 49.583C52.2178 49.6316 53.3332 49.0622 53.8702 50.208H51.3916ZM201.758 0.208008C201.758 0.631619 201.848 1.33996 201.344 1.33996C200.84 1.33996 200.964 0.645508 200.931 0.208008H201.758ZM192.719 21.6941C191.243 21.5006 189.735 21.7834 188.497 22.4858L188.282 21.5622C187.597 19.9511 187.597 19.9511 190.084 19.4788L191.918 19.1038C191.918 19.7636 191.414 20.5274 192.438 20.9927L192.628 21.7844L192.719 21.6941ZM196.8 23.0344C195.685 23.6663 194.71 24.4858 193.347 24.7705C192.521 24.6386 191.893 24.2983 191.843 23.4927C192.182 23.1525 192.884 23.0066 192.736 22.3816L192.653 22.4441C193.363 22.5344 194.09 22.6663 194.454 21.9163C195.388 21.5969 196.106 22.2011 196.867 22.3886C196.8 22.6038 196.8 22.8191 196.8 23.0344Z" fill="#EE3823"/>
<path d="M191.917 19.0891L190.083 19.4641L190.141 18.4989C190.577 18.1464 191.097 17.8757 191.667 17.7045C192.236 17.5333 192.843 17.4656 193.446 17.5058V18.2975L191.917 19.0891ZM189.364 10.0336C188.753 10.9989 187.712 10.5752 186.828 10.5752V9.8808C187.382 8.84608 188.48 9.33914 189.307 9.27664L189.364 10.0336ZM188.282 21.5614L188.497 22.485C188.257 22.5683 188.009 22.6447 187.778 22.7489C187.192 23.0128 186.473 23.3252 186.241 22.5544C186.01 21.7836 186.878 21.7628 187.505 21.6725L188.282 21.5614ZM194.412 21.9155C194.049 22.6655 193.322 22.5336 192.611 22.4433L192.719 21.6933L192.628 21.7697L194.14 21.6655C194.178 21.6643 194.216 21.67 194.252 21.6825C194.287 21.6949 194.319 21.7136 194.345 21.7374C194.371 21.7612 194.39 21.7895 194.402 21.8202C194.414 21.851 194.417 21.8835 194.412 21.9155ZM191.719 25.61C191.314 25.7419 190.959 25.8669 190.587 25.9641C190.538 25.9641 190.348 25.7905 190.356 25.7003C190.351 25.6204 190.368 25.5407 190.406 25.4674C190.444 25.3941 190.501 25.3293 190.574 25.278C190.647 25.2268 190.734 25.1905 190.826 25.1722C190.919 25.1539 191.015 25.154 191.108 25.1725C191.306 25.2072 191.463 25.4225 191.719 25.61Z" fill="#EE3823"/>
<path d="M192.67 22.3814C192.819 23.0064 192.116 23.1522 191.778 23.4925C191.604 22.8397 191.918 22.4856 192.67 22.3814ZM197.627 7.15224C198.123 6.15224 199.205 6.51335 200.106 6.40918V7.20086C198.668 8.81197 198.503 8.84669 196.66 7.8953C197.181 7.84669 197.561 7.61752 197.627 7.15224ZM198.453 16.18C197.321 17.7356 194.942 17.2634 193.496 18.3189V17.5272C194.793 16.18 196.594 16.062 198.453 16.18ZM200.296 9.23557C200.841 9.23557 201.56 9.18002 201.584 9.74947C201.626 10.7634 200.577 10.5897 199.833 10.68C199.288 10.7425 198.618 10.68 198.585 10.1453C198.519 9.11752 199.577 9.3328 200.296 9.23557ZM189.365 10.0342V9.28419C190.406 8.88836 191.414 8.38835 192.67 8.5064C192.717 8.73618 192.717 8.97108 192.67 9.20085C191.571 9.53418 190.596 10.1036 189.365 10.0342Z" fill="#EE3823"/>
<path d="M192.67 9.1863C192.717 8.95653 192.717 8.72163 192.67 8.49186C193.496 7.31824 194.818 7.95713 195.925 7.79741L196.016 7.8738C195.621 8.29865 195.112 8.63899 194.53 8.86707C193.949 9.09516 193.311 9.20453 192.67 9.1863ZM204.237 14.7905H201.551C201.832 14.3946 202.328 14.2696 202.758 14.0335C204.063 13.3321 204.344 13.7557 204.237 14.7905ZM204.237 17.6655C204.137 17.3581 204.171 17.0311 204.331 16.7425C204.491 16.4539 204.768 16.2224 205.112 16.0891L206.765 16.1933C206.765 17.1099 205.178 16.7141 205.112 17.5821L204.237 17.6655ZM200.106 7.19325V6.40158C200.304 5.8738 200.866 5.59603 201.312 5.89464C202.055 6.40158 201.039 6.54047 200.824 6.84603C200.684 7.01269 200.362 7.08214 200.106 7.19325ZM203.03 3.8877C203.17 3.99688 203.281 4.12907 203.357 4.27603C203.434 4.42299 203.473 4.58157 203.473 4.74186C203.473 4.90215 203.434 5.06073 203.357 5.20769C203.281 5.35465 203.17 5.48684 203.03 5.59602C202.882 5.49107 202.764 5.36027 202.682 5.21274C202.601 5.06521 202.558 4.90452 202.558 4.74186C202.558 4.5792 202.601 4.4185 202.682 4.27098C202.764 4.12345 202.882 3.99265 203.03 3.8877Z" fill="#EE3823"/>
<path d="M197.626 7.15284C197.56 7.62506 197.18 7.84729 196.684 7.91674C196.461 7.92712 196.238 7.92712 196.015 7.91674L195.924 7.84035C196.139 6.93062 196.948 7.15284 197.626 7.15284ZM205.061 15.4862C204.849 15.4705 204.649 15.3923 204.498 15.2653C204.347 15.1383 204.254 14.9706 204.235 14.7917C204.449 14.8046 204.651 14.8819 204.802 15.0095C204.954 15.137 205.046 15.3063 205.061 15.4862ZM207.796 16.2153H206.714C206.639 15.8612 206.813 15.5209 207.209 15.5209C207.391 15.5487 207.581 15.9723 207.796 16.2153ZM200.104 21.0417C200.27 20.2153 201.178 20.3473 201.757 20.1528C201.757 21.1181 200.931 21.0973 200.104 21.0417Z" fill="#EE3823"/>
<path d="M198.454 21.7707C198.669 20.9374 199.462 21.0277 200.189 21.0138C200.007 21.9721 199.197 21.8471 198.454 21.7707ZM183.896 35.1804C184.111 35.0885 184.343 35.0297 184.582 35.0068C184.714 35.0068 184.822 35.236 184.946 35.361C184.743 35.4542 184.522 35.5154 184.293 35.5416C184.153 35.5277 184.037 35.3124 183.896 35.1804ZM204.237 17.6666L205.063 17.5693C205.039 17.7467 204.951 17.9137 204.811 18.0477C204.67 18.1818 204.485 18.2766 204.278 18.3193C204.249 18.1026 204.236 17.8846 204.237 17.6666Z" fill="#EE3823"/>
<path d="M197.627 22.4649C197.494 21.8608 197.949 21.7705 198.502 21.708C198.618 22.3052 198.254 22.4927 197.627 22.4649Z" fill="#EE3823"/>
<path d="M196.8 22.3885L197.626 22.4232C197.626 22.9579 197.279 23.1176 196.717 23.0343C196.8 22.819 196.8 22.6037 196.8 22.3885ZM203.343 19.6523C203.398 19.4531 203.511 19.2685 203.673 19.1157C203.835 18.9628 204.039 18.8465 204.268 18.7773C204.268 18.9931 204.174 19.2013 204.004 19.3625C203.833 19.5237 203.598 19.6269 203.343 19.6523ZM194.486 21.0829C194.338 21.2624 194.221 21.4589 194.139 21.6662L192.628 21.7704L192.438 20.9787L193.479 20.5204C193.56 20.6884 193.7 20.832 193.879 20.9323C194.059 21.0326 194.271 21.0851 194.486 21.0829Z" fill="#EE3823"/>
<path d="M194.486 21.0832C194.271 21.0854 194.059 21.0329 193.879 20.9326C193.7 20.8322 193.56 20.6887 193.479 20.5207C194.305 20.0693 195.189 20.3262 196.048 20.3123C195.998 20.5346 195.941 20.7498 195.866 20.9651L194.486 21.0832Z" fill="#EE3823"/>
<path d="M195.867 20.9653C195.942 20.75 195.999 20.5347 196.049 20.3125C196.231 20.4097 196.553 20.5139 196.553 20.6111C196.561 20.9792 196.206 20.9861 195.867 20.9653Z" fill="#EE3823"/>
</g>
<defs>
<clipPath id="clip0">
<rect width="210" height="50" fill="white" transform="translate(0.845703 0.208008)"/>
</clipPath>
</defs>
</svg>
