<svg width="86" height="36" viewBox="0 0 86 36" fill="none" xmlns="http://www.w3.org/2000/svg">
<g clip-path="url(#clip0)">
<path d="M37.5694 35.0136H24.5275C24.1187 34.6811 23.6582 34.5065 23.1898 34.5065C22.7214 34.5065 22.2609 34.6811 21.8522 35.0136H21.5178C21.3004 34.2115 20.849 34.6102 20.4778 34.5761C18.5014 34.4497 16.5418 34.0074 14.5554 34.09C13.8915 34.1178 13.2294 33.9763 12.5991 33.6719C11.8534 33.3025 11.5624 34.9213 10.81 34.5713C10.392 33.8324 9.80679 34.0171 9.27508 34.0414C8.41638 34.1484 7.55426 33.9025 6.78708 33.3317C5.95463 32.5639 5.04702 31.9837 4.09509 31.6108C3.77163 31.5053 3.47364 31.2753 3.23231 30.9449C1.61711 28.5386 0.015297 26.0838 0.0554261 22.3845C0.182501 21.4122 0.31627 20.4935 0.436657 19.5407C0.590559 18.6036 0.870097 17.7198 1.25929 16.94C1.71408 15.9143 2.52001 15.7296 3.11525 15.0879C4.83411 13.231 6.83722 12.6282 8.86374 12.3365C10.0141 12.1713 11.2548 12.4338 12.1811 13.7317C12.4252 14.072 12.6058 14.2178 12.8733 13.9358C12.9217 13.8654 12.98 13.8108 13.0441 13.7757C13.1082 13.7405 13.1767 13.7257 13.2451 13.7321C13.3134 13.7386 13.3801 13.7661 13.4405 13.813C13.501 13.8599 13.5539 13.925 13.5956 14.0039C13.7825 14.3088 14.0417 14.4998 14.3213 14.5386C16.2542 14.7622 18.167 15.3213 20.1199 15.224C20.9526 15.1803 21.8221 14.9761 22.6113 15.2483C24.7014 15.9678 26.778 15.331 28.8514 15.3213C30.9247 15.3115 32.9378 14.9518 34.9811 14.7331C36.6932 14.5435 38.4322 14.5435 40.1142 14.0914C42.5487 13.4449 45 12.9199 47.4378 12.2588C52.066 11.0046 56.6273 9.41014 61.1686 7.63584C61.5404 7.48029 61.9228 7.38412 62.3089 7.34903C65.4074 7.24772 68.4942 6.75982 71.5353 5.8907C72.3446 5.63792 73.1739 5.53584 73.9932 5.36084C74.555 5.24417 74.7858 5.49209 74.7189 6.41084C74.6787 6.96501 75.1001 6.80459 75.3576 6.81918V7.30529C74.9362 7.24209 74.652 7.69418 74.2975 7.88376C74.0534 8.01987 74.0233 8.34556 74.0801 8.68098C74.1671 9.20112 74.4145 9.24973 74.7088 9.1039C74.9098 8.98179 75.1213 8.90002 75.3375 8.86084C75.4157 8.86641 75.4921 8.89671 75.5614 8.9496C75.6307 9.00249 75.6912 9.07671 75.7388 9.16709C75.7696 9.23383 75.7896 9.3098 75.7975 9.38935C75.8053 9.4689 75.8007 9.54999 75.784 9.62659C75.7673 9.70319 75.7389 9.77334 75.701 9.83181C75.663 9.89028 75.6165 9.93557 75.5649 9.96431C75.3275 10.1393 75.0399 10.1782 74.7891 10.3289C74.0534 10.7761 73.2174 10.9851 72.6221 12.0983C74.0066 12.7643 75.3643 12.6574 76.6919 12.8518L76.6684 13.5275C75.6652 13.8678 75.6652 13.8678 75.9394 14.9858L75.6251 15.0636C75.3709 15.1268 75.0198 15.1511 75.1135 15.681C75.2071 16.2108 75.498 16.0018 75.7355 15.8171C75.8291 15.7442 75.9294 15.6907 76.0264 15.6324C76.5275 15.1407 77.1379 14.9427 77.7352 15.0782L77.6917 15.6032L77.7252 15.5595C77.4109 15.6324 77.2838 15.8803 77.364 16.3372C77.3841 16.9011 77.6282 17.1393 77.9727 17.2317C77.5613 18.7824 77.5647 18.7921 76.635 19.7303C75.0934 21.2713 73.5651 22.8511 71.9934 24.324C70.4917 25.7983 68.855 26.9585 67.1311 27.7706C63.7503 29.2289 60.3159 30.4101 56.8614 31.465C52.3645 32.8331 47.8231 33.8715 43.2543 34.5761H39.5625L38.071 34.5275C37.9613 34.5087 37.8506 34.5472 37.7586 34.6363C37.6667 34.7254 37.5996 34.8592 37.5694 35.0136ZM77.3139 17.7956C77.2102 17.6643 77.1467 17.5039 77.0664 17.4893C77.0289 17.4764 76.9899 17.4763 76.9525 17.4891C76.915 17.502 76.8801 17.5273 76.8505 17.5632C76.821 17.5991 76.7976 17.6445 76.7823 17.6958C76.7669 17.7471 76.76 17.8029 76.7621 17.8588C76.7621 17.922 76.8357 18.0532 76.8557 18.0435C77.0062 17.9997 77.15 17.8879 77.3139 17.7956Z" fill="#EE3823"/>
<path d="M10.8164 35.0143V34.5573C11.5688 34.9073 11.8598 33.2886 12.6055 33.658C13.2358 33.9624 13.8979 34.1039 14.5618 34.0761C16.5482 34.008 18.5078 34.4504 20.4842 34.5622C20.5193 34.702 20.5319 34.8517 20.521 34.9997L10.8164 35.0143ZM21.8519 35.0143C22.2606 34.6818 22.7212 34.5072 23.1895 34.5072C23.6579 34.5072 24.1185 34.6818 24.5272 35.0143H21.8519ZM43.2541 34.5768V35.0143H40.9132C40.9036 34.8647 40.9162 34.7139 40.95 34.5719L43.2541 34.5768ZM37.5691 35.0143C37.5993 34.8598 37.6664 34.7261 37.7584 34.637C37.8503 34.5479 37.961 34.5093 38.0707 34.5282L39.5655 34.5525C39.5722 34.7046 39.5722 34.8573 39.5655 35.0094L37.5691 35.0143ZM85.0551 10.2226L84.0519 10.9178C83.9683 9.74623 84.4866 9.68304 85.0551 9.73652V10.2226Z" fill="#EE3823"/>
<path d="M39.5746 35.0137C39.5813 34.8615 39.5813 34.7089 39.5746 34.5567H40.9591C40.9253 34.6987 40.9128 34.8495 40.9223 34.9991L39.5746 35.0137ZM20.5133 35.0137C20.5243 34.8657 20.5117 34.716 20.4766 34.5762C20.8478 34.6102 21.2992 34.2116 21.5166 35.0137H20.5133ZM81.3757 0.0136719C81.3757 0.3102 81.4125 0.806035 81.2085 0.806035C81.0045 0.806035 81.0547 0.319922 81.0413 0.0136719H81.3757ZM77.7173 15.054C77.12 14.9185 76.5095 15.1164 76.0085 15.6081L75.9215 14.9616C75.644 13.8338 75.644 13.8338 76.6505 13.5033L77.3929 13.2408C77.3929 13.7026 77.1889 14.2373 77.6036 14.563L77.6805 15.1171L77.7173 15.054ZM79.3693 15.9921C78.9178 16.4345 78.5232 17.0081 77.9714 17.2074C77.637 17.1151 77.3829 16.8769 77.3628 16.313C77.4999 16.0748 77.7842 15.9727 77.724 15.5352L77.6905 15.579C77.9781 15.6421 78.2724 15.7345 78.4195 15.2095C78.7974 14.9859 79.0884 15.4088 79.396 15.5401C79.3693 15.6908 79.3693 15.8414 79.3693 15.9921Z" fill="#EE3823"/>
<path d="M77.393 13.2308L76.6506 13.4933L76.674 12.8176C76.8505 12.5708 77.0609 12.3813 77.2915 12.2615C77.5221 12.1417 77.7675 12.0943 78.0116 12.1224V12.6766L77.393 13.2308ZM76.3596 6.89186C76.1122 7.56756 75.6908 7.27103 75.333 7.27103V6.78492C75.5571 6.06061 76.0018 6.40575 76.3362 6.362L76.3596 6.89186ZM75.9216 14.9613L76.0085 15.6078C75.9115 15.6662 75.8112 15.7196 75.7176 15.7926C75.4801 15.9773 75.1892 16.196 75.0956 15.6564C75.0019 15.1169 75.3531 15.1023 75.6072 15.0391L75.9216 14.9613ZM78.4029 15.2092C78.2557 15.7342 77.9614 15.6419 77.6738 15.5787L77.7173 15.0537L77.6805 15.1071L78.2925 15.0342C78.308 15.0333 78.3235 15.0374 78.3379 15.0461C78.3522 15.0548 78.3651 15.0679 78.3756 15.0846C78.3861 15.1012 78.394 15.121 78.3987 15.1425C78.4034 15.1641 78.4048 15.1868 78.4029 15.2092ZM77.3127 17.7953C77.1488 17.8877 77.005 17.9752 76.8545 18.0433C76.8345 18.0433 76.7576 17.9217 76.7609 17.8585C76.7588 17.8027 76.7658 17.7468 76.7811 17.6955C76.7965 17.6442 76.8198 17.5988 76.8494 17.563C76.8789 17.5271 76.9138 17.5017 76.9513 17.4889C76.9888 17.4761 77.0278 17.4762 77.0652 17.4891C77.1455 17.5134 77.209 17.6641 77.3127 17.7953Z" fill="#EE3823"/>
<path d="M77.697 15.535C77.7572 15.9725 77.4729 16.0746 77.3358 16.3128C77.2656 15.8559 77.3927 15.608 77.697 15.535ZM79.7034 4.87463C79.9041 4.17463 80.3422 4.42741 80.7067 4.35449V4.90867C80.1248 6.03644 80.0579 6.06075 79.3122 5.39478C79.5229 5.36075 79.6767 5.20033 79.7034 4.87463ZM80.0379 11.1941C79.5797 12.283 78.6166 11.9524 78.0314 12.6913V12.1371C78.5564 11.1941 79.2854 11.1114 80.0379 11.1941ZM80.7836 6.33297C81.0043 6.33297 81.2952 6.29408 81.3053 6.69269C81.322 7.40242 80.8973 7.28089 80.5963 7.34408C80.3756 7.38783 80.1047 7.34408 80.0914 6.96977C80.0646 6.25033 80.4926 6.40102 80.7836 6.33297ZM76.3594 6.89199V6.367C76.7807 6.08992 77.1887 5.73991 77.697 5.82255C77.7162 5.98339 77.7162 6.14782 77.697 6.30866C77.2522 6.54199 76.8576 6.9406 76.3594 6.89199Z" fill="#EE3823"/>
<path d="M77.6973 6.29887C77.7164 6.13803 77.7164 5.9736 77.6973 5.81276C78.0317 4.99123 78.5667 5.43845 79.0148 5.32664L79.0516 5.38012C78.8916 5.67751 78.6855 5.91575 78.4502 6.07541C78.2148 6.23507 77.9568 6.31163 77.6973 6.29887ZM82.379 10.2218H81.2922C81.4059 9.94471 81.6065 9.85721 81.7804 9.69193C82.3088 9.20096 82.4225 9.49748 82.379 10.2218ZM82.379 12.2343C82.3388 12.0191 82.3524 11.7902 82.4173 11.5882C82.4822 11.3862 82.5942 11.2242 82.7335 11.1308L83.4023 11.2037C83.4023 11.8454 82.7602 11.5683 82.7335 12.176L82.379 12.2343ZM80.707 4.90373V4.34956C80.7872 3.98012 81.0146 3.78568 81.1952 3.9947C81.4962 4.34957 81.0848 4.44679 80.9979 4.66067C80.941 4.77734 80.8106 4.82595 80.707 4.90373ZM81.8908 2.58984C81.9473 2.66627 81.9923 2.75881 82.0232 2.86168C82.054 2.96455 82.0699 3.07555 82.0699 3.18776C82.0699 3.29996 82.054 3.41097 82.0232 3.51384C81.9923 3.61671 81.9473 3.70924 81.8908 3.78567C81.8309 3.71221 81.7828 3.62065 81.7498 3.51738C81.7169 3.41411 81.6998 3.30162 81.6998 3.18776C81.6998 3.0739 81.7169 2.96141 81.7498 2.85814C81.7828 2.75487 81.8309 2.66331 81.8908 2.58984Z" fill="#EE3823"/>
<path d="M79.7045 4.87515C79.6778 5.20571 79.5239 5.36127 79.3233 5.40988C79.2331 5.41715 79.1426 5.41715 79.0524 5.40988L79.0156 5.35641C79.1026 4.7196 79.4303 4.87515 79.7045 4.87515ZM82.7142 10.7085C82.628 10.6975 82.5473 10.6428 82.4861 10.5539C82.425 10.465 82.3873 10.3476 82.3798 10.2224C82.4664 10.2314 82.5479 10.2855 82.6093 10.3748C82.6708 10.4641 82.708 10.5825 82.7142 10.7085ZM83.8211 11.2189H83.383C83.3529 10.971 83.4231 10.7328 83.5836 10.7328C83.6572 10.7522 83.7341 11.0488 83.8211 11.2189ZM80.7077 14.5974C80.7746 14.0189 81.1425 14.1113 81.3765 13.9751C81.3765 14.6508 81.0421 14.6363 80.7077 14.5974Z" fill="#EE3823"/>
<path d="M80.0387 15.108C80.1257 14.5246 80.4467 14.5878 80.741 14.5781C80.6674 15.2489 80.3397 15.1614 80.0387 15.108ZM74.1465 24.4948C74.2332 24.4304 74.3273 24.3892 74.424 24.3732C74.4776 24.3732 74.521 24.5337 74.5712 24.6212C74.4892 24.6864 74.3996 24.7292 74.307 24.7475C74.2501 24.7378 74.2033 24.5871 74.1465 24.4948ZM82.3796 12.235L82.714 12.167C82.7042 12.2912 82.6686 12.408 82.6118 12.5019C82.555 12.5957 82.4798 12.6621 82.3963 12.692C82.3846 12.5403 82.379 12.3877 82.3796 12.235Z" fill="#EE3823"/>
<path d="M79.7047 15.5933C79.6512 15.1704 79.8351 15.1072 80.0591 15.0635C80.1059 15.4815 79.9588 15.6128 79.7047 15.5933Z" fill="#EE3823"/>
<path d="M79.3692 15.5405L79.7036 15.5648C79.7036 15.9391 79.5632 16.0509 79.3358 15.9926C79.3692 15.8419 79.3692 15.6912 79.3692 15.5405ZM82.0177 13.6252C82.0399 13.4857 82.0858 13.3565 82.1513 13.2495C82.2167 13.1425 82.2996 13.0611 82.3923 13.0127C82.3922 13.1637 82.354 13.3094 82.285 13.4223C82.216 13.5352 82.1209 13.6074 82.0177 13.6252ZM78.4329 14.6266C78.3729 14.7523 78.3256 14.8898 78.2924 15.0349L77.6804 15.1078L77.6035 14.5537L78.0249 14.2328C78.0578 14.3504 78.1143 14.4509 78.1871 14.5212C78.2599 14.5914 78.3455 14.6281 78.4329 14.6266Z" fill="#EE3823"/>
<path d="M78.4334 14.6258C78.346 14.6273 78.2604 14.5906 78.1876 14.5204C78.1148 14.4501 78.0583 14.3497 78.0254 14.232C78.3598 13.9161 78.7176 14.0959 79.0654 14.0862C79.0454 14.2418 79.0219 14.3925 78.9918 14.5432L78.4334 14.6258Z" fill="#EE3823"/>
<path d="M78.9922 14.5439C79.0223 14.3932 79.0457 14.2425 79.0658 14.0869C79.1393 14.155 79.2697 14.2279 79.2697 14.2959C79.2731 14.5536 79.1293 14.5584 78.9922 14.5439Z" fill="#EE3823"/>
</g>
<defs>
<clipPath id="clip0">
<rect width="85" height="35" fill="white" transform="translate(0.0546875 0.0136719)"/>
</clipPath>
</defs>
</svg>
