<svg width="47" height="47" viewBox="0 0 47 47" fill="none" xmlns="http://www.w3.org/2000/svg">
<path fill-rule="evenodd" clip-rule="evenodd" d="M30.779 0C29.721 0 28.8633 0.857716 28.8633 1.91576C28.8633 2.97381 29.721 3.83152 30.779 3.83152H42.4022V15.4538C42.4022 16.5119 43.2599 17.3696 44.3179 17.3696C45.376 17.3696 46.2337 16.5119 46.2337 15.4538V1.91576C46.2337 0.857715 45.376 0 44.3179 0C44.3178 0 44.3177 4.59986e-08 44.3175 4.59986e-08C44.3174 4.59986e-08 44.3172 0 44.3171 0H30.779Z" fill="#343330" fill-opacity="0.8"/>
<path fill-rule="evenodd" clip-rule="evenodd" d="M0 15.4534C0 16.5114 0.857716 17.3691 1.91576 17.3691C2.97381 17.3691 3.83152 16.5114 3.83152 15.4534L3.83152 3.83152L15.4538 3.83152C16.5119 3.83152 17.3696 2.97381 17.3696 1.91576C17.3696 0.857716 16.5119 0 15.4538 0L1.95654 0C1.94298 -0.000282288 1.92939 -0.000425339 1.91576 -0.000425339C0.857716 -0.000425339 0 0.85729 0 1.91534L0 1.91576L0 15.4534Z" fill="#343330" fill-opacity="0.8"/>
<path fill-rule="evenodd" clip-rule="evenodd" d="M15.4534 47C16.5114 47 17.3691 46.1423 17.3691 45.0842C17.3691 44.0262 16.5114 43.1685 15.4534 43.1685H3.83152L3.83152 31.5462C3.83152 30.4881 2.97381 29.6304 1.91576 29.6304C0.857716 29.6304 0 30.4881 0 31.5462L0 45.0435C-0.000282288 45.057 -0.000425339 45.0706 -0.000425339 45.0842C-0.000425339 46.1423 0.85729 47 1.91534 47H1.91576H15.4534Z" fill="#343330" fill-opacity="0.8"/>
<path fill-rule="evenodd" clip-rule="evenodd" d="M46.2344 31.5466C46.2344 30.4886 45.3767 29.6309 44.3186 29.6309C43.2606 29.6309 42.4029 30.4886 42.4029 31.5466V43.1685H30.7801C29.722 43.1685 28.8643 44.0262 28.8643 45.0842C28.8643 46.1423 29.722 47 30.7801 47H44.2778C44.2914 47.0003 44.305 47.0004 44.3186 47.0004C45.3767 47.0004 46.2344 46.1427 46.2344 45.0847V31.5466Z" fill="#343330" fill-opacity="0.8"/>
<path fill-rule="evenodd" clip-rule="evenodd" d="M23.1172 38.3154C31.2289 38.3154 37.8047 31.7396 37.8047 23.6279C37.8047 15.5162 31.2289 8.94043 23.1172 8.94043C15.0055 8.94043 8.42969 15.5162 8.42969 23.6279C8.42969 31.7396 15.0055 38.3154 23.1172 38.3154ZM23.1168 34.9946C29.3946 34.9946 34.4837 29.9055 34.4837 23.6277C34.4837 17.35 29.3946 12.2609 23.1168 12.2609C16.8391 12.2609 11.75 17.35 11.75 23.6277C11.75 29.9055 16.8391 34.9946 23.1168 34.9946Z" fill="#343330" fill-opacity="0.8"/>
</svg>
