<svg width="14" height="12" viewBox="0 0 14 12" fill="none" xmlns="http://www.w3.org/2000/svg">
<path d="M12.5402 0.648438H1.62733C0.874331 0.648438 0.261719 1.26102 0.261719 2.01405V2.01413V10.3851C0.261719 11.1374 0.873715 11.7494 1.62599 11.7494H12.5402C13.2924 11.7494 13.9044 11.1374 13.9044 10.3851C13.9044 10.1403 13.9044 2.15898 13.9044 2.01274C13.9044 1.26046 13.2924 0.648438 12.5402 0.648438ZM1.06423 2.01405C1.06423 1.70358 1.31684 1.45095 1.62733 1.45095H12.5402C12.8499 1.45095 13.1019 1.70297 13.1019 2.01271V2.69875C12.9305 2.62093 12.7404 2.57722 12.5402 2.57722H1.62733C1.31619 2.57722 1.06423 2.32529 1.06423 2.01413V2.01405ZM12.5402 10.9469H1.62599C1.31622 10.9469 1.06423 10.6949 1.06423 10.3851C1.06423 10.065 1.06423 3.54984 1.06423 3.25899C1.23886 3.33809 1.42988 3.37971 1.62733 3.37971H12.5402C12.8499 3.37971 13.1019 3.63173 13.1019 3.94147V3.97994V5.65853H10.2461C10.2443 5.65853 10.2425 5.65877 10.2408 5.6588C9.41366 5.66168 8.74161 6.33539 8.74161 7.16319C8.74161 7.98962 9.41141 8.66231 10.2366 8.66747C10.2398 8.66753 10.2429 8.66795 10.2461 8.66795H13.1019V10.3851C13.1019 10.6949 12.8499 10.9469 12.5402 10.9469ZM13.1019 7.86544H11.5761C11.8041 7.43553 11.8137 6.90906 11.5762 6.46104H13.1019V7.86544ZM10.2461 6.46117C10.6332 6.46117 10.9481 6.77608 10.9481 7.16319C10.9481 7.55029 10.6332 7.8652 10.2461 7.8652C9.85903 7.8652 9.54412 7.55029 9.54412 7.16319C9.54412 6.77608 9.85903 6.46117 10.2461 6.46117Z" fill="#5CAF51"/>
</svg>
