<svg width="28" height="29" viewBox="0 0 28 29" fill="none" xmlns="http://www.w3.org/2000/svg">
<path d="M17.6339 0.445312C11.9949 0.445312 7.40074 5.03947 7.40074 10.6785C7.40074 13.1021 8.27326 15.3179 9.68975 17.0748L0.162109 26.5992L1.71325 28.1503L11.2387 18.6227C12.9934 20.0392 15.2103 20.9117 17.6339 20.9117C23.273 20.9117 27.8671 16.3175 27.8671 10.6785C27.8671 5.03947 23.273 0.445312 17.6339 0.445312ZM17.6339 2.59967C22.1085 2.59967 25.7128 6.2039 25.7128 10.6785C25.7128 15.1531 22.1085 18.7573 17.6339 18.7573C13.1593 18.7573 9.5551 15.1531 9.5551 10.6785C9.5551 6.2039 13.1593 2.59967 17.6339 2.59967Z" fill="white"/>
</svg>
