<svg width="15" height="15" viewBox="0 0 15 15" fill="transparent" xmlns="http://www.w3.org/2000/svg">
<path d="M11.5118 4.85083C12.6208 4.85083 13.5198 3.95185 13.5198 2.8429C13.5198 1.73394 12.6208 0.834961 11.5118 0.834961C10.4029 0.834961 9.50391 1.73394 9.50391 2.8429C9.50391 3.95185 10.4029 4.85083 11.5118 4.85083Z" stroke-width="1.3" stroke-linecap="round" stroke-linejoin="round"/>
<path d="M3.48059 9.53638C4.58954 9.53638 5.48853 8.63739 5.48853 7.52844C5.48853 6.41949 4.58954 5.52051 3.48059 5.52051C2.37164 5.52051 1.47266 6.41949 1.47266 7.52844C1.47266 8.63739 2.37164 9.53638 3.48059 9.53638Z" stroke-width="1.3" stroke-linecap="round" stroke-linejoin="round"/>
<path d="M11.5118 14.2209C12.6208 14.2209 13.5198 13.322 13.5198 12.213C13.5198 11.1041 12.6208 10.2051 11.5118 10.2051C10.4029 10.2051 9.50391 11.1041 9.50391 12.213C9.50391 13.322 10.4029 14.2209 11.5118 14.2209Z" stroke-width="1.3" stroke-linecap="round" stroke-linejoin="round"/>
<path d="M5.21484 8.53906L9.78624 11.2029" stroke-width="1.3" stroke-linecap="round" stroke-linejoin="round"/>
<path d="M9.77955 3.85352L5.21484 6.51738" stroke-width="1.3" stroke-linecap="round" stroke-linejoin="round"/>
</svg>
