<svg width="145" height="47" xmlns="http://www.w3.org/2000/svg"><path stroke="#fff" fill="transparent" fill-rule="evenodd" clip-rule="evenodd" d="M139.756 1H5.357c-2.375 0-4.3 1.79-4.3 4v37c0 2.21 1.925 4 4.3 4h134.399c2.375 0 4.301-1.79 4.301-4V5c0-2.21-1.926-4-4.301-4z"/><path fill-rule="evenodd" clip-rule="evenodd" d="M34.951 23.097c.032 3.782 3.308 5.032 3.348 5.045-.02.088-.512 1.805-1.74 3.547-1.028 1.535-2.103 3.035-3.81 3.063-1.659.037-2.216-.978-4.12-.978-1.92 0-2.514.95-4.104 1.015-1.627.061-2.87-1.638-3.933-3.159-2.124-3.103-3.779-8.748-1.56-12.588 1.074-1.884 3.036-3.097 5.13-3.13 1.628-.034 3.138 1.1 4.14 1.1.98 0 2.848-1.356 4.774-1.153.805.023 3.1.317 4.58 2.474-.12.072-2.734 1.608-2.705 4.764zm-3.137-9.302c-.893 1.053-2.322 1.86-3.713 1.755-.182-1.42.523-2.933 1.312-3.855.892-1.047 2.44-1.849 3.68-1.904.161 1.479-.424 2.934-1.28 4.004h.001z"/><path d="M54.756 16.186h-.746V14.79h-4.082v1.398h-.75l-.004-2.011h.465c.244-.276.438-.646.582-1.11a6.56 6.56 0 00.273-1.53l.125-2.434h3.403v5.074h.742l-.008 2.008zm-4.262-2.008h2.774V9.72h-1.926l-.082 1.672c-.034.653-.121 1.21-.262 1.671-.138.461-.306.832-.504 1.114zm4.856-1.54c0-.413.08-.786.242-1.117.164-.33.39-.586.68-.765.291-.18.623-.27.996-.27.575 0 1.04.2 1.394.598.357.398.535.928.535 1.59v.05c0 .412-.08.782-.238 1.11a1.78 1.78 0 01-.676.762 1.862 1.862 0 01-1.008.273c-.572 0-1.037-.2-1.394-.598-.354-.398-.531-.925-.531-1.582v-.05zm.726.087c0 .468.108.845.324 1.129.22.283.51.425.875.425.368 0 .66-.143.875-.43.217-.289.325-.692.325-1.21 0-.464-.111-.839-.332-1.125a1.042 1.042 0 00-.875-.434c-.357 0-.645.142-.864.426-.219.284-.328.69-.328 1.219zm5.723 1.554c.258 0 .483-.078.676-.234a.824.824 0 00.32-.586h.683a1.31 1.31 0 01-.25.691c-.153.22-.359.394-.617.524-.255.13-.526.195-.812.195-.576 0-1.034-.191-1.375-.574-.339-.386-.508-.912-.508-1.578v-.121c0-.412.076-.778.227-1.098a1.73 1.73 0 01.648-.746 1.858 1.858 0 011.004-.266c.474 0 .867.142 1.18.426.315.284.483.652.503 1.106h-.683a.985.985 0 00-.313-.672.955.955 0 00-.687-.266c-.367 0-.652.133-.855.399-.201.263-.301.644-.301 1.144v.137c0 .487.1.862.3 1.125.201.263.487.394.86.394zm5.633-3.129h-1.418v3.641h-.723v-3.64h-1.39v-.586h3.53v.585zm2.132 2.582l.985-3.167h.773l-1.699 4.878c-.263.704-.68 1.055-1.254 1.055l-.137-.012-.27-.05v-.586l.196.015c.245 0 .435-.05.57-.148.139-.1.252-.28.34-.543l.16-.43-1.507-4.18h.789l1.054 3.168zm5.864 1.059h-.723v-3.629H72.76v3.629h-.727v-4.226h3.395v4.226zm4.613 0h-.723v-1.805h-1.941v1.805h-.727v-4.226h.727v1.832h1.941v-1.832h.723v4.226zm.973-2.152c0-.414.08-.787.242-1.117.164-.331.39-.587.68-.766.291-.18.623-.27.996-.27.575 0 1.04.2 1.394.598.357.398.535.928.535 1.59v.05c0 .412-.08.782-.238 1.11a1.78 1.78 0 01-.676.762 1.862 1.862 0 01-1.008.273c-.572 0-1.037-.2-1.394-.598-.354-.398-.531-.925-.531-1.582v-.05zm.726.086c0 .468.108.845.325 1.129.218.283.51.425.874.425.368 0 .66-.143.876-.43.216-.289.324-.692.324-1.21 0-.464-.111-.839-.332-1.125a1.042 1.042 0 00-.875-.434c-.357 0-.645.142-.864.426-.218.284-.328.69-.328 1.219zm6.078 2.066v-4.226h1.649c.562 0 .993.098 1.293.296.302.196.453.483.453.864a.874.874 0 01-.176.53c-.117.157-.29.277-.52.36.256.06.46.177.614.352a.905.905 0 01.234.625c0 .388-.143.685-.43.89-.283.206-.686.309-1.207.309h-1.91zm.723-1.856v1.274h1.195c.302 0 .528-.056.676-.168a.554.554 0 00.227-.473c0-.421-.31-.633-.93-.633h-1.168zm0-.578h.934c.677 0 1.015-.197 1.015-.593 0-.396-.32-.6-.96-.614h-.989v1.207zM58.624 35.296h-2.271l-1.244-3.909h-4.324L49.6 35.296h-2.211l4.284-13.308h2.646l4.305 13.308zm-3.89-5.549l-1.125-3.475c-.12-.355-.342-1.191-.671-2.507h-.04c-.2.838-.41 1.674-.632 2.507l-1.105 3.475h3.573zm14.907.633c0 1.632-.441 2.922-1.323 3.869-.79.843-1.771 1.264-2.942 1.264-1.264 0-2.172-.454-2.725-1.362h-.04v5.055h-2.132V28.859c0-1.026-.027-2.079-.08-3.159h1.876l.119 1.521h.04c.71-1.146 1.79-1.718 3.238-1.718 1.132 0 2.077.447 2.833 1.342.758.896 1.136 2.074 1.136 3.535zm-2.172.078c0-.934-.21-1.704-.632-2.31-.461-.632-1.08-.948-1.856-.948-.526 0-1.004.176-1.431.523-.428.35-.708.807-.84 1.373-.065.264-.098.48-.098.65v1.6c0 .698.214 1.287.642 1.768.428.481.984.721 1.668.721.803 0 1.428-.31 1.875-.928.448-.619.672-1.435.672-2.449zm13.209-.078c0 1.632-.441 2.922-1.324 3.869-.79.843-1.77 1.264-2.941 1.264-1.264 0-2.172-.454-2.724-1.362h-.04v5.055h-2.132V28.859c0-1.026-.027-2.079-.08-3.159h1.876l.119 1.521h.04c.71-1.146 1.789-1.718 3.238-1.718 1.13 0 2.076.447 2.834 1.342.755.896 1.134 2.074 1.134 3.535zm-2.172.078c0-.934-.211-1.704-.633-2.31-.461-.632-1.078-.948-1.855-.948a2.22 2.22 0 00-1.432.523c-.428.35-.707.807-.838 1.373-.065.264-.1.48-.1.65v1.6c0 .698.215 1.287.64 1.768.429.48.985.721 1.67.721.804 0 1.429-.31 1.876-.928.448-.619.672-1.435.672-2.449zm14.512 1.106c0 1.132-.393 2.053-1.182 2.764-.867.777-2.074 1.165-3.625 1.165-1.432 0-2.58-.276-3.45-.829l.495-1.777c.936.566 1.963.85 3.082.85.803 0 1.428-.182 1.877-.544.447-.362.67-.848.67-1.454 0-.54-.184-.995-.553-1.364-.367-.369-.98-.712-1.836-1.029-2.33-.869-3.494-2.142-3.494-3.816 0-1.094.408-1.991 1.225-2.689.814-.699 1.9-1.048 3.258-1.048 1.21 0 2.217.211 3.02.632l-.533 1.738c-.75-.408-1.598-.612-2.547-.612-.75 0-1.336.185-1.756.553a1.58 1.58 0 00-.533 1.205c0 .526.203.961.61 1.303.356.316 1 .658 1.937 1.027 1.145.461 1.986 1 2.527 1.618.539.616.808 1.387.808 2.307zm7.049-4.264h-2.35v4.659c0 1.185.414 1.777 1.244 1.777.38 0 .697-.033.947-.099l.059 1.619c-.42.157-.973.236-1.658.236-.842 0-1.5-.257-1.975-.77-.473-.514-.711-1.376-.711-2.587v-4.837h-1.4v-1.6h1.4v-1.757l2.094-.632v2.389h2.35V27.3zm10.603 3.119c0 1.475-.422 2.686-1.264 3.633-.883.975-2.055 1.461-3.516 1.461-1.408 0-2.529-.467-3.365-1.401-.836-.934-1.254-2.113-1.254-3.534 0-1.487.43-2.705 1.293-3.652.861-.948 2.023-1.422 3.484-1.422 1.408 0 2.541.467 3.396 1.402.818.907 1.226 2.078 1.226 3.513zm-2.212.069c0-.885-.189-1.644-.572-2.277-.447-.766-1.086-1.148-1.914-1.148-.857 0-1.508.383-1.955 1.148-.383.634-.572 1.405-.572 2.317 0 .885.189 1.644.572 2.276.461.766 1.105 1.148 1.936 1.148.814 0 1.453-.39 1.914-1.168.393-.645.591-1.412.591-2.296zm9.142-2.913a3.698 3.698 0 00-.672-.059c-.75 0-1.33.283-1.738.85-.355.5-.533 1.132-.533 1.895v5.035h-2.131l.02-6.574c0-1.106-.027-2.113-.08-3.021h1.857l.078 1.836h.059c.225-.631.58-1.139 1.066-1.52a2.577 2.577 0 011.541-.514c.197 0 .375.014.533.039v2.033zm9.535 2.469c.005.324-.021.648-.078.967h-6.396c.025.948.334 1.673.928 2.173.539.447 1.236.671 2.092.671.947 0 1.811-.151 2.588-.454l.334 1.48c-.908.396-1.98.593-3.217.593-1.488 0-2.656-.438-3.506-1.313-.848-.875-1.273-2.05-1.273-3.524 0-1.447.395-2.652 1.186-3.613.828-1.026 1.947-1.539 3.355-1.539 1.383 0 2.43.513 3.141 1.539.563.815.846 1.823.846 3.02zm-2.033-.553c.014-.632-.125-1.178-.414-1.639-.369-.593-.936-.889-1.699-.889-.697 0-1.264.289-1.697.869-.355.461-.566 1.014-.631 1.658h4.441v.001z"/></svg>