<svg width="42" height="41" fill="none" xmlns="http://www.w3.org/2000/svg"><ellipse cx="20.967" cy="20.545" rx="20.24" ry="20.001" fill="#fff" fill-opacity=".54"/><path fill-rule="evenodd" clip-rule="evenodd" d="M27.775 21.343c.032 3.737 3.308 4.972 3.348 4.985-.02.087-.512 1.784-1.74 3.505-1.028 1.517-2.103 3-3.81 3.027-1.66.036-2.216-.967-4.12-.967-1.92 0-2.514.94-4.104 1.003-1.627.06-2.87-1.618-3.933-3.121-2.123-3.066-3.778-8.645-1.56-12.44 1.075-1.86 3.036-3.06 5.13-3.092 1.628-.034 3.138 1.087 4.14 1.087.98 0 2.848-1.34 4.774-1.14.805.023 3.099.314 4.579 2.445-.12.071-2.733 1.59-2.704 4.708zm-3.137-9.192c-.893 1.04-2.322 1.838-3.713 1.734-.182-1.403.523-2.898 1.312-3.81.892-1.034 2.44-1.826 3.68-1.88.16 1.46-.424 2.899-1.28 3.956z" fill="#fff"/></svg>