<svg width="86" height="68" fill="none" xmlns="http://www.w3.org/2000/svg"><path d="M83.139 10.546c-1.717-1.799-4.088-2.862-6.785-2.862h-13.57v-.163c0-2.044-.818-4.006-2.208-5.314A7.48 7.48 0 0055.262 0H30.738c-2.126 0-4.006.817-5.396 2.207a7.48 7.48 0 00-2.207 5.314v.163H9.646c-2.697 0-5.068 1.063-6.785 2.862C1.144 12.262 0 14.715 0 17.33v40.71c0 2.699 1.063 5.07 2.861 6.786 1.717 1.717 4.17 2.861 6.785 2.861h66.708c2.697 0 5.068-1.063 6.785-2.861C84.856 63.11 86 60.657 86 58.042V17.33c0-2.698-1.063-5.069-2.861-6.785zm-1.39 47.496h-.082c0 1.471-.572 2.78-1.553 3.76a5.248 5.248 0 01-3.76 1.553H9.646a5.248 5.248 0 01-3.76-1.553 5.248 5.248 0 01-1.553-3.76V17.33c0-1.472.572-2.78 1.553-3.76a5.248 5.248 0 013.76-1.554h15.778a2.198 2.198 0 002.207-2.207V7.44c0-.9.327-1.718.9-2.29.572-.572 1.39-.9 2.288-.9h24.443c.9 0 1.717.328 2.29.9.572.572.899 1.39.899 2.29v2.37c0 1.226.98 2.207 2.207 2.207h15.777c1.472 0 2.78.572 3.76 1.553a5.248 5.248 0 011.554 3.76v40.712z" fill="#343330" fill-opacity=".8"/><path d="M43 17.576a20.146 20.146 0 00-14.223 5.886c-3.68 3.679-5.886 8.665-5.886 14.224a20.146 20.146 0 005.886 14.225c3.678 3.678 8.665 5.886 14.224 5.886a20.146 20.146 0 0014.224-5.886c3.679-3.679 5.886-8.666 5.886-14.225a20.146 20.146 0 00-5.886-14.224 20.146 20.146 0 00-14.224-5.886zm11.119 31.31c-2.861 2.78-6.785 4.578-11.118 4.578s-8.257-1.798-11.118-4.578c-2.861-2.861-4.578-6.785-4.578-11.118s1.799-8.256 4.578-11.118c2.861-2.86 6.785-4.578 11.118-4.578s8.257 1.799 11.118 4.578c2.861 2.862 4.578 6.785 4.578 11.118.081 4.333-1.717 8.257-4.578 11.118zm17.984-23.38a4.006 4.006 0 100-8.012 4.006 4.006 0 000 8.012z" fill="#343330" fill-opacity=".8"/></svg>