<svg width="24" height="24" fill="none" xmlns="http://www.w3.org/2000/svg"><path d="M23.707 7.059a.693.693 0 00-.596-.316H7.24L6.026 2.606a3.205 3.205 0 00-.444-.958c-.187-.265-.386-.452-.596-.56a2.608 2.608 0 00-.55-.223A1.92 1.92 0 003.97.807H.767a.7.7 0 00-.514.21.73.73 0 00-.21.538.76.76 0 00.093.362.639.639 0 00.27.269.76.76 0 00.361.093H3.97c.063 0 .121.008.176.023.054.016.128.082.222.2.093.116.171.291.233.525l4.137 15.191a.848.848 0 00.397.468.67.67 0 00.304.07h10.097c.156 0 .3-.047.432-.14a.692.692 0 00.269-.35l3.576-10.518a.75.75 0 00-.105-.69zM19.02 17.26h-8.998L7.639 8.24h14.396l-3.014 9.021zm-1.473 2.992a1.8 1.8 0 00-1.32.549 1.8 1.8 0 00-.55 1.32c0 .515.184.955.55 1.321a1.8 1.8 0 001.32.55 1.8 1.8 0 001.32-.55 1.8 1.8 0 00.55-1.32 1.8 1.8 0 00-.55-1.321 1.8 1.8 0 00-1.32-.55zm-6.73 0c-.344 0-.66.085-.947.257a1.884 1.884 0 00-.678.678 1.82 1.82 0 00-.245.934c0 .515.183.955.549 1.321a1.8 1.8 0 001.32.55 1.8 1.8 0 001.32-.55 1.8 1.8 0 00.55-1.32c0-.125-.012-.25-.035-.374a1.671 1.671 0 00-.28-.667 2.026 2.026 0 00-.515-.514 1.664 1.664 0 00-.666-.28 2.023 2.023 0 00-.374-.035z" fill="#fff"/></svg>