<svg width="351" height="31" fill="none" xmlns="http://www.w3.org/2000/svg"><mask id="a" fill="#fff"><path fill-rule="evenodd" clip-rule="evenodd" d="M110.863 30.121h224.179c8.285 0 15-6.716 15-15 0-8.284-6.715-15-14.999-15H110.032l15.03 15.426-14.199 14.574zm-3.249-30H15.019c-8.284 0-15 6.716-15 15 0 8.284 6.716 15 15 15h93.074l8.2-14.574L107.614.121z"/></mask><path d="M110.863 30.121l-1.075-1.047-2.481 2.547h3.556v-1.5zm-.831-30v-1.5h-3.556l2.481 2.547L110.032.12zm15.03 15.426l1.075 1.047 1.019-1.047-1.019-1.046-1.075 1.046zM107.614.121l1.307-.735-.43-.765h-.877v1.5zm.479 30v1.5h.878l.43-.764-1.308-.736zm8.2-14.574l1.307.736.414-.736-.414-.735-1.307.735zm218.749 13.074H110.863v3h224.179v-3zm13.5-13.5c0 7.456-6.044 13.5-13.5 13.5v3c9.113 0 16.5-7.387 16.5-16.5h-3zm-13.499-13.5c7.455 0 13.499 6.044 13.499 13.5h3c0-9.113-7.387-16.5-16.499-16.5v3zm-225.011 0h225.011v-3H110.032v3zm-1.075-.453l15.031 15.426 2.149-2.093L111.106-.926l-2.149 2.094zM123.988 14.5l-14.2 14.573 2.149 2.094 14.2-14.574-2.149-2.093zM15.019 1.62h92.595v-3H15.019v3zm-13.5 13.5c0-7.456 6.045-13.5 13.5-13.5v-3c-9.112 0-16.5 7.387-16.5 16.5h3zm13.5 13.5c-7.455 0-13.5-6.044-13.5-13.5h-3c0 9.113 7.388 16.5 16.5 16.5v-3zm93.074 0H15.019v3h93.074v-3zm1.308 2.236l8.199-14.574-2.614-1.471-8.2 14.574 2.615 1.47zm8.199-16.045L108.921-.614l-2.614 1.47 8.679 15.427 2.614-1.471z" fill="#5CAF51" mask="url(#a)"/><path fill-rule="evenodd" clip-rule="evenodd" d="M109.353 30.121l10.26-14.694L109.078.447V.426l13.546 15-13.271 14.695z" fill="#5CAF51"/></svg>