<svg width="445" height="12" fill="none" xmlns="http://www.w3.org/2000/svg"><path d="M.742 9.733c-.068-.205-.135-.41-.135-.628 0-1.352 1.534-2.463 3.44-2.463 1.904 0 3.439 1.099 3.439 2.463 0 .218-.05.423-.135.628.995.531 1.635 1.304 1.787 2.174h4.316c.135-.87.792-1.63 1.787-2.174-.067-.205-.135-.41-.135-.628 0-1.352 1.534-2.463 3.44-2.463 1.905 0 3.439 1.099 3.439 2.463 0 .218-.05.423-.135.628.995.531 1.635 1.304 1.787 2.174h4.215c.135-.87.793-1.63 1.787-2.174-.067-.205-.135-.41-.135-.628 0-1.352 1.535-2.463 3.44-2.463s3.44 1.099 3.44 2.463c0 .218-.051.423-.136.628.995.531 1.636 1.304 1.787 2.174h4.317c.134-.87.792-1.63 1.787-2.174-.068-.205-.135-.41-.135-.628 0-1.352 1.534-2.463 3.44-2.463 1.904 0 3.438 1.099 3.438 2.463 0 .218-.05.423-.134.628.994.531 1.635 1.304 1.787 2.174h4.957c.134-.87.792-1.63 1.787-2.174-.068-.205-.135-.41-.135-.628 0-1.352 1.534-2.463 3.44-2.463 1.904 0 3.438 1.099 3.438 2.463 0 .218-.05.423-.134.628.994.531 1.635 1.304 1.787 2.174h4.316c.135-.87.792-1.63 1.787-2.174-.068-.205-.135-.41-.135-.628 0-1.352 1.534-2.463 3.44-2.463 1.904 0 3.439 1.099 3.439 2.463 0 .218-.05.423-.135.628.995.531 1.635 1.304 1.787 2.174h4.215c.135-.87.792-1.63 1.787-2.174-.067-.205-.135-.41-.135-.628 0-1.352 1.534-2.463 3.44-2.463 1.905 0 3.439 1.099 3.439 2.463 0 .218-.05.423-.135.628.995.531 1.635 1.304 1.787 2.174h4.316c.135-.87.793-1.63 1.787-2.174-.067-.205-.134-.41-.134-.628 0-1.352 1.534-2.463 3.439-2.463s3.439 1.099 3.439 2.463c0 .218-.05.423-.135.628.995.531 1.636 1.304 1.787 2.174h4.215c.135-.87.793-1.63 1.788-2.174-.068-.205-.135-.41-.135-.628 0-1.352 1.534-2.463 3.439-2.463s3.439 1.099 3.439 2.463c0 .218-.05.423-.134.628.994.531 1.635 1.304 1.787 2.174h4.316c.135-.87.792-1.63 1.787-2.174-.068-.205-.135-.41-.135-.628 0-1.352 1.534-2.463 3.439-2.463s3.44 1.099 3.44 2.463c0 .218-.051.423-.135.628.995.531 1.635 1.304 1.787 2.174h4.957c.135-.87.792-1.63 1.787-2.174-.068-.205-.135-.41-.135-.628 0-1.352 1.534-2.463 3.439-2.463s3.44 1.099 3.44 2.463c0 .218-.051.423-.135.628.995.531 1.635 1.304 1.787 2.174h4.316c.135-.87.792-1.63 1.787-2.174-.067-.205-.135-.41-.135-.628 0-1.352 1.535-2.463 3.44-2.463s3.439 1.099 3.439 2.463c0 .218-.051.423-.135.628.995.531 1.636 1.304 1.787 2.174h2.984c.135-.87.793-1.63 1.788-2.174-.068-.205-.135-.41-.135-.628 0-1.352 1.534-2.463 3.439-2.463s3.439 1.099 3.439 2.463c0 .218-.05.423-.134.628.994.531 1.635 1.304 1.787 2.174h4.316c.135-.87.792-1.63 1.787-2.174-.068-.205-.135-.41-.135-.628 0-1.352 1.534-2.463 3.439-2.463 1.906 0 3.44 1.099 3.44 2.463 0 .218-.051.423-.135.628.995.531 1.635 1.304 1.787 2.174h4.215c.135-.87.792-1.63 1.787-2.174-.067-.205-.135-.41-.135-.628 0-1.352 1.534-2.463 3.44-2.463 1.905 0 3.439 1.099 3.439 2.463 0 .218-.051.423-.135.628.995.531 1.635 1.304 1.787 2.174h4.316c.135-.87.793-1.63 1.787-2.174-.067-.205-.135-.41-.135-.628 0-1.352 1.535-2.463 3.44-2.463s3.439 1.099 3.439 2.463c0 .218-.05.423-.135.628.995.531 1.636 1.304 1.787 2.174h4.957c.135-.87.793-1.63 1.787-2.174-.067-.205-.135-.41-.135-.628 0-1.352 1.535-2.463 3.44-2.463s3.439 1.099 3.439 2.463c0 .218-.05.423-.135.628.995.531 1.636 1.304 1.787 2.174h4.317c.134-.87.792-1.63 1.787-2.174-.068-.205-.135-.41-.135-.628 0-1.352 1.534-2.463 3.439-2.463s3.44 1.099 3.44 2.463c0 .218-.051.423-.135.628.994.531 1.635 1.304 1.787 2.174h4.215c.135-.87.792-1.63 1.787-2.174-.068-.205-.135-.41-.135-.628 0-1.352 1.534-2.463 3.439-2.463s3.44 1.099 3.44 2.463c0 .218-.051.423-.135.628.995.531 1.635 1.304 1.787 2.174h4.316c.135-.87.792-1.63 1.787-2.174-.067-.205-.135-.41-.135-.628 0-1.352 1.534-2.463 3.44-2.463 1.905 0 3.439 1.099 3.439 2.463 0 .218-.051.423-.135.628.995.531 1.635 1.304 1.787 2.174h4.215c.135-.87.793-1.63 1.787-2.174-.067-.205-.135-.41-.135-.628 0-1.352 1.535-2.463 3.44-2.463s3.439 1.099 3.439 2.463c0 .218-.05.423-.135.628.995.531 1.636 1.304 1.787 2.174h4.316c.135-.87.793-1.63 1.788-2.174-.068-.205-.135-.41-.135-.628 0-1.352 1.534-2.463 3.439-2.463s3.439 1.099 3.439 2.463c0 .218-.05.423-.134.628.994.531 1.635 1.304 1.787 2.174h4.956c.135-.87.793-1.63 1.788-2.174-.068-.205-.135-.41-.135-.628 0-1.352 1.534-2.463 3.439-2.463s3.439 1.099 3.439 2.463c0 .218-.05.423-.134.628.994.531 1.635 1.304 1.787 2.174h4.316c.135-.87.792-1.63 1.787-2.174-.068-.205-.135-.41-.135-.628 0-1.352 1.534-2.463 3.439-2.463 1.906 0 3.44 1.099 3.44 2.463 0 .218-.051.423-.135.628.995.531 1.635 1.304 1.787 2.174h3.895c.134-.87.792-1.63 1.787-2.174-.068-.205-.135-.41-.135-.628 0-1.352 1.534-2.463 3.439-2.463s3.44 1.099 3.44 2.463c0 .218-.051.423-.135.628.994.531 1.635 1.304 1.787 2.174h4.215c.135-.87.792-1.63 1.787-2.174-.068-.205-.135-.41-.135-.628 0-1.352 1.534-2.463 3.439-2.463 1.906 0 3.44 1.099 3.44 2.463 0 .218-.051.423-.135.628.995.531 1.635 1.304 1.787 2.174h4.316c.135-.87.792-1.63 1.787-2.174-.067-.205-.135-.41-.135-.628 0-1.352 1.535-2.463 3.44-2.463s3.439 1.099 3.439 2.463c0 .218-.051.423-.135.628.995.531 1.636 1.304 1.787 2.174h4.957c.135-.87.792-1.63 1.787-2.174-.067-.205-.135-.41-.135-.628 0-1.352 1.534-2.463 3.44-2.463 1.905 0 3.439 1.099 3.439 2.463 0 .218-.051.423-.135.628.995.531 1.636 1.304 1.787 2.174h4.316c.135-.87.793-1.63 1.787-2.174-.067-.205-.134-.41-.134-.628 0-1.352 1.534-2.463 3.439-2.463s3.439 1.099 3.439 2.463c0 .218-.05.423-.135.628.995.531 1.636 1.304 1.788 2.174h4.585c.135-.87.793-1.63 1.788-2.174-.068-.205-.135-.41-.135-.628 0-1.352 1.534-2.463 3.439-2.463s3.439 1.099 3.439 2.463c0 .218-.05.423-.134.628.994.531 1.635 1.304 1.787 2.174h4.316c.135-.87.792-1.63 1.787-2.174-.068-.205-.135-.41-.135-.628 0-1.352 1.534-2.463 3.439-2.463s3.44 1.099 3.44 2.463c0 .218-.051.423-.135.628.27.145.522.314.742.495V0H0v10.216a5.47 5.47 0 01.742-.483z" fill="#EEEDEE"/></svg>