<svg width="40" height="27" fill="none" xmlns="http://www.w3.org/2000/svg"><rect x=".762" y=".363" width="39.18" height="25.488" rx="5" fill="url(#paint0_linear)"/><path d="M15.542.285v5.911a5 5 0 01-5 5H5.497a4.02 4.02 0 00-4.02 4.02v0a4.02 4.02 0 004.02 4.019h6.986c3.375 0 5.22 3.936 3.06 6.53v0m4.803.13V20.06a5 5 0 015-5h9.322a4.051 4.051 0 004.05-4.051v0a4.051 4.051 0 00-4.05-4.051h-9.322a5 5 0 01-5-5V.35" stroke="#7A6A2C" stroke-width=".8"/><path d="M.852 5.844h18.335a5 5 0 014.988 4.661l.72 10.6c.179 2.624 2.376 4.66 5.006 4.66v0a4.688 4.688 0 004.689-4.688V10.844a5 5 0 015-5h.084" stroke="#7A6A2C" stroke-width=".8"/><defs><linearGradient id="paint0_linear" x1="20.352" y1=".363" x2="20.352" y2="25.851" gradientUnits="userSpaceOnUse"><stop stop-color="#C9B45E"/><stop offset=".25" stop-color="#E2C655"/><stop offset=".62" stop-color="#DBC055"/><stop offset=".781" stop-color="#EBCA44"/><stop offset=".943" stop-color="#D3BB58"/></linearGradient></defs></svg>