<svg width="185" height="4" fill="none" xmlns="http://www.w3.org/2000/svg"><path d="M15.779 4c.726 0 .34-.447.494-.704.864-.13.4.33.694.563.54-.122.953-.533 1.356-.52.031.08.108.104.017.195.567-.355 1.701 0 2.357-.465a.22.22 0 01.088.11.812.812 0 01-.092-.274 1.297 1.297 0 01-.01-.338c.323 0 .6-.288.723 0-.11-.016-.22.056-.307.202l.338-.129c.306.429-.463.147-.463.466.664-.141 1.436-.49 1.943-.374.108.417-1.188.14-.51.515l-.786-.16c.601.656-.476-.049.074.656 1.035.122 1.157-.215 2.19-.092.232-.233-.077-.343.155-.576 1.466-.41 1.154 1.048 2.235.496.284-.282.386-.802 1.154-.527l-.26.472c1 .043.566-.68 1.619-.361-.185.183-.786.159-.636.214.68.368.482-.27 1.004-.27l.108.417c1.066-.067 2.24-.367 3.423-.441-.065.123-.284.251 0 .38a15.55 15.55 0 014.617.3l.55-.361c.128 0 .235.165.096.232.568.135.032-.226.298-.367.32 0 .423.202.221.312.987-.306 2.814-.655 3.855-.27l-.202.105c.811.147.913-.735 1.668-.398l-.145.06c1.758.154 3.704-.17 5.045.368.255-.514 1.744.233 1.855-.49 1.007.362.717.49 2.133.73.38.03.567-.454 1.032-.527v.38l.632-.399.338.453.44-.098c-.176 0-.372-.171-.347-.281.687-.172 1.67.263 1.688.46l1.619-.32c-.037.154-.306.203-.522.3.865-.385.156.399.95.044-.108-.086.057-.227.074-.3a3.786 3.786 0 001.96.134l-.128.257c1.202.068 2.532-.122 3.882-.116-.485-.122-.374-.576.023-.612l.156.398c.255-.245-.411-.147.114-.447.502.042.337.453.048.581l.612-.14c.037.122-.108.183-.144.336.25-.25 1.055.399 1.418-.03l.034.116c1.35 0 1.96-.135 3.057-.153.022-.343.45-.27.78-.545.805.11 1.701.38 2.674.35.683-.172.198-.289.505-.497.05.312 1.02.288.519.508 1.165-.049 1.489-.06 2.966-.312-.162-.129-.34-.19-.247-.294.267-.05.607.129.568.282h-.071c1.656-.466 3.823.919 5.141.263h-.073l1.367-.337c.63.05-.378.233.087.429 1.478-.527 2.332.073 3.548-.276.939.925 3.338-.061 4.606.527l-.074-.22c.329-.209.397.128.641.177-.037-.171-.357-.196-.153-.312 2.78-.264 5.737.318 8.584.514 1.044.055.593-1.127 1.906-.612l-.372.404c2.102-.49 4.3 0 6.359-.398-.122.092-.125.214-.326.214.433.294 1.608 0 1.613-.226.323 0 .077.22.284.343.437.171 1.094-.38 1.327-.086.04.049-.122.098-.201.116.283-.14 1.324.037 1.052-.3.771.16 1.477-.153 2.093.05.402-.38 1.324.183 1.452-.356-.057.557 1.352.447 1.843.19-.164.165.425.171.233.404.567 0 1.069-.11.972-.398 1.027.668 2.065-.533 2.643.318 1.657-.3 3.188-.502 4.677-.612-.051.551-1.645.055-1.583.612 1.418-.226 2.23-.704 3.631-.57.363.074-.205.24-.327.338 1.418-.233 2.729.049 3.971-.251 0 .049-.139.104-.267.147.247 0 .567.08.547-.172l-.241.074c-.394-.368.984-.766 1.03-.956-.423.717 1.239.178.567 1.09.162-.049.366-.165.329-.337.241.05.32.147.074.337.887-.134.567-.404 1.375-.398 0 .123-.164.172-.247.313.484-.325.991-.45 1.495-.368-.043.074.037.165-.164.165 1.165-.036 1.985-.612 3.267-.404-.378.527.433.178.501.613l.69-.135-.284-.22c.604 0 1.134-.325 1.653-.178l-.445.19 1.135-.086-.641-.178c.609-.233-.066-.576.737-.447.309.043.616.135.919.276.341-.206.697-.268 1.049-.184.116.14-.093.502-.017.613.284-.38 1.418-.105 1.784-.515-.125.098-.131.337-.091.386l.247-.313c.283.105.32.147.283.344.851.055-.266-.613.732-.331-.079 0-.042.067-.204.116 1.001.129 1.934-.196 2.853-.043.283.46-.803.11-.494.503 1.328-.086 2.748-.552 4.03-.448l-.238-.049c.179-.649.956.319 1.605 0-.159.05-.21.362-.167.288.879.104 1.798-.159 3.119-.361l-.164.165c.516.153 1.364.086 1.923.166.164-.172.485-.141.283-.386 1.725.95 3.29-.509 4.821.281-.184 0-.436.148-.283.148l1.304-.154c-.102-.281-.17-.171-.445-.392.274-.204.562-.304.851-.294-.587.184 0 .454.258.613-.043-.092.045-.184.023-.276.68.509.116-.57 1.043-.226l-.048.147a3.218 3.218 0 011.044-.227c.156.325-.369.147-.394.416.527 0 1.04-.612 1.517-.294-.224.092-.545.098-.769.184.308.252.636.37.964.35h-.036l.893.17-.23-.103c.661-.852 1.344-.153 2.232-.717-.851.533-.142.306-.207.68.227.104.567.22.474.325.419-.3.7.232 1.293-.202.025.116.448 0 .354.312.548-.098-.13-.208-.082-.361.851-.405 1.985.496 3.188-.062 1.043-.233 1.236-.612 2.206-.839.326.196-.266.435-.266.435a2.21 2.21 0 001.417 0c-.102.104.001.19.154.325.4 0 .266-.435.794-.258a1.714 1.714 0 01-.4.478c.471-.11.936-.33 1.418-.44.127.207-.284.318-.468.452.547-.098 1.418-.19 1.588-.52l-.352-.117c.199 0 .102.282-.045.343-.468.258-.675-.116-.701-.232l.346-.08c-.357-.698-1.392.116-2.09.073l.284-.508-.715.423c-.153-.135-.255-.417.088-.496-.499-.252-.442.183-.87-.098-.049-.043-.029-.068.017-.086l-.488.147c.093-.104-.082-.355.218-.282-.876-.294-1.418.38-1.744 0h.071c-1.217.172-.116.374-1.029.815l-.616-.925-.119.373c-.125 0-.374-.042-.326-.19-.468.258.079.16-.193.405-.604-.343-1.667.16-1.804-.435-.215.282.568.214-.065.416-.184-.643-.746.11-1.299-.183.17-.331.692-.16.139-.454-.332.558-1.075-.122-1.54 0-.022.448-1.012.19-1.792.337.048-.147-1.472-.245-2.198-.404l.02-.074c-.139.448-.89.362-1.435.454.02-.27.119-.374.414-.496h-.513c-.193.183-.402.275-.613.27l.128-.338c-.684 0-1.376.398-2.269.172-.048.312.701.876-.23 1.084-.034-.172-.068-.46.173-.527a.657.657 0 01-.442.068l.371-.288c-.402-.123-.209.239-.53.214 0-.245-.238-.171-.19-.367.08 0 .284.104.4 0-.321-.01-.639-.135-.942-.368.032.135 0 .325-.263.355-.684 0-.233-.294-.633-.416-.164.171-.601 0-.612.355a.249.249 0 01-.17-.067.616.616 0 01-.145-.203c-.352.16-1.651.05-1.251.435h.091-.06c-1.157.362-2.407-.202-3.556-.049v-.122c-.686.14-1.528.086-2.019.343-.204 0-.479-.22-.391-.361a2.037 2.037 0 01-1.342 0c.528-.209-.181-.184.539-.154-.681-.104-.834-.3-1.568 0 .249-.306-.514-.392-.837-.294l.479.22a4.566 4.566 0 01-1.006 0l.173-.403c-1.396-.497-2.516.845-3.576 0-.369.287.757.202.428.532-.644-.055-1.313-.612-1.512-.612-.879-.227-.822.612-1.741.441.119.14.23.533-.459.668-.641-.055-.789-.613-.383-.73.153 0 .227.037.221.086.207-.055.479-.116.227-.275l-.085.147c-.318-.147-1.203-.129-.993-.368-.488.135-.21.24.15.313-.822-.215-1.287 0-2.135-.147.136.08.261.25.125.245-1.242-.178-.548.275-1.39.343-.479-.22.173-.533-.675-.343-.519-.153-.11-.386.097-.509-.775.282-1.447-.183-1.886-.232l.405-.117a2.233 2.233 0 01-.644.068l.233.287c-.241-.049-.442-.049-.44-.171-.243.19.19.484-.297.747-.321-.153-.973.153-1.081-.233 1.001.135-.11-.385.738-.447-.201.05-.404.05-.605 0-.036-.043.034-.08.1-.104-.959-.343-.44.435-1.435.429.127-.22-.23-.41-.392-.368.4 0 .19.362-.175.533-.639-.171-.692.123-1.027.104l.38.08c-.128.215-.448.19-.891.257-.039-.171.403-.116.244-.19-.493.38-1.114-.398-1.8-.14-.321-.147-.032-.405-.312-.509-.772.282-.834-.294-1.645-.061.232.288.283.22-.284.502l1.33-.202-.851.423c.403 0 .851-.184 1.089-.135-.408.239-.365.165-.173.41-.55-.44-1.091.252-1.727-.042l.02-.723c-.956-.325-1.701.373-2.938.19l.397.122c-.164.288-.766.043-1.168.16.039-.24-.213-.331-.386-.478.023.177-.907 0-1.021.465l-.567-.318c-1.001-.135-1.134.686-2.107.612.283-.263-.148-.435.499-.612-.323 0-.613-.043-.618.122-.187-.153-.891.325-1.186.098-.158.239-.349.358-.541.337-.04-.049 0-.116 0-.116 0 .116-.568.159-.25.428-.99-.753-2.768.056-3.63-.612-.703.08-1.548.16-2.186.177.042-.073 0-.122.121-.098-.879-.22-.538.699-1.539.448-.511-.392.53-.215.212-.362-.139-.796-1.208.11-1.88-.355l.164-.049c-.516-.27-1.256.3-2.098.245 0 0 .042-.067 0-.123-.567.41-1.662.546-2.473.656.252-.313.369-.165.215-.484-.363.049.105.508-.618.613-.235-.172-.757-.319-.825-.656h.681c-.349-.44-.882 0-1.243-.061l.046-.19c-1.047.061-1.061.539-2.184.508l.116.141c-.615.478-.516-.27-1.134.086l-.184-.484c-.406.116-1.418.472-2.147.558a7.224 7.224 0 011.787-.754c-.4 0-1.365.037-1.574.276a.809.809 0 01.524-.092c-.627.423-1.283.612-1.94.557.142-.937-2.087-.233-2.668-.961-1.418.349-2.81-.147-4.461-.092.584.729-.482 0-.38.771a.841.841 0 01-.567 0L86.207.845c-.284-.214.363-.165.329-.33-.85-.056-.352-.319-.91-.515.113.263-.284.38-.772.282l.675.343c-1.177.398-1.015-.613-2.203-.233l.377-.239c-.61.141-2.246 0-2.836.613-.108-.086-.25-.294.017-.35-1.452-.085-3.236.613-4.365.27l.11-.178c-.283.05-.473.343-.813.16.017-.08.11-.184 0-.196a1.984 1.984 0 01-1.08.214l.306-.208c-1.418-.24-2.175.502-3.366.612 0-.539-1.112-.716-1.67-.802l.019-.08c-1.65-.061-2.805.447-4.333.662-.95-.613-3.216-.245-4.742-.576.232.098-.037.423-.31.478-.356-.11-.989.373-.932-.123h.128c-.284-.484-1.007-.355-1.58-.373l-.037.71c-1.5-.943-3.936.343-4.756-.496-.363.16-.811.16-1.171.319l.02-.343C51.305.374 50.806.33 49.564.416l.252-.25c-.7 0-.885.998-1.531 1.022l-.193-.52c-1.222 0-2.462-.447-3.667 0 .02-.074.054-.227.252-.245-.567 0-2.226-.35-2.016.361-.014-.465-1.262-.049-1.92.16L40.843.6c-.424.424-.885.654-1.353.674-.184-.043-.161-.27.083-.184-.613-.177-.48.325-1.223.141l.284-.22c-.32-.083-.643.039-.93.349-.397.135-1.2-.086-1.294-.398-.24.319-.524.443-.802.349-.051-.117.085-.184.153-.22-1.058-.233-1.571.398-2.3.06-.014-.116-.062-.17-.122-.202.851 0 1.517 0 1.452.05 0-.313-.678-.368-.139-.803-.544.233-1.474.753-2.135.613a.309.309 0 01-.088-.105l.068-.036a.733.733 0 00-.417.049 2.517 2.517 0 00-.547-.092c-.08-.264-.777-.141-1.118-.153.029.343-.414.288 0 .57-.053 0 .066-.037.284-.056a.47.47 0 00.145-.03h-.023.85c-.294.23-.613.275-.918.128-.173.22-.366.447-.474.558-.462-.484-1.352-.742-1.477-1.036-1.033.19-2.434.123-3.083.772-.284.086-.338-.184-.448-.288.157-.021.312-.07.465-.147-.587.166-1.741.068-1.88.515-.74-.202.417-.417-.601-.337l.136-.14c-1.985-.724-3.25 1.15-5.468.226.153.055.23.08.26.159-2.526-.41-5.209.38-7.701-.263-.71-.135-.786.153-1.22.373l-.153-.367-.74.429c-1.05.312-1.818-.913-3.145-.319l.17.245c-.477-.043-1.509.147-1.418-.135a.357.357 0 01-.165.15.195.195 0 01-.178-.021l-.015-.196-1.174.33c-.907-.14.142-.765-1.182-.802-.494.074-1.404.564-1.22.692.202 0 .51.123.525.313l-.45.104c-.083.57-.43 1.152.677 1.55l.771-.35.247.276h-.647c.282.172.583.127.851-.128.09.173.203.28.323.306l.758-.545c.09.226-.34.44.167.57.354-.258-.34-.503.247-.668.368.257.26.471.695.245.06.147-.032.245-.202.306.383-.178 1.018-.074 1.217-.374.385.319 1.301-.085 1.265.454.333-.25.68-.4 1.032-.448-.647.65 1.324.037 1.154.735.477-.581 1.727-.263 2.575-.581-.066.077-.14.115-.215.11.31.05.62.16.921.33.063-.477.806-.612 1.206-.881.584.459-.355.563-.17 1.004-.032-.386 1.015-.386.816-.71.446.287.386.14.616.539.079-.613.417-.105.785-.472.65.294.168.563.88.38.325.239-.307.453-.307.453zm16.91-1.041h-.348.349zm1.419 0h-.618c-.049-.117 0-.24.147-.233-.074.061.26.129.476.227l-.005.006zM31.102.576c.224-.05.3 0 .331.086-.107 0-.232 0-.394.042l-.028.043a.432.432 0 01.094-.177l-.003.006z" fill="#EE3823"/></svg>