<svg width="17" height="25" fill="none" xmlns="http://www.w3.org/2000/svg"><path d="M8.5-.001C3.813-.001 0 4.016 0 8.953c0 2.268 1.357 5.472 4.032 9.524a63.518 63.518 0 003.96 5.35l.508.603.507-.602a63.617 63.617 0 003.96-5.35C15.644 14.424 17 11.22 17 8.952c0-4.937-3.813-8.954-8.5-8.954zm3.362 17.651A64.631 64.631 0 018.5 22.257a64.566 64.566 0 01-3.354-4.595c-2.48-3.755-3.79-6.766-3.79-8.71 0-4.149 3.205-7.525 7.144-7.525 3.94 0 7.144 3.376 7.144 7.526 0 1.94-1.308 4.948-3.782 8.697z" fill="#fff"/><path d="M8.5 3.307c-2.765 0-5.016 2.37-5.016 5.284 0 2.914 2.25 5.285 5.017 5.285 2.766 0 5.017-2.371 5.017-5.285S11.268 3.307 8.5 3.307zm0 9.14c-2.017 0-3.66-1.73-3.66-3.856S6.483 4.735 8.5 4.735c2.02 0 3.662 1.73 3.662 3.856 0 2.127-1.643 3.856-3.661 3.856z" fill="#fff"/></svg>