<svg width="145" height="47" xmlns="http://www.w3.org/2000/svg"><path stroke="#fff" fill="transparent" fill-rule="evenodd" clip-rule="evenodd" d="M139.444 1H5.67a4.614 4.614 0 00-4.613 4.615v35.77A4.614 4.614 0 005.67 46h133.774a4.615 4.615 0 004.613-4.615V5.615A4.615 4.615 0 00139.444 1z"/><path d="M13.084 11.96l10.864 10.787 2.979-2.98-13.17-7.603a1.442 1.442 0 00-.673-.203zm-.91.503a1.234 1.234 0 00-.156.611v20.96c0 .168.034.32.094.454l11.115-11.036-11.054-10.99h.002zm15.662 7.823l-3.183 3.166 3.183 3.151 3.888-2.227c.553-.318.631-.724.627-.939-.006-.358-.231-.69-.612-.894-.331-.178-2.79-1.611-3.903-2.257zm-3.889 3.872L12.99 35.022c.198-.006.392-.06.566-.156.428-.25 9.108-5.269 9.108-5.269l4.28-2.46-2.995-2.979z"/><path fill-rule="evenodd" clip-rule="evenodd" d="M113.384 35.92h1.956V22.819h-1.956v13.1zm17.615-8.382l-2.242 5.68h-.068l-2.327-5.68h-2.105l3.488 7.939-1.99 4.417h2.04l5.377-12.356h-2.173zm-11.091 6.894c-.642 0-1.535-.32-1.535-1.112 0-1.012 1.112-1.4 2.074-1.4.859 0 1.264.185 1.786.439a2.374 2.374 0 01-2.325 2.073zm.235-7.18c-1.416 0-2.882.623-3.489 2.005l1.736.725c.371-.725 1.062-.96 1.787-.96 1.012 0 2.04.607 2.056 1.684v.136c-.353-.202-1.113-.506-2.039-.506-1.872 0-3.775 1.028-3.775 2.95 0 1.753 1.533 2.882 3.253 2.882 1.315 0 2.039-.589 2.494-1.281h.067v1.012h1.889v-5.024c0-2.325-1.737-3.623-3.979-3.623zm-12.085 1.88h-2.781v-4.49h2.781c1.462 0 2.292 1.211 2.292 2.245 0 1.016-.83 2.247-2.292 2.247v-.001zm-.051-6.313h-4.685v13.1h1.955v-4.962h2.73c2.169 0 4.299-1.57 4.299-4.07 0-2.499-2.131-4.068-4.299-4.068zm-25.55 11.616c-1.35 0-2.483-1.131-2.483-2.685 0-1.57 1.131-2.719 2.481-2.719 1.335 0 2.382 1.15 2.382 2.719 0 1.553-1.047 2.685-2.38 2.685zm2.245-6.163h-.069c-.438-.524-1.283-.996-2.346-.996-2.229 0-4.272 1.958-4.272 4.474 0 2.499 2.042 4.44 4.272 4.44 1.063 0 1.908-.472 2.346-1.012h.069v.641c0 1.706-.912 2.617-2.38 2.617-1.2 0-1.943-.86-2.246-1.587l-1.707.71c.49 1.18 1.791 2.633 3.952 2.633 2.296 0 4.238-1.35 4.238-4.643v-8.003h-1.857v.726zm3.207 7.648h1.96V22.819h-1.96v13.1zm4.846-4.322c-.05-1.722 1.334-2.6 2.33-2.6.777 0 1.435.389 1.655.946l-3.985 1.655zm6.078-1.486c-.37-.995-1.503-2.836-3.816-2.836-2.296 0-4.203 1.806-4.203 4.457 0 2.499 1.89 4.458 4.423 4.458 2.043 0 3.225-1.25 3.715-1.976l-1.52-1.013c-.507.743-1.199 1.233-2.195 1.233-.995 0-1.705-.456-2.16-1.35l5.959-2.466-.203-.508v.001zM51.35 28.643v1.892h4.525c-.136 1.064-.49 1.84-1.03 2.38-.658.658-1.688 1.385-3.495 1.385-2.786 0-4.964-2.246-4.964-5.031 0-2.787 2.178-5.032 4.964-5.032 1.503 0 2.6.59 3.41 1.35l1.334-1.334c-1.13-1.08-2.634-1.907-4.744-1.907-3.816 0-7.024 3.107-7.024 6.923 0 3.815 3.208 6.922 7.024 6.922 2.06 0 3.614-.676 4.828-1.942 1.25-1.25 1.639-3.006 1.639-4.424 0-.438-.035-.843-.102-1.182H51.35zm11.61 5.792c-1.35 0-2.515-1.115-2.515-2.702 0-1.603 1.165-2.702 2.516-2.702 1.35 0 2.515 1.098 2.515 2.703 0 1.586-1.165 2.7-2.515 2.7zm0-7.159c-2.465 0-4.474 1.874-4.474 4.457 0 2.567 2.009 4.458 4.475 4.458 2.464 0 4.473-1.893 4.473-4.458 0-2.584-2.009-4.457-4.473-4.457zm9.761 7.159c-1.35 0-2.515-1.115-2.515-2.702 0-1.603 1.165-2.702 2.515-2.702s2.516 1.098 2.516 2.703c0 1.586-1.166 2.7-2.516 2.7zm0-7.159c-2.466 0-4.474 1.874-4.474 4.457 0 2.567 2.008 4.458 4.474 4.458 2.465 0 4.475-1.893 4.475-4.458 0-2.584-2.01-4.457-4.475-4.457z"/><path d="M47.904 10.185a.872.872 0 00-.332-.718c-.219-.18-.527-.27-.925-.27-.334 0-.614.093-.84.278a.843.843 0 00-.336.68h-.75c0-.303.082-.574.246-.813.166-.24.398-.426.695-.559.297-.135.625-.203.985-.203.635 0 1.128.143 1.48.43.351.284.527.68.527 1.187 0 .263-.08.503-.242.719a1.624 1.624 0 01-.676.512c.67.224 1.004.668 1.004 1.332 0 .51-.19.915-.57 1.215-.38.3-.888.449-1.523.449-.378 0-.722-.067-1.032-.2a1.67 1.67 0 01-.718-.574 1.508 1.508 0 01-.258-.882h.75c0 .3.118.55.355.75.237.197.538.296.903.296.408 0 .734-.095.976-.285a.908.908 0 00.367-.754c0-.666-.413-1.006-1.238-1.02h-.703v-.616h.699c.38-.008.668-.094.863-.258.196-.164.293-.396.293-.696zm4.328 4.16c-.041-.083-.075-.231-.101-.445a1.613 1.613 0 01-1.203.524c-.417 0-.76-.117-1.028-.352a1.152 1.152 0 01-.398-.898c0-.44.167-.781.5-1.024.336-.244.807-.367 1.414-.367h.703v-.332c0-.252-.075-.453-.226-.601-.151-.151-.374-.227-.668-.227-.258 0-.474.065-.649.195-.174.13-.261.288-.261.473h-.727c0-.21.074-.414.222-.61.152-.197.355-.353.61-.468.258-.115.54-.172.848-.172.487 0 .868.122 1.144.367.276.242.42.577.43 1.004v1.945c0 .388.05.697.148.926v.063h-.758zm-1.199-.55c.227 0 .442-.059.645-.176.203-.117.35-.27.441-.457v-.867h-.566c-.886 0-1.328.259-1.328.777 0 .227.075.404.226.532a.87.87 0 00.582.19zm5.672-3.078h-1.95v3.629h-.726v-4.227h2.676v.598zm4.2 1.562c0 .643-.148 1.162-.442 1.555-.294.393-.693.59-1.195.59-.513 0-.917-.163-1.211-.489v2.036h-.723v-5.852h.66l.035.469c.295-.365.703-.547 1.227-.547.508 0 .909.191 1.203.574.297.383.445.916.445 1.598v.066zm-.723-.082c0-.476-.102-.853-.305-1.129a.982.982 0 00-.836-.414c-.438 0-.766.194-.984.582v2.02c.216.385.546.578.992.578a.973.973 0 00.824-.41c.206-.276.309-.685.309-1.227zm2.98 1.09l.985-3.168h.773l-1.7 4.879c-.262.703-.68 1.055-1.253 1.055l-.137-.012-.27-.05v-.587l.196.016c.245 0 .435-.05.57-.149.138-.099.252-.28.34-.543l.16-.43-1.508-4.179h.79l1.054 3.168zm4.73-2.012a.557.557 0 00-.226-.468c-.151-.117-.358-.176-.621-.176-.255 0-.469.066-.64.2-.17.132-.255.288-.255.468h-.718c0-.367.153-.668.46-.902.308-.235.692-.352 1.153-.352.495 0 .88.107 1.156.32.276.211.414.513.414.906 0 .19-.057.365-.172.524a1.17 1.17 0 01-.488.379c.492.167.738.495.738.984 0 .388-.15.696-.449.922-.3.227-.7.34-1.2.34-.486 0-.888-.119-1.206-.355a1.154 1.154 0 01-.473-.97h.719c0 .206.091.383.273.532.185.146.415.219.688.219.276 0 .499-.064.668-.192a.594.594 0 00.254-.496c0-.237-.072-.406-.215-.508-.14-.104-.36-.156-.66-.156h-.723v-.61h.785c.493-.012.739-.215.739-.609zm4.473-1.156h.723v4.227h-.723v-3.082l-1.949 3.082h-.723v-4.227h.723v3.086l1.95-3.086zm5.024.586H75.97v3.64h-.723v-3.64h-1.39v-.586h3.53v.586zm2.144 3.719c-.573 0-1.039-.188-1.398-.563-.36-.377-.54-.881-.54-1.511v-.133c0-.42.08-.793.239-1.121a1.87 1.87 0 01.672-.774 1.69 1.69 0 01.937-.281c.55 0 .977.181 1.282.543.304.362.457.88.457 1.555v.3h-2.864c.01.417.132.754.364 1.012.234.255.53.383.89.383.255 0 .472-.052.649-.156.177-.104.332-.243.465-.414l.441.343c-.354.545-.885.817-1.594.817zm-.09-3.79a.961.961 0 00-.734.321c-.198.211-.32.508-.367.89h2.117v-.054c-.02-.367-.12-.651-.297-.851-.177-.204-.417-.305-.719-.305zm8.016 3.712h-.723V12.54h-1.941v1.805h-.727v-4.227h.727v1.832h1.941v-1.83h.723v4.227zm3.773 0c-.041-.084-.075-.232-.101-.446a1.613 1.613 0 01-1.203.524c-.417 0-.76-.117-1.028-.352a1.152 1.152 0 01-.398-.898c0-.44.167-.781.5-1.024.336-.244.807-.367 1.414-.367h.703v-.332c0-.252-.075-.453-.226-.601-.151-.151-.374-.227-.668-.227-.258 0-.474.065-.649.195-.174.13-.261.288-.261.473h-.727c0-.21.074-.414.223-.61.15-.197.354-.353.609-.468.258-.115.54-.172.848-.172.487 0 .868.122 1.144.367.276.242.42.577.43 1.004v1.945c0 .388.05.697.148.926v.063h-.758zm-1.199-.551c.227 0 .442-.059.645-.176.203-.117.35-.27.441-.457v-.867h-.566c-.886 0-1.328.259-1.328.777 0 .227.075.404.226.532a.87.87 0 00.582.19z"/></svg>