<svg width="41" height="41" fill="none" xmlns="http://www.w3.org/2000/svg"><ellipse cx="20.445" cy="20.545" rx="20.24" ry="20.001" fill="#fff" fill-opacity=".54"/><path d="M28.375 17.89l-3.182 3.128 3.182 3.114 3.889-2.2c.552-.315.63-.716.626-.928-.005-.354-.23-.682-.611-.884-.331-.176-2.79-1.592-3.904-2.23z" fill="#FDBB09"/><path d="M13.646 9.633L24.511 20.29l2.977-2.944L14.32 9.833a1.455 1.455 0 00-.674-.2z" fill="#5CAF51"/><path d="M24.495 21.686L13.537 32.421c.198-.005.392-.058.565-.154.428-.246 9.108-5.206 9.108-5.206l4.28-2.432-2.994-2.943h-.001z" fill="#DC2832"/><path d="M12.717 10.13a1.209 1.209 0 00-.156.604v20.712c0 .166.034.316.094.449L23.77 20.989l-11.054-10.86h.002z" fill="#3FB4E7"/></svg>