<svg width="25" height="30" fill="none" xmlns="http://www.w3.org/2000/svg"><path d="M21.863 9.286c0 .395-.253.714-.566.714-.313 0-.567-.32-.567-.714 0-.394.254-.714.567-.714.313 0 .566.32.566.714zm-6.797 1.428c0 .395-.253.715-.566.715-.313 0-.566-.32-.566-.715 0-.394.253-.714.566-.714.313 0 .566.32.566.714zM9.402 9.286c0 .395-.253.714-.566.714-.313 0-.566-.32-.566-.714 0-.394.253-.714.566-.714.313 0 .566.32.566.714z" fill="#fff"/><path d="M24.372 12.857h-.812c-.215-2.201-1.408-3.944-2.908-4.24-.187-2.04-1.213-3.694-2.548-4.183.418-1.136.636-2.402.636-3.72 0-.394-.217-.714-.485-.714h-.971c-2.15 0-4.008 1.88-4.854 4.58C11.596 1.906 9.752 0 7.574 0h-.971c-.268 0-.486.32-.486.714 0 1.318.219 2.584.636 3.72-1.335.49-2.361 2.142-2.547 4.182-1.5.297-2.694 2.04-2.909 4.241H.485c-.268 0-.485.32-.485.714 0 6.32 2.688 11.28 6.797 13.374v2.34c0 .395.217.715.485.715h10.293c.268 0 .485-.32.485-.714v-2.341c4.108-2.094 6.797-7.051 6.797-13.374 0-.394-.217-.714-.485-.714zm-7.088-11.43h.459c-.085 1.141-.374 2.217-.848 3.144-.834 1.635-2.108 2.572-3.495 2.572h-.46c.243-3.21 2.098-5.715 4.344-5.715zm-9.71.002c2.284 0 4.107 2.55 4.342 5.714h-.458c-1.168 0-2.265-.669-3.09-1.883-.69-1.014-1.143-2.352-1.253-3.831h.459zm9.515 27.142H7.768v-1.428h9.321v1.428zm.41-2.857H7.358C3.584 23.931 1.182 19.6.984 14.286h13.387c.268 0 .485-.32.485-.715 0-.394-.217-.714-.486-.714H2.283C2.508 11.23 3.488 10 4.661 10c.268 0 .485-.32.485-.714 0-1.858.969-3.388 2.202-3.556.105.187.217.368.333.54 1.009 1.484 2.35 2.301 3.777 2.301H13.4c1.608 0 3.091-1.03 4.11-2.84 1.232.168 2.2 1.698 2.2 3.555 0 .394.218.714.486.714 1.173 0 2.153 1.229 2.379 2.857h-4.32c-.269 0-.486.32-.486.714 0 .395.217.714.486.714h5.618c-.198 5.313-2.6 9.646-6.375 11.43z" fill="#fff"/><path d="M19.598 13.57c0 .395-.254.715-.567.715-.313 0-.566-.32-.566-.714 0-.395.253-.714.566-.714.313 0 .567.32.567.714z" fill="#fff"/></svg>