<svg width="29" height="30" fill="none" xmlns="http://www.w3.org/2000/svg"><path d="M28.645 12.258c-.191-.686-.43-1.43-.735-2.214-.43-1.11-.9-2.068-1.351-2.874l-.256-.396h-5.462l1.362-4.193h3.67V.645h-4.86l-1.99 6.13h-5.43C13.174 2.96 10.298 0 6.824 0 3.062 0 0 3.473 0 7.742c0 2.94 1.446 5.586 3.727 6.9-.02.333-.03.668-.03 1.003 0 3.835 1.315 7.44 3.705 10.15C9.792 28.508 12.969 30 16.348 30c3.38 0 6.557-1.493 8.946-4.204C27.684 23.084 29 19.48 29 15.646c0-1.15-.12-2.284-.355-3.388zm-2.405-1.935H6.456c.234-.559.505-1.098.812-1.613h18.16c.307.515.578 1.054.812 1.613zM11.87 6.774H8.392L9.79 3.012c1.081.875 1.851 2.216 2.08 3.762zM8.252 2.166L6.759 6.189 4.144 2.797a4.65 4.65 0 012.68-.862c.495 0 .974.081 1.428.23zM2.86 4.073l2.453 3.18-3.585 1.018a6.67 6.67 0 01-.022-.53c0-1.39.433-2.668 1.154-3.668zm-.699 6.07l2.818-.8a15.07 15.07 0 00-.383.98h-.017l-.198.653-.388 1.282h.059c-.023.106-.045.213-.065.32-.805-.607-1.434-1.453-1.826-2.435zm14.187 17.922c-6.036 0-10.946-5.572-10.946-12.42 0-1.153.138-2.29.412-3.387h21.068c.274 1.098.412 2.234.412 3.387 0 6.848-4.91 12.42-10.946 12.42z" fill="#fff"/><path d="M15.637 25.161c0-.534.382-.967.853-.967s.853.433.853.967c0 .535-.382.968-.853.968-.47 0-.853-.433-.853-.968zm-3.411-1.291c0-.534.382-.967.853-.967.47 0 .853.433.853.968 0 .534-.382.967-.853.967s-.853-.433-.853-.968zm6.824 0c0-.534.381-.967.852-.967s.853.433.853.968c0 .534-.382.967-.853.967-.47 0-.853-.433-.853-.968z" fill="#fff"/></svg>