<svg width="26" height="25" fill="transparent" xmlns="http://www.w3.org/2000/svg"><path d="M14.005 5.803h-.833v.833h.833v-.833zm0 1.666h-.833v.833h.833V7.47zm-.835-.833h-.834v.833h.833v-.833zm1.667 0h-.833v.833h.833v-.833zm6.668 3.334h-.833v.833h.833V9.97zm0 1.667h-.833v.833h.833v-.833zm-.835-.834h-.834v.833h.833v-.833zm1.667 0h-.833v.833h.833v-.833zm-7.952 6.913a.417.417 0 00-.085-.124l-7.084-7.084a.417.417 0 00-.674.125L.708 23.551a.417.417 0 00.55.55l12.918-5.834a.417.417 0 00.21-.551zM1.92 22.887l5.132-11.363 6.232 6.231L1.92 22.887zm8.294-17.681a.417.417 0 00-.75.362c.436.763.544 1.67.299 2.515a2.91 2.91 0 01-1.35 1.511.417.417 0 10.352.756 3.718 3.718 0 001.78-1.977 4.033 4.033 0 00-.33-3.167zm9.706 8.107c-4.488-.922-6.276 2.691-6.293 2.728a.417.417 0 00.75.361c.061-.125 1.536-3.063 5.376-2.274a.417.417 0 00.167-.816zm-2.59-8.001a.417.417 0 10-.82.148c.343 1.902.075 3.483-.796 4.7-1.375 1.921-3.83 2.311-3.855 2.315a.417.417 0 00.122.824c.114-.017 2.818-.438 4.406-2.647 1.011-1.408 1.329-3.204.944-5.34zm-.827-4.51a1.667 1.667 0 100 3.334 1.667 1.667 0 000-3.334zm.61 2.235a.853.853 0 01-1.199.02.833.833 0 010-1.178.833.833 0 111.198 1.158zm8.073 2.42a1.667 1.667 0 10-2.357 2.357 1.667 1.667 0 002.357-2.357zm-.59 1.768a.853.853 0 01-1.178 0 .833.833 0 111.178 0zm-4.749 8.713h-.005a.419.419 0 10.005 0zM8.587 6.219h-.833v.833h.833V6.22z" fill="#343330" fill-opacity=".75"/></svg>