<svg width="30" height="30" fill="none" xmlns="http://www.w3.org/2000/svg"><path d="M6.815 8.368a.428.428 0 00.148-.587c-.209-.35-.298-.687-.264-1 .023-.222.099-.366.204-.565.102-.195.218-.416.29-.73.129-.567.05-1.185-.237-1.837a.428.428 0 10-.785.344c.211.48.274.919.187 1.302-.047.206-.124.352-.214.523-.12.228-.256.487-.297.871-.054.502.074 1.017.38 1.53a.429.429 0 00.588.15zm17.64 2.73a.428.428 0 00.148-.588c-.21-.35-.298-.687-.265-1 .024-.222.1-.366.204-.565.103-.195.22-.416.29-.73.13-.567.05-1.185-.236-1.837a.428.428 0 00-.785.344c.21.48.273.919.186 1.302-.046.206-.124.353-.213.523-.12.228-.256.487-.298.871-.053.502.075 1.017.381 1.531a.429.429 0 00.587.148zm1.989 4.768a.428.428 0 00.148-.587c-.209-.351-.298-.688-.264-1 .024-.222.1-.366.204-.565.102-.195.219-.416.29-.731.13-.566.05-1.184-.237-1.837a.428.428 0 00-.785.345c.211.48.274.919.187 1.302-.047.205-.124.352-.213.522-.12.229-.257.488-.298.872-.054.502.074 1.017.38 1.53a.429.429 0 00.588.15zm-22.2-10.89a.428.428 0 00.149-.587c-.21-.351-.299-.688-.265-1 .024-.222.1-.366.204-.565.103-.195.219-.416.29-.731.13-.566.05-1.184-.237-1.837a.428.428 0 00-.784.345c.21.48.273.919.186 1.302-.047.205-.124.352-.213.522-.12.229-.257.488-.298.872-.054.502.074 1.017.38 1.53a.429.429 0 00.588.149zM23.634 21.2c-.588-.54-1.454-.705-2.086-.826-.37-.07-.643-.105-.951-.154-.76-.12-1.539-.293-2.084-.738-.482-.393-.614-.792-.746-1.25a.705.705 0 00-.643-.514.706.706 0 00-.7.436c-.362.858-.672 2.149-.099 3.428.476 1.06 1.428 1.794 2.753 2.121a6.53 6.53 0 001.551.181c.576 0 1.095-.07 1.481-.167 1.19-.298 1.868-.739 2.013-1.31.072-.281.045-.718-.488-1.207zm-.341.996c-.032.126-.364.433-1.39.69-.615.154-1.625.23-2.62-.015-.739-.182-1.716-.615-2.176-1.64-.375-.838-.254-1.708-.031-2.38.19.439.294.804.895 1.294.703.575 1.613.783 2.492.922.31.048.924.149.924.149.532.101 1.26.24 1.668.615.198.181.252.31.238.365zm5.862 2.819a.598.598 0 00-.508-.28h-2.665c.558-.711.86-1.454.897-2.217.043-.9-.295-1.824-1.006-2.743a.428.428 0 10-.677.524c.582.754.86 1.486.827 2.178-.037.761-.439 1.52-1.192 2.259H11.01a.429.429 0 000 .857h17.232l-.971 2.058c-.213.45-.674.74-1.175.74H3.153c-.502 0-.963-.29-1.175-.74l-.972-2.058h8.005a.428.428 0 100-.857H6.426c-.395-.552-.636-1.128-.713-1.716-.093-.698.042-1.432.399-2.19.166.256.358.497.577.716a4.296 4.296 0 003.06 1.268h.031a4.298 4.298 0 003.074-1.312 4.318 4.318 0 00-.18-6.208c2.993-.97 6.385.438 8.5 1.77.85.534 2.018 1.322 2.683 1.88a.429.429 0 00.55-.657 18.909 18.909 0 00-1.653-1.226 4.35 4.35 0 00-1.093-4.184 4.326 4.326 0 00-2.76-1.278 5.17 5.17 0 01-2.93-1.172l-1.255-1.038a1.885 1.885 0 00-1.415-.425l-.423-.423a1.611 1.611 0 00-.317-1.955 1.605 1.605 0 00-2.612.699 1.605 1.605 0 00-.698 2.613c.5.543 1.317.667 1.954.316l.425.425a1.899 1.899 0 00.422 1.412l1.093 1.323c.212.255.396.529.55.816a9.657 9.657 0 00-1.886.49 4.321 4.321 0 00-1.736-.51 5.172 5.172 0 01-2.93-1.173l-1.256-1.038a1.885 1.885 0 00-1.415-.424l-.423-.424a1.612 1.612 0 00-.317-1.954 1.606 1.606 0 00-2.612.698 1.6 1.6 0 101.256 2.93l.423.423a1.885 1.885 0 00.425 1.414l1.092 1.322a4.85 4.85 0 011.113 2.788c.022.393.098.776.222 1.142-.661 1.112-.927 2.207-.788 3.259.073.55.256 1.086.547 1.603H.602a.599.599 0 00-.544.855l1.145 2.426a2.163 2.163 0 001.95 1.232h22.943c.831 0 1.597-.484 1.95-1.232l1.145-2.426a.596.596 0 00-.036-.576zM12.173 9.508a1.901 1.901 0 00-.21.25l-.255-.254a.677.677 0 00-.86-.077.75.75 0 01-.967-.111.746.746 0 01.36-1.225.718.718 0 00.515-.515.746.746 0 111.336.608.677.677 0 00.078.86l.254.253a1.922 1.922 0 00-.25.211zm.54 1.997a1.037 1.037 0 01.066-1.39 1.035 1.035 0 011.39-.067l1.257 1.038a6.024 6.024 0 003.412 1.367 3.468 3.468 0 012.213 1.024 3.491 3.491 0 01.94 3.087c-1.623-1.035-4.181-2.66-7.387-2.47a5.816 5.816 0 00-.798-1.267l-1.093-1.322zm-9.37.574a1.923 1.923 0 00-.21.25l-.254-.254a.677.677 0 00-.86-.077.746.746 0 11-.608-1.336.718.718 0 00.516-.515.744.744 0 111.336.607.678.678 0 00.078.86l.253.254a1.93 1.93 0 00-.25.21zm1.634 3.318l-1.093-1.322a1.03 1.03 0 01.066-1.39 1.033 1.033 0 011.39-.066l1.257 1.038a6.024 6.024 0 003.412 1.366 3.468 3.468 0 012.213 1.025 3.452 3.452 0 011.002 2.424 3.451 3.451 0 01-.985 2.432 3.447 3.447 0 01-2.465 1.052H9.75c-.927 0-1.797-.36-2.454-1.017a3.464 3.464 0 01-1.01-2.256 5.712 5.712 0 00-1.308-3.286z" fill="#fff"/></svg>