<svg width="27" height="27" fill="none" xmlns="http://www.w3.org/2000/svg"><path fill-rule="evenodd" clip-rule="evenodd" d="M13.494 26.394c7.141 0 12.93-5.79 12.93-12.931C26.425 6.32 20.636.53 13.495.53 6.352.531.563 6.321.563 13.462c0 7.142 5.789 12.932 12.93 12.932zm0-1.012c6.582 0 11.919-5.336 11.919-11.919 0-6.582-5.337-11.919-11.92-11.919-6.582 0-11.918 5.337-11.918 11.92 0 6.582 5.336 11.918 11.919 11.918z" fill="#F39200"/><path d="M22.012 14.547c0-1.196-.58-2.338-1.552-3.056a1.157 1.157 0 00-1.505.107c-.04-.032-.076-.069-.117-.1a1.143 1.143 0 00-.524-.215l.121-1.332a1.065 1.065 0 00-1.06-1.16h-.07a1.065 1.065 0 00-1.06 1.16l.122 1.338a1.17 1.17 0 00-.485.207c-.049.036-.092.079-.14.117a1.11 1.11 0 00-.077-.071c.016-.092.027-.184.027-.278a1.64 1.64 0 00-.31-.962 1.65 1.65 0 00-1.434-2.607 1.642 1.642 0 00-1.094-1.034 1.626 1.626 0 00-1.38-.615 1.646 1.646 0 00-2.981-.277 1.656 1.656 0 00-1.537 1.238 2.208 2.208 0 00-1.43 2.059c0 .736.361 1.409.96 1.816a1.635 1.635 0 00.46 1.923 1.592 1.592 0 00-.047.383c0 .841.635 1.538 1.45 1.636l.609 1.703a3.04 3.04 0 00-.781.846l-1.44-.32a.77.77 0 00-.938.751v.11c0 .076.016.15.037.22H5.8a.825.825 0 000 1.648h.036a.76.76 0 00-.036.22v.11a.77.77 0 00.937.75l1.44-.32a3.02 3.02 0 002.569 1.438h.064c.153 0 .308-.012.46-.035l9.422-1.45a1.548 1.548 0 001.32-1.537c0-.619-.358-1.15-.892-1.402a3.8 3.8 0 00.892-2.431v-.578zm-3.508-2.613a3.378 3.378 0 011.31 2.673v1.009c0 .563-.141 1.114-.406 1.607l-2.203-.34a5.478 5.478 0 01-.14-1.214v-1.116c0-.277.028-.554.07-.828.068.006.135.012.205.012.784 0 1.374-.354 1.374-.824 0-.26-.18-.49-.49-.641l.04-.445a.577.577 0 01.24.107zm-1.2-2.593h.072a.515.515 0 01.512.56l-.25 2.744.21.068c.24.077.317.178.317.2 0 .068-.293.275-.825.275s-.824-.207-.824-.275c0-.022.076-.123.317-.2l.21-.068-.25-2.744a.514.514 0 01.512-.56zm-.887 2.495l.04.436c-.311.151-.49.381-.49.64 0 .304.247.557.63.7a6.05 6.05 0 00-.08.941v1.116c0 .377.035.754.106 1.125l-1.62-.25a3.309 3.309 0 01-.136-.928v-1.01c0-1.045.503-2.043 1.344-2.67a.616.616 0 01.206-.1zm-2.97 4.47a3.195 3.195 0 01-.228-1.181v-.578c0-1.023.497-2 1.328-2.614a.607.607 0 01.795.06 3.893 3.893 0 00-1.024 2.614v1.009c0 .283.034.563.095.838l-.965-.149zm.027-8.256l.05.282.28-.062a1.1 1.1 0 011.023 1.84l-.19.192.19.193c.203.207.315.48.315.77l-.001.024a1.16 1.16 0 00-.229-.025c-.247 0-.493.08-.691.227a3.83 3.83 0 00-1.161 1.396 18.155 18.155 0 00-.326-.93A3.896 3.896 0 0113.94 9.83l-.172-.214-.171-.215c-.039.03-.782.637-1.2 1.732-.571-1.313-1.11-2.162-1.145-2.216l-.463.298c.008.01.427.67.914 1.72-.821-.31-1.755-.225-1.809-.219l.055.547c.413-.042 1.584-.022 2.13.536.193.474.383.993.55 1.549-.835-.428-1.832-.435-1.883-.435v.55c.013 0 1.236.008 1.96.583a3.717 3.717 0 00-.037.501v.578c0 .371.057.735.163 1.086l-1.562-.24a3.086 3.086 0 00-.25-.027 1.105 1.105 0 01-1.023-1.498l.08-.21-.19-.121a1.094 1.094 0 01-.331-1.534l.17-.257-.275-.14a1.642 1.642 0 01-.903-1.47c0-.73.49-1.382 1.195-1.583l.17-.05.026-.175c.078-.535.543-.94 1.082-.94.01 0 .02.003.03.004.019.003.038.006.058.007l.197.016.077-.182a1.098 1.098 0 012.09.239zM8.74 14.287h-.193a1.1 1.1 0 01-1.1-1.1c0-.128.026-.26.076-.39l.08-.21-.19-.12a1.094 1.094 0 01-.331-1.535l.17-.257-.275-.14a1.642 1.642 0 01-.903-1.469c0-.731.491-1.382 1.194-1.584l.171-.049.026-.175c.078-.536.543-.94 1.082-.94.01 0 .02.002.03.004l.057.006.198.017.078-.183a1.098 1.098 0 012.09.239l.05.283.28-.063c.085-.019.163-.028.24-.028.126 0 .246.028.36.068a1.645 1.645 0 00-.965.757A1.656 1.656 0 009.43 8.656 2.208 2.208 0 008 10.715c0 .736.361 1.409.96 1.815a1.636 1.636 0 00.46 1.923 1.588 1.588 0 00-.047.383c0 .483.208.917.537 1.22-.164.047-.32.108-.471.181l-.697-1.95zm-2.39 3.626v-.109c0-.138.134-.244.269-.215l1.308.29a2.95 2.95 0 00-.085.255H6.57a.22.22 0 01-.22-.22zm-.824 1.045c0-.152.124-.275.275-.275h1.937c-.008.09-.014.182-.014.275 0 .093.006.184.014.275H5.8a.275.275 0 01-.275-.275zm1.092 1.369a.226.226 0 01-.268-.216v-.108a.22.22 0 01.22-.22h1.27c.025.085.054.17.085.253l-1.308.29zm14.845-1.37a1 1 0 01-.853.995l-9.422 1.45c-.125.02-.252.029-.377.029h-.064a2.476 2.476 0 01-2.473-2.473 2.476 2.476 0 012.473-2.473h.064c.125 0 .252.01.377.028l9.422 1.45a1 1 0 01.853.995zm0-3.832c0 .845-.342 1.663-.937 2.27l-.546-.085a3.94 3.94 0 00.384-1.694v-1.01c0-.976-.372-1.914-1.011-2.625a.607.607 0 01.782-.047 3.266 3.266 0 011.328 2.613v.578z" fill="#F39200"/><path d="M10.47 17.859a.275.275 0 11.55 0v2.198a.275.275 0 01-.55 0v-2.198zm2.198 0a.275.275 0 11.55 0v2.198a.275.275 0 01-.55 0v-2.198zm2.199 0a.275.275 0 11.55 0v2.198a.275.275 0 01-.55 0v-2.198zm2.198.549a.275.275 0 01.55 0v1.099a.275.275 0 01-.55 0v-1.1zm2.2.276a.275.275 0 01.55 0v.55a.275.275 0 11-.55 0v-.55z" fill="#F39200"/></svg>