<svg width="29" height="30" fill="none" xmlns="http://www.w3.org/2000/svg"><path d="M28.434 21.587h-1.04l-1.252-9.084-.65-4.722c-.212-1.528-1.257-2.638-2.487-2.638h-.617c.305-.545.484-1.21.484-1.927V1.32c0-.394-.254-.714-.567-.714h-1.4c-1.467 0-2.66 1.506-2.66 3.356v1.181h-1.597a3.89 3.89 0 00.458-1.857C17.106 1.474 15.936 0 14.5 0c-1.437 0-2.605 1.474-2.605 3.286 0 .689.168 1.329.457 1.857h-1.597v-1.18c0-1.851-1.193-3.357-2.66-3.357h-1.4c-.313 0-.566.32-.566.714v1.896c0 .717.179 1.382.483 1.927h-.617c-1.23 0-2.275 1.11-2.486 2.638l-.65 4.723-1.252 9.083H.567c-.313 0-.567.32-.567.714v3.108c0 .395.254.715.566.715h.669l1.538 3.507c.1.228.29.369.495.369h22.464c.206 0 .396-.141.495-.369l1.538-3.508h.669c.312 0 .566-.32.566-.714v-3.108c0-.394-.254-.714-.566-.714zM19.377 3.962c0-1.063.686-1.927 1.529-1.927h.833v1.181c0 1.063-.686 1.927-1.528 1.927h-.834v-1.18zm-6.35-.676c0-1.024.661-1.857 1.473-1.857s1.473.833 1.473 1.857-.661 1.857-1.473 1.857-1.473-.833-1.473-1.857zm-5.766-.07V2.035h.833c.843 0 1.529.865 1.529 1.927v1.181h-.834c-.842 0-1.528-.864-1.528-1.927zm-2.636 4.81c.116-.843.692-1.454 1.37-1.454h17.01c.678 0 1.254.611 1.37 1.454l.563 4.085c-.113.02-.233.03-.364.03-.666 0-.974-.261-1.362-.592-.438-.373-.984-.837-1.996-.837-1.013 0-1.558.464-1.996.837-.389.33-.696.592-1.362.592-.667 0-.974-.261-1.363-.592-.438-.373-.983-.837-1.996-.837-1.012 0-1.557.464-1.995.837-.389.33-.696.592-1.362.592-.667 0-.974-.261-1.363-.592-.437-.373-.983-.837-1.995-.837-1.013 0-1.558.464-1.996.837-.389.33-.696.592-1.362.592-.13 0-.251-.01-.364-.03l.563-4.085zm-.757 5.492c.177.035.362.052.558.052 1.012 0 1.557-.464 1.995-.837.39-.33.696-.592 1.363-.592.666 0 .973.261 1.362.592.438.373.983.837 1.996.837 1.012 0 1.557-.464 1.995-.837.39-.33.696-.592 1.362-.592.667 0 .974.261 1.363.592.438.373.983.837 1.996.837 1.012 0 1.557-.464 1.995-.837.39-.33.696-.592 1.363-.592.666 0 .973.261 1.362.592.438.373.983.837 1.996.837.196 0 .38-.017.558-.052l1.111 8.07H2.757l1.111-8.07zm21.53 15.053H3.602L2.53 26.123h9.41c.313 0 .567-.32.567-.714 0-.394-.254-.714-.566-.714H1.133v-1.68h26.734v1.68H17.061c-.313 0-.567.32-.567.714 0 .395.254.715.567.715h9.41l-1.073 2.447z" fill="#fff"/><path d="M15.034 25.135c-.093-.285-.33-.466-.574-.438-.236.027-.438.244-.497.534-.057.277.028.58.21.751.19.177.455.186.652.02.222-.186.312-.556.21-.867z" fill="#fff"/></svg>