<svg width="26" height="26" fill="none" xmlns="http://www.w3.org/2000/svg"><path d="M18.575.313H7.326A6.936 6.936 0 00.398 7.24v11.248a6.936 6.936 0 006.928 6.928h11.25a6.936 6.936 0 006.927-6.928V7.241A6.936 6.936 0 0018.575.313zm4.701 18.176a4.706 4.706 0 01-4.7 4.701H7.325a4.706 4.706 0 01-4.7-4.7V7.24c0-2.591 2.109-4.7 4.7-4.7h11.25c2.591 0 4.7 2.109 4.7 4.7v11.25z" fill="#EE3823"/><path d="M12.951 6.396a6.476 6.476 0 00-6.469 6.47 6.476 6.476 0 006.47 6.468 6.476 6.476 0 006.468-6.468 6.476 6.476 0 00-6.469-6.47zm0 10.71a4.246 4.246 0 01-4.241-4.24 4.246 4.246 0 014.241-4.242 4.246 4.246 0 014.242 4.242 4.246 4.246 0 01-4.242 4.24zm6.741-12.598c-.43 0-.85.174-1.154.478-.304.303-.48.725-.48 1.155 0 .43.176.851.48 1.156.303.303.725.478 1.154.478.43 0 .85-.175 1.155-.478a1.638 1.638 0 000-2.311 1.64 1.64 0 00-1.155-.478z" fill="#EE3823"/></svg>