<svg width="22" height="22" fill="transparent" xmlns="http://www.w3.org/2000/svg"><path d="M11.96 3.91a5.519 5.519 0 101.617 3.903 5.482 5.482 0 00-1.616-3.902zm-.43 7.376a4.91 4.91 0 111.44-3.473 4.876 4.876 0 01-1.44 3.473z" fill="#343330" fill-opacity=".75"/><path d="M20.747 17.773l-6.27-6.27a7.394 7.394 0 10-2.73 2.73l6.27 6.27a1.93 1.93 0 002.73-2.73zM3.252 12.619a6.796 6.796 0 119.611 0 6.804 6.804 0 01-9.611 0zm17.065 7.454a1.324 1.324 0 01-1.87 0l-6.174-6.174a7.308 7.308 0 001.87-1.87l6.174 6.173a1.324 1.324 0 010 1.87z" fill="#343330" fill-opacity=".75"/><path d="M9.355 8.485c.444-.771.856-1.725.851-2.602a2.15 2.15 0 00-4.3-.002c-.005.878.408 1.832.852 2.604-1.269.212-2.063.719-2.063 1.344 0 .95 1.691 1.448 3.36 1.448 1.67 0 3.361-.498 3.361-1.448 0-.625-.795-1.132-2.06-1.344zm-1.3-4.144a1.544 1.544 0 011.543 1.544c.007 1.266-1.06 2.817-1.542 3.453-.483-.635-1.55-2.186-1.542-3.455a1.544 1.544 0 011.542-1.542zm0 6.327c-1.78.001-2.751-.555-2.751-.84 0-.24.625-.63 1.8-.78.221.34.462.666.72.978a.304.304 0 00.463 0c.259-.312.5-.638.72-.977 1.176.15 1.801.54 1.801.78 0 .284-.971.84-2.752.84z" fill="#343330" fill-opacity=".75"/><path d="M9.013 5.883a.954.954 0 10-1.907 0 .954.954 0 001.907 0zm-1.3 0a.346.346 0 11.692 0 .346.346 0 01-.691 0zm9.557 10.06a.304.304 0 00-.43.43l2.055 2.055a.304.304 0 00.43-.43l-2.056-2.055zm-1.63-1.626a.304.304 0 00-.43.43l.619.619a.305.305 0 10.43-.43l-.619-.62z" fill="#343330" fill-opacity=".75"/></svg>