<svg width="23" height="22" fill="none" xmlns="http://www.w3.org/2000/svg"><circle cx="11.539" cy="10.935" r="10.367" stroke="#343330" stroke-opacity=".75"/><path d="M11.54 16.246a.7.7 0 01-.462-.173c-.482-.422-.947-.818-1.358-1.168l-.002-.002c-1.202-1.025-2.241-1.91-2.964-2.782-.807-.974-1.184-1.899-1.184-2.908 0-.981.337-1.886.947-2.549a3.21 3.21 0 012.388-1.039c.69 0 1.32.218 1.876.647.28.217.534.483.758.792a3.84 3.84 0 01.759-.792 3.003 3.003 0 011.876-.647c.921 0 1.77.37 2.387 1.04.611.662.948 1.567.948 2.548 0 1.01-.377 1.934-1.184 2.908-.723.872-1.762 1.757-2.964 2.782-.411.35-.877.747-1.36 1.17a.7.7 0 01-.462.173zM8.904 6.324c-.724 0-1.39.29-1.874.814-.49.533-.761 1.27-.761 2.075 0 .849.315 1.608 1.023 2.462.684.825 1.701 1.692 2.879 2.696l.002.002c.412.35.879.749 1.364 1.174.49-.426.957-.825 1.37-1.176 1.177-1.004 2.194-1.87 2.878-2.696.708-.854 1.023-1.613 1.023-2.462 0-.805-.27-1.542-.762-2.075a2.518 2.518 0 00-1.873-.814 2.32 2.32 0 00-1.448.502c-.384.296-.65.671-.807.933a.438.438 0 01-.38.216.438.438 0 01-.379-.216 3.39 3.39 0 00-.807-.933 2.32 2.32 0 00-1.448-.502z" fill="#343330" fill-opacity=".75"/></svg>