<svg width="30" height="42" fill="none" xmlns="http://www.w3.org/2000/svg"><path d="M28.79 15.43c0 10.791-13.876 20.041-13.876 20.041S1.04 26.221 1.04 15.43a13.875 13.875 0 1127.75 0z" fill="#fff" fill-opacity=".85" stroke="#000" stroke-width="2" stroke-linecap="round" stroke-linejoin="round"/><path d="M14.914 20.055a4.625 4.625 0 100-9.25 4.625 4.625 0 000 9.25z" stroke="#EE3823" stroke-width="2" stroke-linecap="round" stroke-linejoin="round"/><ellipse cx="14.914" cy="39.494" rx="12.121" ry="1.9" fill="#EE3823"/><path d="M24.951 39.493c0 .816-4.494 1.477-10.038 1.477-5.544 0-10.038-.661-10.038-1.477 0-.816 4.494-1.477 10.038-1.477 5.544 0 10.038.661 10.038 1.477z" fill="snow" fill-opacity=".25"/><path d="M22.42 39.495c0 .558-3.36 1.01-7.505 1.01s-7.505-.452-7.505-1.01 3.36-1.01 7.505-1.01 7.505.452 7.505 1.01z" fill="snow" fill-opacity=".25"/></svg>