<svg width="27" height="27" fill="none" xmlns="http://www.w3.org/2000/svg"><path fill-rule="evenodd" clip-rule="evenodd" d="M13.907 26.394c7.142 0 12.931-5.79 12.931-12.931C26.838 6.32 21.048.53 13.907.53 6.765.531.976 6.321.976 13.462c0 7.142 5.79 12.932 12.93 12.932zm0-1.012c6.583 0 11.919-5.337 11.919-11.92 0-6.582-5.336-11.918-11.919-11.918-6.582 0-11.919 5.336-11.919 11.919 0 6.582 5.337 11.919 11.92 11.919z" fill="#F8B0B5"/><path d="M21.896 13.725c0-1.045-.257-1.984-.755-2.79.447-.424 1.033-1.265.492-2.48.213-.527.34-1.468-.452-1.996a.293.293 0 10-.325.487c.303.202.37.507.352.78a.878.878 0 10.035 1.44c.09.56-.142.983-.442 1.285a5.561 5.561 0 00-1.304-1.177c-1.394-.916-3.296-1.4-5.5-1.4-1.794 0-3.514.342-4.888.97-.445-1.036-1.446-1.249-1.492-1.258a.293.293 0 00-.35.287c0 .152-.157.536-.262.747-.276.551-.255 1.146.055 1.695a1.926 1.926 0 00-.37.705c-.217.87-.79 1.175-.942 1.242h-.53a.88.88 0 00-.877.878v.585a.879.879 0 00.878.877h.483c.963.742 1.92.78 2.562.678.26-.042.514-.112.758-.21v3.3l-.284 1.136a.292.292 0 00.284.363h1.756a.293.293 0 00.292-.293v-1.122l.765-2.295a8.71 8.71 0 004.4.451 8.114 8.114 0 001.68-.443l.75 2.25-.271 1.088a.293.293 0 00.284.364h1.755a.293.293 0 00.293-.293v-1.134l1.161-4.646a.292.292 0 00.009-.071zm-1.17-4.974a.293.293 0 110-.585.293.293 0 010 .585zm-15.8 4.974v-.585a.293.293 0 01.293-.293h.292v1.17H5.22a.293.293 0 01-.293-.292zm4.47 5.559l.147-.585h.942v.585H9.397zm9.656 0l.147-.585h.941v.585h-1.088zm1.153-1.17H19.18l-.811-2.434a.291.291 0 00-.054-.095l-.001-.002a.31.31 0 00-.017-.017l-.006-.006a.29.29 0 00-.014-.013l-.011-.008a.175.175 0 00-.029-.02l-.007-.004c-.003 0-.004-.002-.007-.003a2.02 2.02 0 01-1.01-1.787.293.293 0 10-.585 0c0 .995.48 1.627.864 1.974a7.784 7.784 0 01-1.37.337 8.122 8.122 0 01-4.355-.533.293.293 0 00-.39.177l-.811 2.434h-.96v-3.512a.293.293 0 00-.45-.246c-.063.04-1.536.952-3.06-.189v-1.426c.316-.17.92-.611 1.16-1.578.048-.188.18-.404.381-.626a.293.293 0 00.023-.366c-.302-.428-.346-.862-.133-1.29.1-.2.185-.407.253-.62a1.604 1.604 0 01.876 1.063.293.293 0 00.415.186c1.34-.678 3.088-1.052 4.924-1.052 2.06 0 3.9.464 5.179 1.305 1.407.926 2.126 2.247 2.136 3.926l-1.106 4.425z" fill="#343330"/><path d="M7.559 12.848a.293.293 0 100-.586.293.293 0 000 .586z" fill="#343330"/><path fill="#F8B0B5" d="M7.852 2.234l.93-.55 12.897 21.839-.93.549z"/></svg>