<svg width="19" height="18" fill="none" xmlns="http://www.w3.org/2000/svg"><path d="M17.11 9.63v3.72c0 1.467-1.26 2.656-2.813 2.656H4.172c-1.553 0-2.813-1.19-2.813-2.656V3.787c0-1.467 1.26-2.656 2.813-2.656h3.375V.068H4.172C1.997.068.234 1.733.234 3.788v9.562c0 2.053 1.763 3.718 3.938 3.718h10.125c2.174 0 3.937-1.665 3.937-3.718V9.63H17.11z" fill="#343330"/><path d="M6.422 13.881h1.125v-4.25c0-4.176 3.78-4.25 3.937-4.25h3.707l-2.975 2.81.793.75 3.937-3.72a.51.51 0 000-.748L13.01.753l-.799.755 2.981 2.81h-3.707c-.05 0-5.062.059-5.062 5.313v4.25z" fill="#343330"/></svg>