<svg width="26" height="26" fill="none" xmlns="http://www.w3.org/2000/svg"><path fill-rule="evenodd" clip-rule="evenodd" d="M13 26c7.18 0 13-5.82 13-13S20.18 0 13 0 0 5.82 0 13s5.82 13 13 13zm0-1.017c6.618 0 11.982-5.365 11.982-11.982 0-6.618-5.364-11.982-11.982-11.982C6.382 1.019 1.018 6.383 1.018 13S6.382 24.982 13 24.982z" fill="#343330"/><path d="M20.714 19.724c-2.386.265-4.277-.791-4.296-.802a.278.278 0 00-.212-.027c-.03.008-3.03.813-5.447.276-1.506-.335-2.927-1.396-3.965-2.17a48.13 48.13 0 00-.395-.294c-.17-.124-.439-.227-.676-.318a3.374 3.374 0 01-.284-.116.11.11 0 01-.042-.088v-.647c.013-.512 2.16-8.387 2.492-9.39a.216.216 0 01.064-.045l4.247-1.94 1.373 1.787a.246.246 0 01-.016.308l-1.356 1.52a.242.242 0 01-.331.034l-.549-.506a.28.28 0 00-.241-.063.293.293 0 00-.203.155c-.046.09-.46.2-.885.204l-.138-.014a.28.28 0 00-.249.448c.118.152.21.275.262.345l.272 4.615c-.169.656-.323.842-.361.88a.28.28 0 00.084.545c.316 0 .585-.416.801-1.228 2.22-1.66 4.157-.093 4.309.036.704.707.748 1.177.75 1.198a.28.28 0 00.558-.006c0-.064-.024-.615-.746-1.41.681-.838 1.457-1.32 2.311-1.425 1.473-.182 2.71.809 2.723.819a.279.279 0 00.353-.433c-.058-.047-1.428-1.149-3.139-.94-1 .12-1.897.661-2.67 1.608-.629-.427-2.43-1.394-4.443-.13l-.25-4.245a.276.276 0 00-.04-.129c.25-.03.547-.095.763-.237l.359.332a.8.8 0 001.116-.08l1.357-1.521a.809.809 0 00.045-1.014l-1.512-1.969a.279.279 0 00-.338-.084l-4.445 2.03c-.046.021-.282.135-.36.368-.157.475-2.525 8.918-2.525 9.576v.648c0 .208.093.4.256.527.081.064.203.112.429.198.184.071.436.168.545.247l.391.29c1.078.806 2.555 1.908 4.178 2.269 2.312.514 5.025-.107 5.606-.254.389.2 1.813.864 3.679.864.275 0 .56-.014.852-.047a.279.279 0 10-.061-.555z" fill="#343330"/><path d="M17.899 9.038a.278.278 0 00.395 0l1.944-1.944a1.43 1.43 0 000-2.02 1.43 1.43 0 00-2.021 0l-.12.12-.122-.12a1.43 1.43 0 00-2.439 1.01c0 .381.15.74.419 1.01l1.944 1.944zm-1.55-3.57a.868.868 0 011.231 0l.319.318a.28.28 0 00.395 0l.318-.318a.871.871 0 011.23 1.232l-1.746 1.746L16.35 6.7a.865.865 0 01-.256-.616c0-.233.091-.451.256-.616zm2.998 10.876a.28.28 0 00-.557.031c0 .187.138.818 1.908 1.113a.28.28 0 00.092-.55c-1.238-.207-1.427-.556-1.443-.594zm-5.358 1.432c-3.655.783-5.219-1.717-5.284-1.824a.28.28 0 00-.478.288c.019.03.463.76 1.412 1.38.654.428 1.652.864 3.001.864.45 0 .938-.049 1.466-.162a.28.28 0 00-.117-.546z" fill="#343330"/></svg>