<svg width="29" height="30" fill="none" xmlns="http://www.w3.org/2000/svg"><path d="M10.662 23.862a11.66 11.66 0 01-5.637-4.153.5.5 0 10-.81.585 12.666 12.666 0 006.123 4.514.5.5 0 00.325-.946zm-7.115-7.018a.5.5 0 00-.948.319c.118.35.255.7.408 1.041a.5.5 0 10.912-.409c-.14-.31-.264-.63-.372-.951zM16.738 6.25c0 .79.318 1.548.88 2.103a.5.5 0 00.707-.707 1.956 1.956 0 010-2.793c1.204-1.204.64-3.066-.5-4.207a.5.5 0 00-.707.707c.798.798 1.245 2.048.5 2.793a2.959 2.959 0 00-.88 2.104zm-5.499 2.5c0 .79.317 1.548.879 2.103a.5.5 0 00.707-.707 1.956 1.956 0 010-2.793c1.204-1.204.641-3.066-.5-4.207a.5.5 0 00-.707.707c.798.798 1.245 2.049.5 2.793a2.959 2.959 0 00-.88 2.104zM6 5.75c0 .791.317 1.549.879 2.104a.5.5 0 10.707-.707 1.956 1.956 0 010-2.793c1.204-1.204.64-3.066-.5-4.207a.5.5 0 00-.707.707c.798.798 1.245 2.049.5 2.793a2.959 2.959 0 00-.88 2.104z" fill="#fff"/><path d="M23.57 12.357c.098-2.136.332-5.01.894-6.415.69-1.726 2.781-2.98 3.648-3.44A1.33 1.33 0 0026.966.106a11.143 11.143 0 00-4.882 3.874c-1.278 1.917-1.772 5.573-1.963 8.15A120.566 120.566 0 0014.5 12a98.62 98.62 0 00-9.952.443C.351 12.89 0 13.458 0 14l.002.035v.022l.005.055c.008.117.025.347.04.509A13.797 13.797 0 005 24.043V27c0 1.97 4.78 3 9.5 3s9.5-1.03 9.5-3v-2.692A13.055 13.055 0 0029 14c0-.437-.002-1.16-5.43-1.643zM27.628 14c-1.35.351-2.732.568-4.125.647.003-.29.011-.737.028-1.288 1.384.076 2.757.291 4.097.641zm-6.539-1.323v-.001c.159-2.48.6-6.3 1.827-8.141a10.136 10.136 0 014.439-3.508.33.33 0 01.29.593c-1.199.634-3.325 1.991-4.11 3.952-.92 2.3-1.022 7.848-1.034 9.156-.48.037-.979.07-1.5.099.005-.334.023-1.126.088-2.15zM14.5 13c1.923 0 3.787.044 5.558.127A41.468 41.468 0 0020 14.873c-1.792.081-3.636.127-5.501.127-7.028 0-11.747-.532-13.166-1 1.419-.468 6.138-1 13.166-1zM23 27c0 .679-3 2-8.5 2S6 27.679 6 27v-2.188a14.764 14.764 0 008.5 2.688c3.014.029 5.97-.829 8.5-2.466V27zm.233-3.367a.492.492 0 00-.098.076 14.234 14.234 0 01-8.635 2.79c-6.849 0-12.655-5.036-13.412-11.544 1.132.31 2.29.512 3.46.603A98.65 98.65 0 0014.5 16c2.05 0 4.082-.05 6.04-.146.89-.045 1.738-.1 2.516-.166 1.656-.077 3.3-.326 4.905-.742a12.048 12.048 0 01-4.728 8.687z" fill="#fff"/></svg>