<svg width="30" height="31" fill="none" xmlns="http://www.w3.org/2000/svg"><path d="M28.749 19.242H.846a.49.49 0 00-.48.498c0 5.763 4.531 10.451 10.102 10.451h8.66c5.57 0 10.102-4.688 10.102-10.45a.49.49 0 00-.481-.498zm-9.622 9.954h-8.66c-4.878 0-8.876-3.975-9.127-8.958h26.915c-.25 4.983-4.249 8.958-9.128 8.958zm5.776-21.894c0-.037 0-.073-.004-.128a2.054 2.054 0 00-1.347-1.757l.545-.564a2.733 2.733 0 00.212-3.569 2.472 2.472 0 00-3.735-.187l-.591.621A2.021 2.021 0 0018.268.332c-1.065-.06-1.967.786-2.024 1.882a2.08 2.08 0 00-.003.109v.762a1.864 1.864 0 00-1.084-.263c-1.028.099-1.82 1.013-1.802 2.073v.677a1.869 1.869 0 00-1.084-.262c-1.029.099-1.82 1.013-1.803 2.073v7.38a.49.49 0 00.481.498h8.179c1.061 0 1.924-.892 1.924-1.99 0-.362-.094-.702-.259-.995h.65c1.034.03 1.917-.8 2.014-1.884a2.032 2.032 0 00-.263-1.114c.432-.05.832-.247 1.143-.569.364-.375.565-.875.566-1.407zm-1.245.702a.942.942 0 01-.68.29h-1.445a.49.49 0 00-.481.498.49.49 0 00.481.498l.053.001c.53.03.938.5.911 1.028a1.038 1.038 0 01-1.046.962h-2.323a.49.49 0 00-.481.497.49.49 0 00.48.498c.531 0 .963.446.963.995 0 .55-.432.996-.962.996H11.43V7.375c-.009-.551.4-1.022.912-1.072l.052-.002c.53 0 .96.447.96.994V7.3a.49.49 0 00.481.497.49.49 0 00.482-.497V4.886c-.01-.55.4-1.022.911-1.072l.052-.001c.53 0 .96.447.961.995v.003a.49.49 0 00.48.497h.001a.49.49 0 00.481-.497V2.322l.002-.055c.028-.548.471-.97.993-.942.531.05.94.522.93 1.083v.413c0 .201.117.383.298.46.18.077.388.033.525-.111l1.305-1.37a1.529 1.529 0 012.305.11 1.714 1.714 0 01-.14 2.235l-1.266 1.31a.51.51 0 00-.104.542c.074.185.25.307.444.307h.425c.525 0 .972.419 1.019.942l.001.055c0 .266-.1.516-.282.703z" fill="#fff"/><path d="M21.192 3.462L7.722 17.396l.68.704 13.47-13.934-.68-.704z" fill="#fff"/><path d="M19.126 4.315h-.962v2.489h.962V4.315zM16.24 6.804h-.963V9.79h.963V6.804zm-2.887 2.483h-.962v3.484h.962V9.287z" fill="#fff"/><path d="M21.05 6.306h-2.405v.995h2.406v-.995zm-2.405 2.981H15.76v.995h2.886v-.995zm-2.405 2.986h-3.367v.996h3.367v-.996zM9.344 2.631l-.002-.003c-.679-1.051-2.058-1.337-3.074-.635a1.896 1.896 0 00-.099.072l-.173.136-.167-.124a2.163 2.163 0 00-3.102.085c-.41.44-.63 1.02-.62 1.631.011.612.251 1.182.676 1.606.124.123.261.232.41.322l.405.328v.255c0 1.372 1.079 2.488 2.405 2.488 1.326 0 2.405-1.117 2.405-2.489v-.255l.426-.343c.92-.724 1.145-2.074.51-3.074zM8.247 4.916l-.616.498a.504.504 0 00-.185.392v.498c0 .823-.647 1.493-1.443 1.493S4.56 7.127 4.56 6.304v-.498a.503.503 0 00-.185-.392l-.616-.498a.473.473 0 00-.058-.04 1.307 1.307 0 01-.632-1.1 1.31 1.31 0 01.35-.923 1.223 1.223 0 011.769-.033.512.512 0 00.053.046l.481.358a.468.468 0 00.572-.007l.507-.395c.28-.193.614-.26.943-.194.328.068.611.264.797.551.357.565.23 1.325-.294 1.737zM11.91 1.34v-.032a.481.481 0 00-.962 0v.033a.481.481 0 00.962 0zm2.886 15.926v-.033a.481.481 0 00-.962 0v.033a.481.481 0 00.962 0zM26.343 3.318v.995c.531 0 .963.447.963.995 0 .55-.432.996-.963.996v.995c1.062 0 1.925-.893 1.925-1.99 0-1.098-.863-1.991-1.925-1.991zM2.288 8.313V8.28a.481.481 0 10-.962 0v.033a.481.481 0 10.962 0zm-.961-1.99V6.29a.481.481 0 00-.962 0v.033a.481.481 0 00.962 0zm17.8 9.934c-1.06 0-1.924.893-1.924 1.99h.962c0-.549.432-.995.962-.995.531 0 .963.447.963.995h.962c0-1.097-.863-1.99-1.925-1.99zM6.138 11.778h-.06c-.215-.858-.969-1.493-1.864-1.493-.895 0-1.65.635-1.864 1.493h-.06c-1.062 0-1.925.892-1.925 1.99 0 1.098.863 1.99 1.925 1.99h3.848c1.061 0 1.925-.892 1.925-1.99 0-1.098-.864-1.99-1.925-1.99zm0 2.986H2.29c-.53 0-.962-.446-.962-.995 0-.55.432-.996.962-.996h.482a.49.49 0 00.48-.497c0-.55.432-.996.963-.996.53 0 .962.447.962.996a.49.49 0 00.481.497h.481c.53 0 .962.447.962.996 0 .549-.431.995-.962.995z" fill="#fff"/><path d="M5.176 14.764H3.252a.49.49 0 00-.481.498v1.99a.49.49 0 00.48.498h1.925a.49.49 0 00.481-.498v-1.99a.49.49 0 00-.481-.498zm-.481 1.99h-.962v-.995h.962v.995zm21.167-3.484c-.795 0-1.443.67-1.443 1.494 0 .823.648 1.492 1.443 1.492.796 0 1.444-.67 1.444-1.492 0-.824-.648-1.493-1.444-1.493zm0 1.992a.49.49 0 01-.48-.498.49.49 0 01.48-.498.49.49 0 01.481.498.49.49 0 01-.48.498z" fill="#fff"/><path d="M25.862 11.28c-1.856 0-3.367 1.563-3.367 3.483 0 1.921 1.51 3.484 3.367 3.484s3.368-1.563 3.368-3.484c0-1.92-1.512-3.483-3.368-3.483zm0 5.972c-1.326 0-2.405-1.116-2.405-2.488 0-1.372 1.079-2.488 2.405-2.488 1.326 0 2.405 1.116 2.405 2.488 0 1.372-1.079 2.488-2.405 2.488z" fill="#fff"/></svg>