<svg width="30" height="30" fill="none" xmlns="http://www.w3.org/2000/svg"><path fill-rule="evenodd" clip-rule="evenodd" d="M15 30c8.284 0 15-6.716 15-15 0-8.285-6.716-15-15-15C6.716 0 0 6.715 0 15c0 8.284 6.716 15 15 15zm0-1.175c7.636 0 13.826-6.19 13.826-13.826S22.636 1.174 15.001 1.174c-7.636 0-13.826 6.19-13.826 13.825 0 7.636 6.19 13.826 13.826 13.826H15z" fill="#085DA5"/><path d="M24.325 13.68c0-3.934-3.188-7.135-7.106-7.135H6.32a.644.644 0 00-.645.645c0 .071.008 1.773.691 3.497.952 2.4 2.723 3.667 5.123 3.667h.15l-.58 1.163a.643.643 0 101.151.576l.87-1.739h4.131c1.56 0 2.88 1.198 2.88 2.616 0 1.286-1.074 2.353-2.466 2.529a3.83 3.83 0 00-.333-.994c-.536-1.066-1.546-1.653-2.844-1.653h-2.814a.644.644 0 00-.644.644c0 .082.01.823.39 1.585.221.444.525.803.897 1.073a2.91 2.91 0 00-.896 1.072 3.85 3.85 0 00-.39 1.585c0 .356.287.645.643.645h2.814c1.298 0 2.308-.587 2.844-1.653.182-.362.281-.718.335-1.002 3.73-.213 6.7-3.325 6.7-7.122v.001zm-9.878 4.46c.806 0 1.354.298 1.677.911.07.134.122.27.162.397h-2.068c-.805 0-1.35-.297-1.668-.908a2.318 2.318 0 01-.16-.4h2.057zm1.693 3.084c-.32.634-.873.943-1.693.943H12.39c.036-.118.083-.243.144-.366.315-.634.866-.941 1.685-.941h2.067a2.37 2.37 0 01-.145.364zm3.298-12.948l-2.873 4.79H13.34V7.834h3.88a5.76 5.76 0 012.22.442h-.002zM7.575 10.242c-.362-.901-.51-1.818-.57-2.408h5.047v5.232h-.564c-1.844 0-3.16-.95-3.913-2.824zm10.448 2.899l2.543-4.24a5.853 5.853 0 012.442 4.205l-2.985.995a4.246 4.246 0 00-2-.96zm3.237 4.739c.077-.292.118-.597.118-.91 0-.637-.166-1.251-.477-1.803l2.082-.694a5.845 5.845 0 01-1.723 3.407z" fill="#085DA5"/><path d="M9.508 8.783a.65.65 0 00-.456.188.65.65 0 00-.189.456.65.65 0 00.644.644.646.646 0 00.455-1.1.647.647 0 00-.454-.188z" fill="#085DA5"/></svg>