<svg width="27" height="21" fill="none" xmlns="http://www.w3.org/2000/svg"><path fill-rule="evenodd" clip-rule="evenodd" d="M26.055 3.197c-.923.409-1.911.677-2.952.795a5.082 5.082 0 002.263-2.8c-.999.578-2.104.998-3.273 1.233A5.2 5.2 0 0018.327.816c-2.842 0-5.15 2.275-5.15 5.075 0 .398.041.784.128 1.158A14.737 14.737 0 012.686 1.751a5.035 5.035 0 00-.696 2.555c0 1.76.912 3.303 2.297 4.216a5.228 5.228 0 01-2.339-.632v.064c0 .643.129 1.268.356 1.835a5.185 5.185 0 003.788 3.145c-.439.106-.89.17-1.362.17a5.35 5.35 0 01-.965-.087c.654 2.006 2.554 3.478 4.806 3.52a10.406 10.406 0 01-6.392 2.168c-.42 0-.825-.022-1.234-.064a14.81 14.81 0 007.906 2.275c8.046 0 13.003-5.579 14.301-11.373.235-1.018.352-2.05.352-3.058 0-.215 0-.439-.01-.654a10.522 10.522 0 002.561-2.634z" fill="#EE3823"/></svg>