<svg width="35" height="23" fill="none" xmlns="http://www.w3.org/2000/svg"><path d="M12.594 12a.353.353 0 00-.514.03 3.955 3.955 0 01-3.005 1.396A3.956 3.956 0 016.07 12.03a.353.353 0 00-.514-.03.393.393 0 00-.028.538 4.671 4.671 0 003.547 1.65c1.357 0 2.65-.602 3.547-1.65a.393.393 0 00-.028-.538z" fill="#fff"/><path d="M9.073 1.242C4.457 1.242.702 5.171.702 10c0 4.83 3.755 8.758 8.371 8.758 4.617 0 8.372-3.929 8.372-8.758 0-4.828-3.755-8.757-8.372-8.757zm0 16.753C4.858 17.995 1.43 14.41 1.43 10c0-4.409 3.428-7.995 7.643-7.995 4.216 0 7.644 3.586 7.644 7.995 0 4.41-3.428 7.996-7.644 7.996z" fill="#fff" stroke="#fff"/><path d="M11.986 7.334c-1.004 0-1.82.854-1.82 1.904 0 .21.163.38.364.38.2 0 .364-.17.364-.38 0-.63.49-1.143 1.091-1.143.603 0 1.093.513 1.093 1.143 0 .21.163.38.364.38.2 0 .364-.17.364-.38 0-1.05-.817-1.904-1.82-1.904zM7.254 9.238c0 .21.163.38.364.38.2 0 .364-.17.364-.38 0-1.05-.817-1.904-1.82-1.904-1.004 0-1.82.854-1.82 1.904 0 .21.163.38.364.38.2 0 .364-.17.364-.38 0-.63.49-1.143 1.092-1.143.602 0 1.092.513 1.092 1.143zm21.778 6.815a.337.337 0 00-.5.03c-.74.889-1.807 1.398-2.928 1.398-1.12 0-2.188-.51-2.927-1.398a.338.338 0 00-.501-.03.401.401 0 00-.028.539c.874 1.05 2.134 1.651 3.456 1.651 1.323 0 2.582-.602 3.456-1.651a.402.402 0 00-.028-.538z" fill="#fff"/><path d="M22.175 16.577c.146.14.37.127.5-.03.74-.889 1.807-1.398 2.928-1.398 1.12 0 2.188.51 2.928 1.398.13.157.354.17.5.03a.401.401 0 00.028-.539c-.874-1.05-2.134-1.651-3.456-1.651s-2.582.602-3.456 1.651a.402.402 0 00.028.539z" fill="#fff"/><path d="M25.603 4.54c-4.497 0-8.156 3.933-8.156 8.768 0 4.834 3.659 8.767 8.156 8.767 4.498 0 8.157-3.933 8.157-8.767 0-4.835-3.66-8.768-8.157-8.768zm0 16.773c-4.106 0-7.447-3.591-7.447-8.005 0-4.415 3.34-8.005 7.447-8.005s7.448 3.59 7.448 8.005c0 4.414-3.34 8.005-7.448 8.005z" fill="#fff" stroke="#fff"/><path d="M28.442 10.639c-.978 0-1.773.855-1.773 1.906 0 .21.158.381.354.381.196 0 .355-.17.355-.381 0-.63.477-1.144 1.064-1.144.586 0 1.064.513 1.064 1.144 0 .21.159.381.354.381.196 0 .355-.17.355-.381 0-1.051-.796-1.906-1.773-1.906zm-4.611 1.906c0 .21.159.381.355.381.195 0 .354-.17.354-.381 0-1.051-.795-1.906-1.773-1.906-.978 0-1.773.855-1.773 1.906 0 .21.159.381.355.381.195 0 .354-.17.354-.381 0-.63.477-1.144 1.064-1.144.587 0 1.064.513 1.064 1.144z" fill="#fff"/></svg>