<svg width="20" height="20" fill="transparent" xmlns="http://www.w3.org/2000/svg"><path d="M15.265 15.507h0v.428h.45l.3.334a8.703 8.703 0 10-11.6.007l.75.67v-1.351a.464.464 0 00.007-.08h0v-.009a3.125 3.125 0 012.99-3.19h4.106a3.131 3.131 0 012.997 3.191zM5.117 2.174a9.175 9.175 0 1110.195 15.257A9.175 9.175 0 015.117 2.174z" stroke="#343330" stroke-opacity=".75" stroke-width=".9"/><path d="M8.555 4.569a2.987 2.987 0 113.32 4.968 2.987 2.987 0 01-3.32-4.968z" stroke="#343330" stroke-opacity=".75" stroke-width=".9"/></svg>