<svg width="27" height="27" fill="none" xmlns="http://www.w3.org/2000/svg"><path fill-rule="evenodd" clip-rule="evenodd" d="M13.77 26.394c7.14 0 12.93-5.79 12.93-12.931C26.7 6.32 20.91.53 13.77.53 6.626.531.837 6.321.837 13.462c0 7.142 5.79 12.932 12.931 12.932zm0-1.012c6.582 0 11.918-5.337 11.918-11.92 0-6.582-5.336-11.918-11.918-11.918-6.583 0-11.92 5.336-11.92 11.919 0 6.582 5.337 11.919 11.92 11.919z" fill="#5CAF51"/><path d="M13.286 21.382a76 76 0 01.725-4.11c.903-4.4 1.526-5.434 2.418-5.804.542-.225.618.031 1.45-.242.248-.08 2.208-.752 2.66-2.297.281-.959-.256-1.45.242-2.418.278-.541.605-.967.605-.967s-.58.203-1.33.484c-.895.336-1.154.243-2.055.483-.894.238-1.779.474-2.418 1.088-1.153 1.106-.786 3.325-.786 3.325s.094-1.099.906-1.874c1.102-1.052 2.781-1.088 2.781-1.088s-.636.424-1.45 1.209c-.877.843-1.338 1.731-1.814 2.78-1.615 3.564-1.972 5.839-2.418 5.804-.34-.027-.666-1.61-.846-2.66-.977-5.688-5.804-9.31-5.804-9.31s.652.695 1.693 2.419c1.863 3.086 2.649 5.936 3.748 10.034.334 1.243.577 2.262.725 2.902l.968.242z" fill="#5CAF51"/></svg>