<svg width="16" height="15" fill="none" xmlns="http://www.w3.org/2000/svg"><path d="M8.007 14.248a.92.92 0 01-.606-.228 181.843 181.843 0 00-1.785-1.534l-.002-.003c-1.581-1.347-2.946-2.51-3.896-3.656C.657 7.546.162 6.331.162 5.004c0-1.289.442-2.478 1.245-3.349A4.22 4.22 0 014.545.29c.906 0 1.735.286 2.465.851.369.285.703.634.997 1.04.294-.406.628-.755.997-1.04a3.947 3.947 0 012.465-.85 4.22 4.22 0 013.139 1.365c.802.87 1.244 2.06 1.244 3.35 0 1.326-.494 2.54-1.556 3.822-.95 1.146-2.315 2.31-3.895 3.656-.54.46-1.152.982-1.787 1.537a.92.92 0 01-.607.228zM4.545 1.208a3.31 3.31 0 00-2.463 1.07c-.645.7-1 1.669-1 2.726 0 1.116.414 2.114 1.344 3.237.899 1.084 2.236 2.224 3.784 3.543l.003.002c.54.462 1.154.984 1.793 1.543.642-.56 1.257-1.083 1.799-1.545 1.548-1.32 2.885-2.459 3.783-3.543.93-1.123 1.345-2.12 1.345-3.237 0-1.057-.356-2.026-1.001-2.726a3.31 3.31 0 00-2.463-1.07 3.05 3.05 0 00-1.903.659 4.46 4.46 0 00-1.06 1.227.576.576 0 01-.499.283.576.576 0 01-.498-.283 4.456 4.456 0 00-1.06-1.227 3.048 3.048 0 00-1.904-.659z"/></svg>