<svg width="172" height="131" fill="none" xmlns="http://www.w3.org/2000/svg"><path d="M110.911 120.109c-2.495.179-3.927-.614-7.008-1.952-3.082-1.338-4.853-3.613-9.242-4.987-4.39-1.373-6.313 2.458-6.313 2.458s-1.924-3.828-6.313-2.458c-4.39 1.371-6.16 3.649-9.242 4.987-3.081 1.338-4.51 2.131-7.008 1.952-.115 0 6.313 6.465 11.937 8.381 5.62 1.915 8.626 1.589 10.626 1.589 2.003 0 5.005.326 10.626-1.589 5.624-1.916 12.052-8.381 11.937-8.381z" fill="#EE3823"/><path d="M66.906 48.108c-10.138-2.473-15.28-3.646-15.427-3.523-.032.039-3.586 5.289-4.45 6.645-.986 1.57-8.173 13.409-8.173 13.409l-4.237-.796 3.056-10.408L26.867 50l-1.49 8.297h-.002l-.859 3.577-3.193-.607L17.138 41.7l-8.106 1.503 4.874 21.147L.11 80.395l7.695 2.945 10.393-11.523 3.72.754-2.339 10.276 8.888 1.481 2.966-9.812 5.226 1.072c.236 3.412.539 7.127.912 11.14.13 1.413.249 2.67.36 3.77.096.966.154 1.46.17 1.487.076.17 5.35.799 15.819 1.891l-1.978-21.49 14.965-24.278zm50.054 8.069l-2.833.54-2.482 17.668-11.554.368 2.437 15.053-12.46 2.218-4.431-43.371 8.307-2.308c-1.21 1.733 21.855.568 21.855.568l1.161 9.264zM97.555 58.15l1.257 7.767 5.576-1.993 1.458-7.325-8.291 1.55zm60.419-5.535l1.465 39.504-13.389.536-.319-38.687-17.092-.266.118-6.69 42.871-6.645-.731 8.492-12.923 3.756z" fill="#fff"/><path d="M86.299 95.598l-11.175 1.224-.035-2.993-16.387 1.28-4.53-16.405 12.52-4.705 8.31.973-.034-7.465-3.662-.267-1.21 3.356-11.327.383 2.156-8.806 20.58-11.27 4.794 44.695zM70.416 79.255l-5.274 1.15.894 7.515 4.137-.916.243-7.75zm56.275-21.995l-3.608 17.29 11.676-16.059 7.876 2.688-5.289 32.123-11.325-1.64 5.193-20.495-10.961 16.172-1.387 6.394-8.958-2.152 6.887-33.377 9.896-.943zM51.358 25.964c-4.223-3.795-11.133-.94-14.278 2.688-1.726 1.99-3.33 4.556-3.264 7.198.067 2.7 2.323 4.352 4.945 4.912 5.962 1.275 12.16-1.688 16.764-4.986A44.215 44.215 0 0067.028 23.64c3.506-5.495 5.685-11.643 6.31-18.022.124-1.26-3.117-.182-3.515.5-2.731 4.649-4.859 9.584-6.291 14.72a59.374 59.374 0 00-2.007 11.369c-.064.81-.28 1.891.36 2.559 1.538 1.598 4.47-.248 5.666-1.32a81.69 81.69 0 005.446-5.36c3.4-3.67 6.44-7.622 9.11-11.788A81.232 81.232 0 0089.61 1.414c.093-.246-.124-.39-.328-.476-2.874-1.233-5.78 1.104-6.99 3.364-1.914 3.571-3.601 7.313-5.085 11.057-2.842 7.18-4.577 14.882-2.835 22.494.213.93 3.767.117 3.537-.89-1.426-6.237-.488-12.538 1.522-18.566.995-2.984 2.223-5.896 3.554-8.764a184.948 184.948 0 011.99-4.145c.332-.67.632-1.377 1.018-2.024.2-.338.437-.667.714-.958.093-.116.201-.218.326-.305.415-.317.213-.251-.606.192a41.057 41.057 0 00-.329-.476A80.885 80.885 0 0172.824 24.67a82.225 82.225 0 01-4.43 4.936 82.465 82.465 0 01-3.542 3.436c-.181.168-.363.335-.548.5-1.177 1.03.96.185.992.134-.003.006-.294-1.185-.287-1.377.016-.535.073-1.071.124-1.607a59.636 59.636 0 011.92-10.348c1.43-5.136 3.56-10.074 6.291-14.72-1.17.168-2.341.332-3.515.5-.858 8.74-4.642 17.112-10.766 23.751-3.079 3.337-6.846 6.546-11.15 8.42-2.194.958-4.75 1.514-7.123.814-2.51-.74-3.777-2.825-3.318-5.235.76-3.984 5.997-10.808 10.582-6.693.772.695 4.067-.533 3.304-1.218z" fill="#fff"/><path d="M90.364 21.95c-2.657-1.778-6.421-.64-8.495 1.445-1.659 1.67-3.43 4.625-2.172 6.918 1.429 2.61 5.413 2.014 7.742 1.002 2.523-1.098 4.686-2.98 6.039-5.262 1.467-2.472 2.057-5.294 1.534-8.093-.207-1.108-3.075-.246-3.413.416-2.932 5.729-3.777 12.188-2.262 18.396.274 1.126 3.825.281 3.538-.889-1.423-5.825-.753-12.05 2.013-17.453-1.14.137-2.278.278-3.414.416.776 4.14-1.266 9.207-5.451 11.143-.798.369-1.653.482-2.367-.12-.878-.736-.897-1.915-.645-2.915.338-1.329 2.131-5.016 4.068-3.72.67.449 1.617.308 2.338.024.303-.114 1.608-.865.947-1.308zm5.358 7.435c-1.346.99-.622 2.774.9 3.149 2.217.541 4.361-.746 5.901-2.11 2.67-2.368 4.415-5.604 4.798-9.034l-3.544.398c-.099 1.287-.201 2.574-.3 3.858-.051.67-.105 1.338-.156 2.009-.035.467-.15 1.035-.032 1.502.284 1.105 1.611 1.267 2.625 1.138 1.324-.17 2.38-.865 3.369-1.659 3.142-2.514 6.67-5.743 6.639-9.91-.007-.742-.906-.823-1.541-.754-.807.087-1.662.428-2.004 1.152-1.384 2.928-2.236 6.058-2.481 9.255a26.97 26.97 0 00.047 4.678c.058.59.141 1.186.638 1.605.741.622 1.988.416 2.801.069.504-.216 1.423-.773.932-1.377-.463-.569-1.803-.29-2.348-.057-.051.02-.102.045-.156.066l1.387-.255a78.426 78.426 0 01-.153-.009c.243.051.482.102.724.15-.331-.159-.29-1.099-.312-1.368a24.033 24.033 0 01-.093-2.041 25.39 25.39 0 01.284-3.712 26.377 26.377 0 012.275-7.405c-1.181.132-2.364.267-3.545.398.023 3.12-2.044 5.562-4.36 7.597-.581.509-1.178 1-1.784 1.479-.073.056-.351.212-.351.266 0-.03.942.039.989-.036.007-.012-.06-.392-.063-.446-.007-.24.035-.485.054-.724.153-1.955.303-3.912.456-5.867.108-1.389-3.417-.757-3.544.398a12.666 12.666 0 01-2.434 6.214 12.31 12.31 0 01-2.265 2.326c-.137.107-.533.299-.625.419-.192.087-.055.072.408-.04a.177.177 0 00-.057-.086c.016-.153-.444-.482-.23-.637.606-.447.325-1.075-.351-1.225-.861-.197-1.822.126-2.498.626zm30.671-7.719c-.163-1.159-1.455-1.77-2.578-1.862-1.531-.126-2.899.638-4.029 1.52-1.84 1.434-3.863 3.227-4.223 5.574-.488 3.164 3.467 3.25 5.78 2.84 2.495-.442 4.916-1.747 6.485-3.633 1.79-2.152 2.482-4.903 1.94-7.582-.258-1.272-2.676-.817-3.254-.054-3.796 5.02-3.735 12.162.511 16.95 1.036 1.17 4.399-.158 3.237-1.47-3.528-3.98-4.019-10.2-.781-14.483l-3.254-.054c.708 3.487-1.477 7.432-5.429 8.007-.524.075-1.595.314-1.688-.38-.099-.749.482-1.653.941-2.218.574-.707 1.263-1.308 1.984-1.877.262-.207.846-.464 1.018-.71-.045.063-.217-.023-.258.054.009-.018.079.425.057.273.115.817 1.477.862 2.099.706.791-.206 1.56-.772 1.442-1.601z" fill="#fff"/></svg>