<svg width="272" height="159" fill="none" xmlns="http://www.w3.org/2000/svg"><path d="M198.021 142.685c-3.985.287-6.274-.98-11.197-3.118-4.923-2.137-7.752-5.772-14.765-7.967-7.013-2.195-10.086 3.926-10.086 3.926s-3.073-6.116-10.086-3.926c-7.013 2.19-9.842 5.83-14.765 7.967-4.924 2.138-7.207 3.405-11.198 3.118-.183 0 10.087 10.33 19.072 13.39 8.98 3.061 13.781 2.539 16.977 2.539 3.201 0 7.997.522 16.977-2.539 8.985-3.06 19.255-13.39 19.071-13.39z" fill="#EE3823"/><path d="M49.383 71.834c-11.878-10.674-31.31-2.643-40.156 7.56C4.373 84.99-.14 92.206.049 99.639c.188 7.593 6.531 12.239 13.906 13.813 16.767 3.586 34.2-4.747 47.145-14.024 13-9.31 23.954-20.977 32.351-34.126 9.86-15.456 15.988-32.746 17.746-50.685.35-3.543-8.765-.513-9.886 1.406-7.68 13.073-13.664 26.954-17.692 41.4a166.996 166.996 0 00-5.643 31.971c-.18 2.281-.79 5.32 1.013 7.197 4.325 4.495 12.57-.698 15.934-3.712a229.596 229.596 0 0015.314-15.077 236.368 236.368 0 0025.623-33.15A228.44 228.44 0 00156.961 2.79c.26-.69-.35-1.094-.924-1.338-8.083-3.468-16.256 3.106-19.657 9.462-5.383 10.042-10.128 20.565-14.3 31.095-7.994 20.195-12.874 41.854-7.976 63.261.601 2.618 10.595.328 9.949-2.5-4.01-17.543-1.372-35.263 4.28-52.216 2.799-8.393 6.253-16.584 9.994-24.648a523.463 523.463 0 015.599-11.659c.933-1.886 1.776-3.872 2.861-5.69.566-.952 1.23-1.878 2.01-2.694a4.29 4.29 0 01.915-.859c1.166-.892.601-.707-1.704.539-.305-.446-.611-.892-.925-1.338a227.474 227.474 0 01-37.33 63.993 231.249 231.249 0 01-12.462 13.88 231.596 231.596 0 01-9.958 9.665c-.511.471-1.023.942-1.543 1.405-3.31 2.896 2.7.522 2.79.38-.009.016-.825-3.334-.808-3.873.045-1.507.207-3.014.35-4.52.314-3.35.736-6.701 1.265-10.026a167.673 167.673 0 014.136-19.075c4.02-14.445 10.013-28.335 17.692-41.4-3.292.472-6.585.935-9.886 1.406-2.414 24.58-13.054 48.125-30.28 66.796-8.657 9.386-19.252 18.41-31.355 23.68-6.172 2.694-13.359 4.26-20.034 2.29-7.06-2.08-10.622-7.947-9.33-14.723 2.135-11.204 16.867-30.397 29.759-18.823 2.17 1.953 11.438-1.498 9.294-3.426z" fill="#343330"/><path d="M159.084 60.546c-7.474-5-18.06-1.802-23.892 4.066-4.665 4.697-9.644 13.005-6.109 19.453 4.019 7.34 15.225 5.666 21.774 2.82 7.096-3.089 13.179-8.384 16.983-14.798 4.127-6.954 5.787-14.892 4.315-22.762-.583-3.115-8.648-.69-9.599 1.17-8.245 16.112-10.623 34.277-6.361 51.736.771 3.165 10.757.792 9.949-2.5-4.001-16.381-2.117-33.89 5.661-49.085-3.202.387-6.405.783-9.599 1.17 2.18 11.642-3.562 25.894-15.333 31.34-2.243 1.036-4.647 1.356-6.657-.336-2.467-2.071-2.521-5.388-1.812-8.2.951-3.737 5.993-14.108 11.439-10.463 1.884 1.263 4.549.867 6.576.067.852-.32 4.522-2.432 2.665-3.678zm15.069 20.91c-3.786 2.786-1.75 7.803 2.53 8.855 6.235 1.524 12.264-2.096 16.597-5.934 7.509-6.659 12.417-15.759 13.493-25.406-3.319.37-6.648.75-9.967 1.12-.278 3.62-.565 7.24-.843 10.85-.144 1.886-.296 3.763-.44 5.649-.099 1.313-.422 2.913-.09 4.226.799 3.106 4.531 3.56 7.384 3.199 3.723-.48 6.693-2.433 9.474-4.664 8.837-7.071 18.759-16.154 18.67-27.872-.018-2.087-2.548-2.315-4.334-2.121-2.269.244-4.674 1.204-5.634 3.24-3.893 8.234-6.289 17.039-6.98 26.03a75.767 75.767 0 00.135 13.156c.161 1.659.395 3.334 1.794 4.512 2.082 1.751 5.59 1.17 7.877.194 1.418-.606 4.002-2.172 2.62-3.872-1.301-1.6-5.069-.817-6.603-.16-.144.059-.287.126-.44.185 1.301-.236 2.602-.48 3.903-.716l-.431-.025c.682.143 1.355.286 2.037.421-.933-.446-.816-3.09-.879-3.847a68.058 68.058 0 01-.261-5.74c.009-3.486.279-6.98.799-10.44 1.077-7.197 3.248-14.183 6.397-20.825-3.32.37-6.648.75-9.968 1.12.063 8.771-5.75 15.64-12.264 21.364a127.736 127.736 0 01-5.015 4.159c-.206.16-.987.597-.987.749 0-.084 2.647.11 2.781-.101.018-.034-.17-1.103-.179-1.254-.018-.674.099-1.364.152-2.038.431-5.496.853-11.002 1.283-16.499.305-3.906-9.608-2.13-9.967 1.12-.7 6.297-2.97 12.273-6.845 17.476a34.588 34.588 0 01-6.37 6.54c-.386.303-1.498.842-1.759 1.179-.538.244-.152.202 1.149-.11a.496.496 0 00-.162-.244c.045-.43-1.247-1.355-.646-1.793 1.705-1.254.915-3.022-.987-3.443-2.422-.555-5.122.354-7.024 1.76zm86.25-21.708c-.458-3.258-4.091-4.975-7.249-5.236-4.307-.354-8.156 1.793-11.331 4.276-5.177 4.032-10.865 9.074-11.879 15.674-1.372 8.898 9.752 9.142 16.257 7.989 7.015-1.246 13.825-4.916 18.239-10.22 5.033-6.052 6.98-13.788 5.455-21.322-.727-3.578-7.528-2.298-9.151-.152-10.677 14.117-10.506 34.202 1.435 47.671 2.916 3.291 12.372-.446 9.106-4.133-9.922-11.196-11.304-28.689-2.198-40.735l-9.151-.151c1.992 9.807-4.154 20.902-15.269 22.518-1.472.21-4.486.884-4.746-1.07-.279-2.104 1.354-4.646 2.646-6.237 1.615-1.987 3.553-3.679 5.581-5.278.735-.58 2.377-1.305 2.861-1.995-.125.177-.61-.067-.726.151.027-.05.224 1.196.161.767.323 2.298 4.154 2.424 5.903 1.986 2.225-.58 4.388-2.172 4.056-4.503z" fill="#343330"/></svg>