<svg width="156" height="126" fill="none" xmlns="http://www.w3.org/2000/svg"><path d="M100.761 116.077c-2.267.174-3.569-.594-6.37-1.89-2.8-1.296-4.41-3.5-8.399-4.831-3.99-1.33-5.738 2.381-5.738 2.381s-1.748-3.708-5.737-2.381c-3.99 1.328-5.599 3.535-8.4 4.831-2.8 1.296-4.1 2.064-6.37 1.89-.104 0 5.738 6.262 10.85 8.118 5.108 1.856 7.84 1.539 9.657 1.539 1.821 0 4.55.317 9.658-1.539 5.112-1.856 10.954-8.118 10.849-8.118zM60.766 46.334c-9.214-2.394-13.888-3.531-14.021-3.412-.03.038-3.26 5.123-4.045 6.436-.896 1.523-7.428 12.99-7.428 12.99l-3.85-.772 2.777-10.08-9.823-3.33-1.354 8.038h-.003l-.78 3.464-2.902-.588-3.804-18.953-7.367 1.455 4.43 20.484L.056 77.61l6.994 2.853L16.496 69.3l3.38.73-2.125 9.954 8.078 1.435 2.696-9.504 4.75 1.038a493.2 493.2 0 00.828 10.791c.12 1.369.227 2.587.328 3.65.087.937.14 1.415.154 1.442.07.165 4.862.774 14.377 1.832l-1.797-20.817 13.6-23.517zm45.494 7.816l-2.575.521-2.256 17.115-10.501.357 2.215 14.58-11.325 2.15-4.027-42.013 7.55-2.235c-1.099 1.679 19.863.55 19.863.55l1.056 8.974zm-17.637 1.91l1.142 7.524 5.068-1.931 1.325-7.095-7.535 1.502zm54.912-5.36l1.331 38.265-12.168.52-.29-37.474-15.535-.259.107-6.48 38.964-6.436-.664 8.225-11.745 3.639z" fill="#fff"/><path d="M78.39 92.334L68.234 93.52l-.032-2.9-14.893 1.241L49.19 75.97l11.38-4.558 7.553.942-.032-7.23-3.328-.258-1.1 3.25-10.295.37 1.96-8.529 18.704-10.916 4.358 43.293zm-14.435-15.83l-4.793 1.113.812 7.28 3.76-.887.22-7.507zM115.103 55.2l-3.279 16.746 10.611-15.555 7.159 2.603-4.807 31.116-10.293-1.589 4.72-19.852-9.962 15.665-1.261 6.193-8.141-2.084 6.259-32.33 8.994-.914zM46.635 24.884c-3.839-3.676-10.119-.91-12.978 2.604-1.568 1.928-3.027 4.413-2.966 6.973.061 2.615 2.111 4.215 4.494 4.758 5.42 1.235 11.052-1.636 15.236-4.83 4.201-3.207 7.741-7.226 10.455-11.755 3.187-5.323 5.167-11.278 5.735-17.456.113-1.221-2.833-.177-3.195.484a62.126 62.126 0 00-5.717 14.259 60.827 60.827 0 00-1.824 11.011c-.058.786-.255 1.833.328 2.48 1.397 1.547 4.061-.241 5.149-1.28a77.257 77.257 0 004.949-5.192A81.01 81.01 0 0081.4 1.104c.084-.238-.114-.377-.3-.461-2.611-1.194-5.253 1.07-6.352 3.259-1.74 3.459-3.273 7.083-4.621 10.71-2.583 6.955-4.16 14.415-2.578 21.788.195.902 3.425.114 3.216-.86-1.296-6.043-.444-12.146 1.383-17.985.904-2.89 2.02-5.712 3.23-8.49a184.534 184.534 0 011.809-4.015c.301-.65.574-1.334.925-1.96.182-.328.397-.646.65-.928a1.43 1.43 0 01.295-.295c.377-.308.194-.244-.551.185a41.328 41.328 0 00-.299-.46c-2.838 7.932-6.894 15.383-12.064 22.04a78.188 78.188 0 01-4.027 4.78 77.756 77.756 0 01-3.717 3.813c-1.07.998.873.18.902.13-.003.007-.267-1.147-.261-1.333.014-.519.067-1.038.113-1.557a57.12 57.12 0 01.409-3.453 61.032 61.032 0 011.336-6.57 61.944 61.944 0 015.718-14.259c-1.064.163-2.128.322-3.195.485-.78 8.466-4.219 16.575-9.785 23.006-2.798 3.233-6.222 6.34-10.134 8.156-1.994.927-4.317 1.467-6.474.788-2.282-.716-3.433-2.737-3.015-5.07.69-3.86 5.45-10.47 9.617-6.484.702.673 3.697-.516 3.004-1.18z" fill="#fff"/><path d="M82.086 20.995c-2.415-1.722-5.837-.62-7.721 1.4-1.508 1.619-3.117 4.48-1.975 6.701 1.3 2.528 4.92 1.951 7.037.971a12.256 12.256 0 005.488-5.097c1.334-2.394 1.87-5.128 1.395-7.84-.188-1.072-2.795-.237-3.102.404-2.665 5.549-3.433 11.806-2.056 17.819.25 1.09 3.477.273 3.216-.861-1.293-5.642-.685-11.673 1.829-16.906-1.035.133-2.07.27-3.102.403.704 4.01-1.151 8.918-4.955 10.794-.725.357-1.502.467-2.151-.116-.798-.713-.815-1.856-.586-2.824.307-1.287 1.937-4.86 3.697-3.604.608.435 1.47.299 2.125.023.275-.11 1.461-.837.86-1.267zm4.868 7.205c-1.223.959-.565 2.687.818 3.05 2.015.524 3.963-.723 5.364-2.045 2.427-2.293 4.013-5.427 4.36-8.75l-3.22.386c-.09 1.246-.183 2.493-.273 3.737-.047.65-.096 1.296-.142 1.945-.032.453-.137 1.004-.03 1.456.259 1.07 1.465 1.226 2.387 1.102 1.203-.165 2.163-.838 3.061-1.607 2.856-2.435 6.063-5.563 6.034-9.6-.006-.718-.823-.797-1.4-.73-.734.084-1.511.415-1.821 1.116a26.883 26.883 0 00-2.256 8.965 27.837 27.837 0 00.044 4.532c.052.571.127 1.148.58 1.554.672.603 1.806.403 2.545.067.458-.21 1.293-.748.847-1.334-.421-.551-1.638-.281-2.134-.055-.047.02-.093.043-.142.064.42-.082.841-.166 1.261-.247l-.139-.009c.22.05.438.099.658.145-.302-.153-.264-1.064-.284-1.325a25.142 25.142 0 01-.084-1.977c.003-1.2.09-2.404.258-3.595a26.788 26.788 0 012.067-7.173c-1.073.127-2.148.258-3.221.385.02 3.021-1.859 5.387-3.963 7.359-.528.493-1.07.968-1.621 1.432-.067.055-.32.206-.32.258 0-.029.856.038.9-.035.006-.011-.055-.38-.058-.431-.006-.232.032-.47.049-.702.14-1.893.275-3.79.415-5.683.098-1.345-3.106-.733-3.222.386-.226 2.168-.96 4.227-2.212 6.019a11.596 11.596 0 01-2.058 2.253c-.125.104-.484.29-.569.405-.174.085-.049.07.372-.037a.172.172 0 00-.053-.084c.015-.148-.403-.467-.208-.618.55-.432.295-1.04-.32-1.186-.782-.191-1.655.122-2.27.606zm27.876-7.479c-.148-1.122-1.322-1.713-2.343-1.803-1.391-.122-2.635.617-3.662 1.473-1.672 1.388-3.511 3.125-3.838 5.398-.444 3.065 3.151 3.149 5.253 2.752 2.268-.43 4.468-1.694 5.895-3.52a9.132 9.132 0 001.762-7.344c-.234-1.232-2.432-.792-2.957-.052-3.45 4.862-3.395 11.78.464 16.419.942 1.133 3.998-.154 2.943-1.424-3.207-3.856-3.653-9.881-.71-14.03l-2.958-.052c.644 3.378-1.342 7.199-4.934 7.756-.476.072-1.45.304-1.534-.369-.09-.724.438-1.6.855-2.148.522-.684 1.148-1.267 1.803-1.818.238-.2.769-.45.925-.687-.04.06-.197-.023-.235.052.009-.017.073.412.053.264.104.791 1.342.835 1.907.684.719-.2 1.418-.748 1.311-1.55z" fill="#fff"/></svg>