<svg width="211" height="51" fill="none" xmlns="http://www.w3.org/2000/svg"><g clip-path="url(#clip0)" fill="#EE3823"><path d="M93.527 50.208H61.306A7.79 7.79 0 0058 49.484a7.79 7.79 0 00-3.305.724h-.826c-.537-1.146-1.652-.576-2.57-.625-4.882-.18-9.723-.812-14.631-.694-1.64.04-3.276-.163-4.833-.598-1.843-.527-2.561 1.785-4.42 1.285-1.033-1.055-2.479-.791-3.793-.757-2.121.153-4.25-.198-6.146-1.014a26.648 26.648 0 00-6.651-2.458 4.9 4.9 0 01-2.132-.951C4.704 40.958.746 37.45.846 32.166c.314-1.388.644-2.701.941-4.062.38-1.339 1.071-2.601 2.033-3.715 1.123-1.466 3.115-1.73 4.585-2.646 4.247-2.653 9.196-3.514 14.202-3.93 2.842-.237 5.908.138 8.196 1.992.603.486 1.05.695 1.71.292.12-.1.264-.179.422-.229a1.397 1.397 0 01.98.054c.149.066.28.16.383.272.461.436 1.102.709 1.793.764 4.775.32 9.5 1.118 14.326.98 2.057-.063 4.205-.355 6.155.034 5.163 1.028 10.294.118 15.416.104 5.123-.014 10.096-.528 15.144-.84 4.23-.271 8.527-.271 12.682-.917 6.015-.923 12.071-1.673 18.094-2.618 11.434-1.792 22.703-4.07 33.923-6.604.919-.222 1.863-.36 2.817-.41a158.223 158.223 0 0022.795-2.083c1.999-.361 4.048-.507 6.072-.757 1.388-.167 1.958.187 1.793 1.5-.099.792.942.562 1.578.583v.695c-1.041-.09-1.743.555-2.619.826-.603.195-.677.66-.537 1.139.215.743.826.813 1.553.604a6.837 6.837 0 011.554-.347c.193.008.381.051.553.127.171.075.321.181.438.31a.694.694 0 01.145.318.654.654 0 01-.033.339.764.764 0 01-.205.293.939.939 0 01-.337.19c-.586.25-1.297.305-1.916.52-1.818.64-3.883.938-5.354 2.528 3.42.951 6.775.799 10.055 1.076l-.058.966c-2.479.486-2.479.486-1.801 2.083l-.777.111c-.628.09-1.495.125-1.264.882.231.757.95.458 1.537.195.231-.105.479-.181.719-.264 1.237-.703 2.746-.986 4.221-.792l-.107.75.083-.063c-.777.105-1.091.459-.893 1.111.05.806.653 1.146 1.504 1.278-1.016 2.216-1.008 2.23-3.305 3.57-3.809 2.201-7.584 4.458-11.467 6.562-3.71 2.106-7.754 3.764-12.013 4.924-8.353 2.083-16.838 3.77-25.372 5.278a398.275 398.275 0 01-33.618 4.444h-9.12l-3.686-.07a1.322 1.322 0 00-.771.156.994.994 0 00-.468.54zm98.192-24.597c-.256-.188-.413-.417-.611-.438a.73.73 0 00-.282 0 .661.661 0 00-.251.106.533.533 0 00-.169.19.443.443 0 00-.05.232c0 .09.182.278.231.264.372-.063.727-.222 1.132-.354z"/><path d="M27.432 50.209v-.653c1.859.5 2.577-1.813 4.42-1.285 1.557.435 3.193.637 4.833.597 4.907-.097 9.749.535 14.632.695.087.2.118.413.09.625l-23.975.02zm27.264 0A7.791 7.791 0 0158 49.484a7.79 7.79 0 013.304.725h-6.61zm52.876-.625v.625h-5.784c-.023-.214.008-.43.091-.632l5.693.007zm-14.046.625a.995.995 0 01.468-.54c.227-.127.5-.182.772-.155l3.693.035a4.31 4.31 0 010 .653l-4.933.007zm117.319-35.417l-2.479.993c-.206-1.674 1.074-1.764 2.479-1.688v.695z"/><path d="M98.484 50.208a4.31 4.31 0 000-.653h3.421a1.273 1.273 0 00-.091.632l-3.33.021zm-47.092 0a1.184 1.184 0 00-.091-.625c.917.049 2.032-.52 2.57.625h-2.48zm150.366-50c0 .424.09 1.132-.414 1.132s-.38-.694-.413-1.132h.827zm-9.039 21.486c-1.476-.193-2.984.09-4.222.792l-.215-.924c-.685-1.61-.685-1.61 1.802-2.083l1.834-.375c0 .66-.504 1.423.52 1.889l.19.791.091-.09zm4.081 1.34c-1.115.632-2.09 1.452-3.453 1.736-.826-.131-1.454-.472-1.504-1.277.339-.34 1.041-.486.893-1.111l-.083.062c.71.09 1.437.222 1.801-.528.934-.32 1.652.285 2.413.473-.067.215-.067.43-.067.645z"/><path d="M191.917 19.09l-1.834.374.058-.965a4.471 4.471 0 011.526-.794 5.034 5.034 0 011.779-.2v.793l-1.529.791zm-2.553-9.056c-.611.965-1.652.541-2.536.541v-.694c.554-1.035 1.652-.542 2.479-.604l.057.757zm-1.082 11.527l.215.924c-.24.083-.488.16-.719.264-.586.264-1.305.576-1.537-.195-.231-.77.637-.791 1.264-.881l.777-.112zm6.13.355c-.363.75-1.09.618-1.801.527l.108-.75-.091.077 1.512-.104a.312.312 0 01.112.017.273.273 0 01.093.054.22.22 0 01.057.083.186.186 0 01.01.096zm-2.693 3.694c-.405.132-.76.257-1.132.354-.049 0-.239-.173-.231-.264a.444.444 0 01.05-.233.531.531 0 01.168-.189.668.668 0 01.252-.106.727.727 0 01.282 0c.198.035.355.25.611.438z"/><path d="M192.67 22.381c.149.625-.554.771-.892 1.111-.174-.652.14-1.006.892-1.11zm4.957-15.229c.496-1 1.578-.639 2.479-.743v.792c-1.438 1.611-1.603 1.646-3.446.694.521-.048.901-.277.967-.743zm.826 9.028c-1.132 1.556-3.511 1.083-4.957 2.139v-.792c1.297-1.347 3.098-1.465 4.957-1.347zm1.843-6.944c.545 0 1.264-.056 1.288.513.042 1.014-1.007.84-1.751.931-.545.063-1.215 0-1.248-.535-.066-1.027.992-.812 1.711-.91zm-10.931.798v-.75c1.041-.396 2.049-.896 3.305-.778.047.23.047.465 0 .695-1.099.333-2.074.903-3.305.833z"/><path d="M192.67 9.186c.047-.23.047-.464 0-.694.826-1.174 2.148-.535 3.255-.695l.091.077a4.03 4.03 0 01-1.486.993 4.741 4.741 0 01-1.86.32zm11.567 5.604h-2.686c.281-.395.777-.52 1.207-.756 1.305-.702 1.586-.278 1.479.756zm0 2.876a1.15 1.15 0 01.094-.924 1.5 1.5 0 01.781-.653l1.653.104c0 .917-1.587.521-1.653 1.39l-.875.083zm-4.131-10.473v-.791c.198-.528.76-.806 1.206-.507.743.507-.273.645-.488.951-.14.167-.462.236-.718.347zm2.924-3.305c.14.109.251.241.327.388a1 1 0 010 .932 1.182 1.182 0 01-.327.388 1.167 1.167 0 01-.348-.383.977.977 0 01-.124-.471c0-.163.043-.324.124-.471.082-.148.2-.278.348-.383z"/><path d="M197.626 7.153c-.066.472-.446.694-.942.764a7.19 7.19 0 01-.669 0l-.091-.077c.215-.91 1.024-.687 1.702-.687zm7.435 8.333a.992.992 0 01-.563-.22.722.722 0 01-.263-.474c.214.013.416.09.567.217a.702.702 0 01.259.477zm2.735.73h-1.082c-.075-.355.099-.695.495-.695.182.028.372.451.587.694zm-7.692 4.826c.166-.827 1.074-.695 1.653-.89 0 .966-.826.945-1.653.89z"/><path d="M198.454 21.77c.215-.833 1.008-.742 1.735-.756-.182.958-.992.833-1.735.757zm-14.558 13.41c.215-.091.447-.15.686-.173.132 0 .24.229.364.354a2.153 2.153 0 01-.653.18c-.14-.013-.256-.229-.397-.36zm20.341-17.513l.826-.098a.816.816 0 01-.252.479 1.091 1.091 0 01-.533.271 4.754 4.754 0 01-.041-.652z"/><path d="M197.627 22.465c-.133-.604.322-.695.875-.757.116.597-.248.785-.875.757z"/><path d="M196.8 22.389l.826.034c0 .535-.347.695-.909.611.083-.215.083-.43.083-.645zm6.543-2.737c.055-.199.168-.384.33-.536.162-.153.366-.27.595-.339a.807.807 0 01-.264.585 1.127 1.127 0 01-.661.29zm-8.857 1.43c-.148.18-.265.377-.347.584l-1.511.104-.19-.791 1.041-.459a.957.957 0 00.4.412c.18.1.392.153.607.15z"/><path d="M194.486 21.083a1.228 1.228 0 01-.607-.15.957.957 0 01-.4-.412c.826-.452 1.71-.195 2.569-.209-.05.223-.107.438-.182.653l-1.38.118z"/><path d="M195.867 20.965c.075-.215.132-.43.182-.652.182.097.504.2.504.298.008.368-.347.375-.686.354z"/></g><defs><clipPath id="clip0"><path fill="#fff" transform="translate(.846 .208)" d="M0 0h210v50H0z"/></clipPath></defs></svg>