<svg width="86" height="36" fill="none" xmlns="http://www.w3.org/2000/svg"><g clip-path="url(#clip0)" fill="#EE3823"><path d="M37.57 35.014H24.526c-.408-.333-.869-.508-1.337-.508-.469 0-.93.175-1.338.508h-.334c-.218-.803-.669-.404-1.04-.438-1.977-.126-3.936-.569-5.923-.486a4.08 4.08 0 01-1.956-.418c-.746-.37-1.037 1.25-1.789.9-.418-.74-1.003-.555-1.535-.53-.859.106-1.72-.14-2.488-.71-.832-.768-1.74-1.348-2.692-1.721-.323-.106-.621-.336-.863-.666-1.615-2.406-3.217-4.861-3.177-8.56.128-.973.261-1.892.382-2.844a9.186 9.186 0 01.822-2.601c.455-1.026 1.261-1.21 1.856-1.852 1.72-1.857 3.722-2.46 5.749-2.752 1.15-.165 2.39.098 3.317 1.396.244.34.425.486.692.204a.507.507 0 01.171-.16.347.347 0 01.396.037.592.592 0 01.156.19c.187.306.446.497.725.536 1.933.223 3.846.782 5.799.685.833-.044 1.702-.248 2.491.024 2.09.72 4.167.083 6.24.073 2.074-.01 4.087-.37 6.13-.588 1.712-.19 3.451-.19 5.133-.642 2.435-.646 4.886-1.171 7.324-1.832 4.628-1.254 9.19-2.849 13.73-4.623a3.853 3.853 0 011.14-.287 38.045 38.045 0 009.227-1.458c.81-.253 1.639-.355 2.458-.53.562-.117.793.131.726 1.05-.04.554.381.394.639.408v.486c-.422-.063-.706.39-1.06.579-.245.136-.275.462-.218.797.087.52.335.569.629.423.2-.122.412-.204.629-.243a.418.418 0 01.223.089c.07.052.13.127.178.217a.769.769 0 01.045.46.622.622 0 01-.083.205.396.396 0 01-.136.132c-.237.175-.525.214-.776.365-.736.447-1.572.656-2.167 1.77 1.385.665 2.742.558 4.07.753l-.024.675c-1.003.34-1.003.34-.729 1.459l-.314.078c-.254.063-.605.087-.511.617.093.53.384.32.621.136.094-.073.194-.126.291-.185.502-.491 1.112-.69 1.71-.554l-.044.525.033-.043c-.314.072-.441.32-.361.777.02.564.264.802.609.895-.412 1.55-.408 1.56-1.338 2.498-1.542 1.541-3.07 3.121-4.642 4.594-1.501 1.474-3.138 2.634-4.862 3.447-3.38 1.458-6.815 2.64-10.27 3.694a98.102 98.102 0 01-13.607 3.111h-3.691l-1.492-.048a.358.358 0 00-.312.108.717.717 0 00-.19.378zm39.744-17.218c-.104-.132-.167-.292-.248-.307a.173.173 0 00-.114 0 .232.232 0 00-.102.074.38.38 0 00-.068.133.505.505 0 00-.02.163c0 .063.074.194.094.184.15-.043.294-.155.458-.247z"/><path d="M10.816 35.014v-.457c.753.35 1.044-1.268 1.79-.899a4.08 4.08 0 001.956.418c1.986-.068 3.946.374 5.922.486.035.14.048.29.037.438l-9.705.014zm11.036 0c.409-.332.87-.507 1.337-.507.469 0 .93.175 1.338.507h-2.675zm21.402-.437v.437h-2.34c-.01-.15.002-.3.036-.442l2.304.005zm-5.685.437a.716.716 0 01.19-.377.358.358 0 01.312-.109l1.495.025c.006.152.006.304 0 .456l-1.997.005zm47.486-24.791l-1.003.695c-.084-1.172.435-1.235 1.003-1.181v.486z"/><path d="M39.575 35.014a5.198 5.198 0 000-.457h1.384a1.509 1.509 0 00-.037.442l-1.347.015zm-19.062 0a1.387 1.387 0 00-.036-.438c.37.034.822-.364 1.04.438h-1.004zm60.863-35c0 .296.036.792-.168.792-.204 0-.153-.486-.167-.792h.335zm-3.659 15.04c-.597-.136-1.207.062-1.709.554l-.087-.646c-.277-1.128-.277-1.128.73-1.459l.742-.262c0 .462-.204.996.21 1.322l.078.554.036-.063zm1.652.938c-.451.442-.846 1.016-1.398 1.215-.334-.092-.588-.33-.608-.894.137-.238.421-.34.361-.778l-.034.044c.288.063.582.155.73-.37.377-.223.668.2.976.331-.027.15-.027.301-.027.452z"/><path d="M77.393 13.23l-.742.263.023-.675c.176-.247.387-.437.617-.556.231-.12.477-.168.72-.14v.555l-.618.554zM76.36 6.893c-.248.676-.67.379-1.027.379v-.486c.224-.724.669-.38 1.003-.423l.024.53zm-.438 8.07l.087.646c-.097.058-.198.112-.291.185-.238.184-.529.403-.622-.137-.094-.54.257-.554.511-.617l.315-.078zm2.48.247c-.146.525-.44.433-.728.37l.043-.525-.037.053.612-.073c.016 0 .031.003.046.012a.118.118 0 01.038.039c.01.016.018.036.023.057a.226.226 0 01.004.067zm-1.09 2.586c-.163.093-.307.18-.457.248-.02 0-.097-.121-.094-.184a.508.508 0 01.02-.164.379.379 0 01.068-.132.23.23 0 01.102-.074.173.173 0 01.114 0c.08.024.144.175.248.306z"/><path d="M77.697 15.535c.06.438-.224.54-.361.778-.07-.457.057-.705.361-.778zm2.006-10.66c.201-.7.64-.448 1.004-.52v.554c-.582 1.127-.65 1.152-1.395.486.21-.034.365-.195.391-.52zm.335 6.32c-.458 1.088-1.421.757-2.007 1.496v-.554c.525-.943 1.254-1.026 2.007-.943zm.746-4.862c.22 0 .511-.039.521.36.017.71-.408.588-.709.651-.22.044-.491 0-.505-.374-.026-.72.402-.569.693-.637zm-4.425.559v-.525c.422-.277.83-.627 1.338-.544.02.16.02.325 0 .486-.445.233-.84.632-1.338.583z"/><path d="M77.697 6.299c.02-.161.02-.325 0-.486.335-.822.87-.375 1.318-.486l.037.053a1.94 1.94 0 01-.602.695c-.235.16-.493.237-.753.224zm4.682 3.923h-1.087c.114-.277.314-.365.488-.53.529-.491.642-.195.599.53zm0 2.012a1.34 1.34 0 01.038-.646.858.858 0 01.317-.457l.668.073c0 .641-.642.364-.668.972l-.355.058zm-1.672-7.33V4.35c.08-.37.308-.564.488-.355.301.355-.11.452-.197.666-.057.116-.187.165-.291.243zm1.184-2.314a.887.887 0 01.132.272 1.143 1.143 0 010 .652.887.887 0 01-.132.272.819.819 0 01-.141-.269 1.092 1.092 0 010-.659.819.819 0 01.14-.268z"/><path d="M79.704 4.875c-.026.33-.18.486-.38.535-.09.007-.181.007-.272 0l-.036-.054c.087-.636.414-.48.688-.48zm3.01 5.834a.336.336 0 01-.228-.155.661.661 0 01-.106-.332.327.327 0 01.23.153.65.65 0 01.104.334zm1.107.51h-.438c-.03-.248.04-.486.2-.486.074.02.151.316.238.486zm-3.113 3.378c.067-.578.434-.486.668-.622 0 .676-.334.661-.668.622z"/><path d="M80.039 15.108c.087-.583.408-.52.702-.53-.074.67-.401.583-.702.53zm-5.892 9.387a.642.642 0 01.277-.122c.054 0 .097.16.147.248a.618.618 0 01-.264.127c-.057-.01-.104-.16-.16-.253zm8.233-12.26l.334-.068a.769.769 0 01-.102.335.43.43 0 01-.216.19 5.657 5.657 0 01-.016-.457z"/><path d="M79.705 15.593c-.054-.423.13-.486.354-.53.047.418-.1.55-.354.53z"/><path d="M79.37 15.54l.334.025c0 .374-.14.486-.368.428.033-.151.033-.302.033-.453zm2.648-1.915c.022-.14.068-.268.133-.376a.635.635 0 01.241-.236.797.797 0 01-.107.41.406.406 0 01-.267.202zm-3.585 1.002c-.06.125-.107.263-.14.408l-.613.073-.077-.554.422-.321c.033.117.09.218.162.288a.35.35 0 00.246.106z"/><path d="M78.433 14.626a.346.346 0 01-.245-.106.638.638 0 01-.163-.288c.335-.316.693-.136 1.04-.146-.02.156-.043.306-.073.457l-.559.083z"/><path d="M78.992 14.544c.03-.15.054-.302.074-.457.073.068.204.14.204.209.003.258-.14.262-.278.248z"/></g><defs><clipPath id="clip0"><path fill="#fff" transform="translate(.055 .014)" d="M0 0h85v35H0z"/></clipPath></defs></svg>