<svg width="47" height="47" fill="none" xmlns="http://www.w3.org/2000/svg"><path fill-rule="evenodd" clip-rule="evenodd" d="M30.779 0a1.916 1.916 0 000 3.832h11.623v11.622a1.916 1.916 0 103.832 0V1.916A1.916 1.916 0 0044.318 0h-13.54zM0 15.453a1.916 1.916 0 003.832 0V3.832h11.622a1.916 1.916 0 100-3.832H1.916A1.916 1.916 0 000 1.915v13.538zM15.453 47a1.916 1.916 0 000-3.831H3.832V31.546a1.916 1.916 0 10-3.832 0v13.538C0 46.142.857 47 1.915 47h13.538zm30.781-15.453a1.916 1.916 0 00-3.831 0v11.622H30.78a1.916 1.916 0 100 3.831h13.538a1.916 1.916 0 001.916-1.915V31.547zm-23.117 6.768c8.112 0 14.688-6.575 14.688-14.687 0-8.112-6.576-14.688-14.688-14.688-8.112 0-14.687 6.576-14.687 14.688 0 8.112 6.575 14.687 14.687 14.687zm0-3.32c6.278 0 11.367-5.09 11.367-11.367 0-6.278-5.09-11.367-11.367-11.367-6.278 0-11.367 5.089-11.367 11.367 0 6.277 5.09 11.367 11.367 11.367z" fill="#343330" fill-opacity=".8"/></svg>