<svg width="14" height="12" fill="none" xmlns="http://www.w3.org/2000/svg"><path d="M12.54.648H1.627C.874.648.262 1.261.262 2.014v8.371c0 .752.612 1.364 1.364 1.364H12.54c.752 0 1.364-.612 1.364-1.364V2.013c0-.753-.612-1.365-1.364-1.365zM1.064 2.014c0-.31.253-.563.563-.563H12.54c.31 0 .562.252.562.562v.686a1.355 1.355 0 00-.562-.122H1.627a.563.563 0 01-.563-.563zm11.476 8.933H1.626a.562.562 0 01-.562-.562V3.26c.175.08.366.12.563.12H12.54c.31 0 .562.253.562.562V5.66H10.24a1.505 1.505 0 00-.004 3.008h2.866v1.718c0 .31-.252.562-.562.562zm.562-3.082h-1.526a1.5 1.5 0 000-1.404h1.526v1.404zm-2.856-1.404a.703.703 0 11-.001 1.406.703.703 0 01.001-1.406z" fill="#5CAF51"/></svg>